/* XPM */
static char *xpm_icon_twod[] = {
/* columns rows colors chars-per-pixel */
"64 64 83 1",
"  c #000000",
". c #0B0101",
"X c #0A0909",
"o c #130101",
"O c #1C0303",
"+ c #150A0A",
"@ c #191515",
"# c #230202",
"$ c #2A0303",
"% c #270909",
"& c #330303",
"* c #3B0303",
"= c #3D1313",
"- c #343434",
"; c #3C3C3C",
": c #440303",
"> c #4B0404",
", c #490D0D",
"< c #520404",
"1 c #5C0303",
"2 c #5A1C1C",
"3 c #620606",
"4 c #6C0404",
"5 c #640808",
"6 c #750606",
"7 c #7C0505",
"8 c #720808",
"9 c #7A0909",
"0 c #651717",
"q c #732929",
"w c #444444",
"e c #4C4C4C",
"r c #555555",
"t c #5D5D5D",
"y c gray38",
"u c #797979",
"i c #830505",
"p c #8E0505",
"a c #830909",
"s c #8C0A0A",
"d c #940606",
"f c #9A0505",
"g c #950A0A",
"h c #9C0B0B",
"j c #A20606",
"k c #AC0606",
"l c #A20B0B",
"z c #AB0C0C",
"x c #B30606",
"c c #B30C0C",
"v c #A31212",
"b c #B01616",
"n c #8B2121",
"m c #A93434",
"M c #CC0707",
"N c #C30D0D",
"B c #CB0D0D",
"V c #D30303",
"C c #D40E0E",
"Z c #DA0C0C",
"A c #D11414",
"S c #DF1313",
"D c #E30B0B",
"F c #EC0C0C",
"G c #FE0404",
"H c #F30B0B",
"J c #FB0B0B",
"K c #E31212",
"L c #ED1212",
"P c #F51111",
"I c #FA1111",
"U c #F91919",
"Y c #D92626",
"T c #E82222",
"R c #F72121",
"E c #8D8D8D",
"W c gray57",
"Q c #9D9D9D",
"! c #D6D6D6",
"~ c #E1E1E1",
"^ c gray96",
"/ c #FFFFFF",
"( c None",
/* pixels */
"((((((((((((((((((((((((((((((((((((((((((((((((((((((((((((((((",
"((((((((((((((((((((((((((((((((((((((((((((((((((((((((((((((((",
"((((((((((((((((((((((((((((((((((((((((((((((((((((((((((((((((",
"((((((((((((((((((((((((((((((((((((((((((((((((((((((((((((((((",
"((((((////////////////////////////////////////////////////((((((",
"(((((//////////////////////////////////////////////////////(((((",
"((((////QQQQQQQQQQQQQQQQQQQQQQQQQQQQQQQQQQQQQQQQQQQQQQQQ////((((",
"((((//~QQ                                              QQ///((((",
"((((//Q                                                 QQ//((((",
"((((//Q                                                  Q//((((",
"((((//Q                  <O                              Q//((((",
"((((//Q                  D<                              Q//((((",
"((((//Q     wt           F<                              Q//((((",
"((((//Q    e!/e          J4   g6                         Q//((((",
"((((//Q   -////-         J4   ZB                         Q//((((",
"((((//Q  ;!////^-        Jd   ZZ                         Q//((((",
"((((//Q     //           Jx   DH                         Q//((((",
"((((//Q     //           Jf   DH                         Q//((((",
"((((//Q     //           Jp   FH.                        Q//((((",
"((((//Q     //          &J6   FIs                        Q//((((",
"((((//Q     //          :Ji   HIZ                        Q//((((",
"((((//Q     //          >Jd   HIF     =                  Q//((((",
"((((//Q     //          :Jj   FIH     ,                  Q//((((",
"((((//Q     //          3Jk   FII    O<.                 Q//((((",
"((((//Q     //          DHZ  .HJJ    oV=                 Q//((((",
"(((E//Q     //          DJZo OJIJ    gJY                 Q//((((",
"(((E//Q     //          DJZ* >JLIo   LRU+                Q//((((",
"((((//Q     //          FJD* 4JcJU  5ILR2                Q//((((",
"((((//Q     // +       OJoH* dJ8JJ  LIsIU  XL    ..      Q//((((",
"((((//Q     // v    Z  JJoJ* CJ3JJO LI.UI  0Ib$  CN      Q//((((",
"((((//Q     // B   zI CILoJ$ FJoIJg II sIo IIIh  PI. +@  Q//((((",
"((((//Q     //DPPPIIIIIC&.J6 DJ KIKoIP *I. IIII$>II4hCJ  Q//((((",
"((((//Q     //gBDacPDl9  .HC JJ OPK#IL .IZ ILAIPJIIIIGJ  Q//((((",
"((((//Q     //     ,      MF HJ  IL&Ic .II<IZXIISnTIqX   Q//((((",
"((((//Q     //            JH.JF  IIIIO  IIPPs %Pz Xm     Q//((((",
"((((//Q     //            JHsJz  sIIFo  BIICa  3#        Q//((~~",
"((((//Q     //            ZJZJ>   zI<   .PI9.            Q//((~~",
"((((//Q     //            7JJJO X hI     gLg             Q//((~(",
"((((//Q     //            <JJF    .C      B8             Q//E~~(",
"((((//Q     //            *JJd     :                     Q//((((",
"((((//Q     //            $JH7                           Q//((((",
"((((//Q     //            oHH1                           Q//((((",
"((((//Q     //            oHH&                           Q//((((",
"((((//Q     //            oHJ.                           Q//((((",
"((((//Q     //            oHJ                            Q//((((",
"((((//Q     //            .Fi                            Q//((((",
"((((//Q     //             Z4                            Q//((((",
"((((//Q     //             D:                     -      Q//((((",
"((((//Q     //             Z#                     /w     Q//((((",
"((((//Q     //                                    /^e    Q//((((",
"((((//Q     /////////////////////////////////////////t   Q//((((",
"((((//Q     /////////////////////////////////////////r   Q//((((",
"((((//Q                                           /^y    Q//((((",
"((((//Q                                           /W     Q//((((",
"((((//Q                                           u      Q//((((",
"((((//Q                                                  Q//((((",
"((((//QQ                                                QQ//((((",
"((((///QQ                                              QQ///((((",
"((((////QQQQQQQQQQQQQQQQQQQQQQQQQQQQQQQQQQQQQQQQQQQQQQQQ////((((",
"(((((//////////////////////////////////////////////////////(((((",
"((((((////////////////////////////////////////////////////((((((",
"((((((((((((((((((((((((((((((((((((((((((((((((((((((((((((((((",
"((((((((((((((((((((((((((((((((((((((((((((((((((((((((((((((((",
"(((((((((((((((((((((((((((((((((((((((((((((((((((((((((((((((("
};
