/* XPM */
static char *xpm_icon_nospin__[] = {
/* columns rows colors chars-per-pixel */
"32 32 255 2",
"   c #000400010000",
".  c #00C200140014",
"X  c #006900690081",
"o  c #001200E500DC",
"O  c #00EE00EE00E8",
"+  c #032A00310031",
"@  c #012C012C01A5",
"#  c #0000019F0253",
"$  c #0000026102E5",
"%  c #023302310243",
"&  c #026602CD0344",
"*  c #033D033D034A",
"=  c #0449004F004F",
"-  c #04A600710071",
";  c #000003A30429",
":  c #0257042F03ED",
">  c #00C805440665",
",  c #03AB03AB03AC",
"<  c #04D605320674",
"1  c #0599059905A3",
"2  c #080F00900090",
"3  c #0A6600420035",
"4  c #0A4100B200B3",
"5  c #0C5F00E000E0",
"6  c #051709890B17",
"7  c #092D09400AF3",
"8  c #0AB50AB50C17",
"9  c #085D0CD90EFB",
"0  c #0C940C860F0F",
"q  c #0D440D440F56",
"w  c #112101270127",
"e  c #14F50045002F",
"r  c #13E8016A016A",
"t  c #165901830183",
"y  c #1177066C076C",
"u  c #19EC00AC00AC",
"i  c #1B6C00C500C5",
"p  c #1B4801C701C7",
"a  c #1C1D00D100D1",
"s  c #1DD7095B0941",
"d  c #0B990DC30FF1",
"f  c #0F3D0F3D116F",
"g  c #0F0A0F0A11D2",
"h  c #0FEE0FE0131D",
"j  c #11071107144B",
"k  c #12FE12FE1688",
"l  c #14F117051A16",
"z  c #14B818141B70",
"x  c #18C819241D58",
"c  c #1AF11AF11CBE",
"v  c #248D014A014A",
"b  c #362503BB03BB",
"n  c #3AE904100410",
"m  c #32111E8E1E82",
"M  c #201220122337",
"N  c #263026302AC7",
"B  c #26CD29382C5F",
"V  c #2AE62AE62D6B",
"C  c #2CC22CBF315B",
"Z  c #3346334636B1",
"A  c #47C804D904D9",
"S  c #49B804F004EE",
"D  c #4A3F050F04FE",
"F  c #4F0D055A055A",
"G  c #4D9307C609D1",
"H  c #52580433040A",
"J  c #522C05910591",
"K  c #530205AF05B1",
"L  c #53DD05AD05AD",
"P  c #55C005F005F0",
"I  c #575208140832",
"U  c #54CA0C780C6A",
"Y  c #6FF906800680",
"T  c #7BAA01B90175",
"R  c #7C5F026D022D",
"E  c #7C7505030503",
"W  c #7DD1050A050A",
"Q  c #7E2F043D041F",
"!  c #7E7D048C047B",
"~  c #7EA904EF04EA",
"^  c #7F14051F051F",
"/  c #35F13A6D415E",
"(  c #44953DE2448C",
")  c #469146914BA6",
"_  c #466B466B4C8C",
"`  c #49D74E5356DE",
"'  c #4FEC4FEC587F",
"]  c #573657365F4E",
"[  c #69CB56F55EEB",
"{  c #5914591460FD",
"}  c #58C458C46291",
"|  c #611A611A69C8",
" . c #750662306CB4",
".. c #6B8B6B8B6FF4",
"X. c #6C1A6C1A75D7",
"o. c #6D636D637AC1",
"O. c #774677467E03",
"+. c #89CA05130513",
"@. c #8A50051C051C",
"#. c #8712092C092C",
"$. c #959E05C205C2",
"%. c #A508078B073C",
"&. c #A4180A470A47",
"*. c #A6E409610962",
"=. c #A44C0A450A45",
"-. c #A6D40B4E0B4E",
";. c #A8B60B720B72",
":. c #AB950A9F0B36",
">. c #AC690AB80A61",
",. c #AD820BB60BB3",
"<. c #AF290BDD0BDD",
"1. c #B2FD08FB08FB",
"2. c #B21F0ADC0AD5",
"3. c #BA670C980C98",
"4. c #B05212AC1404",
"5. c #8B2236813993",
"6. c #A99921A32331",
"7. c #C84909F209F2",
"8. c #D40F1C9F1C9F",
"9. c #D4651CA41CA4",
"0. c #DA6C18A118A1",
"q. c #D8DD1B561B56",
"w. c #E5600BDB0BA1",
"e. c #E7800D270D0B",
"r. c #E47B0F830F83",
"t. c #E8E30EBD0EB7",
"y. c #F5CD00BF00BF",
"u. c #F55C03DC03DC",
"i. c #FB15059B059B",
"p. c #F2DB0E940E52",
"a. c #F6A00D100D10",
"s. c #F5490F710F71",
"d. c #FD150E4F0E2F",
"f. c #FCA50F3E0F20",
"g. c #FD7E0EF80EA5",
"h. c #FEFC0E2C0E2C",
"j. c #FFE10E240E0C",
"k. c #FEDE0F760EF9",
"l. c #E7FF0FBD0FBD",
"z. c #E8F30FE80FEE",
"x. c #EB1F0FE90FE9",
"c. c #EB730FD80FD6",
"v. c #ED1F1CB51CB5",
"b. c #F2440FE70FCE",
"n. c #F32D107D1076",
"m. c #F3D810841084",
"M. c #F5D210A610A6",
"N. c #F1D914331611",
"B. c #FE5B11621162",
"V. c #FE7B116F11DE",
"C. c #F6141635190E",
"Z. c #F6DF1B94211A",
"A. c #C0CF236A235C",
"S. c #C41122892285",
"D. c #CBA733433C75",
"F. c #FC4C21E922BC",
"G. c #FD17245A2769",
"H. c #FFFF26D52671",
"J. c #F5922D6B30F0",
"K. c #F5282DA436AE",
"L. c #8A0E3C783FC9",
"P. c #B2485B345D8B",
"I. c #9F015F7F6811",
"U. c #9EF462FE6C5B",
"Y. c #B69468F86FA3",
"T. c #D8D640004000",
"R. c #DA0F3FF73FF7",
"E. c #D9275F5B5F5B",
"W. c #FBA248344CDA",
"Q. c #EF2D518655BF",
"!. c #F78A5ACD5D40",
"~. c #D30E671D671D",
"^. c #D65D67746774",
"/. c #D8EB60356035",
"(. c #D9E1622E622E",
"). c #DB7762D462D4",
"_. c #DCF361506150",
"`. c #DCBF62CA62CA",
"'. c #C88A7EF87EF8",
"]. c #C86E7F587F58",
"[. c #FD93607560BA",
"{. c #778C778C81D3",
"}. c #7B6B7E2E80F6",
"|. c #7F6D7E288921",
" X c #A4DA78A8866B",
".X c #88F28B5D8D98",
"XX c #8F4E8F4E93C2",
"oX c #91CC91CC9CE2",
"OX c #958D958A9C77",
"+X c #997999799CD3",
"@X c #A024A024A260",
"#X c #A2E3A5C2AAE8",
"$X c #B018B018B7C1",
"%X c #B281B281BC91",
"&X c #B4FBB4FBBEA0",
"*X c #C8C3836E836E",
"=X c #C46EAF3EAF3E",
"-X c #C86EB361B361",
";X c #D4FDB775B8FF",
":X c #DA2AC006C006",
">X c #DB9CC01FC01F",
",X c #FE9CB215B1EA",
"<X c #B9C5B9C5C140",
"1X c #BE13BE13C7E6",
"2X c #BF4FBF4FC6EC",
"3X c #BF3BBF3BC7D1",
"4X c #EE04B99ACB55",
"5X c #C47CC46FCE61",
"6X c #DBDDC0BFC0BF",
"7X c #D823CD69CD69",
"8X c #D85DCD70CD70",
"9X c #CAD3CCE6D9D8",
"0X c #D24AD2A2DB80",
"qX c #D69DD69DDE47",
"wX c #DCFCDCFCDCFC",
"eX c #DFB9E014E014",
"rX c #E061E05EE05E",
"tX c #EF9FDACBDAB5",
"yX c #F96ED770E038",
"uX c #DBACDBACE27F",
"iX c #DF28DF28E2D3",
"pX c #DF7ADFD6EB5B",
"aX c #E16BE164E22F",
"sX c #E270E270E4C7",
"dX c #E4BCE4B3E4B3",
"fX c #E29AE29AE91E",
"gX c #E724E724EA66",
"hX c #E64AE646EAD6",
"jX c #E919EA12EA12",
"kX c #E8A7EA9AEA9A",
"lX c #EC91EC84EC84",
"zX c #FF1CE925E9FE",
"xX c #FE9BEB9AEBD8",
"cX c #EF6FEF6FF46F",
"vX c #ECA3F10AF10A",
"bX c #EE9FF0EEF254",
"nX c #EEB2F1ADF1AD",
"mX c #F2A5F3CAF3CA",
"MX c #F48DF0ACF23C",
"NX c #F3F8F3F8F786",
"BX c #F3F9F51FF51F",
"VX c #F622F646F646",
"CX c #F670F66DF815",
"ZX c #F5A6F763F763",
"AX c #F606F7C0F7C0",
"SX c #F68CF6B0F6B0",
"DX c #F654F654F884",
"FX c #F6E6F6E6F92C",
"GX c #FA52FA52FC2B",
"HX c #FBA7FBA7FCC0",
"JX c #FC32FC32FDFF",
"KX c #FBA2FD4AFE2F",
"LX c #FDAAFDAAFEDF",
"PX c #FFFDFFFDFFFF",
"IX c None",
/* pixels */
"IXIXIXIXIXIXIXIXIXIXIXIXIXIXIXIXIXIXIXIXIXIXIXIXIXIXIXIXIXIXIXIX",
"IXIXwXdXjXkXkXkXkXkXkXkXkXkXkXkXkXkXkXkXkXkXkXkXkXkXkXjXdXwXIXIX",
"IXIXlXZX8X>X6X6X6X6X6X6X6X6X6X6X6X6X6X6X6X6X6X6X6X6X:X7XAXlXIXIX",
"IXIXmX=XT.q.8.9.9.9.9.9.9.9.9.9.9.9.9.9.9.9.9.9.8.9.v.R.-XBXIXIX",
"IXIXvX^.1.v i a a a a a a a a a a a a a a a a a u Y s.h.~.vXIXIX",
"IXIXvX`.^                     .                 J l.r.7.(.vXIXIX",
"IXIXvX`.^                   . - +             L z.z.F ^ `.vXIXIX",
"IXIXvX`.^                   p P n +         L z.z.L   ^ `.vXIXIX",
"IXIXvX`.^                   A x.-.4       L z.z.L     ^ `.vXIXIX",
"IXIXvX`.^                   D m.,.4     L z.z.L       ^ `.vXIXIX",
"IXIXvX`.^                   S n.,.4   L z.z.L         ^ `.vXIXIX",
"IXIXvX`.^                   D n.>.3 K t.e.H           ^ `.vXIXIX",
"IXIXvX`.^       @ g V } o.}.U.C.D.5.w.F.L.l <         ^ `.vXIXIX",
"IXIXvX`.^   @ N O.3XgXGXPXPX4XZ.K.G.H.,XbX0XOX_ 8     ^ `.vXIXIX",
"IXIXvX`.~ $ ] qXLXPXHXuX1X#XI.N.k.z.Y.9XpXCXPXiX{.k   ^ `.vXIXIX",
"IXIXvX`.R / fXPXJX2X..M h 6 U b.c.I d x C | <X@X+X' ; ~ `.vXIXIX",
"IXIXvX`.T ` NXPXFXX.j % : s S.j.2.5   X O 1 ) sXPXXX> ! `.vXIXIX",
"IXIXvX`.Q 9 oXDXPXcX5X.X[ 4.f.W.6.3 o @ , @ M %X$XZ   ^ `.vXIXIX",
"IXIXvX`.^   q { &XhXKXxX!.V.[.zX;X( & O X % * c f     ^ `.vXIXIX",
"IXIXvX`.^     X 0 B  .Q.g.A.tXPXMX|.7   X % X         ^ `.vXIXIX",
"IXIXvX`.^         e %.d.*.m aXyXP.y                   ^ `.vXIXIX",
"IXIXvX`.^       t ;.B.;.e z  XJ.:.3                   ^ `.vXIXIX",
"IXIXvX`.^     t ;.B.;.t   # G p.,.4                   ^ `.vXIXIX",
"IXIXvX`.^   t ;.B.;.t       D M.<.4                   ^ `.vXIXIX",
"IXIXvX`.W w ;.B.;.t         b 3.#.2                   ^ `.vXIXIX",
"IXIXvX).$.&.B.;.t           = w 5 .                   ^ `.vXIXIX",
"IXIXvXE.y.i.=.r                                       @._.vXIXIX",
"IXIXnX'.a.u.$.E ^ ^ ^ ^ ^ ^ ^ ^ ^ ^ ^ ^ ^ ^ ^ ^ ^ ~ +.0.*XnXIXIX",
"IXIXVXeX]./.).`.`.`.`.`.`.`.`.`.`.`.`.`.`.`.`.`.`.`._.*XeXVXIXIX",
"IXIXrXSXnXvXvXvXvXvXvXvXvXvXvXvXvXvXvXvXvXvXvXvXvXvXvXnXSXrXIXIX",
"IXIXeXIXIXIXIXIXIXIXIXIXIXIXIXIXIXIXIXIXIXIXIXIXIXIXIXIXIXeXIXIX",
"IXIXIXIXIXIXIXIXIXIXIXIXIXIXIXIXIXIXIXIXIXIXIXIXIXIXIXIXIXIXIXIX"
};
