/* XPM */
static char *xpm_icon_record[] = {
/* columns rows colors chars-per-pixel */
"64 64 70 1",
"  c black",
". c #020202",
"X c #030202",
"o c #040303",
"O c #050404",
"+ c #0C0909",
"@ c #0E0B0B",
"# c #120D0D",
"$ c #150F0F",
"% c #180A0A",
"& c #1E0D0D",
"* c #151010",
"= c #191212",
"- c #270C0C",
"; c #291212",
": c #2D1313",
"> c #3A1919",
", c #312323",
"< c #450D0D",
"1 c #401C1C",
"2 c #5D1111",
"3 c #581B1B",
"4 c #581C1C",
"5 c #5C1C1C",
"6 c #761616",
"7 c #452121",
"8 c #4A2121",
"9 c #4A2222",
"0 c #4C2121",
"q c #4F2424",
"w c #5C2828",
"e c #743232",
"r c #7D3535",
"t c #831919",
"y c #871919",
"u c #8C1A1A",
"i c #961C1C",
"p c #9A1D1D",
"a c #BA0000",
"s c #B72222",
"d c #B82525",
"f c #D20000",
"g c #D70000",
"h c #D80000",
"j c #DC0000",
"k c #DD0000",
"l c #E60000",
"z c #EF0000",
"x c #F10000",
"c c #F30000",
"v c #F40000",
"b c #F50000",
"n c #F60000",
"m c #F90000",
"M c #FB0000",
"N c red",
"B c #FF0606",
"V c #FF0F0F",
"C c #FC1212",
"Z c #FF1818",
"A c #FF1E1E",
"S c #C12727",
"D c #FC2F2F",
"F c #FC3232",
"G c #FF3333",
"H c #984040",
"J c #9D9D9D",
"K c gray78",
"L c gray100",
"P c None",
/* pixels */
"PPPPPPPPPPPPPPPPPPPPPPPPPPPPPPPPPPPPPPPPPPPPPPPPPPPPPPPPPPPPPPPP",
"PPPPPPPPPPPPPPPPPPPPPPPPPPPPPPPPPPPPPPPPPPPPPPPPPPPPPPPPPPPPPPPP",
"PPPLLKKKKKKKKKKKKKKKKKKKKKKKKKKKKKKKKKKKKKKKKKKKKKKKKKKKKKKLLPPP",
"PPPLKKLLLLLLLLLLLLLLLLLLLLLLLLLLLLLLLLLLLLLLLLLLLLLLLLLLLLKKLPPP",
"PPPKKLLLLLLLLLLLLLLLLLLLLLLLLLLLLLLLLLLLLLLLLLLLLLLLLLLLLLLKKPPP",
"PPPKLLLLJJJJJJJJJJJJJJJJJJJJJJJJJJJJJJJJJJJJJJJJJJJJJJJJLLLLKPPP",
"PPPKLLLJJ                                              JJLLLKPPP",
"PPPKLLJJ                                                JJLLKPPP",
"PPPKLLJ                                                  JLLKPPP",
"PPPKLLJ                                                  JLLKPPP",
"PPPKLLJ                                                  JLLKPPP",
"PPPKLLJ                                                  JLLKPPP",
"PPPKLLJ                                                  JLLKPPP",
"PPPKLLJ                                                  JLLKPPP",
"PPPKLLJ                                                  JLLKPPP",
"PPPKLLJ                                                  JLLKPPP",
"PPPKLLJ                                                  JLLKPPP",
"PPPKLLJ                                                  JLLKPPP",
"PPPKLLJ                                                  JLLKPPP",
"PPPKLLJ                                                  JLLKPPP",
"PPPKLLJ                    X%dANAS>o                     JLLKPPP",
"PPPKLLJ                  *txNNNNNbla<X                   JLLKPPP",
"PPPKLLJ                 0MNNNNNNNNNNNf&                  JLLKPPP",
"PPPKLLJ                4MNNNNNNNNNNNNNg-                 JLLKPPP",
"PPPKLLJ               1vNNNNNNNNNNNNNNNb;                JLLKPPP",
"PPPKLLJ              +nNNNNNNNNNNNNNNNNNmX               JLLKPPP",
"PPPKLLJ              yNNNNNNNNNNNNNNNNNNN6               JLLKPPP",
"PPPKLLJ             .kNNNNNNNNNNNNNNNNNNNz@              JLLKPPP",
"PPPKLLJ             qNNNNNNNNNNNNNNNNNNNNN7              JLLKPPP",
"PPPKLLJ             FNNNNNNNNNNNNNNNNNNNNNs              JLLKPPP",
"PPPKLLJ             ZNNNNNNNNNNNNNNNNNNNNNC              JLLKPPP",
"PPPKLLJ             BNNNNNNNNNNNNNNNNNNNNNN              JLLKPPP",
"PPPKLLJ             ZNNNNNNNNNNNNNNNNNNNNNV              JLLKPPP",
"PPPKLLJ             GNNNNNNNNNNNNNNNNNNNNND              JLLKPPP",
"PPPKLLJ             8NNNNNNNNNNNNNNNNNNNNN9              JLLKPPP",
"PPPKLLJ             +MNNNNNNNNNNNNNNNNNNNn@              JLLKPPP",
"PPPKLLJ              uNNNNNNNNNNNNNNNNNNN2               JLLKPPP",
"PPPKLLJ              =MNNNNNNNNNNNNNNNNNMO               JLLKPPP",
"PPPKLLJ               wMNNNNNNNNNNNNNNNMe                JLLKPPP",
"PPPKLLJ                5MNNNNNNNNNNNNNM3                 JLLKPPP",
"PPPKLLJ                 :cNNNNNNNNNNNM0                  JLLKPPP",
"PPPKLLJ                  $phNNNNNNNji,                   JLLKPPP",
"PPPKLLJ                    oHGZNZGr#                     JLLKPPP",
"PPPKLLJ                                                  JLLKPPP",
"PPPKLLJ                                                  JLLKPPP",
"PPPKLLJ                                                  JLLKPPP",
"PPPKLLJ                                                  JLLKPPP",
"PPPKLLJ                                                  JLLKPPP",
"PPPKLLJ                                                  JLLKPPP",
"PPPKLLJ                                                  JLLKPPP",
"PPPKLLJ                                                  JLLKPPP",
"PPPKLLJ                                                  JLLKPPP",
"PPPKLLJ                                                  JLLKPPP",
"PPPKLLJ                                                  JLLKPPP",
"PPPKLLJ                                                  JLLKPPP",
"PPPKLLJJ                                                JJLLKPPP",
"PPPKLLLJJ                                              JJLLLKPPP",
"PPPKLLLLJJJJJJJJJJJJJJJJJJJJJJJJJJJJJJJJJJJJJJJJJJJJJJJJLLLLKPPP",
"PPPKKLLLLLLLLLLLLLLLLLLLLLLLLLLLLLLLLLLLLLLLLLLLLLLLLLLLLLLKKPPP",
"PPPLKKLLLLLLLLLLLLLLLLLLLLLLLLLLLLLLLLLLLLLLLLLLLLLLLLLLLLKKLPPP",
"PPPLLKKKKKKKKKKKKKKKKKKKKKKKKKKKKKKKKKKKKKKKKKKKKKKKKKKKKKKLLPPP",
"PPPPPPPPPPPPPPPPPPPPPPPPPPPPPPPPPPPPPPPPPPPPPPPPPPPPPPPPPPPPPPPP",
"PPPPPPPPPPPPPPPPPPPPPPPPPPPPPPPPPPPPPPPPPPPPPPPPPPPPPPPPPPPPPPPP",
"PPPPPPPPPPPPPPPPPPPPPPPPPPPPPPPPPPPPPPPPPPPPPPPPPPPPPPPPPPPPPPPP"
};
