/* XPM */
static char * xpm_vert_zoom_out32_xpm[] = {
"32 32 295 2",
"  	c None",
". 	c #FFFFFF",
"+ 	c #D0D0D0",
"@ 	c #E3E3E3",
"# 	c #E1E1E1",
"$ 	c #BFBFBF",
"% 	c #F4F4F4",
"& 	c #CFCFCF",
"* 	c #D7D7D7",
"= 	c #D6D5D4",
"- 	c #D4D0CC",
"; 	c #D3CEC9",
"> 	c #D3CEC8",
", 	c #D3CFCA",
"' 	c #D5D2CF",
") 	c #D8D8D8",
"! 	c #D2C7C7",
"~ 	c #D5D0D0",
"{ 	c #C0C0C0",
"] 	c #B9B9B9",
"^ 	c #1D1D1D",
"/ 	c #000000",
"( 	c #00030B",
"_ 	c #204C7F",
": 	c #387ECE",
"< 	c #4191ED",
"[ 	c #4394F1",
"} 	c #3E8BE3",
"| 	c #306EB5",
"1 	c #0F2A49",
"2 	c #4DFFFF",
"3 	c #1F7876",
"4 	c #424242",
"5 	c #295587",
"6 	c #4D9EFA",
"7 	c #4996F1",
"8 	c #49A1EF",
"9 	c #4BADF5",
"0 	c #4AAFF5",
"a 	c #49A8F3",
"b 	c #4899EF",
"c 	c #4B99F5",
"d 	c #4186D5",
"e 	c #0C1A2A",
"f 	c #51FFFF",
"g 	c #267B79",
"h 	c #484848",
"i 	c #3A79C1",
"j 	c #4A96F1",
"k 	c #4AABF4",
"l 	c #4CC6FA",
"m 	c #4DC9FB",
"n 	c #4CC8FB",
"o 	c #4DC7FB",
"p 	c #4DC8FB",
"q 	c #4DCAFB",
"r 	c #4BBBF7",
"s 	c #499AF0",
"t 	c #4B9CF7",
"u 	c #142A43",
"v 	c #356DAD",
"w 	c #4894EE",
"x 	c #4BB7F7",
"y 	c #4CC7FB",
"z 	c #4CC7FA",
"A 	c #499DF0",
"B 	c #0C1A29",
"C 	c #484847",
"D 	c #183251",
"E 	c #4C9BF8",
"F 	c #4AB2F5",
"G 	c #4CC8FA",
"H 	c #4187D7",
"I 	c #454340",
"J 	c #3F81CD",
"K 	c #499EF0",
"L 	c #4CC9FB",
"M 	c #4CC9FA",
"N 	c #4CCAFA",
"O 	c #4CCCFA",
"P 	c #4BBDF5",
"Q 	c #152C47",
"R 	c #546170",
"S 	c #4996F0",
"T 	c #4BB5F5",
"U 	c #4CCBF9",
"V 	c #4DCCFA",
"W 	c #4CCDF9",
"X 	c #4CCFF9",
"Y 	c #4CD0F9",
"Z 	c #4DD1F9",
"` 	c #4DD5F9",
" .	c #4899ED",
"..	c #3267A4",
"+.	c #688AB0",
"@.	c #4892EC",
"#.	c #4DCDFF",
"$.	c #50D6FF",
"%.	c #51D8FF",
"&.	c #51D9FF",
"*.	c #50DAFF",
"=.	c #51DBFF",
"-.	c #50DCFF",
";.	c #51DDFF",
">.	c #50DEFF",
",.	c #50DFFF",
"'.	c #50E0FF",
").	c #50E2FF",
"!.	c #50E3FF",
"~.	c #51E5FF",
"{.	c #49AFF0",
"].	c #6C93BF",
"^.	c #4891EB",
"/.	c #2A6A7C",
"(.	c #070100",
"_.	c #070000",
":.	c #080000",
"<.	c #030000",
"[.	c #4FC7FF",
"}.	c #47A9E7",
"|.	c #298483",
"1.	c #103433",
"2.	c #459E9C",
"3.	c #2B7283",
"4.	c #0C0D0D",
"5.	c #4FC8FF",
"6.	c #4AC5EF",
"7.	c #4FFDF9",
"8.	c #103534",
"9.	c #54FFFF",
"0.	c #3FF8F4",
"a.	c #6583A6",
"b.	c #4791EC",
"c.	c #3BA6BB",
"d.	c #2C7382",
"e.	c #2C7482",
"f.	c #2C7481",
"g.	c #2C7581",
"h.	c #2C7681",
"i.	c #2C7781",
"j.	c #2C7880",
"k.	c #2C7981",
"l.	c #297379",
"m.	c #4CBFF7",
"n.	c #4097D0",
"o.	c #4EFBF5",
"p.	c #3CC0BD",
"q.	c #4CF4F0",
"r.	c #74C8C6",
"s.	c #515A64",
"t.	c #4A97F3",
"u.	c #4BC6F4",
"v.	c #4DDDF6",
"w.	c #4CDEF6",
"x.	c #4CDFF6",
"y.	c #4DE0F6",
"z.	c #4CE2F5",
"A.	c #4CE3F5",
"B.	c #4CE4F5",
"C.	c #4CE5F5",
"D.	c #4CE6F4",
"E.	c #4DE7F5",
"F.	c #4CE8F4",
"G.	c #4CEDF4",
"H.	c #499FEF",
"I.	c #29548A",
"J.	c #3BBDB9",
"K.	c #0C2625",
"L.	c #216A68",
"M.	c #402F2F",
"N.	c #464441",
"O.	c #3975B9",
"P.	c #49AAF0",
"Q.	c #4CE5F4",
"R.	c #4DE6F4",
"S.	c #4CEAF3",
"T.	c #4CEAF4",
"U.	c #4DECF3",
"V.	c #4BDEF1",
"W.	c #4C9AF9",
"X.	c #0F1F31",
"Y.	c #103535",
"Z.	c #37B0AD",
"`.	c #237270",
" +	c #484949",
".+	c #0C1928",
"++	c #4B99F7",
"@+	c #4BD3F2",
"#+	c #4DE7F4",
"$+	c #4CE8F3",
"%+	c #4CE9F4",
"&+	c #4DEBF3",
"*+	c #4CECF3",
"=+	c #4CEDF3",
"-+	c #4CEEF3",
";+	c #4CEFF2",
">+	c #4DF0F3",
",+	c #4CF7F2",
"'+	c #49A4F0",
")+	c #3670B1",
"!+	c #4DF6F2",
"~+	c #20426A",
"{+	c #4B96F6",
"]+	c #4BDFF2",
"^+	c #4DEDF3",
"/+	c #4DEFF3",
"(+	c #4CF0F2",
"_+	c #4DF1F2",
":+	c #4CF2F1",
"<+	c #4DF3F1",
"[+	c #4CF4F2",
"}+	c #4CFAF1",
"|+	c #4AAAF0",
"1+	c #4C9CF7",
"2+	c #03070C",
"3+	c #298381",
"4+	c #4CF5F1",
"5+	c #264F7D",
"6+	c #4C98FA",
"7+	c #4BCEF1",
"8+	c #4DF9F2",
"9+	c #4DF6F1",
"0+	c #4CF7F1",
"a+	c #4DFBF1",
"b+	c #4BEFF0",
"c+	c #4AA8F2",
"d+	c #4791E6",
"e+	c #4A99F4",
"f+	c #4084D1",
"g+	c #12253B",
"h+	c #4082D1",
"i+	c #4C9CF9",
"j+	c #4AC3F0",
"k+	c #4AC7F0",
"l+	c #4AC8F0",
"m+	c #49C7EE",
"n+	c #4AB2F4",
"o+	c #2A588C",
"p+	c #3268A5",
"q+	c #4A98F2",
"r+	c #3873B7",
"s+	c #0D1B2A",
"t+	c #254E7D",
"u+	c #2F609A",
"v+	c #30649F",
"w+	c #2D5C92",
"x+	c #1B3859",
"y+	c #03060A",
"z+	c #30639F",
"A+	c #4B9BF6",
"B+	c #4084D2",
"C+	c #3E80CB",
"D+	c #57FFFF",
"E+	c #267A78",
"F+	c #3A77BD",
"G+	c #4997F0",
"H+	c #4895EC",
"I+	c #448CDE",
"J+	c #3977BC",
"K+	c #4896EE",
"L+	c #4894EB",
"M+	c #438ADB",
"N+	c #010305",
"O+	c #010203",
"P+	c #4289DA",
"Q+	c #4996EF",
"R+	c #4794EA",
"S+	c #438ADC",
"T+	c #000102",
"U+	c #4289D9",
"V+	c #4895ED",
"W+	c #4794EB",
"X+	c #448BDD",
"Y+	c #020407",
"Z+	c #000103",
"`+	c #4288D7",
" @	c #4894EC",
".@	c #4895EE",
"+@	c #4D5257",
"@@	c #070F19",
"#@	c #4793E9",
"$@	c #4996EE",
"%@	c #6F98C6",
"&@	c #717171",
"*@	c #08101A",
"=@	c #4691E6",
"-@	c #3171BB",
";@	c #747679",
">@	c #ECECEC",
",@	c #535E6B",
"'@	c #6E97C5",
")@	c #74777A",
"!@	c #ECECED",
"~@	c #E7E7E7",
"{@	c #CDCDCD",
"                                                                ",
"  . + @ # # # # # # # # # # # # # # # # # # # # # # # # @ + .   ",
"  $ % . & * * * * = - ; > , ' * * * * * * * * ) ! ~ * & . % $   ",
"  { . ] ^ / / / ( _ : < [ } | 1 / / / / / / / / 2 3 / ^ ] . {   ",
"  { . 4 / / / 5 6 7 8 9 0 a b c d e / / / / / / f g / / 4 . {   ",
"  { . h / / i j k l m n o p q r s t u / / / / / f g / / h . {   ",
"  { . h / v w x m p y y y y n z z A t B / / / / f g / / h . {   ",
"  { . C D E F n o y n o y y z y y G s H / / / / f g / / h . {   ",
"  { . I J K L y o n y y G G M N O O P c Q / / / f g / / h . {   ",
"  { . R S T y n n M N U V W X Y Y Z `  .../ / / f g / / h . {   ",
"  { . +.@.#.$.%.&.*.=.-.;.>.,.'.).!.~.{.d / / / f g / / h . {   ",
"  { . ].^./.(.(._._._._._._._.:._._.<.[.}.|./ / f g / 1.2.. {   ",
"  { . ].^.3.4.4.4.4.4.4.4.4.4.4.4.4.:.5.6.7.8./ f g / 9.0.. {   ",
"  { . a.b.c.d.e.f.f.g.g.h.i.i.i.j.k.l.m.n.o.p./ f g g q.r.. {   ",
"  { . s.t.u.v.w.x.x.y.z.A.B.C.D.E.F.G.H.I.J.7.K.f L.9.9.M.. {   ",
"  { . N.O.P.A.A.B.C.Q.R.F.F.S.T.U.U.V.W.X.Y.7.Z.7.Z.7.`. +. {   ",
"  { . h .+++@+#+$+%+S.&+*+=+-+;+>+,+'+)+/ / p.!+!+!+7.8.h . {   ",
"  { . h / ~+{+]+=+^+/+(+_+:+<+[+}+|+1+2+/ / 3+4+!+!+p./ h . {   ",
"  { . h / / 5+6+7+8+[+[+9+0+a+b+c+d+e+f+/ / / 9.!+4+3+/ h . {   ",
"  { . h / / / g+h+i+j+k+l+m+n+6+o+/ p+q+r+/ / g 4+9./ / h . {   ",
"  { . h / / / / / s+t+u+v+w+x+y+/ / / z+A+B+C+/ D+E+/ / h . {   ",
"  { . h / / / / / / / / / / / / / / / / F+G+H+I+/ / / / h . {   ",
"  { . h / / / / / / / / / / / / / / / / J+H+K+L+M+N+/ / h . {   ",
"  { . h / / / / / / / / / / / / / / / / O+P+H+Q+R+S+N+/ h . {   ",
"  { . h / / / / / / / / / / / / / / / / / T+U+R+V+W+X+Y+h . {   ",
"  { . h / / / / / / / / / / / / / / / / / / Z+`+ @.@H+U++@. {   ",
"  { . h / / / / / / / / / / / / / / / / / / / @@#@W+V+$@%@. {   ",
"  { . &@/ / / / / / / / / / / / / / / / / / / / *@=@.@-@;@. {   ",
"  $ . >@&@h h h h h h h h h h h h h h h h h h h h ,@'@)@!@. $   ",
"  ~@{@. . . . . . . . . . . . . . . . . . . . . . . . . . {@~@  ",
"    ~@$ { { { { { { { { { { { { { { { { { { { { { { { { $ ~@    ",
"                                                                "};
