/* XPM */
static char *xpm_icon_record__[] = {
/* columns rows colors chars-per-pixel */
"32 32 95 2",
"   c #000000010001",
".  c #00FA01080108",
"X  c #019500B000B0",
"o  c #028901720172",
"O  c #032702010201",
"+  c #032502DF02DF",
"@  c #03A1013D013D",
"#  c #048302A602A6",
"$  c #059102360236",
"%  c #0840036E036E",
"&  c #0A6002DD02DD",
"*  c #0F5E04B804B8",
"=  c #0C6B0C6B0C6B",
"-  c #0D910D910D91",
";  c #0F4B0F4B0F4B",
":  c #150E04240424",
">  c #163603CB03CB",
",  c #178C05560556",
"<  c #1B8702830283",
"1  c #1BE302900290",
"2  c #198504510451",
"3  c #182805140514",
"4  c #289902710271",
"5  c #28BA07510751",
"6  c #27C4080B080B",
"7  c #2C77091B091B",
"8  c #31A7097A097A",
"9  c #3DAB07910791",
"0  c #39C70CFF0CFF",
"q  c #34C634C634C6",
"w  c #4E090BB30BB3",
"e  c #547204600460",
"r  c #575304260426",
"t  c #59BF07130713",
"y  c #617405250525",
"u  c #606F061C061C",
"i  c #7B3206C106C1",
"p  c #7E0304BA04BA",
"a  c #71400B020B02",
"s  c #78820AFF0AFF",
"d  c #7B720DD60DD6",
"f  c #653312E312E3",
"g  c #585458545854",
"h  c #59A859A859A8",
"j  c #59F059F059F0",
"k  c #5FA35FA35FA3",
"l  c #7E5C7E5C7E5C",
"z  c #819D06C306C3",
"x  c #93CF05D305D3",
"c  c #93820A1C0A1C",
"v  c #A04A0B600B60",
"b  c #AB8A08940894",
"n  c #B49306920692",
"m  c #B90007A607A6",
"M  c #BD5E0E6A0E6A",
"N  c #C33004820482",
"B  c #C83206330633",
"V  c #C09608500850",
"C  c #D9E201560156",
"Z  c #D0DA0B8E0B8E",
"A  c #DCE00D2E0D2E",
"S  c #E46B03D903D9",
"D  c #E5E905460546",
"F  c #EB6701770177",
"G  c #EEEB022A022A",
"H  c #E90304380438",
"J  c #E35907AC07AC",
"K  c #E41C07D307D3",
"L  c #F48703D503D5",
"P  c #F9B3015A015A",
"I  c #FADB014A014A",
"U  c #FD7D002C002C",
"Y  c #FFFF00030003",
"T  c #FFFF00B900B9",
"R  c #FFFF01E201E2",
"E  c #F8FA06060606",
"W  c #FF7404750475",
"Q  c #FFFF039A039A",
"!  c #B1D9B1D9B1D9",
"~  c #BE1FBE1FBE1F",
"^  c #BEC6BEC6BEC6",
"/  c #CCA1CCA1CCA1",
"(  c #DCF8DCF8DCF8",
")  c #E034E034E034",
"_  c #E4A7E4A7E4A7",
"`  c #EA24EA24EA24",
"'  c #EABEEABEEABE",
"]  c #EC92EC92EC92",
"[  c #F15BF15BF15B",
"{  c #F1CBF1CBF1CB",
"}  c #F534F534F534",
"|  c #F647F647F647",
" . c #F6B0F6B0F6B0",
".. c #F7E1F7E1F7E1",
"X. c None",
/* pixels */
"X.X.X.X.X.X.X.X.X.X.X.X.X.X.X.X.X.X.X.X.X.X.X.X.X.X.X.X.X.X.X.X.",
"X.X.( _ ` ' ' ' ' ' ' ' ' ' ' ' ' ' ' ' ' ' ' ' ' ' ' ` _ ( X.X.",
"X.X.] ../ ~ ^ ^ ^ ^ ^ ^ ^ ^ ^ ^ ^ ^ ^ ^ ^ ^ ^ ^ ^ ^ ~ / ..] X.X.",
"X.X.} ! q - ; ; ; ; ; ; ; ; ; ; ; ; ; ; ; ; ; ; ; ; - q ! } X.X.",
"X.X.[ k                                                 k [ X.X.",
"X.X.[ j                                                 j [ X.X.",
"X.X.[ j                                                 j [ X.X.",
"X.X.[ j                                                 j [ X.X.",
"X.X.[ j                                                 j [ X.X.",
"X.X.[ j                     & < > O                     j [ X.X.",
"X.X.[ j                 , y b J Z i 4 X                 j [ X.X.",
"X.X.[ j               5 m I Y Y Y U C r o               j [ X.X.",
"X.X.[ j             : n Y Y Y Y Y Y Y F e               j [ X.X.",
"X.X.[ j             u P Y Y Y Y Y Y Y Y N :             j [ X.X.",
"X.X.[ j           * M Y Y Y Y Y Y Y Y Y L w             j [ X.X.",
"X.X.[ j           1 K Y Y Y Y Y Y Y Y Y R p             j [ X.X.",
"X.X.[ j           2 A Y Y Y Y Y Y Y Y Y Q s             j [ X.X.",
"X.X.[ j           + c Y Y Y Y Y Y Y Y Y S 8             j [ X.X.",
"X.X.[ j             9 H Y Y Y Y Y Y Y T x @             j [ X.X.",
"X.X.[ j             # a G Y Y Y Y Y Y V 7               j [ X.X.",
"X.X.[ j               $ t B E R W D v 6                 j [ X.X.",
"X.X.[ j                 . 3 f z d 0 %                   j [ X.X.",
"X.X.[ j                                                 j [ X.X.",
"X.X.[ j                                                 j [ X.X.",
"X.X.[ j                                                 j [ X.X.",
"X.X.[ j                                                 j [ X.X.",
"X.X.[ h                                                 h [ X.X.",
"X.X.{ l =                                             = l { X.X.",
"X.X.| ) l g j j j j j j j j j j j j j j j j j j j j g l ) | X.X.",
"X.X.)  .{ [ [ [ [ [ [ [ [ [ [ [ [ [ [ [ [ [ [ [ [ [ [ {  .) X.X.",
"X.X.) X.X.X.X.X.X.X.X.X.X.X.X.X.X.X.X.X.X.X.X.X.X.X.X.X.X.) X.X.",
"X.X.X.X.X.X.X.X.X.X.X.X.X.X.X.X.X.X.X.X.X.X.X.X.X.X.X.X.X.X.X.X."
};
