/* XPM */
static char *icon_camera_xpm[] = {
/* columns rows colors chars-per-pixel */
"32 32 183 2",
"   c #006400630071",
".  c #0710070208A9",
"X  c #079307770906",
"o  c #09F509F40B1B",
"O  c #0F0F0F0A10D1",
"+  c #0FC40FBD0F9F",
"@  c #170E171D1B09",
"#  c #179017AF18BF",
"$  c #1A1B1A0C1CE5",
"%  c #25762587257C",
"&  c #26E026DD29CC",
"*  c #2A652A172AE0",
"=  c #2CC12CCE391C",
"-  c #34A4349D34F7",
";  c #3711370137D3",
":  c #3AD83AE93BEB",
">  c #41283BF638AD",
",  c #458D411F3F55",
"<  c #0CE639775A47",
"1  c #1C6F38CF5357",
"2  c #2AB935B34BA2",
"3  c #34F134034550",
"4  c #368135D448B4",
"5  c #3A883A434B9D",
"6  c #29EC3DE8515C",
"7  c #2997377F5BE5",
"8  c #19353F1E6359",
"9  c #0C3B42F16F77",
"0  c #0A2C447C719B",
"q  c #252443E56766",
"w  c #33DD4E58725E",
"e  c #31C64D9279B9",
"r  c #33B0518979A9",
"t  c #380353EF7CA3",
"y  c #4B364B0E4B76",
"u  c #460F465354EC",
"i  c #469C46E95974",
"p  c #4D1E4C9A5805",
"a  c #53EA53DC53DF",
"s  c #594158E657BB",
"d  c #57A9579E57F4",
"f  c #59C759BD59B3",
"g  c #566957216181",
"h  c #59E95A8B6647",
"j  c #5579563E6D09",
"k  c #5F975EF16851",
"l  c #575B57377344",
"z  c #5A505A2D7569",
"x  c #5D875D6879B1",
"c  c #650465056524",
"v  c #68D2648664C2",
"b  c #6561671D6CD3",
"n  c #655464E570E3",
"m  c #63BB63C07C37",
"M  c #755474FC7536",
"N  c #7A1C78227724",
"B  c #77AF765478D3",
"V  c #7DBE7D827DDA",
"C  c #05484E8E83E1",
"Z  c #3BF062D49284",
"A  c #4A105AB78550",
"S  c #49E8611F8802",
"D  c #495F62FF8A67",
"F  c #4EB669008F3E",
"G  c #43C8664193F6",
"H  c #4228680293D8",
"J  c #4CD26DFF9862",
"K  c #569272A59799",
"L  c #621C6F3D879B",
"P  c #6AED6AC384B1",
"I  c #6EBB6F0A887E",
"U  c #74B2747F82EE",
"Y  c #763076138D5A",
"T  c #711E7BB78CE9",
"R  c #780378168D2A",
"E  c #63AD76D69DB7",
"W  c #697678409AD8",
"Q  c #7CF57C7092ED",
"!  c #4FB777CAA1C9",
"~  c #761B84989DA2",
"^  c #634486A3AC4A",
"/  c #79668B3DA9CD",
"(  c #7A4196C7B880",
")  c #728C9D9FBC4F",
"_  c #1916989EE687",
"`  c #2A0C9CCAEB96",
"'  c #5A138CB9C208",
"]  c #6F3D9FAACD86",
"[  c #7E07B6D0D0FD",
"{  c #579CAE47E625",
"}  c #74C6B077E66B",
"|  c #7BCFB648EA0C",
" . c #8776876386FE",
".. c #859B866B8AF7",
"X. c #8DC28D6A8D49",
"o. c #8EEF8F7E9296",
"O. c #83D083B59A0F",
"+. c #87BF883199DC",
"@. c #940B93DF9472",
"#. c #9AB497489743",
"$. c #96F597A19ABB",
"%. c #9BBA9BB69B2B",
"&. c #A065A0699F01",
"*. c #84AC8B46A511",
"=. c #8B158B14A75D",
"-. c #85589245AC85",
";. c #98FB9DE6A85B",
":. c #84B2A009BEEE",
">. c #98AF97FAB234",
",. c #9AD39B4CB2C1",
"<. c #83F5A134AD5B",
"1. c #9DB1A2E1B1D6",
"2. c #A4ECA4B9A48F",
"3. c #A898A78AA704",
"4. c #A8CAA907A81F",
"5. c #AB6DABC2AC67",
"6. c #AF4BB082AFBC",
"7. c #B0A7B07FB02C",
"8. c #A53BA4C6BBD2",
"9. c #B30BB30EB2C9",
"0. c #B064B4BABAB0",
"q. c #B7A0B85DB941",
"w. c #BE0EBDF6BDCD",
"e. c #C094BEEFBD78",
"r. c #C30AC190BFFA",
"t. c #87ADA6CFC6D2",
"y. c #830DB17CC955",
"u. c #8973ACD8D10C",
"i. c #966AB7F9D876",
"p. c #AFCAAFB2C673",
"a. c #ABCDB64ECA94",
"s. c #B13FB186C5A5",
"d. c #BD9ABE18C4AB",
"f. c #B528B524CAED",
"g. c #BE16BDBFCCE7",
"h. c #92D7BD8DE555",
"j. c #BC2DC539D686",
"k. c #8D3DC989FA77",
"l. c #9533C5E2F0EA",
"z. c #9682CC63FFFF",
"x. c #9C60CF6EFD32",
"c. c #96D3D091FEB1",
"v. c #ABC8CB1DE59A",
"b. c #A329CC90EB54",
"n. c #BD1CD164E0E6",
"m. c #A12FD78AFFFF",
"M. c #AC62D675F9C4",
"N. c #C43EC41DC512",
"B. c #C97EC7F1C73B",
"V. c #CC0DCBDDCC06",
"C. c #C6D4C722DF4A",
"Z. c #C804C956DFBC",
"A. c #CCC3CC7FDE7C",
"S. c #D0E7D028D074",
"D. c #CFF4D0D5D175",
"F. c #C4FAD398DEB4",
"G. c #CCA5D26FDBED",
"H. c #D593D532D4EB",
"J. c #D2E6D309DD9B",
"K. c #DED8DED8DE8F",
"L. c #E18FE11CDF87",
"P. c #D41DD43BE3E5",
"I. c #DBACDBB2E34E",
"U. c #D60BD656E9E4",
"Y. c #DD52DD2CEBB3",
"T. c #DDB7E18FF0AD",
"R. c #E4F7E512E48A",
"E. c #E4B4E419EE2A",
"W. c #EAFBEAE2EAC9",
"Q. c #F088F085F063",
"!. c #E2FDE3A9F677",
"~. c #EC79EC5CF343",
"^. c #E7CDE792FC5F",
"/. c #E9F5E812FF03",
"(. c #ED6BED69FF49",
"). c #F0DEF01FFFFF",
"_. c #EFDAF1D8FFB0",
"`. c #F1CCF1CCF201",
"'. c #F59CF563FEBD",
"]. c #F882F7FFFFFF",
"[. c #F877F8A2FF49",
"{. c #FBA5FB83FF55",
"}. c None",
/* pixels */
"}.}.}.}.}.}.}.}.}.}.}.}.}.}.}.}.}.}.}.}.}.}.}.}.}.}.}.}.}.}.}.}.",
"}.}.K.R.W.W.W.W.W.W.W.W.W.W.W.W.W.W.W.W.W.W.W.W.W.W.W.W.R.K.}.}.",
"}.}.W.[.V.w.w.w.w.w.w.w.w.w.w.w.w.w.w.w.w.w.w.w.w.w.w.V.[.W.}.}.",
"}.}.`.9.- o o o o # $ $ $ $ $ $ $ $ @ @ @ @ $ $ + o o - 9.`.}.}.",
"}.}.`.f           u +.O.O.Q Q Q Y Y I I P P Q U O       f `.}.}.",
"}.}.`.f           p I.`.`.`.~.~.~.~.~.~.~.E.f.J.n o     f `.}.}.",
"}.}.`.f   . o     u I.`.Q.Q.`.`.`.Q.`.{.{.[.s.~.I.k .   f `.}.}.",
"}.}.`.c ; : - * s h ..f d f f d f f d o.`.'.8.J.E.g.i   f `.}.}.",
"}.}.`.c y 2.2.4.9.5.2.3.N.B.V.d.y.[ <., V.{.p.>.>.=.m O s `.}.}.",
"}.}.`.c y H.W.R.R.K.V.w.q.q.S.G.{ ` ) > N.'.'.~.~.J.m X f `.}.}.",
"}.}.`.c y 9.9.6.5.%.7.V.H.B.2.9.F.n.0.; d.'.[.].{.P.z X f `.}.}.",
"}.}.`.c y 3.2.2.@.4.L.w.#.q.D.%.r.W.e.- d.'.[.'.].A.z X f `.}.}.",
"}.}.`.c y 3.3.%.@.H.9.6 < 6 5.N.2.R.B.; d.'.'.'.].A.z X f `.}.}.",
"}.}.`.c y 3.2.#.#.L.V 9 _ 0 B H.@.q.2.- d.'.'.'.].A.z X f `.}.}.",
"}.}.`.c y 2.2.@.X.H.%.1 C 8 ;.B.V X.M * d.'.'.'.].A.z X f `.}.}.",
"}.}.`.c y 2.&.#. .2.H.@.v @.D.#.N X.M * d.'.'.'.'.A.z X f `.}.}.",
"}.}.`.c y 3.2.2.$. .5.H.K.~ S w w ..b & d.(.'._.'.A.z X f `.}.}.",
"}.}.`.c y N.V.V.V.N.9.3.2.t u.v.G T e 2 d.(.'.(.(.A.z X f `.}.}.",
"}.}.`.c y f a a a a y y y q | M.D 7 ^ :.W Y.'.(.(.A.z o f `.}.}.",
"}.}.`.f * f B M M g U $.o.r } x.i.t.h.M.( / T.(.).Z.x o s `.}.}.",
"}.}.`.f   # % % % i A.{.`.E ' k.c.m.x.z.b.K a.(.(.Z.x o s `.}.}.",
"}.}.`.f           3 J.{.[.G.F G H H ] l.J *.U.^.(.C.z X f `.}.}.",
"}.}.`.f           4 J.{.'.[.P.,.1.L Z ! *.U.!.^.(.C.l X f `.}.}.",
"}.}.`.f           4 J.{.'.'.].'.].j.A -.P.!.^./.(.C.x o s `.}.}.",
"}.}.`.f           4 J.{.].].].].'.'.~.E.!.(.(.(.(.Z.z o f `.}.}.",
"}.}.`.f           5 A.~.E.E.E.Y.Y.Y.Y.Y.U.U.U.U.U.f.z o s `.}.}.",
"}.}.`.f           = m Y R Q U P P m m x z m x z x j h o s `.}.}.",
"}.}.`.V o             X o o o X X X X X X o X . X X o o V `.}.}.",
"}.}.`.K.V d f f f f f f s s s f f f f f f s f f f f d V R.`.}.}.",
"}.}.K.'.`.`.`.`.`.`.`.`.`.`.`.`.`.`.`.`.`.`.`.`.`.`.`.`.'.K.}.}.",
"}.}.K.}.}.}.}.}.}.}.}.}.}.}.}.}.}.}.}.}.}.}.}.}.}.}.}.}.}.K.}.}.",
"}.}.}.}.}.}.}.}.}.}.}.}.}.}.}.}.}.}.}.}.}.}.}.}.}.}.}.}.}.}.}.}."
};
