/* XPM */
static char *icon_spin_xpm[] = {
/* columns rows colors chars-per-pixel */
"32 32 254 2",
"   c #000100010001",
".  c #00BF000E000E",
"X  c #006900690081",
"o  c #001000E500DC",
"O  c #00EE00EE00E8",
"+  c #012C012C01A5",
"@  c #0000019F0253",
"#  c #020802080228",
"$  c #02AF02AF025F",
"%  c #026602CD0344",
"&  c #02F902F90342",
"*  c #0449004F004F",
"=  c #040B040B0438",
"-  c #05380538067B",
";  c #0599059905A3",
":  c #0598059806B8",
">  c #080F00900090",
",  c #0A340061004D",
"<  c #0A8B00000000",
"1  c #0A5F00B400B5",
"2  c #0C8A00DB00DB",
"3  c #0C6102A802D7",
"4  c #05F809070A8F",
"5  c #08DB088F088F",
"6  c #092D09400AF3",
"7  c #0A560A560A56",
"8  c #0ACD0ACD0ACD",
"9  c #0A170A170C5C",
"0  c #0AB50AB50C17",
"q  c #0A920B640DA0",
"w  c #08A20BA20BA3",
"e  c #0C460C460C46",
"r  c #0CB30CB30CB3",
"t  c #0C850C850F0E",
"y  c #0D390D390F52",
"u  c #0DCC0DCC0DCC",
"i  c #0F310F310F31",
"p  c #10B9011D011D",
"a  c #1177066C076C",
"s  c #0F3D0F3D116F",
"d  c #0F0A0F0A11D2",
"f  c #115E115E115E",
"g  c #0FE80FE81325",
"h  c #121512171217",
"j  c #130013001300",
"k  c #11071107144B",
"l  c #12FE12FE1688",
"z  c #133615771630",
"x  c #150C14F114F1",
"c  c #162616261626",
"v  c #174717471747",
"b  c #16AC16AC19A7",
"n  c #15F8182A1B86",
"m  c #196619331933",
"M  c #18F918F91D2C",
"N  c #1AF11AF11CBE",
"B  c #1C211C211C21",
"V  c #1C9C1C9F1C9F",
"C  c #1D461D461D46",
"Z  c #362503BB03BB",
"A  c #28281E0B1E0B",
"S  c #20F220F220F2",
"D  c #201220122337",
"F  c #26EB26EB26EB",
"G  c #257225A327C2",
"H  c #263026302AC7",
"J  c #280B280B280B",
"K  c #293B293B293B",
"L  c #2AE02AE02AE0",
"P  c #296529652C8C",
"I  c #2AE62AE62D6B",
"U  c #2D012D012D01",
"Y  c #31C82FA42FA4",
"T  c #2CC22CC2315F",
"R  c #3346334636B1",
"E  c #351335133513",
"W  c #394539453945",
"Q  c #3A863A863A86",
"!  c #3D8D3D953D95",
"~  c #4AAB050F050F",
"^  c #4D9307C609D1",
"/  c #507E0ACB0A70",
"(  c #579F13DD13AB",
")  c #3AC13AC141B1",
"_  c #3D533D5341DF",
"`  c #44953DE2448C",
"'  c #469146914BA6",
"]  c #466B466B4C8C",
"[  c #4B7B4B7B4B7B",
"{  c #48F3495D4E50",
"}  c #4BCF4BCF4BCF",
"|  c #4F1C4F1C4F1C",
" . c #4EA74EA75732",
".. c #528952895289",
"X. c #55A155A155A1",
"o. c #57D654CC54CC",
"O. c #563F563F563F",
"+. c #4FEC4FEC587F",
"@. c #573657365F4E",
"#. c #585458545854",
"$. c #598C598C598C",
"%. c #59F059F059F0",
"&. c #5FA35FA35FA3",
"*. c #5914591460FD",
"=. c #58C458C46291",
"-. c #5E0E5E0E6881",
";. c #669D66AC66AC",
":. c #662B66E966E9",
">. c #678967896789",
",. c #611A611A69C8",
"<. c #62C062C06F94",
"1. c #6CB36CB36CB3",
"2. c #677467747072",
"3. c #6B8B6B8B6FF4",
"4. c #6C1A6C1A75D7",
"5. c #6D6D6D6D7ACB",
"6. c #72C872C872C8",
"7. c #737A73807380",
"8. c #72CB758D758D",
"9. c #73F3749B7E8D",
"0. c #774677467E03",
"q. c #799D799D799D",
"w. c #7A717D357FFC",
"e. c #7D067D067D06",
"r. c #7E5C7E5C7E5C",
"t. c #8712092C092C",
"y. c #AB950A9F0B36",
"u. c #ACCE0935091D",
"i. c #AC950AAE0A57",
"p. c #AC930AD30A91",
"a. c #AD5E0B9D0B94",
"s. c #AF290BDD0BDD",
"d. c #BA670C980C98",
"f. c #AA211E421FA1",
"g. c #F2DB0E940E52",
"h. c #F2FF0FF30FD2",
"j. c #F353110410F6",
"k. c #F5D210A610A6",
"l. c #F3FB12C81464",
"z. c #F610160318DE",
"x. c #F71F19551E9B",
"c. c #CA6B2DAD34AF",
"v. c #CCD6339E3C73",
"b. c #F8012088242C",
"n. c #F5922D6B30F0",
"m. c #B18940324032",
"M. c #B2485B345D8B",
"N. c #9F475F6567F8",
"B. c #9DDE61D26B2F",
"V. c #8CAD718E718E",
"C. c #81C27AE47E7C",
"Z. c #ECD75B586CC0",
"A. c #FA8A77BA77BA",
"S. c #778C778C81D3",
"D. c #7E537E53842E",
"F. c #7F6D7E288921",
"G. c #A4DA78A8866B",
"H. c #AA677DAC86C0",
"J. c #807A822F822F",
"K. c #8DD985CD8C3E",
"L. c #88BC88BC88BC",
"P. c #893789378B62",
"I. c #8B558A668A66",
"U. c #895E895E8EE3",
"Y. c #8F4E8F4E93C2",
"T. c #92D392D392D3",
"R. c #93ED947B947B",
"E. c #957D958A958A",
"W. c #97FD97FD97FD",
"Q. c #91CC91CC9CE2",
"!. c #958995899C77",
"~. c #9920991C9A6F",
"^. c #9ED29B609B60",
"/. c #997999799CD3",
"(. c #9C689C689C68",
"). c #A024A024A260",
"_. c #A316A316A316",
"`. c #A32CA32CA32C",
"'. c #A50FA421A421",
"]. c #A2E1A5C3AAE8",
"[. c #B01AB01AB01A",
"{. c #B018B018B7C1",
"}. c #AFFAB0B2B718",
"|. c #B1D9B1D9B1D9",
" X c #B37AB37AB37A",
".X c #B623B623B623",
"XX c #B599B599BC3B",
"oX c #B281B281BC91",
"OX c #B4FBB4FBBEA0",
"+X c #BBCCBB2EBB2E",
"@X c #BDFCBDFCBDFC",
"#X c #BEC6BEC6BEC6",
"$X c #BFC8BFC8BFC8",
"%X c #CC9991329130",
"&X c #F86D9A7DA50F",
"*X c #C30DB513B513",
"=X c #C715BA60BA60",
"-X c #D4F7B63EB7D0",
";X c #B9C5B9C5C140",
":X c #BE13BE13C7E6",
">X c #BF4FBF4FC6EC",
",X c #BF3BBF3BC7D1",
"<X c #EE04B99ACB55",
"1X c #C70BC70BC70B",
"2X c #C47DC47DCE6F",
"3X c #C994C9EDC9ED",
"4X c #CBF7CBF5CBF5",
"5X c #CCB3CCC3CCC3",
"6X c #CD59CD59CD59",
"7X c #CF4DCF4DCF4D",
"8X c #CBDACBDAD890",
"9X c #D0BCD0BCD0BC",
"0X c #D27FD27FDB56",
"qX c #D69DD69DDE47",
"wX c #DDF5DA0ADD8A",
"eX c #DCFCDCFCDCFC",
"rX c #DEE7DF48DF74",
"tX c #E034E034E034",
"yX c #EAC7C572C572",
"uX c #F969D775E038",
"iX c #E069E069E035",
"pX c #DBACDBACE27F",
"aX c #DF28DF28E2D3",
"sX c #DF8BDF8BEB0A",
"dX c #E2AEE084E1EE",
"fX c #E270E270E4C7",
"gX c #E4B2E4B2E4B2",
"hX c #E29AE29AE91E",
"jX c #E724E724EA66",
"kX c #E646E646EAD6",
"lX c #EA24EA24EA24",
"zX c #EABEEABEEABE",
"xX c #EC81EC81EC81",
"cX c #EF6FEF6FF46F",
"vX c #F15CF15CF15C",
"bX c #F1CBF1CBF1CB",
"nX c #F0C6F0C6F2A8",
"mX c #F48DF0ACF23C",
"MX c #F3F8F3F8F786",
"NX c #F4E4F4E4F4E4",
"BX c #F647F647F647",
"VX c #F66FF66FF818",
"CX c #F6B0F6B0F6B0",
"ZX c #F80FF80FF80F",
"AX c #F654F654F884",
"SX c #F6E6F6E6F92C",
"DX c #FA5DF612FBE0",
"FX c #FA52FA52FC2B",
"GX c #FBE4FBE4FCE4",
"HX c #FC32FC32FDFF",
"JX c #FDB7FDB7FF21",
"KX c #FEFDFEFDFFD5",
"LX c #FFFDFFFDFFFF",
"PX c None",
/* pixels */
"PXPXPXPXPXPXPXPXPXPXPXPXPXPXPXPXPXPXPXPXPXPXPXPXPXPXPXPXPXPXPXPX",
"PXPXeXgXlXzXzXzXzXzXzXzXzXzXzXzXzXzXzXzXzXzXzXzXzXzXzXlXgXeXPXPX",
"PXPXxXZX5X@X#X#X#X#X#X#X#X#X#X#X#X#X#X#X#X#X#X#X#X#X@X5XZXxXPXPX",
"PXPXNXE.U u i i i i r 8 e i i i i i e i i i i i i i u E |.NXPXPX",
"PXPXvX$.          + W q.X.=       f ..7                 &.vXPXPX",
"PXPXvX%.          S 1XL.} h x m 5 V e.c x v i X         %.vXPXPX",
"PXPXvX%.          B $XW.F 7.+X'.I.! .X[ @X_.`.j         %.vXPXPX",
"PXPXvX%.          X K (. XE.^.Y 3X;.4XX.9X| 9XE         %.vXPXPX",
"PXPXvX%.          c 1.T.[.R.=XV.*Xo.5XO.6XQ 7XW         %.vXPXPX",
"PXPXvX%.          f ;.6.J J.yXA.m.A :.L ;.C >.B         %.vXPXPX",
"PXPXvX%.                  8.%Xh.u.1                     %.vXPXPX",
"PXPXvX%.                  w ( j.i.,                     %.vXPXPX",
"PXPXvX%.        + d I =.5.w.B.z.v.C.9.<._ b -           %.vXPXPX",
"PXPXvX%.    + H 0.,XjXFXLXLX<Xx.Z.DXLXJXnX0X!.] 0       %.vXPXPX",
"PXPXvX%.  % @.qXJXLXGXpX:X].N.l.c.K.}.8XsXVXLXaXS.l     %.vXPXPX",
"PXPXvX%.  ) hXLXHX>X3.D g 4 / h.p.3 q M T ,.;X)./.+.=   %.vXPXPX",
"PXPXvX%.   .MXLXSX4.k # $ z H.b.u.1   X O ; ' fXLXY.:   %.vXPXPX",
"PXPXvX%.  y Q.AXLXcX2XP.2.{ wX&Xf.< o + = + D oX{.R     %.vXPXPX",
"PXPXvX%.    y *.OXkXGXKXKX~.rXLX-X` % O X $ & N s       %.vXPXPX",
"PXPXvX%.      X t P -.U.XXD.iXLXmXF.6   X # X           %.vXPXPX",
"PXPXvX%.              # 9 G dXuXM.a                     %.vXPXPX",
"PXPXvX%.                  n G.n.y.,                     %.vXPXPX",
"PXPXvX%.                  @ ^ g.a.1                     %.vXPXPX",
"PXPXvX%.                    ~ k.s.1                     %.vXPXPX",
"PXPXvX%.                    Z d.t.>                     %.vXPXPX",
"PXPXvX%.                    * p 2 .                     %.vXPXPX",
"PXPXvX$.                                                $.vXPXPX",
"PXPXbXr.e                                             e r.bXPXPX",
"PXPXBXtXr.#.%.%.%.%.%.%.%.%.%.%.%.%.%.%.%.%.%.%.%.%.#.r.tXBXPXPX",
"PXPXtXCXbXvXvXvXvXvXvXvXvXvXvXvXvXvXvXvXvXvXvXvXvXvXvXbXCXtXPXPX",
"PXPXtXPXPXPXPXPXPXPXPXPXPXPXPXPXPXPXPXPXPXPXPXPXPXPXPXPXPXtXPXPX",
"PXPXPXPXPXPXPXPXPXPXPXPXPXPXPXPXPXPXPXPXPXPXPXPXPXPXPXPXPXPXPXPX"
};
