/* XPM */
static char * icon_threed_xpm[] = {
"32 32 580 2",
"  	c None",
". 	c #B5B52F",
"+ 	c #D9DA0D",
"@ 	c #DCDD13",
"# 	c #DFDF14",
"$ 	c #E1E013",
"% 	c #E4E214",
"& 	c #E2E212",
"* 	c #E4E414",
"= 	c #E5E513",
"- 	c #E7E713",
"; 	c #E8EA1D",
"> 	c #F1F22C",
", 	c #B9B932",
"' 	c #D7D90C",
") 	c #DEDE13",
"! 	c #E2E113",
"~ 	c #E3E214",
"{ 	c #E3E313",
"] 	c #E6E413",
"^ 	c #E6E612",
"/ 	c #E9E814",
"( 	c #E7E811",
"_ 	c #FFFF33",
": 	c #B7B731",
"< 	c #D8D90E",
"[ 	c #DBDC12",
"} 	c #E0DF12",
"| 	c #E5E412",
"1 	c #E6E613",
"2 	c #E8E713",
"3 	c #E9EA13",
"4 	c #F6F622",
"5 	c #B7B732",
"6 	c #D7D80D",
"7 	c #DBDC13",
"8 	c #DDDE13",
"9 	c #E0E013",
"0 	c #E2E213",
"a 	c #E4E413",
"b 	c #E6E711",
"c 	c #DBDB2D",
"d 	c #BEBE39",
"e 	c #D4D510",
"f 	c #DEDF14",
"g 	c #E6E712",
"h 	c #E5E611",
"i 	c #D9DA36",
"j 	c #6F6F3D",
"k 	c #CCCB62",
"l 	c #878811",
"m 	c #BBBD1D",
"n 	c #E2E31E",
"o 	c #DADC11",
"p 	c #E1DF13",
"q 	c #E4E412",
"r 	c #E6E614",
"s 	c #D7D835",
"t 	c #D1D154",
"u 	c #BBBB2B",
"v 	c #CAC833",
"w 	c #DAD921",
"x 	c #AEAE27",
"y 	c #A0A016",
"z 	c #D8D91C",
"A 	c #DFDF17",
"B 	c #DFDE12",
"C 	c #E2E114",
"D 	c #E6E515",
"E 	c #E5E413",
"F 	c #CCCD33",
"G 	c #DFDE31",
"H 	c #D5D512",
"I 	c #ECEC37",
"J 	c #6F6F18",
"K 	c #CFCF34",
"L 	c #D4D50E",
"M 	c #DCDD14",
"N 	c #C4C527",
"O 	c #8C8E1B",
"P 	c #D1D325",
"Q 	c #E4E51B",
"R 	c #E3E112",
"S 	c #E2E312",
"T 	c #E6E314",
"U 	c #CDCE32",
"V 	c #E5E51A",
"W 	c #D6D613",
"X 	c #D6D713",
"Y 	c #E2E323",
"Z 	c #D5D438",
"` 	c #CDCD35",
" .	c #D9DA14",
"..	c #DBDA14",
"+.	c #E6E626",
"@.	c #9B9C1D",
"#.	c #9D9D1A",
"$.	c #EBE91F",
"%.	c #E2E216",
"&.	c #E3E114",
"*.	c #E4E312",
"=.	c #CDCD30",
"-.	c #E6E61A",
";.	c #D5D514",
">.	c #D7D713",
",.	c #D8D912",
"'.	c #DDDB19",
").	c #CCCE30",
"!.	c #838215",
"~.	c #D6D623",
"{.	c #DBDC16",
"].	c #DAD913",
"^.	c #DCDB13",
"/.	c #DFE017",
"(.	c #CFD123",
"_.	c #808017",
":.	c #D4D427",
"<.	c #E2E217",
"[.	c #E1E312",
"}.	c #E1E413",
"|.	c #D4D537",
"1.	c #E4E517",
"2.	c #D6D614",
"3.	c #D6D612",
"4.	c #D8D913",
"5.	c #DCDD15",
"6.	c #E8E822",
"7.	c #8C8D15",
"8.	c #9E9D1B",
"9.	c #EBEB26",
"0.	c #DEDF16",
"a.	c #EDED29",
"b.	c #A09F18",
"c.	c #C4C422",
"d.	c #ECEC1A",
"e.	c #E2E214",
"f.	c #F0F01E",
"g.	c #6E6E00",
"h.	c #E6E319",
"i.	c #D4D413",
"j.	c #D8D814",
"k.	c #D7DA14",
"l.	c #DADB12",
"m.	c #E7E821",
"n.	c #D4D329",
"o.	c #73720B",
"p.	c #D1D228",
"q.	c #DBDB11",
"r.	c #DEDE12",
"s.	c #E9E91D",
"t.	c #D8D81C",
"u.	c #92931C",
"v.	c #D0D127",
"w.	c #F2F122",
"x.	c #717001",
"y.	c #E4E317",
"z.	c #D4D414",
"A.	c #D6D615",
"B.	c #D8DA14",
"C.	c #D9DA12",
"D.	c #DCDD11",
"E.	c #DCDC17",
"F.	c #F2F129",
"G.	c #989813",
"H.	c #BFC028",
"I.	c #DEDD13",
"J.	c #E2E115",
"K.	c #DBDB21",
"L.	c #A0A217",
"M.	c #CDCE37",
"N.	c #707004",
"O.	c #E3E318",
"P.	c #D4D415",
"Q.	c #D5D513",
"R.	c #D9D914",
"S.	c #DADB11",
"T.	c #DBDD12",
"U.	c #DEDD11",
"V.	c #E0DF10",
"W.	c #EBEA23",
"X.	c #B2B328",
"Y.	c #9D9E17",
"Z.	c #E6E518",
"`.	c #E1E012",
" +	c #EAEB22",
".+	c #A2A320",
"++	c #717003",
"@+	c #CFD04E",
"#+	c #E3E31A",
"$+	c #D3D314",
"%+	c #D8D914",
"&+	c #DADB13",
"*+	c #DDDD13",
"=+	c #DFDF13",
"-+	c #E3E311",
";+	c #B4B419",
">+	c #797906",
",+	c #E5E61A",
"'+	c #E1DD13",
")+	c #E1E014",
"!+	c #E1E114",
"~+	c #CCCC3E",
"{+	c #6D6C00",
"]+	c #C8C730",
"^+	c #E3E419",
"/+	c #D4D314",
"(+	c #D9DA13",
"_+	c #E2E211",
":+	c #B7B720",
"<+	c #787907",
"[+	c #E5E61B",
"}+	c #DFDF12",
"|+	c #E1DF14",
"1+	c #E3E113",
"2+	c #EEED20",
"3+	c #686A00",
"4+	c #7E7E0B",
"5+	c #C9C82C",
"6+	c #C1C14F",
"7+	c #D4D417",
"8+	c #D2D212",
"9+	c #D8DA13",
"0+	c #DADB14",
"a+	c #DDDE12",
"b+	c #E2E112",
"c+	c #949518",
"d+	c #E1E117",
"e+	c #DDDF13",
"f+	c #EDED22",
"g+	c #6E6E06",
"h+	c #838312",
"i+	c #B6B614",
"j+	c #A5A647",
"k+	c #474805",
"l+	c #717048",
"m+	c #636320",
"n+	c #5A5B26",
"o+	c #3A3A1C",
"p+	c #8E8F53",
"q+	c #545413",
"r+	c #5C5D18",
"s+	c #A8A843",
"t+	c #5A5A00",
"u+	c #BBBC29",
"v+	c #D9DA24",
"w+	c #E1E112",
"x+	c #ACAD0F",
"y+	c #D0D136",
"z+	c #DDDE14",
"A+	c #E1E011",
"B+	c #ECEC21",
"C+	c #6F6E06",
"D+	c #828311",
"E+	c #B8B812",
"F+	c #B4B42B",
"G+	c #BFBF29",
"H+	c #5C5C00",
"I+	c #959628",
"J+	c #747513",
"K+	c #5D5D08",
"L+	c #585800",
"M+	c #A3A33E",
"N+	c #6B6C0C",
"O+	c #5B5C00",
"P+	c #CFD04F",
"Q+	c #6D6D0B",
"R+	c #747305",
"S+	c #E0DF2C",
"T+	c #D4D310",
"U+	c #D9D713",
"V+	c #DBDD13",
"W+	c #E1E113",
"X+	c #ADAD10",
"Y+	c #CACA31",
"Z+	c #D9D912",
"`+	c #E0DF13",
" @	c #ECEB23",
".@	c #6F6E07",
"+@	c #818112",
"@@	c #BABA19",
"#@	c #B9B82D",
"$@	c #C9C911",
"%@	c #DDDE29",
"&@	c #7E7F10",
"*@	c #7F8016",
"=@	c #9F9F34",
"-@	c #585900",
";@	c #8F9024",
">@	c #929228",
",@	c #454600",
"'@	c #8F8F24",
")@	c #AFAF39",
"!@	c #6A6A04",
"~@	c #DAD91A",
"{@	c #D7D712",
"]@	c #D8D812",
"^@	c #C9C930",
"/@	c #D8D911",
"(@	c #DCDE14",
"_@	c #EDEB21",
":@	c #706E07",
"<@	c #7B7B0D",
"[@	c #8F8F0F",
"}@	c #8B8C16",
"|@	c #D2D21D",
"1@	c #CECE15",
"2@	c #D8D824",
"3@	c #878A19",
"4@	c #5D5D00",
"5@	c #B1B13E",
"6@	c #72720E",
"7@	c #5C5D0C",
"8@	c #757512",
"9@	c #B3B343",
"0@	c #5C5B00",
"a@	c #85861C",
"b@	c #A4A534",
"c@	c #434600",
"d@	c #B6B625",
"e@	c #E0DE21",
"f@	c #DAD812",
"g@	c #DCDA13",
"h@	c #DBDB13",
"i@	c #DEE013",
"j@	c #AEAF13",
"k@	c #C9C92F",
"l@	c #D7D810",
"m@	c #DFDE11",
"n@	c #EBEB22",
"o@	c #676500",
"p@	c #B6B62A",
"q@	c #6C6D00",
"r@	c #969624",
"s@	c #8C8D1B",
"t@	c #BCBC20",
"u@	c #D0D01A",
"v@	c #D3D31E",
"w@	c #CDCC2E",
"x@	c #545400",
"y@	c #97992A",
"z@	c #73750F",
"A@	c #595A05",
"B@	c #A7A73E",
"C@	c #5F6000",
"D@	c #575A00",
"E@	c #D9DA4F",
"F@	c #6F6F0E",
"G@	c #97971E",
"H@	c #DCDD26",
"I@	c #E0E121",
"J@	c #87870A",
"K@	c #D3D438",
"L@	c #DBDD11",
"M@	c #DDDF11",
"N@	c #EBEB24",
"O@	c #626200",
"P@	c #DDDC30",
"Q@	c #9D9E2C",
"R@	c #A0A125",
"S@	c #93931D",
"T@	c #A2A21F",
"U@	c #D7D81F",
"V@	c #CFCF14",
"W@	c #CCCC2F",
"X@	c #77770B",
"Y@	c #8F901A",
"Z@	c #C3C242",
"`@	c #565700",
" #	c #5B5B00",
".#	c #A6A838",
"+#	c #989829",
"@#	c #515200",
"##	c #8E8D23",
"$#	c #979728",
"%#	c #676702",
"&#	c #E4E334",
"*#	c #DADC16",
"=#	c #D9DB11",
"-#	c #E3E331",
";#	c #606000",
">#	c #949527",
",#	c #ACAC1E",
"'#	c #E3E41B",
")#	c #DADE14",
"!#	c #DDDD15",
"~#	c #D8D72C",
"{#	c #DBD92F",
"]#	c #777806",
"^#	c #747405",
"/#	c #A09F2A",
"(#	c #ACAC28",
"_#	c #8E9019",
":#	c #909317",
"<#	c #D9DA20",
"[#	c #CECE14",
"}#	c #E1E229",
"|#	c #969717",
"1#	c #AAAA3A",
"2#	c #706F06",
"3#	c #585802",
"4#	c #6F6F0C",
"5#	c #A2A231",
"6#	c #686701",
"7#	c #696A08",
"8#	c #AAAB39",
"9#	c #525200",
"0#	c #A8A822",
"a#	c #DFDF1C",
"b#	c #E0E032",
"c#	c #626100",
"d#	c #747510",
"e#	c #B0B135",
"f#	c #A4A51B",
"g#	c #ECED20",
"h#	c #DCDD17",
"i#	c #B0AF24",
"j#	c #505000",
"k#	c #BFBD3E",
"l#	c #8D8E0F",
"m#	c #E9E937",
"n#	c #7B7B07",
"o#	c #78790B",
"p#	c #A4A52D",
"q#	c #888819",
"r#	c #9B9B1C",
"s#	c #C3C424",
"t#	c #D5D518",
"u#	c #D8D722",
"v#	c #CACA2D",
"w#	c #616000",
"x#	c #CDCD56",
"y#	c #7A7A10",
"z#	c #5F5D0C",
"A#	c #6D6D0A",
"B#	c #A1A034",
"C#	c #72730C",
"D#	c #BDBE45",
"E#	c #7C7C13",
"F#	c #A6A61C",
"G#	c #E2E246",
"H#	c #82820A",
"I#	c #BEC036",
"J#	c #585A00",
"K#	c #A7A932",
"L#	c #7D7F08",
"M#	c #E0E22F",
"N#	c #BEBD31",
"O#	c #C7C64A",
"P#	c #777701",
"Q#	c #E3E42D",
"R#	c #888A11",
"S#	c #787808",
"T#	c #BCBB39",
"U#	c #9C9C20",
"V#	c #ACAC20",
"W#	c #C1C11C",
"X#	c #DADB1A",
"Y#	c #DAD916",
"Z#	c #E1E132",
"`#	c #999A2A",
" $	c #7E7E1D",
".$	c #63632A",
"+$	c #5A5917",
"@$	c #9B9B3C",
"#$	c #A6A54B",
"$$	c #4F4F02",
"%$	c #86862A",
"&$	c #80802B",
"*$	c #6E6E24",
"=$	c #605F13",
"-$	c #939327",
";$	c #DCDC5D",
">$	c #494B00",
",$	c #CBCC5C",
"'$	c #666716",
")$	c #686722",
"!$	c #6E6C31",
"~$	c #898A22",
"{$	c #9B9D26",
"]$	c #696B25",
"^$	c #75752E",
"/$	c #868618",
"($	c #4C4D06",
"_$	c #999A21",
":$	c #949410",
"<$	c #939311",
"[$	c #85832A",
"}$	c #56561B",
"|$	c #2B2C07",
"1$	c #525118",
"2$	c #333311",
"3$	c #5D5B07",
"4$	c #413F19",
"5$	c #4A492B",
"6$	c #4E4D33",
"7$	c #4F4F23",
"8$	c #696A1C",
"9$	c #3C3C18",
"0$	c #464631",
"a$	c #595A13",
"b$	c #292908",
"c$	c #6A6B29",
"d$	c #666612",
"e$	c #646311",
"f$	c #504F1B",
"g$	c #4D4C2A",
"h$	c #303112",
"i$	c #5A5831",
"j$	c #393927",
"k$	c #646432",
"l$	c #5A591E",
"m$	c #474627",
"n$	c #4B4A2B",
"o$	c #4C4C2F",
"p$	c #525323",
"q$	c #6C6D1C",
"r$	c #3E3F19",
"s$	c #4C4C2E",
"t$	c #5E5E1A",
"u$	c #2E2E0B",
"v$	c #6E6E29",
"w$	c #676611",
"x$	c #55541C",
"y$	c #6D6D31",
"z$	c #333516",
"A$	c #454427",
"B$	c #3A3A24",
"C$	c #605F27",
"D$	c #5C5A1D",
"E$	c #464422",
"F$	c #393B19",
"G$	c #4C4B27",
"H$	c #615F3A",
"I$	c #3C3D17",
"J$	c #333114",
"K$	c #50512B",
"L$	c #4D4E21",
"M$	c #6E6C29",
"N$	c #686612",
"O$	c #676613",
"P$	c #595925",
"Q$	c #6B6B25",
"R$	c #393A1C",
"S$	c #555325",
"T$	c #353315",
"U$	c #5F5F26",
"V$	c #5B5B1D",
"W$	c #42421C",
"X$	c #363719",
"Y$	c #504F2F",
"Z$	c #64643F",
"`$	c #55551F",
" %	c #6D6A1B",
".%	c #42421E",
"+%	c #302E11",
"@%	c #4F502A",
"#%	c #4D4B26",
"$%	c #6C6C29",
"%%	c #686712",
"&%	c #6C6C20",
"*%	c #68672B",
"=%	c #38391B",
"-%	c #55551C",
";%	c #35340E",
">%	c #65642A",
",%	c #3A3A1E",
"'%	c #72721D",
")%	c #6C6A1D",
"!%	c #323113",
"~%	c #4F4F2D",
"{%	c #4D4C27",
"]%	c #6D6E29",
"^%	c #696712",
"/%	c #6D6C28",
"(%	c #555421",
"_%	c #343311",
":%	c #5E5E26",
"<%	c #5E5D22",
"[%	c #6E6D27",
"}%	c #3A3A20",
"                                      . + @ # $ % & * = - ; >   ",
"                                      , ' @ ) $ ! ~ { ] ^ / ( _ ",
"                                      : < [ ) } ! ! { | 1 2 3 4 ",
"                                      5 6 7 8 9 $ 0 { a = 2 b c ",
"                                      d e [ @ f $ ! & * = g h i ",
"                        j           k l m n o ) p $ 0 { q r = s ",
"                        t u         v w x y z A B C ! { q D E F ",
"                        G H I J     K L M N O P Q B R S * T q U ",
"                        V W X Y Z   ` e  ...+.@.#.$.%.&.{ = *.=.",
"                        -.;.>.,.'.).!.~.{.].^./.(._.:.<.[.}.& |.",
"                        1.2.3.4.4.5.6.7.8.9.,.@ 0.a.b.c.d.e.f.g.",
"                        h.i.W j.k.l.l.m.n.o.p.q.) r.s.t.u.v.w.x.",
"                        y.z.A.>.B.C.[ D.E.F.G.H.Y I.} J.K.L.M.N.",
"                        O.P.Q.>.R.4.S.T.U.V.W.X.Y.Z.p `.!  +.+++",
"@+                      #+$+Q.3.j.%+&+[ *+=+-+;+>+,+'+)+R !+~+{+",
"]+                      ^+/+Q.2.>. .(+&+M ) _+:+<+[+}+|+1+2+3+4+",
"5+                    6+7+8+z.Q.>.9+ .0+7 a+b+;+c+d+e+p $ f+g+h+",
"i+j+k+l+m+n+o+p+q+r+s+t+u+v+8+Q.3.j. .C.7 @ w+x+y+,.z+} A+B+C+D+",
"E+F+G+H+I+J+K+L+M+N+O+P+Q+R+S+T+W U+ .C.0+V+W+X+Y+Z+@ B `+ @.@+@",
"@@#@$@%@&@*@=@L+-@;@>@,@'@)@!@c ~@{@]@C.&+7 } x+^@/@[ (@} _@:@<@",
"[@}@|@1@2@3@4@5@6@7@8@9@0@a@b@c@d@e@f@R.g@h@i@j@k@l@@ I.m@n@o@p@",
"q@r@s@t@u@v@w@x@y@z@A@L+B@C@D@E@F@G@H@>.4.&+I@J@K@%+&+L@M@N@O@P@",
"q@Q@R@S@T@U@V@W@X@Y@Z@`@ #.#+#@###$#%#&#*#=#-#;#>#,#'#)#!#~#4@{#",
"]#^#/#(#_#:#<#[#}#|#H+1#2#3#4#5#6#7#8#9#0#a#b#c#d#e#f#g#h#i#j#k#",
"l#m#n#o#p#q#r#s#t#u#v#w#x#y#z#A#B#C#9#D#E#F#G#H#I#J#K#L#M#N#L+O#",
"P#).Q#R#S#T#U#V#W#X#Y#Z#c#`# $.$+$@$#$$$%$&$*$=$-$;$>$,$'$)$  !$",
"    ~${$]$  ^$/$($_$:$<$[$  }$    |$1$    2$      3$  4$  5$  6$",
"    7$8$9$  0$a$b$c$d$e$f$  g$    h$i$    j$    k$l$  m$  n$  o$",
"    p$q$r$  s$t$u$v$w$w$x$  y$    z$A$    B$    C$D$  E$F$G$  H$",
"    p$q$I$J$K$L$  M$N$O$P$  Q$    R$    S$T$    U$V$  W$X$Y$  Z$",
"    `$ %.%+%@%#%  $%%%&%    *%    =%    -%;%    U$V$  >%,%      ",
"    '%)%  !%~%{%  ]%^%/%          =%    (%_%    :%<%  [%}%      "};
