/* XPM */
static char * icon_absolute_xpm[] = {
"32 32 118 2",
"  	c None",
". 	c #DCDCDC",
"+ 	c #E4E4E4",
"@ 	c #EAEAEA",
"# 	c #ECECEC",
"$ 	c #F7F7F7",
"% 	c #CCCCCC",
"& 	c #BEBEBE",
"* 	c #F5F5F5",
"= 	c #B1B1B1",
"- 	c #343434",
"; 	c #0D0D0D",
"> 	c #0F0F0F",
", 	c #F1F1F1",
"' 	c #5F5F5F",
") 	c #000000",
"! 	c #595959",
"~ 	c #020000",
"{ 	c #D10C0C",
"] 	c #E10D0D",
"^ 	c #160101",
"/ 	c #E00C0C",
"( 	c #D00C0C",
"_ 	c #7C0707",
": 	c #0A0000",
"< 	c #890707",
"[ 	c #D90C0C",
"} 	c #A90909",
"| 	c #290202",
"1 	c #340303",
"2 	c #5A0505",
"3 	c #C50B0B",
"4 	c #9B0808",
"5 	c #9E0909",
"6 	c #C40B0B",
"7 	c #4C0404",
"8 	c #870707",
"9 	c #B50A0A",
"0 	c #AA0909",
"a 	c #CC0B0B",
"b 	c #5E5555",
"c 	c #770606",
"d 	c #DC0C0C",
"e 	c #9D0909",
"f 	c #150101",
"g 	c #810707",
"h 	c #D20C0C",
"i 	c #A10909",
"j 	c #710606",
"k 	c #7F4343",
"l 	c #B80A0A",
"m 	c #C10B0B",
"n 	c #A50909",
"o 	c #070000",
"p 	c #1C0101",
"q 	c #6F0606",
"r 	c #D40C0C",
"s 	c #CA0B0B",
"t 	c #0F0000",
"u 	c #635353",
"v 	c #180101",
"w 	c #690606",
"x 	c #430303",
"y 	c #CE0B0B",
"z 	c #8F0808",
"A 	c #C30B0B",
"B 	c #720606",
"C 	c #2E0202",
"D 	c #2F0202",
"E 	c #0E0000",
"F 	c #605454",
"G 	c #9C0909",
"H 	c #130101",
"I 	c #010000",
"J 	c #250202",
"K 	c #B00A0A",
"L 	c #1F0101",
"M 	c #933838",
"N 	c #060000",
"O 	c #D70C0C",
"P 	c #2D0202",
"Q 	c #900808",
"R 	c #DA0C0C",
"S 	c #210101",
"T 	c #980808",
"U 	c #490404",
"V 	c #140101",
"W 	c #A82C2C",
"X 	c #3D0303",
"Y 	c #BB0A0A",
"Z 	c #700606",
"` 	c #B10A0A",
" .	c #AE0A0A",
"..	c #030000",
"+.	c #9E3232",
"@.	c #585959",
"#.	c #7F0707",
"$.	c #330202",
"%.	c #100000",
"&.	c #DD0C0C",
"*.	c #B40A0A",
"=.	c #B60A0A",
"-.	c #8A0808",
";.	c #960808",
">.	c #C00B0B",
",.	c #A40909",
"'.	c #DB0C0C",
").	c #6E4D4D",
"!.	c #575959",
"~.	c #CD0B0B",
"{.	c #0C0000",
"].	c #8B0808",
"^.	c #400303",
"/.	c #7E7E7E",
"(.	c #0C0C0C",
"_.	c #F6F6F6",
":.	c #E0E0E0",
"<.	c #585858",
"                                                                ",
"    . + @ @ @ @ @ @ @ @ @ @ @ @ @ @ @ @ @ @ @ @ @ @ @ @ + .     ",
"    # $ % & & & & & & & & & & & & & & & & & & & & & & % $ #     ",
"    * = - ; > > > > > > > > > > > > > > > > > > > > ; - = *     ",
"    , ' ) ) ) ) ) ) ) ) ) ) ) ) ) ) ) ) ) ) ) ) ) ) ) ) ' ,     ",
"    , ! ) ) ) ) ) ) ) ) ) ) ) ) ) ) ) ) ) ) ) ) ) ) ) ) ! ,     ",
"    , ! ) ) ) ) ) ) ) ) ) ) ) ) ) ) ) ) ) ) ) ) ) ) ) ) ! ,     ",
"    , ! ) ) ) ) ) ) ) ) ) ) ) ) ) ) ) ) ) ) ) ) ) ) ) ) ! ,     ",
"    , ! ) ) ) ) ) ) ) ) ) ) ) ) ) ) ) ) ) ) ) ) ) ) ) ) ! ,     ",
"    , ! ) ) ) ) ) ) ) ) ) ) ) ) ) ) ) ) ) ) ) ) ) ) ) ) ! ,     ",
"    , ! ) ) ~ { ] ^ ) ) ) ] ] ] / ( _ ) ) ) : < { [ } | ! ,     ",
"    , ! ) ) 1 ] ] 2 ) ) ) ] 3 4 5 6 ] 7 ) ) 8 ] 9 0 / a b ,     ",
"    , ! ) ) c ] d e ) ) ) ] < ) ) f ] g ) ) h i ) ) j ] k ,     ",
"    , ! ) ) l m n [ o ) ) ] < ) ) p ] q ) ) r s 1 ) t 1 u ,     ",
"    , ! ) v ] 8 w ] x ) ) ] 3 4 e s y v ) ) z ] ] A B t ! ,     ",
"    , ! ) 2 ] 7 C ] 8 ) ) ] ] ] ] ] y D ) ) E e ] ] ] m F ,     ",
"    , ! ) G / H I h s ) ) ] < ) ~ J y K ) ) ) ) L w A ] M ,     ",
"    , ! N O ] ] ] ] ] P ) ] < ) ) ) Q R ) S T U ) ) V ] W ,     ",
"    , ! X ] s Y Y 6 ] Z ) ] < ) ) ) ` { ) V /  ...) 1 ] +.,     ",
"    , @.#.] $.) ) %.&.*.) ] 3 4 G =.] -.) ) ;.] >.,.[ '.).,     ",
"    , !.m ~.I ) ) ) ,./ ^ ] ] ] / O i t ) ) {.].h d 9 ^.! ,     ",
"    , ! ) ) ) ) ) ) ) ) ) ) ) ) ) ) ) ) ) ) ) ) ) ) ) ) ! ,     ",
"    , ! ) ) ) ) ) ) ) ) ) ) ) ) ) ) ) ) ) ) ) ) ) ) ) ) ! ,     ",
"    , ! ) ) ) ) ) ) ) ) ) ) ) ) ) ) ) ) ) ) ) ) ) ) ) ) ! ,     ",
"    , ! ) ) ) ) ) ) ) ) ) ) ) ) ) ) ) ) ) ) ) ) ) ) ) ) ! ,     ",
"    , ! ) ) ) ) ) ) ) ) ) ) ) ) ) ) ) ) ) ) ) ) ) ) ) ) ! ,     ",
"    , ! ) ) ) ) ) ) ) ) ) ) ) ) ) ) ) ) ) ) ) ) ) ) ) ) ! ,     ",
"    , /.(.) ) ) ) ) ) ) ) ) ) ) ) ) ) ) ) ) ) ) ) ) ) (./.,     ",
"    _.:./.<.! ! ! ! ! ! ! ! ! ! ! ! ! ! ! ! ! ! ! ! <./.:._.    ",
"    :._., , , , , , , , , , , , , , , , , , , , , , , , _.:.    ",
"    :.                                                    :.    ",
"                                                                "};
