/* XPM */
static char *icon_sun_xpm[] = {
/* columns rows colors chars-per-pixel */
"32 32 174 2",
"   c #008300770042",
".  c #07CD06B403A1",
"X  c #0C540A90049C",
"o  c #0ED00ED50EE6",
"O  c #11570E7305D5",
"+  c #13D1120E063C",
"@  c #1B77163D0746",
"#  c #19BB153C0861",
"$  c #1CBE183809AB",
"%  c #228D1CB60B28",
"&  c #25A124A30A27",
"*  c #2CCB24840CFF",
"=  c #2E6A2E69099B",
"-  c #31AD27A70C93",
";  c #33FA2A200D8C",
":  c #38982E0C0E3B",
">  c #33F333CE0A78",
",  c #3C373BE30C38",
"<  c #2BA72643115D",
"1  c #34D62C9611C7",
"2  c #3B052F820FEF",
"3  c #3B9433C31444",
"4  c #3CAC39C21463",
"5  c #3C723B6C187D",
"6  c #2D012D012D01",
"7  c #34C634C634C6",
"8  c #423436301298",
"9  c #45333852125F",
"0  c #4BCC3E91160D",
"q  c #48973EE718FF",
"w  c #440B40E50DFD",
"e  c #4CC74CDB0F51",
"r  c #42C94276163C",
"t  c #4FA340771454",
"y  c #4CB14C710FA2",
"u  c #4E9D42FD1D41",
"i  c #55B8446413F2",
"p  c #55734D3411F9",
"a  c #5EC84C47178B",
"s  c #5251489D1B30",
"d  c #5F0C5EEC1334",
"f  c #595058C31EC4",
"g  c #65A3521A18E0",
"h  c #6BF65AEA1C4C",
"j  c #73235C941BD9",
"k  c #64C7649B145B",
"l  c #6BAC6B8915A5",
"z  c #696E67031F03",
"x  c #772A63451E60",
"c  c #7EC666691CE3",
"v  c #72226CF317B0",
"b  c #75AA757417BB",
"n  c #50AA481426D4",
"m  c #5645500C2026",
"M  c #5B19570C206B",
"N  c #6FE55B372067",
"B  c #707E5F02236E",
"V  c #6792604B2183",
"C  c #6D4062092C91",
"Z  c #71FE6C7C25E5",
"A  c #7E4769AB2397",
"S  c #765A753D238B",
"D  c #7F8C707E2182",
"F  c #59D959DE59EE",
"G  c #7E5C7E5C7E5C",
"H  c #84536AA51E40",
"J  c #8A5F6FA41E3F",
"K  c #816F72C71AA8",
"L  c #8F7C73431F06",
"P  c #87036F64213E",
"I  c #88D16EE92123",
"U  c #89E372BB2119",
"Y  c #9450772920E6",
"T  c #92B87B9826BF",
"R  c #9B807EC4264A",
"E  c #91B97E5529AD",
"W  c #83FC83D11A8A",
"Q  c #8CCA8B8B1CA7",
"!  c #939B8BAC1E8A",
"~  c #957195311E5B",
"^  c #997E98901F3C",
"/  c #891A856126D5",
"(  c #893386DD2CAC",
")  c #9AB082CB20CB",
"_  c #9B3A99FF1FB5",
"`  c #998F8ACD300F",
"'  c #A58585CD2492",
"]  c #A5088A602773",
"[  c #AF108BA4263E",
"{  c #A435854728B7",
"}  c #A3C291D622F1",
"|  c #A0699FDA2076",
" . c #B60A926426F8",
".. c #B32190492876",
"X. c #B40B98CD2EFA",
"o. c #B93E99CC2BCA",
"O. c #AB719F9B3700",
"+. c #A6DCA67321E9",
"@. c #AA44A9C8229E",
"#. c #B34BB2FF2448",
"$. c #AEA2A2AC3B11",
"%. c #B2C6AD7C3804",
"&. c #BD81AFAA3917",
"*. c #C37E9C99294B",
"=. c #CB3BA2282A1D",
"-. c #CCE7A95C2A5C",
";. c #D4E5A96D2B62",
":. c #D9E1AE722C3C",
">. c #C779B76E29D6",
",. c #C874B4E82A3E",
"<. c #C779BA6929FA",
"1. c #C8ABBA13293B",
"2. c #C48FA72E3049",
"3. c #CB42AE1636A3",
"4. c #C3B4B1583903",
"5. c #DDF8B993321C",
"6. c #E3A2B58D2CAB",
"7. c #D4A5D4592B3D",
"8. c #D924D8E32C95",
"9. c #DBBAC50630EE",
"0. c #DF1FCC683446",
"q. c #D972C6FC3BD1",
"w. c #D501CFD33B7D",
"e. c #DE31CCFF3C0D",
"r. c #E7E2C3422F55",
"t. c #E814CF8C3024",
"y. c #EDF1CA8D3183",
"u. c #E6D0CC9739B5",
"i. c #F36CC5973120",
"p. c #F229CCDA3343",
"a. c #FFFFCE0B3219",
"s. c #E3D7D4AD33E3",
"d. c #EC14DA4A3407",
"f. c #EC72D5AE39A2",
"g. c #E6D2DAFB3DB7",
"h. c #EE98DB783F22",
"j. c #F60FD4CA3325",
"k. c #FEA8D4EE343A",
"l. c #F0B3D8C034D6",
"z. c #FF1FDC8F353F",
"x. c #F1FCD7743D46",
"c. c #F584DDFB3870",
"v. c #E578E5022EF7",
"b. c #E8EAE8062F7F",
"n. c #E9D6E9072FA9",
"m. c #F00FE2A431D3",
"M. c #ED47EC843056",
"N. c #F3EAE3B034F1",
"B. c #FFCDE3C83575",
"V. c #FFBDEBCC35EC",
"C. c #FAE7E0AF3C7C",
"Z. c #FECEEC2838AD",
"A. c #F7ACF6B7329E",
"S. c #FFFCF3903528",
"D. c #FFD2FE3C3496",
"F. c #FEABF4543EA3",
"G. c #C185B675507E",
"H. c #EB94D36A41B0",
"J. c #E0A2D9633FC4",
"K. c #F18ED8854060",
"L. c #FA8EDC994839",
"P. c #F032E57A4292",
"I. c #F2D7E7B8421F",
"U. c #FCD6E5F642D3",
"Y. c #FFF1F0E9428F",
"T. c #959A959A959A",
"R. c #B1D9B1D9B1D9",
"E. c #BEB6BEB6BEB6",
"W. c #CCC1CCC1CCC1",
"Q. c #DF66DF66DF66",
"!. c #E4B2E4B2E4B2",
"~. c #EAD5EAD5EAD5",
"^. c #F1E3F1E4F1E4",
"/. c None",
/* pixels */
"/./././././././././././././././././././././././././././././././.",
"/./.Q.!.~.~.~.~.~.~.~.~.~.~.~.~.~.~.~.~.~.~.~.~.~.~.~.~.!.Q././.",
"/./.~.^.W.E.E.E.E.E.E.E.E.E.E.E.E.E.E.E.E.E.E.E.E.E.E.W.^.~././.",
"/./.^.T.6 o o o o o o o o o o o o o o o o o o o o o o 7 R.^././.",
"/./.^.F                       $ %                       F ^././.",
"/./.^.F               % <     H Y .   $ s               F ^././.",
"/./.^.F               3 4.4 % :.6.- X T O.X             F ^././.",
"/./.^.F         O     ; H.( P k.k.] R x.z     @ X       F ^././.",
"/./.^.F       O R L 9 8 u.I.c.B.V.V.Z.J.3 9 Y  .%       F ^././.",
"/./.^.F         J k.i.0.c.z.k.k.k.z.z.c.s.p.k.' .       F ^././.",
"/./.^.F     .   9 i.V.z.z.z.V.V.V.V.z.k.B.V.k.g         F ^././.",
"/./.^.F   < ` / 4 9.z.z.B.S.D.D.D.D.S.S.k.z.d.s 2 9 q . F ^././.",
"/./.^.F   X x f.g.c.k.S.D.D.D.D.D.D.D.D.V.k.z.f.H.e.V   F ^././.",
"/./.^.F       g d.z.y.! Q | v.D.D.D.D.D.S.B.z.F.%.r .   F ^././.",
"/./.^.F     # h d.B.1.& ~ k d M.b.b.A.n.A.m.y.V.2.i O   F ^././.",
"/./.^.F X h =.j.B.z.>.= v.8.> #.b y +.k _ v ) V.z.i. .: F ^././.",
"/./.^.F + I 6.k.B.z.<.= v.7.> #.W > l Q e w -.V.z.;.c @ F ^././.",
"/./.^.F   . * U l.k.,.& ^ d l ~ > , k 8.= p j.N.D %     F ^././.",
"/./.^.F     + f g.z.t.Q Q @.M.v.^ ^ #.7., } B.N.U @     F ^././.",
"/./.^.F   & &.K.C.B.z.S.D.D.D.D.D.D.D.^ K j.z.P.U.X.1   F ^././.",
"/./.^.F   4 A N B 0.z.z.Z.D.D.D.D.D.D.N.j.z.s.M S $.C . F ^././.",
"/./.^.F   .     * r.V.z.z.B.S.S.S.V.B.z.z.Z.p.0   X .   F ^././.",
"/./.^.F         c a.j.d.z.z.B.B.z.k.k.z.N.z.k.H         F ^././.",
"/./.^.F       O { ' a 4 w.Z.N.V.B.B.Y.U.E j *...O       F ^././.",
"/./.^.F       . # .   r h.o.h y.z.5.G.L.g   O 1 X       F ^././.",
"/./.^.F               Z 3.- . [ a.j 5 q.u               F ^././.",
"/./.^.F               % 3     t *.%   m n               F ^././.",
"/./.^.G o                     X :                     o G ^././.",
"/./.^.Q.G F F F F F F F F F F F F F F F F F F F F F F G Q.^././.",
"/./.Q.^.^.^.^.^.^.^.^.^.^.^.^.^.^.^.^.^.^.^.^.^.^.^.^.^.^.Q././.",
"/./.Q././././././././././././././././././././././././././.Q././.",
"/./././././././././././././././././././././././././././././././."
};
