/* XPM */
static char *icon_nospin_xpm[] = {
/* columns rows colors chars-per-pixel */
"64 64 128 2",
"   c black",
".  c #010000",
"X  c #010101",
"o  c #030000",
"O  c #020202",
"+  c gray1",
"@  c #040000",
"#  c #070101",
"$  c #040404",
"%  c gray2",
"&  c #060606",
"*  c #070707",
"=  c #090101",
"-  c #0B0101",
";  c gray3",
":  c #090909",
">  c gray4",
",  c #0B0B0B",
"<  c gray5",
"1  c #0E0E0E",
"2  c #0E0E0F",
"3  c gray6",
"4  c #130101",
"5  c #190202",
"6  c #101010",
"7  c #101011",
"8  c #111112",
"9  c gray7",
"0  c gray8",
"q  c #151515",
"w  c #151516",
"e  c #181819",
"r  c #1B1B1C",
"t  c gray12",
"y  c #3F0404",
"u  c gray13",
"i  c #202022",
"p  c #222225",
"a  c #232326",
"s  c #2A2A2A",
"d  c #2A2A2D",
"f  c #2C2C2F",
"g  c gray20",
"h  c #323235",
"j  c #343439",
"k  c #39393E",
"l  c #430505",
"z  c #4E0505",
"x  c #540606",
"c  c #760808",
"v  c #3C3C40",
"b  c #3D3D43",
"n  c #424248",
"m  c #4D4D55",
"M  c #505059",
"N  c #54545D",
"B  c #575760",
"V  c #595963",
"C  c #5B5B66",
"Z  c #62626D",
"A  c #666673",
"S  c #6A6A78",
"D  c #8F0A0A",
"F  c #930A0A",
"G  c #980A0A",
"H  c #A50B0B",
"J  c #B30C0C",
"K  c #8A1E21",
"L  c red",
"P  c #FB1111",
"I  c #FA1112",
"U  c #FA1213",
"Y  c #C26882",
"T  c #808091",
"R  c #868697",
"E  c #86869E",
"W  c #979797",
"Q  c #9D9D9D",
"!  c #8E8EA1",
"~  c #8080AD",
"^  c #9090A4",
"/  c #9494A9",
"(  c #9595AB",
")  c #9999B1",
"_  c #9C9CB4",
"`  c #A0A0B9",
"'  c #D18EBC",
"]  c #A6A6C1",
"[  c #A7A7C3",
"{  c #A6A6C6",
"}  c #A8A8C5",
"|  c #ABABC8",
" . c #B1B1D1",
".. c #B3B3D3",
"X. c #B7B7D9",
"o. c #BABADE",
"O. c #BEBEE3",
"+. c gray78",
"@. c #C0C0E5",
"#. c #C3C3E8",
"$. c #C5C5EB",
"%. c #CACAF0",
"&. c #CCCCF2",
"*. c #CDCDF2",
"=. c #CDCDF3",
"-. c #D0D0F5",
";. c #D1D1F6",
":. c #D5D5F9",
">. c #D7D7FA",
",. c #DBDBFB",
"<. c #DFDFFD",
"1. c #E4E4E4",
"2. c #E0E0EE",
"3. c #E1E1FC",
"4. c #E3E3FE",
"5. c #E5E5FE",
"6. c #E8E8FE",
"7. c #E9E9FF",
"8. c #EBEBFE",
"9. c #ECEBFE",
"0. c #ECECFF",
"q. c #EDEDFF",
"w. c #EFEFFF",
"e. c #F3F3FF",
"r. c #F5F5FF",
"t. c #F9F9FF",
"y. c gray100",
"u. c None",
/* pixels */
"u.u.u.u.u.u.u.u.u.u.u.u.u.u.u.u.u.u.u.u.u.u.u.u.u.u.u.u.u.u.u.u.u.u.u.u.u.u.u.u.u.u.u.u.u.u.u.u.u.u.u.u.u.u.u.u.u.u.u.u.u.u.u.u.",
"u.u.u.u.u.u.u.u.u.u.u.u.u.u.u.u.u.u.u.u.u.u.u.u.u.u.u.u.u.u.u.u.u.u.u.u.u.u.u.u.u.u.u.u.u.u.u.u.u.u.u.u.u.u.u.u.u.u.u.u.u.u.u.u.",
"u.u.u.y.y.+.+.+.+.+.+.+.+.+.+.+.+.+.+.+.+.+.+.+.+.+.+.+.+.+.+.+.+.+.+.+.+.+.+.+.+.+.+.+.+.+.+.+.+.+.+.+.+.+.+.+.+.+.+.y.y.u.u.u.",
"u.u.u.y.+.+.y.y.y.y.y.y.y.y.y.y.y.y.y.y.y.y.y.y.y.y.y.y.y.y.y.y.y.y.y.y.y.y.y.y.y.y.y.y.y.y.y.y.y.y.y.y.y.y.y.y.y.y.+.+.y.u.u.u.",
"u.u.u.+.+.y.y.y.y.y.y.y.y.y.y.y.y.y.y.y.y.y.y.y.y.y.y.y.y.y.y.y.y.y.y.y.y.y.y.y.y.y.y.y.y.y.y.y.y.y.y.y.y.y.y.y.y.y.y.+.+.u.u.u.",
"u.u.u.+.y.y.y.y.Q Q Q Q Q Q Q Q Q Q Q Q Q Q Q Q Q Q Q Q Q Q Q Q Q Q Q Q Q Q Q Q Q Q Q Q Q Q Q Q Q Q Q Q Q Q Q Q y.y.y.y.+.u.u.u.",
"u.u.u.+.y.y.1.Q Q P P P P P P P P P P P P P P P P P P P P P P P P P P P P P P P P P P P P P P P P P P P P P P Q Q y.y.y.+.u.u.u.",
"u.u.u.+.y.y.Q Q P P P P P P P P P P P P P P P P P P P P P P P P P P P P P P P P P P P P P P P P P P P P P P P P Q Q y.y.+.u.u.u.",
"u.u.u.+.y.y.Q P P P                                                                                     P P P P P Q y.y.+.u.u.u.",
"u.u.u.+.y.y.Q P P                                                                                     P P P P P P Q y.y.+.u.u.u.",
"u.u.u.+.y.y.Q P P                                                                                   P P P P P P P Q y.y.+.u.u.u.",
"u.u.u.+.y.y.Q P P                                                                                 P P P P P   P P Q y.y.+.u.u.u.",
"u.u.u.+.y.y.Q P P                                         = - 5 4                               P P P P P     P P Q y.y.+.u.u.u.",
"u.u.u.+.y.y.Q P P                                           . . .                             P P P P P       P P Q y.y.+.u.u.u.",
"u.u.u.+.y.y.Q P P                                         o # # # @                         P P P P P         P P Q y.y.+.u.u.u.",
"u.u.u.+.y.y.Q P P                                         z G F D y                       P P P P P           P P Q y.y.+.u.u.u.",
"u.u.u.+.y.y.Q P P                                         c P P P c                     P P P P P             P P Q y.y.+.u.u.u.",
"u.u.u.+.y.y.Q P P                                         c P P P c                   P P P P P               P P Q y.y.+.u.u.u.",
"u.u.u.+.y.y.Q P P                                         c P P P c                 P P P P P                 P P Q y.y.+.u.u.u.",
"u.u.u.+.y.y.Q P P                                         c P P P c               P P P P P                   P P Q y.y.+.u.u.u.",
"u.u.u.+.y.y.Q P P                                         c P P P c             P P P P P                     P P Q y.y.+.u.u.u.",
"u.u.u.+.y.y.Q P P                                         c P P P c           P P P P P                       P P Q y.y.+.u.u.u.",
"u.u.u.+.y.y.Q P P                                         c P P P c         P P P P P                         P P Q y.y.+.u.u.u.",
"u.u.u.+.y.y.Q P P                                         c P P P c       P P P P P                           P P Q y.y.+.u.u.u.",
"u.u.u.+.y.y.Q P P                                         K P P P c     P P P P P                             P P Q y.y.+.u.u.u.",
"u.u.u.+.y.y.Q P P                         n ! ..$.:.r.y.y.' P P P ' y.P P P P P T f                           P P Q y.y.+.u.u.u.",
"u.u.u.+.y.y.Q P P                 e R $.t.y.y.y.y.y.y.y.y.' P P P ' P P P P P y.y.y.0.o.S :                   P P Q y.y.+.u.u.u.",
"u.u.u.+.y.y.Q P P             b O.y.y.y.y.y.y.y.y.y.y.y.y.' P P P P P P P P y.y.y.y.y.y.y.r. .a               P P Q y.y.+.u.u.u.",
"u.u.u.+.y.y.Q P P         7 @.y.y.y.y.y.y.y.y.y.y.y.y.y.e.Y P P P P P P P y.y.y.y.y.y.y.y.y.y.y.[ &           P P Q y.y.+.u.u.u.",
"u.u.u.+.y.y.Q P P       j 5.y.y.y.y.y.y.y.y.y.-./ } A M p c P P P P P P C ` [ &.>.4.y.y.y.y.y.y.y.>.3         P P Q y.y.+.u.u.u.",
"u.u.u.+.y.y.Q P P     w <.y.y.y.y.y.y.y.y.] & X O X     X c P P P P P * O X + 0 g k m #.y.y.2.      =.+       P P Q y.y.+.u.u.u.",
"u.u.u.+.y.y.Q P P     ) y.y.y.y.y.y.;.S %   X $ O X X     c P P P P         X   O $ 6 i ! 2.  y.y.y.  N       P P Q y.y.+.u.u.u.",
"u.u.u.+.y.y.Q P P      .y.y.y.y.y.y.d X < + X + + O     W P P P P c         X       $ ; 9   y.y.y.y.y.T       P P Q y.y.+.u.u.u.",
"u.u.u.+.y.y.Q P P     S y.y.y.y.y.y.,.r &   ; ; < 3     P P P P P c X     X & $ + + < O t ! y.y.y.y.y.f       P P Q y.y.+.u.u.u.",
"u.u.u.+.y.y.Q P P       o.y.y.y.y.y.y.6.>._ 8 2 f > % P P P P I P c         X O X 1 +     h 5.y.y.y.(         P P Q y.y.+.u.u.u.",
"u.u.u.+.y.y.Q P P       & X.y.y.y.y.y.y.y.y.y.y.^ | P P P P P 3.U c   & + X     X O O     $ B q.X.v           P P Q y.y.+.u.u.u.",
"u.u.u.+.y.y.Q P P           Z >.y.y.y.y.y.y.y.y.y.P P P P P t.y.y.c X   X   O %       > X   u s ,             P P Q y.y.+.u.u.u.",
"u.u.u.+.y.y.Q P P               V #.w.y.y.y.y.y.P P P P P y.y.y.y.y.{ $     X   X       % O                   P P Q y.y.+.u.u.u.",
"u.u.u.+.y.y.Q P P                     k ) $.w.P P P P P y.y.y.y.y.y.y.*.< O O     X : %                       P P Q y.y.+.u.u.u.",
"u.u.u.+.y.y.Q P P                           P P P P P   y.y.y.y.y.y.E %       X                               P P Q y.y.+.u.u.u.",
"u.u.u.+.y.y.Q P P                         P P P P P     y.y.y.y.y.c                                           P P Q y.y.+.u.u.u.",
"u.u.u.+.y.y.Q P P                       P P P P P       t.y.9.%.U c                                           P P Q y.y.+.u.u.u.",
"u.u.u.+.y.y.Q P P                     P P P P P       q 7.8.P P P c                                           P P Q y.y.+.u.u.u.",
"u.u.u.+.y.y.Q P P                   P P P P P         * ~ c P P P c                                           P P Q y.y.+.u.u.u.",
"u.u.u.+.y.y.Q P P                 P P P P P               c P P P c                                           P P Q y.y.+.u.u.u.",
"u.u.u.+.y.y.Q P P               P P P P P                 c P P P c                                           P P Q y.y.+.u.u.u.",
"u.u.u.+.y.y.Q P P             P P P P P                   c P P P c                                           P P Q y.y.+.u.u.u.",
"u.u.u.+.y.y.Q P P           P P P P P                     c P P P c                                           P P Q y.y.+.u.u.u.",
"u.u.u.+.y.y.Q P P         P P P P P                       c P P P c                                           P P Q y.y.+.u.u.u.",
"u.u.u.+.y.y.Q P P       P P P P P                         l H J J x                                           P P Q y.y.+.u.u.u.",
"u.u.u.+.y.y.Q P P     P P P P P                             .                                                 P P Q y.y.+.u.u.u.",
"u.u.u.+.y.y.Q P P   P P P P P                                                                                 P P Q y.y.+.u.u.u.",
"u.u.u.+.y.y.Q P P L L P P P                                                                                   P P Q y.y.+.u.u.u.",
"u.u.u.+.y.y.Q P L L L L P                                                                                     P P Q y.y.+.u.u.u.",
"u.u.u.+.y.y.Q L L L L L                                                                                     P P P Q y.y.+.u.u.u.",
"u.u.u.+.y.y.Q Q L L P P P P P P P P P P P P P P P P P P P P P P P P P P P P P P P P P P P P P P P P P P P P P P Q Q y.y.+.u.u.u.",
"u.u.u.+.y.y.y.Q Q L P P P P P P P P P P P P P P P P P P P P P P P P P P P P P P P P P P P P P P P P P P P P P Q Q y.y.y.+.u.u.u.",
"u.u.u.+.y.y.y.y.Q Q Q Q Q Q Q Q Q Q Q Q Q Q Q Q Q Q Q Q Q Q Q Q Q Q Q Q Q Q Q Q Q Q Q Q Q Q Q Q Q Q Q Q Q Q Q Q y.y.y.y.+.u.u.u.",
"u.u.u.+.+.y.y.y.y.y.y.y.y.y.y.y.y.y.y.y.y.y.y.y.y.y.y.y.y.y.y.y.y.y.y.y.y.y.y.y.y.y.y.y.y.y.y.y.y.y.y.y.y.y.y.y.y.y.y.+.+.u.u.u.",
"u.u.u.y.+.+.y.y.y.y.y.y.y.y.y.y.y.y.y.y.y.y.y.y.y.y.y.y.y.y.y.y.y.y.y.y.y.y.y.y.y.y.y.y.y.y.y.y.y.y.y.y.y.y.y.y.y.y.+.+.y.u.u.u.",
"u.u.u.y.y.+.+.+.+.+.+.+.+.+.+.+.+.+.+.+.+.+.+.+.+.+.+.+.+.+.+.+.+.+.+.+.+.+.+.+.+.+.+.+.+.+.+.+.+.+.+.+.+.+.+.+.+.+.+.y.y.u.u.u.",
"u.u.u.u.u.u.u.u.u.u.u.u.u.u.u.u.u.u.u.u.u.u.u.u.u.u.u.u.u.u.u.u.u.u.u.u.u.u.u.u.u.u.u.u.u.u.u.u.u.u.u.u.u.u.u.u.u.u.u.u.u.u.u.u.",
"u.u.u.u.u.u.u.u.u.u.u.u.u.u.u.u.u.u.u.u.u.u.u.u.u.u.u.u.u.u.u.u.u.u.u.u.u.u.u.u.u.u.u.u.u.u.u.u.u.u.u.u.u.u.u.u.u.u.u.u.u.u.u.u.",
"u.u.u.u.u.u.u.u.u.u.u.u.u.u.u.u.u.u.u.u.u.u.u.u.u.u.u.u.u.u.u.u.u.u.u.u.u.u.u.u.u.u.u.u.u.u.u.u.u.u.u.u.u.u.u.u.u.u.u.u.u.u.u.u."
};
