/* XPM */
static char * icon_earth_xpm[] = {
"32 32 360 2",
"  	c None",
". 	c #AFCB51",
"+ 	c #FFFF9C",
"@ 	c #FFFFB8",
"# 	c #FFFFBD",
"$ 	c #FAECA6",
"% 	c #D0D0B4",
"& 	c #FFFFC6",
"* 	c #BDF5FF",
"= 	c #A6C643",
"- 	c #A1E73F",
"; 	c #AFE751",
"> 	c #FAFF64",
", 	c #FFFFA1",
"' 	c #FFFF98",
") 	c #7BA198",
"! 	c #357B9C",
"~ 	c #4D8580",
"{ 	c #93AA72",
"] 	c #005BC6",
"^ 	c #0031DE",
"/ 	c #69BDFF",
"( 	c #98D9FF",
"_ 	c #AFC672",
": 	c #E7FF72",
"< 	c #D4FF5F",
"[ 	c #FFFF77",
"} 	c #FFFF72",
"| 	c #FFFF93",
"1 	c #C6FF8E",
"2 	c #0043E2",
"3 	c #002CF0",
"4 	c #56AA93",
"5 	c #ECFF93",
"6 	c #85D0AA",
"7 	c #0072CB",
"8 	c #000BD9",
"9 	c #002CC6",
"0 	c #0031C6",
"a 	c #0019D4",
"b 	c #0015E7",
"c 	c #002398",
"d 	c #BDE298",
"e 	c #FFFF8A",
"f 	c #FEFF7B",
"g 	c #FFFF7B",
"h 	c #F0FF6D",
"i 	c #FAFF7B",
"j 	c #98FEAA",
"k 	c #0056B8",
"l 	c #31A193",
"m 	c #FFFF8E",
"n 	c #FFFFAA",
"o 	c #64DEC2",
"p 	c #003AD0",
"q 	c #0027D0",
"r 	c #001ED0",
"s 	c #0000E2",
"t 	c #0023E7",
"u 	c #0000FF",
"v 	c #000BC6",
"w 	c #8E9319",
"x 	c #8AE72C",
"y 	c #ECFF72",
"z 	c #AFFF64",
"A 	c #ECFF6D",
"B 	c #E2FF72",
"C 	c #9CE76D",
"D 	c #FFFFAF",
"E 	c #FAFF5B",
"F 	c #BDFF85",
"G 	c #64CBD4",
"H 	c #0048E7",
"I 	c #0027D4",
"J 	c #002CE2",
"K 	c #0035EC",
"L 	c #0002FF",
"M 	c #4D00FA",
"N 	c #075177",
"O 	c #648E00",
"P 	c #7BD407",
"Q 	c #D0FF56",
"R 	c #72FF31",
"S 	c #77FF5B",
"T 	c #D0FF5B",
"U 	c #FFFF80",
"V 	c #E7FF51",
"W 	c #00AA00",
"X 	c #007B7B",
"Y 	c #2798BD",
"Z 	c #0077FA",
"` 	c #0043FF",
" .	c #0027E7",
"..	c #002CE7",
"+.	c #002CFE",
"@.	c #0031E7",
"#.	c #690085",
"$.	c #8E800B",
"%.	c #FFFF35",
"&.	c #FFFF51",
"*.	c #FFFF85",
"=.	c #FFFF6D",
"-.	c #AFFF3F",
";.	c #3FF048",
">.	c #48FA48",
",.	c #E7FF80",
"'.	c #6DFF00",
").	c #0BB43A",
"!.	c #005FA1",
"~.	c #0043F5",
"{.	c #003AF5",
"].	c #0031F0",
"^.	c #002CEC",
"/.	c #004DFA",
"(.	c #000BFF",
"_.	c #0023EC",
":.	c #0023FE",
"<.	c #CB0000",
"[.	c #FF5F00",
"}.	c #FFFF64",
"|.	c #FFFFA6",
"1.	c #AAFF5B",
"2.	c #BDFF5B",
"3.	c #98FF4D",
"4.	c #69FF00",
"5.	c #02B415",
"6.	c #0064E2",
"7.	c #004DFE",
"8.	c #0048FF",
"9.	c #0027F0",
"0.	c #A60051",
"a.	c #FF8E1E",
"b.	c #FFFFB4",
"c.	c #FFFFC2",
"d.	c #D4FF35",
"e.	c #DEFF43",
"f.	c #D4FF3A",
"g.	c #5BFF00",
"h.	c #00DE00",
"i.	c #004DD4",
"j.	c #0035FF",
"k.	c #003FFF",
"l.	c #003AFF",
"m.	c #0031FF",
"n.	c #2300FF",
"o.	c #0031FE",
"p.	c #003AFA",
"q.	c #003AFE",
"r.	c #0010E7",
"s.	c #FF0000",
"t.	c #FFFFD4",
"u.	c #B8FF19",
"v.	c #93FF00",
"w.	c #8AFF15",
"x.	c #15FF00",
"y.	c #23FF00",
"z.	c #15F58E",
"A.	c #004DFF",
"B.	c #0056FF",
"C.	c #0035F5",
"D.	c #0023F0",
"E.	c #AFFF02",
"F.	c #31D400",
"G.	c #3FFF00",
"H.	c #31FF00",
"I.	c #19E75F",
"J.	c #0085FF",
"K.	c #005FFF",
"L.	c #0048FE",
"M.	c #002CFF",
"N.	c #0043FA",
"O.	c #003FF5",
"P.	c #000BEC",
"Q.	c #E78AC6",
"R.	c #6DFFD0",
"S.	c #00BDB8",
"T.	c #00DEC2",
"U.	c #3FFF8A",
"V.	c #0BD4F5",
"W.	c #0069FF",
"X.	c #0010FF",
"Y.	c #0027FF",
"Z.	c #980BE2",
"`.	c #D4FA8A",
" +	c #FFFFDE",
".+	c #64FFFA",
"++	c #005BFF",
"@+	c #006DFF",
"#+	c #00A1FF",
"$+	c #15D9D9",
"%+	c #0200FF",
"&+	c #0700FF",
"*+	c #4385E2",
"=+	c #00AAFF",
"-+	c #009CFF",
";+	c #00AFFF",
">+	c #00AFD4",
",+	c #007BFF",
"'+	c #0051FF",
")+	c #3100FF",
"!+	c #9319FF",
"~+	c #07FFFF",
"{+	c #0098FF",
"]+	c #31FFFF",
"^+	c #07E2FF",
"/+	c #106DF0",
"(+	c #0077EC",
"_+	c #0064FF",
":+	c #6915C6",
"<+	c #FF0051",
"[+	c #0007FF",
"}+	c #0072FF",
"|+	c #B800FF",
"1+	c #985FFF",
"2+	c #AFFFBD",
"3+	c #3AFFCB",
"4+	c #64FF27",
"5+	c #4898FF",
"6+	c #9C00FF",
"7+	c #FF00FF",
"8+	c #7B15FF",
"9+	c #004DC2",
"0+	c #354D8A",
"a+	c #FF0007",
"b+	c #1931FF",
"c+	c #0019FF",
"d+	c #1500FF",
"e+	c #0015FF",
"f+	c #1027FF",
"g+	c #7756FF",
"h+	c #B49898",
"i+	c #FFAF00",
"j+	c #D9D05F",
"k+	c #2C98FF",
"l+	c #5B31FF",
"m+	c #5107FF",
"n+	c #0080FF",
"o+	c #4815FF",
"p+	c #FFAA00",
"q+	c #2CFFA1",
"r+	c #00CBFF",
"s+	c #009CF5",
"t+	c #00BDFF",
"u+	c #00E2FF",
"v+	c #3FC6FF",
"w+	c #0023FF",
"x+	c #692CFF",
"y+	c #3169E2",
"z+	c #85FFDE",
"A+	c #AFFF4D",
"B+	c #FFFFFF",
"C+	c #8EFFFF",
"D+	c #0093FF",
"E+	c #6D31FF",
"F+	c #9800C2",
"G+	c #CB9CFF",
"H+	c #FFFFFE",
"I+	c #FFFFCB",
"J+	c #B4FF7B",
"K+	c #15BDFF",
"L+	c #001EFF",
"M+	c #C600FF",
"N+	c #2C10FF",
"O+	c #2323FF",
"P+	c #E2A1FF",
"Q+	c #FFFFFA",
"R+	c #FFFFE7",
"S+	c #B4FF72",
"T+	c #D0FF6D",
"U+	c #E2FF56",
"V+	c #ECFF48",
"W+	c #80FFC6",
"X+	c #02BDFF",
"Y+	c #A600FF",
"Z+	c #0B3AFF",
"`+	c #0B0BFF",
" @	c #00FFFF",
".@	c #FEFFFF",
"+@	c #F5FF56",
"@@	c #DEFF5F",
"#@	c #F0FF7B",
"$@	c #AAFF3F",
"%@	c #8EFF2C",
"&@	c #AAFF69",
"*@	c #3F0BFF",
"=@	c #6DA1FF",
"-@	c #AFFF23",
";@	c #7BFF02",
">@	c #AFFF2C",
",@	c #FEFF69",
"'@	c #D0FF3F",
")@	c #A1FF23",
"!@	c #8EFF27",
"~@	c #FAFF51",
"{@	c #FFFFE2",
"]@	c #EC43EC",
"^@	c #AFFF31",
"/@	c #4DFF00",
"(@	c #A1FF19",
"_@	c #BDFF31",
":@	c #AAFF23",
"<@	c #80FF27",
"[@	c #69FF27",
"}@	c #AFFF3A",
"|@	c #5619FF",
"1@	c #ECFFB4",
"2@	c #B8FF35",
"3@	c #56FF19",
"4@	c #93FF10",
"5@	c #9CFF0B",
"6@	c #9CFF15",
"7@	c #77FF43",
"8@	c #6DFF43",
"9@	c #E2FF43",
"0@	c #3A10FF",
"a@	c #C23AFF",
"b@	c #FFFF69",
"c@	c #8AFF1E",
"d@	c #8AFF3A",
"e@	c #B4FF27",
"f@	c #D0FF27",
"g@	c #D9FF48",
"h@	c #FFFF48",
"i@	c #FFFF5B",
"j@	c #FF98FF",
"k@	c #D4FF7B",
"l@	c #D4FF31",
"m@	c #A6FF10",
"n@	c #FEFF48",
"o@	c #FEFF3F",
"p@	c #1507FF",
"q@	c #0035FA",
"r@	c #0048FA",
"s@	c #C63AFF",
"t@	c #AFDE19",
"u@	c #CBFF35",
"v@	c #FAFF56",
"w@	c #D0FF48",
"x@	c #A1FF1E",
"y@	c #6D02FF",
"z@	c #003FFE",
"A@	c #0043EC",
"B@	c #B848FF",
"C@	c #FFD080",
"D@	c #FFDE1E",
"E@	c #A6F531",
"F@	c #FFFF4D",
"G@	c #C6FF31",
"H@	c #0043FE",
"I@	c #0043E7",
"J@	c #43BDFF",
"K@	c #F5FF5F",
"L@	c #FFFF43",
"M@	c #003AF0",
"N@	c #C2F0FF",
"O@	c #D40080",
"P@	c #2700FE",
"Q@	c #0031F5",
"R@	c #0035E2",
"S@	c #CBF0E7",
"                        . + @ # $ % & *                         ",
"                  = - ; > , ' ) ! ~ { ] ^ / (                   ",
"                _ : < [ } | 1 2 3 4 5 6 7 8 9 0 a               ",
"            b c d e f g h g i j k l m n & o p q r s             ",
"          t u v w x y m e z A | B C D , E F G H 3 I J           ",
"        K L M N O P | | e Q R S T U # V W X Y Z `  ...+.        ",
"      q @.L #.$.%.&.g } *.=.-.;.>.,.&.'.).!...~.{.].^./.(.      ",
"       ._.:.<.[.=.' }.| + |.e 1.2.3.4.5.6.7.].^.].].].8.u u     ",
"    ].^.9.+.0.a.+ b.+ c.# }.d.e.f.g.h.i.j.` k.l.j.m.7.u n.`     ",
"  o.p.q.].l.r.s.U t.D [ + u.v.w.x.y.z.m.` k.` j.j.m.A.u u B.l.  ",
"  l.j.p.C.` D.s.+ , b.D *.E.F.G.H.I.J.` j.` 8.j.j.j.K.L u L.M.  ",
"  j.l.N.O.q.q.P.Q.e # + *.R.S.T.U.V.W.l.` ` l.j.M.l.l.u X.l.M.m.",
"Y.M.l.q.p.k.A.+.Z.`. +m .+W.++@+#+$+B.l.k.l.j.l.j.l.j.%+L A.j.l.",
"m.k.j.k.` ` B.l.&+*+# @ =+K.J.-+;+>+,+W.8.l.` l.j.j.B.u u ++l.k.",
"l.A.l.` ` '+W.++)+!+m U ~+{+]+^+8.l./+(+_+:+<+&+l.l.'+[+[+_+k.M.",
"j.` ` ` 8.++K.}+M.|+1+n 2+3+4+5+6+7+8+9+0+s.a+b+u j.B.c+d+c+8.k.",
"8.A.8.A.A.K._+,+_+(.e+f+g+h+i+j+k+_+B.K.8.j.++_+l+` '+'+u m+e+m.",
"B._+_+B._+++@+n+,+j.m.W.j.o+a+p+q+r+W.}+s+t+u+v+w+B.B.B.'+e+u &+",
"B.W.W._+W.@+@+,+W.w+c+n+n+,+j.x+y+8.W.z+A+2.@ B+C+;+=+W._+_+B.j.",
"A.B.++++B._+W.++@+j.[+J.J.D+{+}+E+F+G+H+I+' m I+c.J+2+K+_+A.'+_+",
"  ++A.8.8.A.A.8.,+L+M+N+u X.m.l.O+c+P+Q+R+, S+T+U U+V+W+X+D+_+++",
"  8.'+'+` A.k.'+,+e+Y+(.(.(.Z+`+w+ @.@+@=.@@m n e #@$@%@&@t.B+  ",
"  k.'+'+A.A.'+_+8.*@L ,+}+@+@+B.Y.=@, -@;@>@,@*.[ '@)@!@~@{@B+  ",
"    A._+_+A.++8.(.e+j.` A.B.'+W.u ]@e ^@/@w.(@_@:@<@[@}@*. +    ",
"    B.B._+++++(.X.++'+k.'+A.8._+e+|@1@2@H.3@4@5@6@7@8@9@m D     ",
"      B.++_+8.0@j.}+B.'+++'+8.8.A.u a@D b@c@d@e@f@g@g@h@i@      ",
"        '+B.8.e+'+++A.B.8.` ` k.O.+.u j@b.g k@l@m@n@&.o@        ",
"          '+j.p@j.A.A.` ` ` p.q@q@r@j.u s@Q+g t@u@v@w@x@        ",
"            L y@c+_+B.A.` 8.` z@l.N.A@X.B@C@D@E@F@G@            ",
"              u u B.'+'+A.'+8.k.k.H@I@u J@t.U K@L@              ",
"                  u Y.` ` ` ` z@p.p.M@u N@B+n                   ",
"                      O@P@u Q@M@p.R@k.J.S@                      "};
