/* XPM */
static char * icon_vert_zoom_auto_xpm[] = {
"32 32 316 2",
"  	c None",
". 	c #FFFFFF",
"+ 	c #D0D0D0",
"@ 	c #E3E3E3",
"# 	c #E1E1E1",
"$ 	c #BFBFBF",
"% 	c #F4F4F4",
"& 	c #CFCFCF",
"* 	c #D7D7D7",
"= 	c #D6D5D4",
"- 	c #D4D0CC",
"; 	c #D3CEC9",
"> 	c #D3CEC8",
", 	c #D3CFCA",
"' 	c #D5D2CF",
") 	c #C0C0C0",
"! 	c #B9B9B9",
"~ 	c #1D1D1D",
"{ 	c #000000",
"] 	c #00030B",
"^ 	c #204C7F",
"/ 	c #387ECE",
"( 	c #4191ED",
"_ 	c #4394F1",
": 	c #3E8BE3",
"< 	c #306EB5",
"[ 	c #0F2A49",
"} 	c #424242",
"| 	c #295587",
"1 	c #4D9EFA",
"2 	c #4996F1",
"3 	c #49A1EF",
"4 	c #4BADF5",
"5 	c #4AAFF5",
"6 	c #49A8F3",
"7 	c #4899EF",
"8 	c #4B99F5",
"9 	c #4186D5",
"0 	c #0D1C2E",
"a 	c #484848",
"b 	c #3A79C1",
"c 	c #4A96F1",
"d 	c #4AABF4",
"e 	c #4CC6FA",
"f 	c #4DC9FB",
"g 	c #4CC8FB",
"h 	c #4DC7FB",
"i 	c #4DC8FB",
"j 	c #4DCAFB",
"k 	c #4BBBF7",
"l 	c #499AF0",
"m 	c #4B9CF7",
"n 	c #142A43",
"o 	c #356DAD",
"p 	c #4894EE",
"q 	c #4BB7F7",
"r 	c #4CC7FB",
"s 	c #4CC7FA",
"t 	c #499DF0",
"u 	c #0D1C2D",
"v 	c #484847",
"w 	c #183251",
"x 	c #4C9BF8",
"y 	c #4AB2F5",
"z 	c #4CC8FA",
"A 	c #4187D6",
"B 	c #454340",
"C 	c #3F81CD",
"D 	c #499EF0",
"E 	c #4CC9FB",
"F 	c #4CC9FA",
"G 	c #4CCAFA",
"H 	c #4CCCFA",
"I 	c #4BBDF5",
"J 	c #162E4B",
"K 	c #546170",
"L 	c #4996F0",
"M 	c #4BB5F5",
"N 	c #4CCBF9",
"O 	c #4DCCFA",
"P 	c #4CCDF9",
"Q 	c #4CCFF9",
"R 	c #4CD0F9",
"S 	c #4DD1F9",
"T 	c #4DD5F9",
"U 	c #4899ED",
"V 	c #3267A3",
"W 	c #688AB0",
"X 	c #4892EC",
"Y 	c #4BC7F7",
"Z 	c #6DD6FA",
"` 	c #4CCDFA",
" .	c #ABE7FC",
"..	c #54D2F9",
"+.	c #4CD2F9",
"@.	c #BFEEFC",
"#.	c #4CD5F8",
"$.	c #878787",
"%.	c #222222",
"&.	c #D3D3D3",
"*.	c #D5D5D5",
"=.	c #616161",
"-.	c #6C93BF",
";.	c #4891EB",
">.	c #7EDDFA",
",.	c #FCFEFE",
"'.	c #B1EBFC",
").	c #4DD2F8",
"!.	c #A5E8FB",
"~.	c #54D6F8",
"{.	c #4CD6F8",
"].	c #B8EFFB",
"^.	c #4CD9F7",
"/.	c #FAFEFE",
"(.	c #F0FCFE",
"_.	c #F6FAFD",
":.	c #E9E9E9",
"<.	c #747474",
"[.	c #090909",
"}.	c #3C3C3C",
"|.	c #C3F0FC",
"1.	c #F0FBFE",
"2.	c #BFEFFB",
"3.	c #F6FDFE",
"4.	c #4DD6F7",
"5.	c #A5EBFA",
"6.	c #53DBF7",
"7.	c #4DDBF6",
"8.	c #B8F1FB",
"9.	c #4DDEF6",
"0.	c #4CDFF6",
"a.	c #53E1F5",
"b.	c #A1C6F0",
"c.	c #000102",
"d.	c #6B6B6B",
"e.	c #FEFEFE",
"f.	c #202020",
"g.	c #1E1E1E",
"h.	c #6583A6",
"i.	c #4791EC",
"j.	c #BAF0FB",
"k.	c #8BE7F9",
"l.	c #73E3F8",
"m.	c #A5EDFA",
"n.	c #54DFF6",
"o.	c #4CE0F6",
"p.	c #B8F2FB",
"q.	c #4CE3F5",
"r.	c #4CE4F5",
"s.	c #53E6F5",
"t.	c #9DBCE1",
"u.	c #7C7C7C",
"v.	c #0E0E0E",
"w.	c #0F0F0F",
"x.	c #515A64",
"y.	c #84B8F6",
"z.	c #92ECF9",
"A.	c #60E6F6",
"B.	c #C7F6FB",
"C.	c #4DE7F5",
"D.	c #4CE8F4",
"E.	c #53EDF4",
"F.	c #95ACC8",
"G.	c #4C4C4C",
"H.	c #4A4A4A",
"I.	c #464441",
"J.	c #C0D3E8",
"K.	c #64E6F6",
"L.	c #61E6F6",
"M.	c #ECFCFD",
"N.	c #FBFDFD",
"O.	c #4CE5F4",
"P.	c #F9FEFE",
"Q.	c #9CF3F8",
"R.	c #4DECF3",
"S.	c #52DFF1",
"T.	c #868F98",
"U.	c #C7C7C7",
"V.	c #434D58",
"W.	c #73B0F8",
"X.	c #4BD3F2",
"Y.	c #4DE7F4",
"Z.	c #6AEBF5",
"`.	c #7AEEF6",
" +	c #51EAF3",
".+	c #53EBF3",
"++	c #71F0F5",
"@+	c #77F1F5",
"#+	c #67F0F4",
"$+	c #4CEFF2",
"%+	c #4DF0F3",
"&+	c #4CF7F2",
"*+	c #4AA4F0",
"=+	c #6A94C5",
"-+	c #1F1F1F",
";+	c #2E2E2E",
">+	c #3E3E3E",
",+	c #20426A",
"'+	c #4B96F6",
")+	c #4BDFF2",
"!+	c #4CEDF3",
"~+	c #4DEDF3",
"{+	c #4DEFF3",
"]+	c #4CF0F2",
"^+	c #4DF1F2",
"/+	c #4CF2F1",
"(+	c #4DF3F1",
"_+	c #4CF4F2",
":+	c #4CFAF1",
"<+	c #4AAAF0",
"[+	c #4C9CF7",
"}+	c #03070C",
"|+	c #264F7D",
"1+	c #4C98FA",
"2+	c #4BCEF1",
"3+	c #4DF9F2",
"4+	c #4DF6F1",
"5+	c #4CF7F1",
"6+	c #4DFBF1",
"7+	c #4BEFF0",
"8+	c #4AA8F2",
"9+	c #4791E6",
"0+	c #4A99F4",
"a+	c #4084D1",
"b+	c #12253B",
"c+	c #4082D1",
"d+	c #4C9CF9",
"e+	c #4AC3F0",
"f+	c #4AC7F0",
"g+	c #4AC8F0",
"h+	c #49C7EE",
"i+	c #4AB2F4",
"j+	c #2A588C",
"k+	c #3268A5",
"l+	c #4A98F2",
"m+	c #3873B7",
"n+	c #0D1C2B",
"o+	c #213F6F",
"p+	c #224771",
"q+	c #234974",
"r+	c #1E3C63",
"s+	c #16294B",
"t+	c #03070A",
"u+	c #30639F",
"v+	c #4B9BF6",
"w+	c #4084D2",
"x+	c #3E80CB",
"y+	c #020508",
"z+	c #267B79",
"A+	c #58FFFF",
"B+	c #288280",
"C+	c #54FFFF",
"D+	c #3A77BD",
"E+	c #4997F0",
"F+	c #4895EC",
"G+	c #438BDD",
"H+	c #020407",
"I+	c #103534",
"J+	c #237270",
"K+	c #4CF4F0",
"L+	c #3EC8C5",
"M+	c #103433",
"N+	c #3977BC",
"O+	c #4896EE",
"P+	c #4894EB",
"Q+	c #438ADB",
"R+	c #010305",
"S+	c #454040",
"T+	c #3CC0BD",
"U+	c #4FFDF9",
"V+	c #4DF6F2",
"W+	c #4FFEFA",
"X+	c #216B69",
"Y+	c #113838",
"Z+	c #4081D2",
"`+	c #4996EF",
" @	c #4794EA",
".@	c #438ADC",
"+@	c #71CBC8",
"@@	c #4CF5F1",
"#@	c #52FFFF",
"$@	c #51FFFF",
"%@	c #298382",
"&@	c #4289D9",
"*@	c #4895ED",
"=@	c #4794EB",
"-@	c #448BDD",
";@	c #020507",
">@	c #5B8584",
",@	c #1E6261",
"'@	c #247371",
")@	c #133D3C",
"!@	c #000103",
"~@	c #4288D7",
"{@	c #4894EC",
"]@	c #4895EE",
"^@	c #4D5258",
"/@	c #070F19",
"(@	c #4793E9",
"_@	c #4996EE",
":@	c #6F98C6",
"<@	c #717171",
"[@	c #298381",
"}@	c #4FFCF8",
"|@	c #08101A",
"1@	c #4691E6",
"2@	c #3171BB",
"3@	c #747679",
"4@	c #ECECEC",
"5@	c #597E7D",
"6@	c #535E6B",
"7@	c #6E97C5",
"8@	c #74777A",
"9@	c #ECECED",
"0@	c #E7E7E7",
"a@	c #CDCDCD",
"                                                                ",
"  . + @ # # # # # # # # # # # # # # # # # # # # # # # # @ + .   ",
"  $ % . & * * * * = - ; > , ' * * * * * * * * * * * * & . % $   ",
"  ) . ! ~ { { { ] ^ / ( _ : < [ { { { { { { { { { { { ~ ! . )   ",
"  ) . } { { { | 1 2 3 4 5 6 7 8 9 0 { { { { { { { { { { } . )   ",
"  ) . a { { b c d e f g h i j k l m n { { { { { { { { { a . )   ",
"  ) . a { o p q f i r r r r g s s t m u { { { { { { { { a . )   ",
"  ) . v w x y g h r g h r r s r r z l A { { { { { { { { a . )   ",
"  ) . B C D E r h g r r z z F G H H I 8 J { { { { { { { a . )   ",
"  ) . K L M r g g F G N O P Q R R S T U V { { { { { { { a . )   ",
"  ) . W X Y . . Z `  .. ..+.@.. #.. . . . . $.{ %.&.. *.=.. )   ",
"  ) . -.;.>.. ,.'.).!.. ~.{.].. ^./.(.. _.:.<.[.. &.}.*.. . )   ",
"  ) . -.;.|.1.2.3.4.5.. 6.7.8.. 9.0.a.. b.c.{ d.e.f.{ g.. . )   ",
"  ) . h.i.. j.k.. l.m.e.n.o.p.. q.r.s.. t.{ { u.e.v.{ w.. . )   ",
"  ) . x.y.. ,./.. p.z.. A.r.B./.C.D.E.. F.{ { G.. G.{ H.. . )   ",
"  ) . I.J.. K.L.M.N.O.,.P.M.. Q.R.R.S.. T.{ { { U.. @ . &.. )   ",
"  ) . a V.W.X.Y.Z.`. +.+++@+#+$+%+&+*+=+-+{ { { { ;+>+;+a . )   ",
"  ) . a { ,+'+)+!+~+{+]+^+/+(+_+:+<+[+}+{ { { { { { { { a . )   ",
"  ) . a { { |+1+2+3+_+_+4+5+6+7+8+9+0+a+{ { { { { { { { a . )   ",
"  ) . a { { { b+c+d+e+f+g+h+i+1+j+{ k+l+m+{ { { { { { { a . )   ",
"  ) . a { { { { { n+o+p+q+r+s+t+{ { { u+v+w+x+y+{ { { { a . )   ",
"  ) . a { { { { { z+A+{ { B+C+z+{ { { { D+E+F+G+H+{ { { a . )   ",
"  ) . a { { I+J+C+K+L+{ { M+C+K+C+J+I+{ N+F+O+P+Q+R+{ { a . )   ",
"  ) . S+I+T+U+V+W+X+{ { { { { X+W+V+U+T+Y+Z+F+`+ @.@R+{ a . )   ",
"  ) . +@U+V+V+V+@@#@$@$@$@$@$@#@@@V+V+V+U+%@&@ @*@=@-@;@a . )   ",
"  ) . >@T+U+V+V+W+,@'@z+z+z+'@,@W+V+V+U+T+)@!@~@{@]@F+&@^@. )   ",
"  ) . a { I+J+C+K+#@L+{ { { L+#@K+C+J+I+{ { { /@(@=@*@_@:@. )   ",
"  ) . <@{ { { { [@T+}@[@{ [@}@T+[@{ { { { { { { |@1@]@2@3@. )   ",
"  $ . 4@<@a a a a S+5@>@a >@5@S+a a a a a a a a a 6@7@8@9@. $   ",
"  0@a@. . . . . . . . . . . . . . . . . . . . . . . . . . a@0@  ",
"    0@$ ) ) ) ) ) ) ) ) ) ) ) ) ) ) ) ) ) ) ) ) ) ) ) ) $ 0@    ",
"                                                                "};
