/* XPM */
static char *icon_ff_xpm[] = {
/* columns rows colors chars-per-pixel */
"32 32 61 1",
"  c #000200020002",
". c #00FE00FE00FE",
"X c #021202120212",
"o c #039203920392",
"O c #083308330833",
"+ c #0AE80AE80AE8",
"@ c #0C6B0C6B0C6B",
"# c #0DCC0DCC0DCC",
"$ c #0F4B0F4B0F4B",
"% c #101010101010",
"& c #16C316C316C3",
"* c #18CF18CF18CF",
"= c #1A8C1A8C1A8C",
"- c #1B661B661B66",
"; c #1BE31BE31BE3",
": c #1D291D291D29",
"> c #2D012D012D01",
", c #353335333533",
"< c #3CF63CF63CF6",
"1 c #3E343E343E34",
"2 c #554755475547",
"3 c #572B572B572B",
"4 c #583258325832",
"5 c #598C598C598C",
"6 c #59F159F159F1",
"7 c #5FA35FA35FA3",
"8 c #694469446944",
"9 c #7E5C7E5C7E5C",
"0 c #7FF37FF37FF3",
"q c #803480348034",
"w c #814581458145",
"e c #8ED48ED48ED4",
"r c #959A959A959A",
"t c #9E279E279E27",
"y c #AAB8AAB8AAB8",
"u c #AC15AC15AC15",
"i c #AC9BAC9BAC9B",
"p c #AF9CAF9CAF9C",
"a c #B1D9B1D9B1D9",
"s c #BE1EBE1EBE1E",
"d c #BEC6BEC6BEC6",
"f c #CCC1CCC1CCC1",
"g c #CD60CD60CD60",
"h c #DCFCDCFCDCFC",
"j c #E034E034E034",
"k c #E416E416E416",
"l c #E4ECE4ECE4EC",
"z c #E7EEE7EEE7EE",
"x c #E944E944E944",
"c c #E9E9E9E9E9E9",
"v c #EAC2EAC2EAC2",
"b c #EC81EC81EC81",
"n c #EE27EE27EE27",
"m c #F15CF15CF15C",
"M c #F1CBF1CBF1CB",
"N c #F4E4F4E4F4E4",
"B c #F647F647F647",
"V c #F6B0F6B0F6B0",
"C c #F80FF80FF80F",
"Z c #FFF1FFF1FFF1",
"A c None",
/* pixels */
"AAAAAAAAAAAAAAAAAAAAAAAAAAAAAAAA",
"AAhlcvvvvvvvvvvvvvvvvvvvvvvclhAA",
"AAbCfsddddddddddddddddddddsfCbAA",
"AANr>#$$$$$$$$$$$$$$$$$$$$#,aNAA",
"AAm5                        7mAA",
"AAm6                        6mAA",
"AAm6                        6mAA",
"AAm6                        6mAA",
"AAm6                        6mAA",
"AAm6     +o     o+          6mAA",
"AAm6     86     -e*         6mAA",
"AAm6     wn2    ;ki&        6mAA",
"AAm6     0Zx2   ;kZy&       6mAA",
"AAm6     0ZZx2  ;kZZy&      6mAA",
"AAm6     0ZZZx2 ;kZZZy&     6mAA",
"AAm6     0ZZZZz1*kZZZZtO    6mAA",
"AAm6     0ZZZZu&=kZZZx4.    6mAA",
"AAm6     0ZZZy& ;kZZx2      6mAA",
"AAm6     0ZZy&  ;kZx2       6mAA",
"AAm6     qZy&   ;lv2        6mAA",
"AAm6     0p&    :g3         6mAA",
"AAm6     ,-     %<X         6mAA",
"AAm6                        6mAA",
"AAm6                        6mAA",
"AAm6                        6mAA",
"AAm6                        6mAA",
"AAm5                        5mAA",
"AAM9@                      @9MAA",
"AABj946666666666666666666649jBAA",
"AAjVMmmmmmmmmmmmmmmmmmmmmmmMVjAA",
"AAjAAAAAAAAAAAAAAAAAAAAAAAAAAjAA",
"AAAAAAAAAAAAAAAAAAAAAAAAAAAAAAAA"
};
