/* XPM */
static char *xpm_icon_usgs[] = {
/* columns rows colors chars-per-pixel */
"64 64 191 2",
"   c black",
".  c #002A00",
"X  c #004200",
"o  c #004B00",
"O  c #015401",
"+  c #015C01",
"@  c #095C05",
"#  c #0A550A",
"$  c #065D0B",
"%  c #0B5D0B",
"&  c #115C0E",
"*  c #0D5E14",
"=  c #145E16",
"-  c #016500",
";  c #096204",
":  c #016A01",
">  c #056409",
",  c #0A630B",
"<  c #0A6B0A",
"1  c #11600F",
"2  c #11680F",
"3  c #007000",
"4  c #0F6412",
"5  c #126512",
"6  c #116F10",
"7  c #1F671F",
"8  c #1C6D1C",
"9  c #147114",
"0  c #16711D",
"q  c #1C741B",
"w  c #1C791A",
"e  c #206A1D",
"r  c #204520",
"t  c #1C6021",
"y  c #1E6E20",
"u  c #1F7620",
"i  c #236B23",
"p  c #2C6D2E",
"a  c #247224",
"s  c #2F7526",
"d  c #217820",
"f  c #287D27",
"g  c #27772D",
"h  c #2C732C",
"j  c #2A7C2B",
"k  c #30732D",
"l  c #2C7531",
"z  c #2F7D32",
"x  c #337437",
"c  c #337B35",
"v  c #397D36",
"b  c #347839",
"n  c #43743B",
"m  c #278027",
"M  c #2C822B",
"N  c #328331",
"B  c #388733",
"V  c #3C8937",
"C  c #36873A",
"Z  c #39833A",
"A  c #4A8747",
"S  c #418C40",
"D  c #488C48",
"F  c #489244",
"G  c #4B934C",
"H  c #51924D",
"J  c #4D8F52",
"K  c #508751",
"L  c #5E8557",
"P  c #518C57",
"I  c #598D56",
"U  c #5F835F",
"Y  c #529452",
"T  c #5D9257",
"R  c #529A54",
"E  c #569359",
"W  c #59955B",
"Q  c #5F9F5F",
"!  c #629A5E",
"~  c #68995E",
"^  c #5BA35E",
"/  c #5D9761",
"(  c #5E9864",
")  c #629662",
"_  c #619F60",
"`  c #679D69",
"'  c #6E9C6B",
"]  c #779D6F",
"[  c #5EA965",
"{  c #61A465",
"}  c #63A864",
"|  c #6AAA63",
" . c #64A36F",
".. c #6DA76C",
"X. c #6BAA7B",
"o. c #73A770",
"O. c #71A970",
"+. c #7BA974",
"@. c #7CB976",
"#. c #7DB37E",
"$. c #9D9D9D",
"%. c #84AB84",
"&. c #8BAD88",
"*. c #80B280",
"=. c #8AB187",
"-. c #87B885",
";. c #8BB882",
":. c #84B088",
">. c #8BB28D",
",. c #8CBF8C",
"<. c #93B78D",
"1. c #98BC8E",
"2. c #8DB291",
"3. c #95B693",
"4. c #90BC90",
"5. c #94BD99",
"6. c #9CBF9C",
"7. c #87C085",
"8. c #92C18F",
"9. c #93C993",
"0. c #96C29B",
"q. c #9CCB9B",
"w. c #A1CC9D",
"e. c #9DC6A1",
"r. c #98CDA0",
"t. c #A0C6A0",
"y. c #A6C9A6",
"u. c #A2CFA8",
"i. c #A9C8AF",
"p. c #B6CCAF",
"a. c #A7D1A6",
"s. c #A3D3AC",
"d. c #AFD4A9",
"f. c #A6D9AA",
"g. c #BBD4AE",
"h. c #B1CFB0",
"j. c #B7CEBD",
"k. c #AFD4B0",
"l. c #B5D7B4",
"z. c #B6D9B4",
"x. c #BCDCBA",
"c. c #BBE3B5",
"v. c #BBE4B9",
"b. c #B8DBC0",
"n. c #BFE0C0",
"m. c #BFEAC3",
"M. c gray78",
"N. c #C0D7C0",
"B. c #C0D9C0",
"V. c #CBDCC5",
"C. c #CEDBCB",
"Z. c #CBDDD3",
"A. c #D1DFD1",
"S. c #C6E3C6",
"D. c #C8E6C6",
"F. c #C5E4CA",
"G. c #CBE2CE",
"H. c #C4EAC9",
"J. c #CAE8CC",
"K. c #D5ECCE",
"L. c #D1F3CF",
"P. c #CCEBD2",
"I. c #D0E3D0",
"U. c #D2ECD3",
"Y. c #DCE9D3",
"T. c #DBECDA",
"R. c #D5F3D4",
"E. c #DEF4D4",
"W. c #D5F1D9",
"Q. c #DEF4DD",
"!. c #E2F4DD",
"~. c #E3FBDE",
"^. c #DDF4E3",
"/. c #DCFAE4",
"(. c #E0ECE0",
"). c #E3F3E4",
"_. c #ECF7E5",
"`. c #E6FDE4",
"'. c #EAFDE6",
"]. c #E6F7EB",
"[. c #E4FAEE",
"{. c #ECFDEC",
"}. c #F0F9E7",
"|. c #F3FEEE",
" X c #EDFDF2",
".X c #F0F6F0",
"XX c #F3FFF4",
"oX c #FBFFF6",
"OX c #F6FFFA",
"+X c #FFFFFF",
"@X c None",
/* pixels */
"@X@X@X@X@X@X@X@X@X@X@X@X@X@X@X@X@X@X@X@X@X@X@X@X@X@X@X@X@X@X@X@X@X@X@X@X@X@X@X@X@X@X@X@X@X@X@X@X@X@X@X@X@X@X@X@X@X@X@X@X@X@X@X@X",
"@X@X@X@X@X@X@X@X@X@X@X@X@X@X@X@X@X@X@X@X@X@X@X@X@X@X@X@X@X@X@X@X@X@X@X@X@X@X@X@X@X@X@X@X@X@X@X@X@X@X@X@X@X@X@X@X@X@X@X@X@X@X@X@X",
"@X@X@X+X+XM.M.M.M.M.M.M.M.M.M.M.M.M.M.M.M.M.M.M.M.M.M.M.M.M.M.M.M.M.M.M.M.M.M.M.M.M.M.M.M.M.M.M.M.M.M.M.M.M.M.M.M.M.M.+X+X@X@X@X",
"@X@X@X+XM.M.+X+X+X+X+X+X+X+X+X+X+X+X+X+X+X+X+X+X+X+X+X+X+X+X+X+X+X+X+X+X+X+X+X+X+X+X+X+X+X+X+X+X+X+X+X+X+X+X+X+X+X+XM.M.+X@X@X@X",
"@X@X@XM.M.+X+X+X+X+X+X+X+X+X+X+X+X+X+X+X+X+X+X+X+X+X+X+X+X+X+X+X+X+X+X+X+X+X+X+X+X+X+X+X+X+X+X+X+X+X+X+X+X+X+X+X+X+X+XM.M.@X@X@X",
"@X@X@XM.+X+X+X+X$.$.$.$.$.$.$.$.$.$.$.$.$.$.$.$.$.$.$.$.$.$.$.$.$.$.$.$.$.$.$.$.$.$.$.$.$.$.$.$.$.$.$.$.$.$.$.$.+X+X+X+XM.@X@X@X",
"@X@X@XM.+X+X+X$.$.                                                                                            $.$.+X+X+XM.@X@X@X",
"@X@X@XM.+X+X$.$.. . . . . . . . . . . . . . . . . . . . . . . . . . . . . . . . . . . . . . . . . . . . . . . . $.$.+X+XM.@X@X@X",
"@X@X@XM.+X+X$.  . - - - - - - - - - - - - - - - - - - - - - - - - - - - - - - - - - - - - - - - - - - - - - - .   $.+X+XM.@X@X@X",
"@X@X@XM.+X+X$.  . - - - d +X+X+X+XS +X+X+Xt.d +X+Xt.+X+X+X+XS +X+X+Xt.d t.B.t.+X+X+Xh.S +X+X+X+Xd +X+X+X- - - .   $.+X+XM.@X@X@X",
"@X@X@XM.+X+X$.  . - - - - Y +X+X- - _ +X+Xt.- S (.- Y +X+X- - _ +X+XO.- S (.- Y +X+X- - _ +X+Xt.- S (.- - - - .   $.+X+XM.@X@X@X",
"@X@X@XM.+X+X$.  . - - - - - (.+X- 6 _ +X+X.X- O.+X- - (.+X- 6 _ +X+XO.- O.+X- - (.+X- 6 _ +X+X.X- O.+X- - - - .   $.+X+XM.@X@X@X",
"@X@X@XM.+X+X$.  . - - - - - O.+X+XO.+XB.+X+X_ (.d - - O.+X+XO.h.B.+X+X_ +Xd - - O.+X+XO.+XB.+X+X_ +Xd - - - - .   $.+X+XM.@X@X@X",
"@X@X@XM.+X+X$.  . - - - - - 6 +X+X+X(.d +X+X+XB.- - - 6 +X+XI.(.d +X+X+XB.- - - 6 +X+X+X(.d +X+X+XB.- - - - - .   $.+X+XM.@X@X@X",
"@X@X@XM.+X+X$.  . - - - - - - - +X+X- - - +X+X- - - - - - +X+X- - - +X+X- - - - - - +X+X- - - +X+X- - - - - - .   $.+X+XM.@X@X@X",
"@X@X@XM.+X+X$.  . - - - - - - : < < - - : < < - - - - - : < < - - : < < - - - - - : < < - - < % 4 > - - - - - .   $.+X+XM.@X@X@X",
"@X@X@XM.+X+X$.  . - - - - - - - - - - - - - - - - - - - - - - - - - - - - - - - - - - - - ; O = ,.m - - - - - .   $.+X+XM.@X@X@X",
"@X@X@XM.+X+X$.  . - - - - - - - - - - - - - - - - - - - - - - - - - - - - - - - - - - - - O k x.XXf - - - - - .   $.+X+XM.@X@X@X",
"@X@X@XM.+X+X$.  . - - - - - - - - - - - - - - - - - - - - - - - - - - - : - ; ; - - - + O T ~.!.U + - - - - - .   $.+X+XM.@X@X@X",
"@X@X@XM.+X+X$.  . - - - - - - , > O O + - : : - - > - - - : - > - - - : : - $ , ; - O i 6.XXh.p O - - - - - - .   $.+X+XM.@X@X@X",
"@X@X@XM.+X+X$.  . - - - - - u j.h.%.! V ; O - - - - - - - - - - - - - ; @ - : : + 0 ' K.P. .% + : - - - - - - .   $.+X+XM.@X@X@X",
"@X@X@XM.+X+X$.  . - - - - - q e.z.L.`.`.k.K # O - : : - ; ; ; - - - - ; - : - - Y F.OXe.i O - : : - - - - - - .   $.+X+XM.@X@X@X",
"@X@X@XM.+X+X$.  . - - - - - - - > 5 b :.W. Xw.h O - : > ; - - : - - - - + + b a.|.Y.E + O ; : + > > - - - - - .   $.+X+XM.@X@X@X",
"@X@X@XM.+X+X$.  . - - - - - - : - + O o 5 O.T.R...1 O , - : : : : - O O s 3. X(.*.y O - : : + = 2.f - - - - - .   $.+X+XM.@X@X@X",
"@X@X@XM.+X+X$.  . - - - - - - $ O + j } 7.<.C.+X+Xy.i O - - - - O % A 1.!.'.8.l + - - - - + j l.oXM - - - - - .   $.+X+XM.@X@X@X",
"@X@X@XM.+X+X$.  . - - - - - - + G f.^.XX'.Q.U.P.].+XH.^ j j j S @.c.}.`.u.Z + + - ; - + & ~ E.~.` > - - - - - .   $.+X+XM.@X@X@X",
"@X@X@XM.+X+X$.  . - - - - - 9 d.|.W.0.Y q 9 9 6 j ..Q.+X].^.'.|._.v.+.j + + - - - + O v z.oXl.c + - - - - - - .   $.+X+XM.@X@X@X",
"@X@X@XM.+X+X$.  . - - - - - N (.+.8 + + + + - - O X n V.+Xp.] _ B > + + - ; - + + d ;.|.^.X.* + - - - - - - - .   $.+X+XM.@X@X@X",
"@X@X@XM.+X+X$.  . - - - - - 9 z O + : ; @ @ + - < d l  ./.G.l o + - ; - - + O h -.T.XXe.x O + : : - - - - - - .   $.+X+XM.@X@X@X",
"@X@X@XM.+X+X$.  . - - - - - - + - > ; + + 2 n ' v.R.!.).oX+XS.l $ $ @ , d Z #.Q.XXC.J $ + ; - + + - - - - - - .   $.+X+XM.@X@X@X",
"@X@X@XM.+X+X$.  . - - - - - - $ ; - - q { m.{.T.z.=.' ' &.h.{./.s.s.f.b.[. XW.9.S @ + : : - > i I 9 - - - - - .   $.+X+XM.@X@X@X",
"@X@X@XM.+X+X$.  . - - - - - - : + 5 | K.|.x.[ g $ O O + + $ P ).+XY.g.x.5.( h + + : : - O C r.Q.|.M - - - - - .   $.+X+XM.@X@X@X",
"@X@X@XM.+X+X$.  . - - - - - - + H x.oXB.E 5 O + - : : : 3 : o L ).S.p # - O O + > > O * #.).`.t./ < - - - - - .   $.+X+XM.@X@X@X",
"@X@X@XM.+X+X$.  . - - - - - , 3.|.L.Q 4 + - - - - - - - - - - O G /.Z.l O + + + + O t i. Xq.a + + - - - - - - .   $.+X+XM.@X@X@X",
"@X@X@XM.+X+X$.  . - - - - - M '.,.7 O - - - - - - - - - - - - - O J ^.R.Y a q q a R n.{.o.# O ; - - - - - - - .   $.+X+XM.@X@X@X",
"@X@X@XM.+X+X$.  . - - - - - w R O + > - : - - - - - - - - - - - > O c G.+XT.D.J.^.OXD.F O @ ; ; - - - - - - - .   $.+X+XM.@X@X@X",
"@X@X@XM.+X+X$.  . - - - - - - + - - - - - - - - - - - - - - - - - - O e w.oX+XT.3.E 6 + - : : : - - - - - - - .   $.+X+XM.@X@X@X",
"@X@X@XM.+X+X$.  . - - - - - - - : - - - - - - - - - - - - - - - - - - + ; ! U.{.q.B @ + + + + + + - - - - - - .   $.+X+XM.@X@X@X",
"@X@X@XM.+X+X$.  . - - - - - - - - - - - - - - - - - - - - - - - - - - > $ O p 4.].OXB.:.E G G W 5.d - - - - - .   $.+X+XM.@X@X@X",
"@X@X@XM.+X+X$.  . - - - - - - - - - - - - - - - - - - - - - - - - - - > - : - - Z 5.T.+XOX{.{.OXXXf - - - - - .   $.+X+XM.@X@X@X",
"@X@X@XM.+X+X$.  . - - - - - - - - - - - - - - - - - q B 9 < < - - - - > N N m - > 5 8 D ) %.>.` D < - - - - - .   $.+X+XM.@X@X@X",
"@X@X@XM.+X+X$.  r t.+X+X+X.X4.d - t..X+Xh.d - _ +X(.I.+XB.I.- - - - 6 4..X+X(.I.+X(.4..X- - + ) .X(.A.+XN.I.- .   $.+X+XM.@X@X@X",
"@X@X@XM.+X+X$.  . - B.+X+X*.- - - - *.I.- - 6 .XB.- - d I.+X- - - 6 I.+X.XY - - d *.+X+X- - 6 .XB.- - d B.+Xd .   $.+X+XM.@X@X@X",
"@X@X@XM.+X+X$.  . - B.+X+X*.- - - - Y B.- - O.+Xh.- - - d +XS - - I.+X+X*.- - - - - _ +X- - _ +Xh.- - - d +XS .   $.+X+XM.@X@X@X",
"@X@X@XM.+X+X$.  . - B.+X+X*.- - - - S B.- - h.+X+Xt.6 - - t.S - _ +X+X(.- - - - - - - I.- - t.+X+Xt.6 - - t.S .   $.+X+XM.@X@X@X",
"@X@X@XM.+X+X$.  . - B.+X+X*.- - - - S B.- - O.+X+X+X.X*.6 - - - h.+X+XB.- - - - - - - d - - _ +X+X+X.X*.6 - - .   $.+X+XM.@X@X@X",
"@X@X@XM.+X+X$.  . - B.+X+X*.- - - - S B.- - - I.+X+X+X+X(.S - - (.+X+Xt.- - - - - - - - - - - I.+X+X+X+X(.S - .   $.+X+XM.@X@X@X",
"@X@X@XM.+X+X$.  . - B.+X+X*.- - - - S B.- - - 6 t.+X+X+X+X+XN - .X+X+X*.- - - d S S S S S d - 6 t.+X+X+X+X+XN .   $.+X+XM.@X@X@X",
"@X@X@XM.+X+X$.  . - B.+X+X*.- - - - _ *.- - N - - S B.+X+X+X4.- B.+X+Xt.- - - S h.+X+X+Xh.S N - - N B.+X+X+X4..   $.+X+XM.@X@X@X",
"@X@X@XM.+X+X$.  . - t.+X+X*.- - - - *.*.- - B.d - - - S .X+XI.- *.+X+XI.- - - - 6 +X+X+X- - B.d - - - S .X+XI..   $.+X+XM.@X@X@X",
"@X@X@XM.+X+X$.  . - O.+X+X*.- - - - h.O.- - B.*.- - - - 4.+X4.- 6 I.+X+XS - - - - +X+X+X- - B.*.- - - - 4.+Xt..   $.+X+XM.@X@X@X",
"@X@X@XM.+X+X$.  . - d .X+X.XN - - *.I.6 - - B.+XO.6 - - B.+Xd - - N .X+X.X6 - - - +X+X+X- - B.+XO.6 - - h.+Xd .   $.+X+XM.@X@X@X",
"@X@X@XM.+X+X$.  . - - N .X+X+XI..X(.N - - - B.I..X.X4.I.+X*.- - - - 6 t.+X+XB.*.B.+X(.4.- - B.I..X.X4.I.+X*.- .   $.+X+XM.@X@X@X",
"@X@X@XM.+X+X$.  . - - - 6 S *.O.S - - - - - _ - - S O.Y d - - - - - - - d S *._ S N - - - - _ - - S O._ d - - .   $.+X+XM.@X@X@X",
"@X@X@XM.+X+X$.  . - - - - - - - - - - - - - - - - - - - - - - - - - - - - - - - - - - - - - - - - - - - - - - .   $.+X+XM.@X@X@X",
"@X@X@XM.+X+X$.$.. . . . . . . . . . . . . . . . . . . . . . . . . . . . . . . . . . . . . . . . . . . . . . . . $.$.+X+XM.@X@X@X",
"@X@X@XM.+X+X+X$.$.                                                                                            $.$.+X+X+XM.@X@X@X",
"@X@X@XM.+X+X+X+X$.$.$.$.$.$.$.$.$.$.$.$.$.$.$.$.$.$.$.$.$.$.$.$.$.$.$.$.$.$.$.$.$.$.$.$.$.$.$.$.$.$.$.$.$.$.$.$.+X+X+X+XM.@X@X@X",
"@X@X@XM.M.+X+X+X+X+X+X+X+X+X+X+X+X+X+X+X+X+X+X+X+X+X+X+X+X+X+X+X+X+X+X+X+X+X+X+X+X+X+X+X+X+X+X+X+X+X+X+X+X+X+X+X+X+X+XM.M.@X@X@X",
"@X@X@X+XM.M.+X+X+X+X+X+X+X+X+X+X+X+X+X+X+X+X+X+X+X+X+X+X+X+X+X+X+X+X+X+X+X+X+X+X+X+X+X+X+X+X+X+X+X+X+X+X+X+X+X+X+X+XM.M.+X@X@X@X",
"@X@X@X+X+XM.M.M.M.M.M.M.M.M.M.M.M.M.M.M.M.M.M.M.M.M.M.M.M.M.M.M.M.M.M.M.M.M.M.M.M.M.M.M.M.M.M.M.M.M.M.M.M.M.M.M.M.M.M.+X+X@X@X@X",
"@X@X@X@X@X@X@X@X@X@X@X@X@X@X@X@X@X@X@X@X@X@X@X@X@X@X@X@X@X@X@X@X@X@X@X@X@X@X@X@X@X@X@X@X@X@X@X@X@X@X@X@X@X@X@X@X@X@X@X@X@X@X@X@X",
"@X@X@X@X@X@X@X@X@X@X@X@X@X@X@X@X@X@X@X@X@X@X@X@X@X@X@X@X@X@X@X@X@X@X@X@X@X@X@X@X@X@X@X@X@X@X@X@X@X@X@X@X@X@X@X@X@X@X@X@X@X@X@X@X",
"@X@X@X@X@X@X@X@X@X@X@X@X@X@X@X@X@X@X@X@X@X@X@X@X@X@X@X@X@X@X@X@X@X@X@X@X@X@X@X@X@X@X@X@X@X@X@X@X@X@X@X@X@X@X@X@X@X@X@X@X@X@X@X@X"
};
