/* XPM */
static char *xpm_icon_play__[] = {
/* columns rows colors chars-per-pixel */
"32 32 51 1",
"  c #000100010001",
". c #00FE00FE00FE",
"X c #021202120212",
"o c #039203920392",
"O c #083308330833",
"+ c #0AE80AE80AE8",
"@ c #0C6B0C6B0C6B",
"# c #0DCC0DCC0DCC",
"$ c #0F4B0F4B0F4B",
"% c #101010101010",
"& c #16BB16BB16BB",
"* c #189F189F189F",
"= c #1B801B801B80",
"- c #1BE91BE91BE9",
"; c #1D291D291D29",
": c #2D012D012D01",
"> c #34C634C634C6",
", c #3CF63CF63CF6",
"< c #554755475547",
"1 c #572B572B572B",
"2 c #583258325832",
"3 c #598C598C598C",
"4 c #59F059F059F0",
"5 c #5FA35FA35FA3",
"6 c #7E5C7E5C7E5C",
"7 c #8ED48ED48ED4",
"8 c #959A959A959A",
"9 c #9E279E279E27",
"0 c #AAB8AAB8AAB8",
"q c #AC9BAC9BAC9B",
"w c #B1D9B1D9B1D9",
"e c #BE1EBE1EBE1E",
"r c #BEC6BEC6BEC6",
"t c #CCC1CCC1CCC1",
"y c #CD60CD60CD60",
"u c #DCFCDCFCDCFC",
"i c #E034E034E034",
"p c #E416E416E416",
"a c #E4ECE4ECE4EC",
"s c #E944E944E944",
"d c #E9E9E9E9E9E9",
"f c #EAC2EAC2EAC2",
"g c #EC81EC81EC81",
"h c #F15CF15CF15C",
"j c #F1CBF1CBF1CB",
"k c #F4E4F4E4F4E4",
"l c #F647F647F647",
"z c #F6B0F6B0F6B0",
"x c #F80FF80FF80F",
"c c #FFF3FFF3FFF3",
"v c None",
/* pixels */
"vvvvvvvvvvvvvvvvvvvvvvvvvvvvvvvv",
"vvuadffffffffffffffffffffffdauvv",
"vvgxterrrrrrrrrrrrrrrrrrrretxgvv",
"vvk8:#$$$$$$$$$$$$$$$$$$$$#>wkvv",
"vvh3                        5hvv",
"vvh4                        4hvv",
"vvh4                        4hvv",
"vvh4                        4hvv",
"vvh4                        4hvv",
"vvh4        o+              4hvv",
"vvh4        =7*             4hvv",
"vvh4        -pq&            4hvv",
"vvh4        -pc0&           4hvv",
"vvh4        -pcc0&          4hvv",
"vvh4        -pccc0&         4hvv",
"vvh4        -pcccc9O        4hvv",
"vvh4        -pcccs2.        4hvv",
"vvh4        -pccs<          4hvv",
"vvh4        -pcs<           4hvv",
"vvh4        -af<            4hvv",
"vvh4        ;y1             4hvv",
"vvh4        %,X             4hvv",
"vvh4                        4hvv",
"vvh4                        4hvv",
"vvh4                        4hvv",
"vvh4                        4hvv",
"vvh3                        3hvv",
"vvj6@                      @6jvv",
"vvli624444444444444444444426ilvv",
"vvizjhhhhhhhhhhhhhhhhhhhhhhjzivv",
"vvivvvvvvvvvvvvvvvvvvvvvvvvvvivv",
"vvvvvvvvvvvvvvvvvvvvvvvvvvvvvvvv"
};
