/* XPM */
static char * xpm_zoom_auto_xpm[] = {
"64 64 458 2",
"  	c None",
". 	c #FFFFFF",
"+ 	c #C7C7C7",
"@ 	c #9D9D9D",
"# 	c #000000",
"$ 	c #070E17",
"% 	c #1C3A5C",
"& 	c #30629C",
"* 	c #3D7EC8",
"= 	c #458EE1",
"- 	c #4895EC",
"; 	c #4996EE",
"> 	c #4690E4",
", 	c #3E7FCA",
"' 	c #3165A0",
") 	c #1F4167",
"! 	c #08121D",
"~ 	c #21456E",
"{ 	c #3C7BC4",
"] 	c #458FE3",
"^ 	c #4690E5",
"/ 	c #4792E8",
"( 	c #4793EA",
"_ 	c #4894EB",
": 	c #4691E6",
"< 	c #4084D1",
"[ 	c #224771",
"} 	c #03060A",
"| 	c #448CDE",
"1 	c #4A98F1",
"2 	c #4997F0",
"3 	c #4895ED",
"4 	c #4288D8",
"5 	c #1E3F64",
"6 	c #04080D",
"7 	c #0A1421",
"8 	c #3670B2",
"9 	c #4996EF",
"0 	c #4A9CF1",
"a 	c #4AAAF2",
"b 	c #4BB6F6",
"c 	c #4CC0F9",
"d 	c #4CC4FA",
"e 	c #4CC7FA",
"f 	c #4BC4FA",
"g 	c #4CBFF9",
"h 	c #4AB7F6",
"i 	c #49A9F1",
"j 	c #499BF1",
"k 	c #3874B9",
"l 	c #0A1522",
"m 	c #0E1D2F",
"n 	c #4084D2",
"o 	c #4AA0F2",
"p 	c #4CC8FB",
"q 	c #4DC8FB",
"r 	c #4DC7FB",
"s 	c #4AB5F5",
"t 	c #4289D9",
"u 	c #0D1C2C",
"v 	c #0D1C2D",
"w 	c #438BDD",
"x 	c #4AB0F5",
"y 	c #4BB0F6",
"z 	c #458DE0",
"A 	c #0D1B2B",
"B 	c #09131F",
"C 	c #4083D0",
"D 	c #4A99F1",
"E 	c #4BB9F7",
"F 	c #4CC7FB",
"G 	c #4BB8F7",
"H 	c #020508",
"I 	c #356EAE",
"J 	c #4CBCF8",
"K 	c #03070C",
"L 	c #4BB8F6",
"M 	c #4AB8F6",
"N 	c #1F3F65",
"O 	c #08101A",
"P 	c #4389DA",
"Q 	c #4AAFF5",
"R 	c #4CC9FB",
"S 	c #4DC9FB",
"T 	c #4DCAFA",
"U 	c #4AB0F3",
"V 	c #0B1623",
"W 	c #20436A",
"X 	c #4A9EF2",
"Y 	c #4CC6FA",
"Z 	c #4CCAFB",
"` 	c #4CCAFA",
" .	c #4DCCFB",
"..	c #4DCBFB",
"+.	c #4DCCFA",
"@.	c #4CCAF9",
"#.	c #4A9EF1",
"$.	c #264F7E",
"%.	c #3A77BD",
"&.	c #4AB5F3",
"*.	c #4DCAFB",
"=.	c #4DCBFA",
"-.	c #4DCDFA",
";.	c #4CCEFA",
">.	c #4DCEFA",
",.	c #4DCFFA",
"'.	c #4AB9F2",
").	c #3873B7",
"!.	c #0F2033",
"~.	c #438ADC",
"{.	c #4CCFFA",
"].	c #4DCFF9",
"^.	c #4DD0FA",
"/.	c #4DD0F9",
"(.	c #4DD2F9",
"_.	c #4CCFF8",
":.	c #112337",
"<.	c #2C5A8F",
"[.	c #49AEF0",
"}.	c #E4F6FE",
"|.	c #8DDCFC",
"1.	c #4CCBFB",
"2.	c #6ED6FA",
"3.	c #4DCEF9",
"4.	c #4CCEF9",
"5.	c #6ED8FA",
"6.	c #232323",
"7.	c #959595",
"8.	c #D9D9D9",
"9.	c #F6F6F6",
"0.	c #DADADA",
"a.	c #979797",
"b.	c #272727",
"c.	c #70C9F4",
"d.	c #CEF0FD",
"e.	c #4CD1F9",
"f.	c #6ED9FA",
"g.	c #4DD3F9",
"h.	c #4DD4F9",
"i.	c #4F4F4F",
"j.	c #F5F5F5",
"k.	c #F8F8F8",
"l.	c #575757",
"m.	c #B2E5FB",
"n.	c #FCFEFE",
"o.	c #5DD2F9",
"p.	c #4CD0FA",
"q.	c #6EDBFA",
"r.	c #4CD5F9",
"s.	c #4CD6F8",
"t.	c #B5B5B5",
"u.	c #565656",
"v.	c #585858",
"w.	c #B9B9B9",
"x.	c #4792E7",
"y.	c #4C99F1",
"z.	c #EFFAFE",
"A.	c #FEFEFE",
"B.	c #D5F3FD",
"C.	c #9BE4FC",
"D.	c #4DD1F9",
"E.	c #6EDCFA",
"F.	c #4DD5F8",
"G.	c #4DD5F9",
"H.	c #6EDDF9",
"I.	c #4DD8F8",
"J.	c #4CD9F8",
"K.	c #4DDAF8",
"L.	c #4DDAF7",
"M.	c #6DE0F8",
"N.	c #3B7AC2",
"O.	c #09131E",
"P.	c #949494",
"Q.	c #BABABA",
"R.	c #010101",
"S.	c #BCBCBC",
"T.	c #7EB5F5",
"U.	c #DCF5FE",
"V.	c #8EE1FB",
"W.	c #DBF6FD",
"X.	c #4DD4F8",
"Y.	c #4DD6F8",
"Z.	c #4DD7F8",
"`.	c #6DDFF9",
" +	c #4CDBF7",
".+	c #4DDBF8",
"++	c #4DDBF7",
"@+	c #4DDCF7",
"#+	c #4CDCF7",
"$+	c #6EE3F8",
"%+	c #595959",
"&+	c #BFDBFA",
"*+	c #A6E8FC",
"=+	c #5BD6F9",
"-+	c #FDFEFE",
";+	c #68DBF9",
">+	c #4DD6F9",
",+	c #6EDFF9",
"'+	c #4DD9F7",
")+	c #6EE1F8",
"!+	c #4DDDF7",
"~+	c #4DDDF6",
"{+	c #4DDEF7",
"]+	c #4CDFF7",
"^+	c #6EE5F7",
"/+	c #3C7BC3",
"(+	c #F7F7F7",
"_+	c #363636",
":+	c #353535",
"<+	c #4F97E8",
"[+	c #F7FAFE",
"}+	c #71DDF9",
"|+	c #D7F5FD",
"1+	c #A8EBFB",
"2+	c #4DD8F7",
"3+	c #6EE3F7",
"4+	c #4DDFF6",
"5+	c #4DDFF7",
"6+	c #4DE0F6",
"7+	c #4DE1F6",
"8+	c #6DE6F6",
"9+	c #060D14",
"0+	c #FAFAFA",
"a+	c #383838",
"b+	c #4185D3",
"c+	c #8AB9EF",
"d+	c #BDF0FC",
"e+	c #BCF0FC",
"f+	c #E2F8FD",
"g+	c #E7FAFD",
"h+	c #F8FDFE",
"i+	c #6FE3F8",
"j+	c #4DDEF6",
"k+	c #4CDFF6",
"l+	c #6FE5F7",
"m+	c #4CE2F6",
"n+	c #4DE2F6",
"o+	c #4CE3F5",
"p+	c #4DE4F6",
"q+	c #6DE9F7",
"r+	c #2E5F97",
"s+	c #010204",
"t+	c #DDDDDD",
"u+	c #346BAB",
"v+	c #CCE0F7",
"w+	c #76E4F8",
"x+	c #DAF8FD",
"y+	c #90EBF9",
"z+	c #90EDF9",
"A+	c #DDF9FD",
"B+	c #4DE3F6",
"C+	c #4DE4F5",
"D+	c #4DE5F5",
"E+	c #4DE6F5",
"F+	c #6DEAF6",
"G+	c #244A76",
"H+	c #9A9A9A",
"I+	c #B8B8B8",
"J+	c #B4B4B4",
"K+	c #38597F",
"L+	c #FCFDFE",
"M+	c #B5F1FB",
"N+	c #A0EEFA",
"O+	c #F5FDFE",
"P+	c #9EEFFA",
"Q+	c #81EBF7",
"R+	c #9DEFFA",
"S+	c #F4FDFE",
"T+	c #9DF0F9",
"U+	c #4DE7F5",
"V+	c #4DE8F5",
"W+	c #6EEDF6",
"X+	c #193352",
"Y+	c #B3B3B3",
"Z+	c #555555",
"`+	c #AEAEAE",
" @	c #787F88",
".@	c #57DEF5",
"+@	c #4DE0F7",
"@@	c #BFF3FB",
"#@	c #F1FCFE",
"$@	c #4FE1F6",
"%@	c #51E2F6",
"&@	c #D5F8FC",
"*@	c #D0F8FC",
"=@	c #4FE7F5",
"-@	c #4DE9F5",
";@	c #4DEAF4",
">@	c #4DEAF5",
",@	c #6EEEF6",
"'@	c #4187D6",
")@	c #0B1826",
"!@	c #FBFBFB",
"~@	c #5E5E5E",
"{@	c #CECECF",
"]@	c #D7E7FB",
"^@	c #4CD9F3",
"/@	c #8CECF9",
"(@	c #82ECF8",
"_@	c #4CE5F5",
":@	c #51E5F5",
"<@	c #A1F1F9",
"[@	c #D8F9FC",
"}@	c #F3FDFE",
"|@	c #F6FDFE",
"1@	c #DCFAFD",
"2@	c #A1F3F9",
"3@	c #51E9F4",
"4@	c #4DEBF4",
"5@	c #4DEBF3",
"6@	c #4DECF4",
"7@	c #6EF0F5",
"8@	c #3267A4",
"9@	c #2B2B2B",
"0@	c #9C9C9C",
"a@	c #DCDCDC",
"b@	c #F9F9F9",
"c@	c #E1E1E1",
"d@	c #A2A2A2",
"e@	c #2F2F2F",
"f@	c #142941",
"g@	c #4AACF1",
"h@	c #4DE3F5",
"i@	c #4DE5F6",
"j@	c #4CE6F5",
"k@	c #4DE6F4",
"l@	c #4DE8F4",
"m@	c #4DE9F4",
"n@	c #4CEAF4",
"o@	c #4CEBF4",
"p@	c #4CECF3",
"q@	c #4DEDF3",
"r@	c #4DEEF4",
"s@	c #4DEEF3",
"t@	c #4CEEF2",
"u@	c #4AADF1",
"v@	c #152C45",
"w@	c #020406",
"x@	c #3268A5",
"y@	c #4BD9F2",
"z@	c #4DE7F4",
"A@	c #4CE7F4",
"B@	c #4CECF4",
"C@	c #4CEDF3",
"D@	c #4CEEF3",
"E@	c #4DEFF3",
"F@	c #4DF0F3",
"G@	c #4DF2F3",
"H@	c #4ADEF1",
"I@	c #366FB0",
"J@	c #020509",
"K@	c #0B1725",
"L@	c #4CE6F3",
"M@	c #4CE9F4",
"N@	c #4DECF3",
"O@	c #4DEDF4",
"P@	c #4CEEF4",
"Q@	c #4CF1F3",
"R@	c #4DF1F2",
"S@	c #4DF1F3",
"T@	c #4CF3F2",
"U@	c #4CEEF1",
"V@	c #4186D4",
"W@	c #0C1928",
"X@	c #162D47",
"Y@	c #4A9BF1",
"Z@	c #4CEBF3",
"`@	c #4CEFF3",
" #	c #4DF2F2",
".#	c #4CF3F3",
"+#	c #4DF3F3",
"@#	c #4DF4F2",
"##	c #4CF2F1",
"$#	c #4A9BF0",
"%#	c #152B44",
"&#	c #264E7C",
"*#	c #4CEFF4",
"=#	c #4DEFF4",
"-#	c #4CF2F3",
";#	c #4CF4F2",
">#	c #4DF5F2",
",#	c #4DF6F2",
"'#	c #4DF6F1",
")#	c #4CF3F0",
"!#	c #183250",
"~#	c #2C5C92",
"{#	c #4CE8F1",
"]#	c #4CF2F2",
"^#	c #4DF4F3",
"/#	c #4DF7F2",
"(#	c #4DF7F1",
"_#	c #4CF8F1",
":#	c #4DF8F1",
"<#	c #4CECF0",
"[#	c #21446C",
"}#	c #4AC0F0",
"|#	c #4CF1F1",
"1#	c #4CF5F2",
"2#	c #4DF8F2",
"3#	c #4CF8F2",
"4#	c #4DF9F1",
"5#	c #4DFAF1",
"6#	c #4CF5F1",
"7#	c #49C2F0",
"8#	c #13273E",
"9#	c #102236",
"0#	c #48AFED",
"a#	c #4BE5F0",
"b#	c #4CF8F0",
"c#	c #4CF9F0",
"d#	c #4CFAF0",
"e#	c #4CF7F0",
"f#	c #4BE7F1",
"g#	c #48B0ED",
"h#	c #050A11",
"i#	c #356DAD",
"j#	c #060C13",
"k#	c #1F4066",
"l#	c #3F81CE",
"m#	c #4793E9",
"n#	c #4287D7",
"o#	c #1D3C60",
"p#	c #040A10",
"q#	c #050B12",
"r#	c #3B7AC1",
"s#	c #04090F",
"t#	c #2A5789",
"u#	c #458FE2",
"v#	c #3772B5",
"w#	c #2D5C93",
"x#	c #18314E",
"y#	c #050B11",
"z#	c #356EAF",
"A#	c #295588",
"B#	c #346CAC",
"C#	c #1B395A",
"D#	c #000101",
"E#	c #12263D",
"F#	c #0B1724",
"G#	c #010305",
"H#	c #04080E",
"I#	c #1D3D61",
"J#	c #1A3656",
"K#	c #1D3B5E",
"L#	c #295587",
"M#	c #1B3858",
"N#	c #162E49",
"O#	c #1B3859",
"P#	c #18324F",
"Q#	c #183351",
"R#	c #172F4B",
"S#	c #1D3C5F",
"T#	c #1C3B5D",
"U#	c #21456D",
"V#	c #020407",
"W#	c #2E5E96",
"X#	c #142A44",
"Y#	c #193453",
"                                                                                                                                ",
"                                                                                                                                ",
"      . . + + + + + + + + + + + + + + + + + + + + + + + + + + + + + + + + + + + + + + + + + + + + + + + + + + + + + + . .       ",
"      . + + . . . . . . . . . . . . . . . . . . . . . . . . . . . . . . . . . . . . . . . . . . . . . . . . . . . . + + .       ",
"      + + . . . . . . . . . . . . . . . . . . . . . . . . . . . . . . . . . . . . . . . . . . . . . . . . . . . . . . + +       ",
"      + . . . . @ @ @ @ @ @ @ @ @ @ @ @ @ @ @ @ @ @ @ @ @ @ @ @ @ @ @ @ @ @ @ @ @ @ @ @ @ @ @ @ @ @ @ @ @ @ @ @ . . . . +       ",
"      + . . . @ @ # # # # # # # # # $ % & * = - ; ; > , ' ) ! # # # # # # # # # # # # # # # # # # # # # # # # @ @ . . . +       ",
"      + . . @ @ # # # # # # # # ! ~ { ] ^ / ( ( _ ( ( : ^ ( < [ $ # # # # # # # # # # # # # # # # # # # # # # # @ @ . . +       ",
"      + . . @ # # # # # # # } ) | 1 1 2 - 3 1 1 1 1 2 3 3 2 1 1 4 5 6 # # # # # # # # # # # # # # # # # # # # # # @ . . +       ",
"      + . . @ # # # # # # 7 8 1 1 1 9 0 a b c d e f g h i j 9 1 1 1 k l # # # # # # # # # # # # # # # # # # # # # @ . . +       ",
"      + . . @ # # # # # m n 1 1 1 o b p q r p q r r q q q r s o 1 ; 1 t u # # # # # # # # # # # # # # # # # # # # @ . . +       ",
"      + . . @ # # # # v w 1 - 1 x q q q q q q q q q q q q r q q y 1 - 1 z A # # # # # # # # # # # # # # # # # # # @ . . +       ",
"      + . . @ # # # B C 1 - D E q q q q p q q r q q F p p p q r q G D - 1 4 7 # # # # # # # # # # # # # # # # # # @ . . +       ",
"      + . . @ # # H I 1 - 1 J p q q q q r q q q r p q r p q r p q p J 1 3 1 k K # # # # # # # # # # # # # # # # # @ . . +       ",
"      + . . @ # # 5 1 1 1 L p q r q q r q p q q r p p r q F p r q r q M 1 1 1 N # # # # # # # # # # # # # # # # # @ . . +       ",
"      + . . @ # O P 1 1 Q p q F q q q p q q r q q q q q p r p q p R S T U 2 1 w V # # # # # # # # # # # # # # # # @ . . +       ",
"      + . . @ # W 1 1 X Y F q F q r q q p q r p p p q p R S T Z `  ...+.@.#.- 1 $.# # # # # # # # # # # # # # # # @ . . +       ",
"      + . . @ K %.1 1 &.r q p q q r p q q q r q S T *.T *.=.+.+.-.;.>.;.,.'.1 1 ).K # # # # # # # # # # # # # # # @ . . +       ",
"      + . . @ !.~.1 1 Y q q q q q q r q R T ` T =. .+.+.;.>.{.{.].^.^./.(._.1 1 ^ :.# # # # # # # # # # # # # # # @ . . +       ",
"      + . . @ <.> 9 [.}.. . . |.R *.=.1.. . . 2.>.3.4.5.. . . (.(.. . . . . . . . . . . # # # # 6.7.8.9.9.0.a.b.# @ . . +       ",
"      + . . @ { ^ 1 c.. . . . d.+.+.+.-.. . . 5.,./.e.f.. . . g.h.. . . . . . . . . . . # # # i.j.. . . . . . k.l.@ . . +       ",
"      + . . @ | : 1 m.. . . . n.o.3.,.p.. . . f.(.g.g.q.. . . r.s.. . . . . . . . . . . # # 6.j.. . t.u.v.w.. . k.@ . . +       ",
"      + . . @ - x.y.z.. A.B.. . C.e.D.(.. . . E.h.F.G.H.. . . I.I.J.K.L.M.. . . _ N.O.# # # P.. . Q.R.# # R.S.. . @ . . +       ",
"      + . . @ ; / T.. . U.V.. . W.g.X.h.. . . H.Y.Z.Z.`.. . .  +.+++@+#+$+. . . - { O.# # # 8.. . %+# # # # u.. . @ . . +       ",
"      + . . @ ; / &+. . *+=+-+. . ;+Y.>+. . . ,+J.'+K.)+. . . !+!+~+{+]+^+. . . _ /+B # # # (+. . _+# # # # :+. . @ . . +       ",
"      + . . @ ( <+[+. . }+F.|+. . 1+2+2+. . . )+++@+@+3+. . . 4+5+6+7+7+8+. . . 1 %.9+# # # 0+. . _+# # # # a+. . @ . . +       ",
"      + . . @ b+c+. . . d+e+f+. . g+.+.+h+. . i+!+j+k+l+. . h+7+m+n+o+p+q+. . . 1 r+s+# # # t+. . l.# # # # %+. . @ . . +       ",
"      + . . @ u+v+. . . . . . . . . w+~+x+. . y+6+6+7+z+. . A+B+C+C+D+E+F+. . . 1 G+# # # # H+. . I+# # # # J+. . @ . . +       ",
"      + . . @ K+L+. . . . . . . . . M+4+N+. . O+P+Q+R+S+. . T+E+E+U+U+V+W+. . . ( X+# # # # b.k.. . Y+u.Z+`+. . 0+@ . . +       ",
"      + . . @  @. . L+.@5+4++@@@. . #@$@%@&@. . . . . . . *@=@V+-@-@;@>@,@. . . '@)@# # # # # v.0+. . . . . . !@~@@ . . +       ",
"      + . . @ {@. . ]@^@6+7+n+/@. . . (@_@:@<@[@}@n.|@1@2@3@>@;@4@5@6@6@7@. . . 8@H # # # # # # 9@0@a@b@!@c@d@e@# @ . . +       ",
"      + . . @ # f@_ 2 g@o+h@C+_@i@j@E+U+k@V+l@l@m@;@n@o@4@6@6@p@q@r@s@s@t@u@1 2 v@# # # # # # # # # # # # # # # # @ . . +       ",
"      + . . @ # w@x@1 - y@D+U+z@A@l@V+-@-@m@;@4@4@B@B@q@C@s@D@E@E@F@F@G@H@; 1 I@J@# # # # # # # # # # # # # # # # @ . . +       ",
"      + . . @ # # K@w 1 1 L@V+m@M@;@o@4@5@6@N@O@s@P@s@E@F@F@Q@R@S@G@T@U@1 1 V@W@# # # # # # # # # # # # # # # # # @ . . +       ",
"      + . . @ # # # X@1 1 Y@Z@4@B@N@N@q@s@r@`@F@F@R@R@R@ # #.#+#@#@###$#1 _ %## # # # # # # # # # # # # # # # # # @ . . +       ",
"      + . . @ # # # # &#1 3 #.t@s@*#=#E@F@R@R@-# #+#@#;#@#>#,#,#'#)##.2 1 / !## # # # # # # # # # # # # # # # # # @ . . +       ",
"      + . . @ # # # # w@~#1 1 ; {#F@S@G@]#T@;#^#>#>#,#/#(#(#_#:#<#9 1 1 1 2 | X+# # # # # # # # # # # # # # # # # @ . . +       ",
"      + . . @ # # # # # s+[#3 1 1 }#|#@#>#,#1#'#(#2#3#:#4#5#6#7#1 1 C /+1 1 1 x.8## # # # # # # # # # # # # # # # @ . . +       ",
"      + . . @ # # # # # # # 9#, 1 1 1 0#a#6#_#b#c#d#d#e#f#g#1 1 1 N.7 h#i#1 3 1 w 7 # # # # # # # # # # # # # # # @ . . +       ",
"      + . . @ # # # # # # # # j#k#l#1 1 2 ( ; 2 9 2 3 m#1 1 1 n#o#p## # q#N.1 ; 1 r#j## s+# # # # # # # # # # # # @ . . +       ",
"      + . . @ # # # # # # # # # # s#v@t#).n z ( ( ( u#< v#w#x#y## # # # # s#z#1 9 1 /+A#B#C#D## # # # # # # # # # @ . . +       ",
"      + . . @ # # # # # # # # # # # # s+)@E## # # # # # F#G## # # # # # # # H#z#1 1 1 1 1 1 I#D## # # # # # # # # @ . . +       ",
"      + . . @ # # # # # # # # # # # # # ,#,## # # # # ,#,#,## # # # # # # # # H#I 1 1 1 ; 1 1 o## # # # # # # # # @ . . +       ",
"      + . . @ # # # # # # # # # # # ,#,#,#,## # # # # ,#,#,#,#,## # # # # # # # J#1 1 3 3 - 1 1 K## # # # # # # # @ . . +       ",
"      + . . @ # # # # # # # # # ,#,#,#,#,#,## # # # # ,#,#,#,#,#,#,## # # # # # L#1 1 ( 2 3 3 1 1 M## # # # # # # @ . . +       ",
"      + . . @ # # # # # # ,#,#,#,#,#,#,#,## # # # # # # ,#,#,#,#,#,#,#,#,## # # N#1 1 - - 9 - _ 1 1 O## # # # # # @ . . +       ",
"      + . . @ # # # # ,#,#,#,#,#,#,#,#,## # # # # # # # # # ,#,#,#,#,#,#,#,#,## # P#1 1 ; - 2 ; _ 1 1 O## # # # # @ . . +       ",
"      + . . @ # # ,#,#,#,#,#,#,#,#,## # # # # # # # # # # # # # ,#,#,#,#,#,#,#,#,## Q#1 1 3 3 2 - m#1 1 O## # # # @ . . +       ",
"      + . . @ ,#,#,#,#,#,#,#,#,#,#,#,#,#,#,#,#,#,#,#,#,#,#,#,#,#,#,#,#,#,#,#,#,#,#,#,#R#1 1 m#3 ; - ( 1 1 o## # # @ . . +       ",
"      + . . @ ,#,#,#,#,#,#,#,#,#,#,#,#,#,#,#,#,#,#,#,#,#,#,#,#,#,#,#,#,#,#,#,#,#,#,#,## P#1 1 m#- ; - - 1 1 S#D## @ . . +       ",
"      + . . @ ,#,#,#,#,#,#,#,#,#,#,#,#,#,#,#,#,#,#,#,#,#,#,#,#,#,#,#,#,#,#,#,#,#,#,#,## # x#^ 1 _ ; ; 3 3 1 1 O#D#@ . . +       ",
"      + . . @ # # ,#,#,#,#,#,#,#,#,## # # # # # # # # # # # # # ,#,#,#,#,#,#,#,#,## # # # # T#1 2 3 ; 9 - ; 1 3 U#@ . . +       ",
"      + . . @ # # # # ,#,#,#,#,#,#,#,#,#,## # # # # # # # ,#,#,#,#,#,#,#,#,#,## # # # # # # G#<.1 2 - 3 9 3 _ 1 1 @ . . +       ",
"      + . . @ # # # # # # # ,#,#,#,#,#,#,#,## # # # # # ,#,#,#,#,#,#,#,## # # # # # # # # # # J@~#1 9 - 3 - 3 1 > @ . . +       ",
"      + . . @ # # # # # # # # # ,#,#,#,#,#,#,## # # # ,#,#,#,#,#,#,## # # # # # # # # # # # # # V#W#1 2 ( ; 1 n#P#@ . . +       ",
"      + . . @ @ # # # # # # # # # # # ,#,#,#,## # # # ,#,#,#,## # # # # # # # # # # # # # # # # # } <.2 2 1 4 X#@ @ . . +       ",
"      + . . . @ @ # # # # # # # # # # # # ,#,## # # # ,#,## # # # # # # # # # # # # # # # # # # # # 6 x@1 : Y#@ @ . . . +       ",
"      + . . . . @ @ @ @ @ @ @ @ @ @ @ @ @ @ @ @ @ @ @ @ @ @ @ @ @ @ @ @ @ @ @ @ @ @ @ @ @ @ @ @ @ @ @ @ @ @ @ @ . . . . +       ",
"      + + . . . . . . . . . . . . . . . . . . . . . . . . . . . . . . . . . . . . . . . . . . . . . . . . . . . . . . + +       ",
"      . + + . . . . . . . . . . . . . . . . . . . . . . . . . . . . . . . . . . . . . . . . . . . . . . . . . . . . + + .       ",
"      . . + + + + + + + + + + + + + + + + + + + + + + + + + + + + + + + + + + + + + + + + + + + + + + + + + + + + + + . .       ",
"                                                                                                                                ",
"                                                                                                                                ",
"                                                                                                                                "};
