/* XPM */
static char *xpm_vert_zoom_out[] = {
/* columns rows colors chars-per-pixel */
"64 64 69 1",
"  c #000000",
". c #03060A",
"X c #04080E",
"o c #0C0D0D",
"O c #060C13",
"+ c #09121D",
"@ c #0A1522",
"# c #0B1826",
"$ c #0D1B2B",
"% c #0F2033",
"& c #102337",
"* c #13273E",
"= c #152B44",
"- c #162E49",
"; c #18324F",
": c #193452",
"> c #1C395B",
", c #1E3D62",
"< c #1F4167",
"1 c #21446C",
"2 c #224771",
"3 c #244974",
"4 c #264F7D",
"5 c #295587",
"6 c #2A5689",
"7 c #2C5A8E",
"8 c #2D5D94",
"9 c #30629C",
"0 c #3266A2",
"q c #3268A5",
"w c #356DAD",
"e c #366FB0",
"r c #3771B3",
"t c #3873B7",
"y c #3976BB",
"u c #3C7BC3",
"i c #3E7FC9",
"p c #3F81CE",
"a c #4185D3",
"s c #438ADB",
"d c #458EE1",
"f c #4691E6",
"g c #4793E9",
"h c #4895ED",
"j c #4997F0",
"k c #4A98F1",
"l c #48AFED",
"z c #48B1ED",
"x c #4AA0F2",
"c c #4AACF2",
"v c #4AB4F5",
"b c #4BB9F5",
"n c #4CBDF8",
"m c #4AC3F2",
"M c #4BC9F0",
"N c #4DC7FB",
"B c #4DCAFB",
"V c #4BD1F4",
"C c #4CDDF6",
"Z c #4DD3F9",
"A c #4DD8F8",
"S c #4DE4F5",
"D c #4DEBF4",
"F c #4DF3F2",
"G c #4DFBF1",
"H c #9D9D9D",
"J c gray78",
"K c gray100",
"L c None",
/* pixels */
"LLLLLLLLLLLLLLLLLLLLLLLLLLLLLLLLLLLLLLLLLLLLLLLLLLLLLLLLLLLLLLLL",
"LLLLLLLLLLLLLLLLLLLLLLLLLLLLLLLLLLLLLLLLLLLLLLLLLLLLLLLLLLLLLLLL",
"LLLKKJJJJJJJJJJJJJJJJJJJJJJJJJJJJJJJJJJJJJJJJJJJJJJJJJJJJJJKKLLL",
"LLLKJJKKKKKKKKKKKKKKKKKKKKKKKKKKKKKKKKKKKKKKKKKKKKKKKKKKKKJJKLLL",
"LLLJJKKKKKKKKKKKKKKKKKKKKKKKKKKKKKKKKKKKKKKKKKKKKKKKKKKKKKKJJLLL",
"LLLJKKKKHHHHHHHHHHHHHHHHHHHHHHHHHHHHHHHHHHHHHHHHHHHHHHHHKKKKJLLL",
"LLLJKKKHH         O>9idhhhfi0<+                        HHKKKJLLL",
"LLLJKKHH        +1udfggggggffga2O                GGG    HHKKJLLL",
"LLLJKKH       .<skkjhhkkkkjhhjkks,X              GGG     HKKJLLL",
"LLLJKKH      @rkkkhkcvNNNNnbckhkkkt@             GGG     HKKJLLL",
"LLLJKKH     $akkkxvNNNNNNNNNNNvxkhks$            GGG     HKKJLLL",
"LLLJKKH    $skhkvNNNNNNNNNNNNNNNvkhkd$           GGG     HKKJLLL",
"LLLJKKH   +akhkbNNNNNNNNNNNNNNNNNbkhks@          GGG     HKKJLLL",
"LLLJKKH  .wkhknNNNNNNNNNNNNNNNNNNNnkhkt.         GGG     HKKJLLL",
"LLLJKKH  ,kkkbNNNNNNNNNNNNNNNNNNNNNbkkk,         GGG     HKKJLLL",
"LLLJKKH +skkcNNNNNNNNNNNNNNNNNNNNBBBvjks@        GGG     HKKJLLL",
"LLLJKKH 1kkkNNNNNNNNNNNNNNNNBBBBBBBBBkhk4        GGG     HKKJLLL",
"LLLJKKH.ykkvNNNNNNNNNNNNBBBBBBBBBBBBBbkkt.       GGG     HKKJLLL",
"LLLJKKH%skkNNNNNNNNNBBBBBBBBBBBBBZZZZBkkf&       GGG     HKKJLLL",
"LLLJKKH7fhcNNNNBBBBBBBBBBBBBZZZZZZZZZZzhj1       GGG     HKKJLLL",
"LLLJKKHufkbBBBBBBBBBBBBBBZZZZZZZZZZZAAmjk6       GGG     HKKJLLL",
"LLLJKKHsfkNBBBBBBBBZZZZZZZZZZZZZAAAAAAVkkyO      GGG     HKKJLLL",
"LLLJKKHhfkBoooooooooooooooooooooooooooAkgu+      GGG     HKKJLLL",
"LLLJKKHhgkBoooooooooooooooooooooooooooCkhu+      GGG     HKKJLLL",
"LLLJKKHhgkZoooooooooooooooooooooooooooCkgu+      GGG     HKKJLLL",
"LLLJKKHgfkZoooooooooooooooooooooooooooCkkyO      GGG     HKKJLLL",
"LLLJKKHafkVoooooooooooooooooooooooooooCkk8       GGG     HKKJLLL",
"LLLJKKHwfhVAAACCCCCCCCCCSSSSSSSSSSSSSSChk3       GGG     HKKJLLL",
"LLLJKKH2fhmCCCCCCCCCSSSSSSSSSSSSSSSDDDMhg:       GGG     HKKJLLL",
"LLLJKKH#skkCCCSCSSSSSSSSSSSSSSSDDDDDDDhka#       GGG     HKKJLLL",
"LLLJKKH.0khCSSSSSSSSSSSSSSSDDDDDDDDDDShkq.       GGG     HKKJLLL",
"LLLJKKH =gjcSSSSSSSSSDDDDDDDDDDDDDDDDckj=        GGG     HKKJLLL",
"LLLJKKH .qkhCSSSSDDDDDDDDDDDDDDDDFFFChke.    G   GGG   G HKKJLLL",
"LLLJKKH  #skkSDDDDDDDDDDDDDDFFFFFFFDkka#      G  GGG  G  HKKJLLL",
"LLLJKKH   -kkkDDDDDDDDDFFFFFFFFFFFFkkg=        G GGG G   HKKJLLL",
"LLLJKKH    4khkDDDDDFFFFFFFFFFFFFFkjkg:        G GGG G   HKKJLLL",
"LLLJKKH    .8kkhDFFFFFFFFFFFGGGGDhkkkjs:        GGGGG    HKKJLLL",
"LLLJKKH      1hkkmFFFFFFGGGGGGFmkkaukkkf*        GGGo    HKKJLLL",
"LLLJKKH       &ikkklSFGGGGGGSzkkku@Owkhks@       GGGo    HKKJLLL",
"LLLJKKH        O<pkkjghjhjhgkkka,O  OukhkuO      GGGo    HKKJLLL",
"LLLJKKH          X=6tadgggdar8;O     Xwkhku5w>           HKKJLLL",
"LLLJKKH             #*=-;--*#         Xwkkkkkk,          HKKJLLL",
"LLLJKKH                                Xwkkkhkk,         HKKJLLL",
"LLLJKKH                                 :kkhhhkk>        HKKJLLL",
"LLLJKKH                                 5kkgjhhkk>       HKKJLLL",
"LLLJKKH                                 -kkhhhhgkk>      HKKJLLL",
"LLLJKKH                                  ;kkhhjhgkk>     HKKJLLL",
"LLLJKKH                                   :kkhhjhgkk>    HKKJLLL",
"LLLJKKH                                    -kkghhhgkk,   HKKJLLL",
"LLLJKKH                                     ;kkghhhhkk>  HKKJLLL",
"LLLJKKH                                      ;fkghhhhkk> HKKJLLL",
"LLLJKKH                                       >kjhhhhhkh1HKKJLLL",
"LLLJKKH                                        7kjhhhhgkkHKKJLLL",
"LLLJKKH                                        .8khhhhhkfHKKJLLL",
"LLLJKKH                                         .8kjghka;HKKJLLL",
"LLLJKKHH                                         .7jjks=HHKKJLLL",
"LLLJKKKHH                                         Xqkf:HHKKKJLLL",
"LLLJKKKKHHHHHHHHHHHHHHHHHHHHHHHHHHHHHHHHHHHHHHHHHHHHHHHHKKKKJLLL",
"LLLJJKKKKKKKKKKKKKKKKKKKKKKKKKKKKKKKKKKKKKKKKKKKKKKKKKKKKKKJJLLL",
"LLLKJJKKKKKKKKKKKKKKKKKKKKKKKKKKKKKKKKKKKKKKKKKKKKKKKKKKKKJJKLLL",
"LLLKKJJJJJJJJJJJJJJJJJJJJJJJJJJJJJJJJJJJJJJJJJJJJJJJJJJJJJJKKLLL",
"LLLLLLLLLLLLLLLLLLLLLLLLLLLLLLLLLLLLLLLLLLLLLLLLLLLLLLLLLLLLLLLL",
"LLLLLLLLLLLLLLLLLLLLLLLLLLLLLLLLLLLLLLLLLLLLLLLLLLLLLLLLLLLLLLLL",
"LLLLLLLLLLLLLLLLLLLLLLLLLLLLLLLLLLLLLLLLLLLLLLLLLLLLLLLLLLLLLLLL"
};
