/* XPM */
static char * xpm_vert_zoom_out_xpm[] = {
"64 64 365 2",
"  	c None",
". 	c #FFFFFF",
"+ 	c #C7C7C7",
"@ 	c #9D9D9D",
"# 	c #000000",
"$ 	c #070E17",
"% 	c #1C3A5C",
"& 	c #30629C",
"* 	c #3D7EC8",
"= 	c #458EE1",
"- 	c #4895EC",
"; 	c #4996EE",
"> 	c #4690E4",
", 	c #3E7FCA",
"' 	c #3165A0",
") 	c #1F4167",
"! 	c #08121D",
"~ 	c #4DF6F2",
"{ 	c #21456E",
"] 	c #3C7BC4",
"^ 	c #458FE3",
"/ 	c #4690E5",
"( 	c #4792E8",
"_ 	c #4793EA",
": 	c #4894EB",
"< 	c #4691E6",
"[ 	c #4084D1",
"} 	c #224771",
"| 	c #03060A",
"1 	c #448CDE",
"2 	c #4A98F1",
"3 	c #4997F0",
"4 	c #4895ED",
"5 	c #4288D8",
"6 	c #1E3F64",
"7 	c #0A1421",
"8 	c #3670B2",
"9 	c #4996EF",
"0 	c #4A9CF1",
"a 	c #4AAAF2",
"b 	c #4BB6F6",
"c 	c #4CC0F9",
"d 	c #4CC4FA",
"e 	c #4CC7FA",
"f 	c #4BC4FA",
"g 	c #4CBFF9",
"h 	c #4AB7F6",
"i 	c #49A9F1",
"j 	c #499BF1",
"k 	c #3874B9",
"l 	c #0A1522",
"m 	c #0E1D2F",
"n 	c #4084D2",
"o 	c #4AA0F2",
"p 	c #4CC8FB",
"q 	c #4DC8FB",
"r 	c #4DC7FB",
"s 	c #4AB5F5",
"t 	c #4289D9",
"u 	c #0D1C2C",
"v 	c #0D1C2D",
"w 	c #438BDD",
"x 	c #4AB0F5",
"y 	c #4BB0F6",
"z 	c #458DE0",
"A 	c #0D1B2B",
"B 	c #09131F",
"C 	c #4083D0",
"D 	c #4A99F1",
"E 	c #4BB9F7",
"F 	c #4CC7FB",
"G 	c #4BB8F7",
"H 	c #020508",
"I 	c #356EAE",
"J 	c #4CBCF8",
"K 	c #4BB8F6",
"L 	c #4AB8F6",
"M 	c #1F3F65",
"N 	c #08101A",
"O 	c #4389DA",
"P 	c #4AAFF5",
"Q 	c #4CC9FB",
"R 	c #4DC9FB",
"S 	c #4DCAFA",
"T 	c #4AB0F3",
"U 	c #0B1623",
"V 	c #20436A",
"W 	c #4A9EF2",
"X 	c #4CC6FA",
"Y 	c #4CCAFB",
"Z 	c #4CCAFA",
"` 	c #4DCCFB",
" .	c #4DCBFB",
"..	c #4DCCFA",
"+.	c #4CCAF9",
"@.	c #4A9EF1",
"#.	c #264F7E",
"$.	c #03070C",
"%.	c #3A77BD",
"&.	c #4AB5F3",
"*.	c #4DCAFB",
"=.	c #4DCBFA",
"-.	c #4DCDFA",
";.	c #4CCEFA",
">.	c #4DCEFA",
",.	c #4DCFFA",
"'.	c #4AB9F2",
").	c #3873B7",
"!.	c #0F2033",
"~.	c #438ADC",
"{.	c #4CCFFA",
"].	c #4DCFF9",
"^.	c #4DD0FA",
"/.	c #4DD0F9",
"(.	c #4DD2F9",
"_.	c #4CCFF8",
":.	c #112337",
"<.	c #2C5A8F",
"[.	c #49AEF0",
"}.	c #4CCBFB",
"|.	c #4CCBFA",
"1.	c #4DCEF9",
"2.	c #4CCEF9",
"3.	c #4CD0F9",
"4.	c #4CD2F9",
"5.	c #4DD3F9",
"6.	c #4DD4F8",
"7.	c #48B1ED",
"8.	c #204269",
"9.	c #4ABBF2",
"0.	c #4CD1F9",
"a.	c #4DD1F9",
"b.	c #4DD4F9",
"c.	c #4DD5F8",
"d.	c #4CD5F8",
"e.	c #4DD6F8",
"f.	c #4CD6F8",
"g.	c #4AC4F1",
"h.	c #2A588B",
"i.	c #4BC4F7",
"j.	c #4DCDF9",
"k.	c #4CD0FA",
"l.	c #4DD1FA",
"m.	c #4DD5F9",
"n.	c #4CD5F9",
"o.	c #4DD6F9",
"p.	c #4DD7F8",
"q.	c #4CD8F8",
"r.	c #4DD8F8",
"s.	c #4DD9F7",
"t.	c #4CD1F5",
"u.	c #3976BB",
"v.	c #04090E",
"w.	c #4792E7",
"x.	c #4CCBF9",
"y.	c #0C0D0D",
"z.	c #4CD8F6",
"A.	c #3B7AC2",
"B.	c #09131E",
"C.	c #4CCFF9",
"D.	c #4CDDF6",
"E.	c #4CD0F8",
"F.	c #4CDFF5",
"G.	c #4BD2F8",
"H.	c #4185D3",
"I.	c #4CD3F5",
"J.	c #4CDEF3",
"K.	c #346BAB",
"L.	c #4AD0F3",
"M.	c #4DD9F8",
"N.	c #4DDAF7",
"O.	c #4DDBF7",
"P.	c #4CDCF7",
"Q.	c #4DDCF6",
"R.	c #4DDDF7",
"S.	c #4DDDF6",
"T.	c #4DDEF7",
"U.	c #4DDEF6",
"V.	c #4DDFF6",
"W.	c #4DE0F6",
"X.	c #4DE1F6",
"Y.	c #4CE2F6",
"Z.	c #4DE2F6",
"`.	c #4CE3F5",
" +	c #4DE3F6",
".+	c #4DE4F5",
"++	c #4DE5F5",
"@+	c #4DE6F5",
"#+	c #4CE6F5",
"$+	c #4CE7F4",
"%+	c #4BD9F0",
"&+	c #244A76",
"*+	c #234872",
"=+	c #4AC5F3",
"-+	c #4DDCF7",
";+	c #4CDDF7",
">+	c #4CDEF7",
",+	c #4CDFF6",
"'+	c #4CE1F6",
")+	c #4DE3F5",
"!+	c #4CE3F6",
"~+	c #4DE7F5",
"{+	c #4DE8F5",
"]+	c #4DE9F5",
"^+	c #4DE9F4",
"/+	c #4BC9F0",
"(+	c #193352",
"_+	c #0C1928",
":+	c #4CDCF5",
"<+	c #4DDFF7",
"[+	c #4DE0F7",
"}+	c #4CE0F6",
"|+	c #4DE4F6",
"1+	c #4CE4F6",
"2+	c #4CE5F6",
"3+	c #4CE7F5",
"4+	c #4DEAF4",
"5+	c #4DEAF5",
"6+	c #4DEBF4",
"7+	c #4CEAF3",
"8+	c #4997EF",
"9+	c #4187D6",
"0+	c #0B1826",
"a+	c #020406",
"b+	c #3267A3",
"c+	c #4CD9F3",
"d+	c #4CE5F5",
"e+	c #4DE7F4",
"f+	c #4CE9F4",
"g+	c #4DEBF3",
"h+	c #4DECF4",
"i+	c #4DEDF3",
"j+	c #4CE0F1",
"k+	c #3267A4",
"l+	c #142941",
"m+	c #4AACF1",
"n+	c #4DE5F6",
"o+	c #4DE6F4",
"p+	c #4DE8F4",
"q+	c #4CEAF4",
"r+	c #4CEBF4",
"s+	c #4CECF3",
"t+	c #4DEEF4",
"u+	c #4DEEF3",
"v+	c #4CEEF2",
"w+	c #4AADF1",
"x+	c #152C45",
"y+	c #3268A5",
"z+	c #4BD9F2",
"A+	c #4CECF4",
"B+	c #4CEDF3",
"C+	c #4CEEF3",
"D+	c #4DEFF3",
"E+	c #4DF0F3",
"F+	c #4DF2F3",
"G+	c #4ADEF1",
"H+	c #366FB0",
"I+	c #0B1725",
"J+	c #4CE6F3",
"K+	c #4DECF3",
"L+	c #4DEDF4",
"M+	c #4CEEF4",
"N+	c #4CF1F3",
"O+	c #4DF1F2",
"P+	c #4DF1F3",
"Q+	c #4CF3F2",
"R+	c #4CEEF1",
"S+	c #4186D4",
"T+	c #162D47",
"U+	c #4A9BF1",
"V+	c #4CEBF3",
"W+	c #4CEFF3",
"X+	c #4DF2F2",
"Y+	c #4CF3F3",
"Z+	c #4DF3F3",
"`+	c #4DF4F2",
" @	c #4CF2F1",
".@	c #4A9BF0",
"+@	c #152B44",
"@@	c #264E7C",
"#@	c #4CEFF4",
"$@	c #4DEFF4",
"%@	c #4CF2F3",
"&@	c #4CF4F2",
"*@	c #4DF5F2",
"=@	c #4DF6F1",
"-@	c #4CF3F0",
";@	c #183250",
">@	c #2C5C92",
",@	c #4CE8F1",
"'@	c #4CF2F2",
")@	c #4DF4F3",
"!@	c #4DF7F2",
"~@	c #4DF7F1",
"{@	c #4CF8F1",
"]@	c #4DF8F1",
"^@	c #4CECF0",
"/@	c #010204",
"(@	c #21446C",
"_@	c #4AC0F0",
":@	c #4CF1F1",
"<@	c #4CF5F2",
"[@	c #4DF8F2",
"}@	c #4CF8F2",
"|@	c #4DF9F1",
"1@	c #4DFAF1",
"2@	c #4CF5F1",
"3@	c #49C2F0",
"4@	c #3C7BC3",
"5@	c #13273E",
"6@	c #102236",
"7@	c #48AFED",
"8@	c #4BE5F0",
"9@	c #4CF8F0",
"0@	c #4CF9F0",
"a@	c #4CFAF0",
"b@	c #4CF7F0",
"c@	c #4BE7F1",
"d@	c #48B0ED",
"e@	c #050A11",
"f@	c #356DAD",
"g@	c #060C13",
"h@	c #1F4066",
"i@	c #3F81CE",
"j@	c #4793E9",
"k@	c #4287D7",
"l@	c #1D3C60",
"m@	c #040A10",
"n@	c #050B12",
"o@	c #3B7AC1",
"p@	c #04090F",
"q@	c #2A5789",
"r@	c #458FE2",
"s@	c #3772B5",
"t@	c #2D5C93",
"u@	c #18314E",
"v@	c #050B11",
"w@	c #356EAF",
"x@	c #295588",
"y@	c #346CAC",
"z@	c #1B395A",
"A@	c #12263D",
"B@	c #162E49",
"C@	c #162D48",
"D@	c #0B1724",
"E@	c #010305",
"F@	c #04080E",
"G@	c #1D3D61",
"H@	c #1A3656",
"I@	c #1D3B5E",
"J@	c #295587",
"K@	c #1B3858",
"L@	c #1B3859",
"M@	c #18324F",
"N@	c #183351",
"O@	c #172F4B",
"P@	c #1D3C5F",
"Q@	c #1C3B5D",
"R@	c #21456D",
"S@	c #020509",
"T@	c #020407",
"U@	c #2E5E96",
"V@	c #142A44",
"W@	c #04080D",
"X@	c #193453",
"                                                                                                                                ",
"                                                                                                                                ",
"      . . + + + + + + + + + + + + + + + + + + + + + + + + + + + + + + + + + + + + + + + + + + + + + + + + + + + + + + . .       ",
"      . + + . . . . . . . . . . . . . . . . . . . . . . . . . . . . . . . . . . . . . . . . . . . . . . . . . . . . + + .       ",
"      + + . . . . . . . . . . . . . . . . . . . . . . . . . . . . . . . . . . . . . . . . . . . . . . . . . . . . . . + +       ",
"      + . . . . @ @ @ @ @ @ @ @ @ @ @ @ @ @ @ @ @ @ @ @ @ @ @ @ @ @ @ @ @ @ @ @ @ @ @ @ @ @ @ @ @ @ @ @ @ @ @ @ . . . . +       ",
"      + . . . @ @ # # # # # # # # # $ % & * = - ; ; > , ' ) ! # # # # # # # # # # # # # # # # # ~ ~ ~ # # # # @ @ . . . +       ",
"      + . . @ @ # # # # # # # # ! { ] ^ / ( _ _ : _ _ < / _ [ } $ # # # # # # # # # # # # # # # ~ ~ ~ # # # # # @ @ . . +       ",
"      + . . @ # # # # # # # | ) 1 2 2 3 - 4 2 2 2 2 3 4 4 3 2 2 5 6 # # # # # # # # # # # # # # ~ ~ ~ # # # # # # @ . . +       ",
"      + . . @ # # # # # # 7 8 2 2 2 9 0 a b c d e f g h i j 9 2 2 2 k l # # # # # # # # # # # # ~ ~ ~ # # # # # # @ . . +       ",
"      + . . @ # # # # # m n 2 2 2 o b p q r p q r r q q q r s o 2 ; 2 t u # # # # # # # # # # # ~ ~ ~ # # # # # # @ . . +       ",
"      + . . @ # # # # v w 2 - 2 x q q q q q q q q q q q q r q q y 2 - 2 z A # # # # # # # # # # ~ ~ ~ # # # # # # @ . . +       ",
"      + . . @ # # # B C 2 - D E q q q q p q q r q q F p p p q r q G D - 2 5 7 # # # # # # # # # ~ ~ ~ # # # # # # @ . . +       ",
"      + . . @ # # H I 2 - 2 J p q q q q r q q q r p q r p q r p q p J 2 4 2 k # # # # # # # # # ~ ~ ~ # # # # # # @ . . +       ",
"      + . . @ # # 6 2 2 2 K p q r q q r q p q q r p p r q F p r q r q L 2 2 2 M # # # # # # # # ~ ~ ~ # # # # # # @ . . +       ",
"      + . . @ # N O 2 2 P p q F q q q p q q r q q q q q p r p q p Q R S T 3 2 w U # # # # # # # ~ ~ ~ # # # # # # @ . . +       ",
"      + . . @ # V 2 2 W X F q F q r q q p q r p p p q p Q R S Y Z `  ...+.@.- 2 #.# # # # # # # ~ ~ ~ # # # # # # @ . . +       ",
"      + . . @ $.%.2 2 &.r q p q q r p q q q r q R S *.S *.=.....-.;.>.;.,.'.2 2 ).# # # # # # # ~ ~ ~ # # # # # # @ . . +       ",
"      + . . @ !.~.2 2 X q q q q q q r q Q S Z S =.` ....;.>.{.{.].^.^./.(._.2 2 / :.# # # # # # ~ ~ ~ # # # # # # @ . . +       ",
"      + . . @ <.> 9 [.q p q q Q Q *.=.}.|...-.-.>.1.2.,.^.3.3.(.(.4.(.5.5.6.7.- 3 8.# # # # # # ~ ~ ~ # # # # # # @ . . +       ",
"      + . . @ ] / 2 9.R Z *. .=.......-.>.>.{.,.,./.0.a.0.(.5.5.b.c.c.d.e.f.g.3 2 h.# # # # # # ~ ~ ~ # # # # # # @ . . +       ",
"      + . . @ 1 < 2 i.=.=...-.j.1.1.,.k.^./.l.a.(.5.5.5.6.m.d.n.f.o.p.q.r.s.t.2 2 u.v.# # # # # ~ ~ ~ # # # # # # @ . . +       ",
"      + . . @ - w.2 x.y.y.y.y.y.y.y.y.y.y.y.y.y.y.y.y.y.y.y.y.y.y.y.y.y.y.y.z.2 : A.B.# # # # # ~ ~ ~ # # # # # # @ . . +       ",
"      + . . @ ; ( 2 C.y.y.y.y.y.y.y.y.y.y.y.y.y.y.y.y.y.y.y.y.y.y.y.y.y.y.y.D.2 - ~ ~ ~ # # # # ~ ~ ~ # # # # ~ ~ ~ . . +       ",
"      + . . @ ; ( 2 E.y.y.y.y.y.y.y.y.y.y.y.y.y.y.y.y.y.y.y.y.y.y.y.y.y.y.y.F.2 : ~ ~ ~ # # # # ~ ~ ~ # # # ~ ~ ~ ~ . . +       ",
"      + . . @ _ w.2 G.y.y.y.y.y.y.y.y.y.y.y.y.y.y.y.y.y.y.y.y.y.y.y.y.y.y.y.F.2 2 ~ ~ ~ ~ # # # ~ ~ ~ # # # ~ ~ ~ ~ . . +       ",
"      + . . @ H.< 2 I.y.y.y.y.y.y.y.y.y.y.y.y.y.y.y.y.y.y.y.y.y.y.y.y.y.y.y.J.2 2 ~ ~ ~ ~ # # # ~ ~ ~ # # ~ ~ ~ ~ @ . . +       ",
"      + . . @ K./ 4 L.M.N.N.O.P.P.Q.R.S.T.U.V.V.W.W.X.Y.Y.Z.`. +.+.+++@+#+$+%+9 2 &+~ ~ ~ ~ # # ~ ~ ~ # # ~ ~ ~ ~ @ . . +       ",
"      + . . @ *+w.9 =+-+Q.R.;+T.>+U.,+V.W.W.'+Y.Z.)+!+.+.+++++@+@+~+~+{+]+^+/+4 _ (+~ ~ ~ ~ # # ~ ~ ~ # ~ ~ ~ ~ # @ . . +       ",
"      + . . @ _+t 2 2 :+<+V.[+V.}+'+'+'+Z.Z.)+|+1+2+@+@+~+3+3+{+]+]+4+5+6+7+8+2 9+0+# ~ ~ ~ ~ # ~ ~ ~ # ~ ~ ~ ~ # @ . . +       ",
"      + . . @ a+b+2 9 c+W.X.Z.Y.!+ +|+d+d+d+@+@+@+3+e+{+f+^+5+4+6+g+h+h+i+j+; 2 k+# # ~ ~ ~ ~ # ~ ~ ~ # ~ ~ ~ # # @ . . +       ",
"      + . . @ # l+: 3 m+`.)+.+d+n+#+@+~+o+{+p+p+^+4+q+r+6+h+h+s+i+t+u+u+v+w+2 3 x+# # # ~ ~ ~ ~ ~ ~ ~ ~ ~ ~ ~ # # @ . . +       ",
"      + . . @ # a+y+2 - z+++~+e+$+p+{+]+]+^+4+6+6+A+A+i+B+u+C+D+D+E+E+F+G+; 2 H+# # # # ~ ~ ~ ~ ~ ~ ~ ~ ~ ~ ~ # # @ . . +       ",
"      + . . @ # # I+w 2 2 J+{+^+f+4+r+6+g+h+K+L+u+M+u+D+E+E+N+O+P+F+Q+R+2 2 S+_+# # # # # ~ ~ ~ ~ ~ ~ ~ ~ ~ # # # @ . . +       ",
"      + . . @ # # # T+2 2 U+V+6+A+K+K+i+u+t+W+E+E+O+O+O+X+X+Y+Z+`+`+ @.@2 : +@# # # # # # ~ ~ ~ ~ ~ ~ ~ ~ ~ # # # @ . . +       ",
"      + . . @ # # # # @@2 4 @.v+u+#@$@D+E+O+O+%@X+Z+`+&@`+*@~ ~ =@-@@.3 2 ( ;@# # # # # # ~ ~ ~ ~ ~ ~ ~ ~ # # # # @ . . +       ",
"      + . . @ # # # # a+>@2 2 ; ,@E+P+F+'@Q+&@)@*@*@~ !@~@~@{@]@^@9 2 2 2 3 1 (+# # # # # # ~ ~ ~ ~ ~ ~ ~ # # # # @ . . +       ",
"      + . . @ # # # # # /@(@4 2 2 _@:@`+*@~ <@=@~@[@}@]@|@1@2@3@2 2 C 4@2 2 2 w.5@# # # # # ~ ~ ~ ~ ~ ~ ~ # # # # @ . . +       ",
"      + . . @ # # # # # # # 6@, 2 2 2 7@8@2@{@9@0@a@a@b@c@d@2 2 2 A.7 e@f@2 4 2 w 7 # # # # # ~ ~ ~ ~ ~ # # # # # @ . . +       ",
"      + . . @ # # # # # # # # g@h@i@2 2 3 _ ; 3 9 3 4 j@2 2 2 k@l@m@# # n@A.2 ; 2 o@v.# # # # ~ ~ ~ ~ ~ # # # # # @ . . +       ",
"      + . . @ # # # # # # # # # # p@x+q@).n z _ _ _ r@[ s@t@u@v@# # # # # p@w@2 9 2 4@x@y@z@# # ~ ~ ~ # # # # # # @ . . +       ",
"      + . . @ # # # # # # # # # # # # /@0+A@+@B@u@B@C@5@D@E@# # # # # # # # F@w@2 2 2 2 2 2 G@# ~ ~ ~ # # # # # # @ . . +       ",
"      + . . @ # # # # # # # # # # # # # # # # # # # # # # # # # # # # # # # # F@I 2 2 2 ; 2 2 l@# # # # # # # # # @ . . +       ",
"      + . . @ # # # # # # # # # # # # # # # # # # # # # # # # # # # # # # # # # H@2 2 4 4 - 2 2 I@# # # # # # # # @ . . +       ",
"      + . . @ # # # # # # # # # # # # # # # # # # # # # # # # # # # # # # # # # J@2 2 _ 3 4 4 2 2 K@# # # # # # # @ . . +       ",
"      + . . @ # # # # # # # # # # # # # # # # # # # # # # # # # # # # # # # # # B@2 2 - - 9 - : 2 2 L@# # # # # # @ . . +       ",
"      + . . @ # # # # # # # # # # # # # # # # # # # # # # # # # # # # # # # # # # M@2 2 ; - 3 ; : 2 2 L@# # # # # @ . . +       ",
"      + . . @ # # # # # # # # # # # # # # # # # # # # # # # # # # # # # # # # # # # N@2 2 4 4 3 - j@2 2 L@# # # # @ . . +       ",
"      + . . @ # # # # # # # # # # # # # # # # # # # # # # # # # # # # # # # # # # # # O@2 2 j@4 ; - _ 2 2 l@# # # @ . . +       ",
"      + . . @ # # # # # # # # # # # # # # # # # # # # # # # # # # # # # # # # # # # # # M@2 2 j@- ; - - 2 2 P@# # @ . . +       ",
"      + . . @ # # # # # # # # # # # # # # # # # # # # # # # # # # # # # # # # # # # # # # u@/ 2 : ; ; 4 4 2 2 L@# @ . . +       ",
"      + . . @ # # # # # # # # # # # # # # # # # # # # # # # # # # # # # # # # # # # # # # # Q@2 3 4 ; 9 - ; 2 4 R@@ . . +       ",
"      + . . @ # # # # # # # # # # # # # # # # # # # # # # # # # # # # # # # # # # # # # # # E@<.2 3 - 4 9 4 : 2 2 @ . . +       ",
"      + . . @ # # # # # # # # # # # # # # # # # # # # # # # # # # # # # # # # # # # # # # # # S@>@2 9 - 4 - 4 2 > @ . . +       ",
"      + . . @ # # # # # # # # # # # # # # # # # # # # # # # # # # # # # # # # # # # # # # # # # T@U@2 3 _ ; 2 k@M@@ . . +       ",
"      + . . @ @ # # # # # # # # # # # # # # # # # # # # # # # # # # # # # # # # # # # # # # # # # | <.3 3 2 5 V@@ @ . . +       ",
"      + . . . @ @ # # # # # # # # # # # # # # # # # # # # # # # # # # # # # # # # # # # # # # # # # W@y+2 < X@@ @ . . . +       ",
"      + . . . . @ @ @ @ @ @ @ @ @ @ @ @ @ @ @ @ @ @ @ @ @ @ @ @ @ @ @ @ @ @ @ @ @ @ @ @ @ @ @ @ @ @ @ @ @ @ @ @ . . . . +       ",
"      + + . . . . . . . . . . . . . . . . . . . . . . . . . . . . . . . . . . . . . . . . . . . . . . . . . . . . . . + +       ",
"      . + + . . . . . . . . . . . . . . . . . . . . . . . . . . . . . . . . . . . . . . . . . . . . . . . . . . . . + + .       ",
"      . . + + + + + + + + + + + + + + + + + + + + + + + + + + + + + + + + + + + + + + + + + + + + + + + + + + + + + + . .       ",
"                                                                                                                                ",
"                                                                                                                                ",
"                                                                                                                                "};
