/* XPM */
static char *xpm_horiz_zoom_in[] = {
/* columns rows colors chars-per-pixel */
"64 64 69 1",
"  c #000000",
". c #03060A",
"X c #04080E",
"o c #0C0D0D",
"O c #060C13",
"+ c #09121D",
"@ c #0A1522",
"# c #0B1826",
"$ c #0D1B2B",
"% c #0F2033",
"& c #102337",
"* c #13273E",
"= c #152B44",
"- c #162E49",
"; c #18324F",
": c #193452",
"> c #1C395B",
", c #1E3D62",
"< c #1F4167",
"1 c #21446C",
"2 c #224771",
"3 c #244974",
"4 c #264F7D",
"5 c #295587",
"6 c #2A5689",
"7 c #2C5A8E",
"8 c #2D5D94",
"9 c #30629C",
"0 c #3266A2",
"q c #3268A5",
"w c #356DAD",
"e c #366FB0",
"r c #3771B3",
"t c #3873B7",
"y c #3976BB",
"u c #3C7BC3",
"i c #3E7FC9",
"p c #3F81CE",
"a c #4185D3",
"s c #438ADB",
"d c #458EE1",
"f c #4691E6",
"g c #4793E9",
"h c #4895ED",
"j c #4997F0",
"k c #4A98F1",
"l c #48AFED",
"z c #48B1ED",
"x c #4AA0F2",
"c c #4AACF2",
"v c #4AB4F5",
"b c #4BB9F5",
"n c #4CBDF8",
"m c #4AC3F2",
"M c #4BC9F0",
"N c #4DC6FB",
"B c #4DCAFB",
"V c #4BD1F4",
"C c #4CDDF6",
"Z c #4DD3F9",
"A c #4DD8F8",
"S c #4DE4F5",
"D c #4DEBF4",
"F c #4DF3F2",
"G c #4DFBF1",
"H c #9D9D9D",
"J c gray78",
"K c gray100",
"L c None",
/* pixels */
"LLLLLLLLLLLLLLLLLLLLLLLLLLLLLLLLLLLLLLLLLLLLLLLLLLLLLLLLLLLLLLLL",
"LLLLLLLLLLLLLLLLLLLLLLLLLLLLLLLLLLLLLLLLLLLLLLLLLLLLLLLLLLLLLLLL",
"LLLKKJJJJJJJJJJJJJJJJJJJJJJJJJJJJJJJJJJJJJJJJJJJJJJJJJJJJJJKKLLL",
"LLLKJJKKKKKKKKKKKKKKKKKKKKKKKKKKKKKKKKKKKKKKKKKKKKKKKKKKKKJJKLLL",
"LLLJJKKKKKKKKKKKKKKKKKKKKKKKKKKKKKKKKKKKKKKKKKKKKKKKKKKKKKKJJLLL",
"LLLJKKKKHHHHHHHHHHHHHHHHHHHHHHHHHHHHHHHHHHHHHHHHHHHHHHHHKKKKJLLL",
"LLLJKKKHH         O>9idhhhfi0<+                        HHKKKJLLL",
"LLLJKKHH        +1udfggggggffga2O                       HHKKJLLL",
"LLLJKKH       .<skkjhhkkkkjhhjkks,X                      HKKJLLL",
"LLLJKKH      @rkkkhkcvNNNNnbckhkkkt@                     HKKJLLL",
"LLLJKKH     $akkkxvNNNoooooNNNvxkhks$                    HKKJLLL",
"LLLJKKH    $skhkvNNNNNoooooNNNNNvkhkd$                   HKKJLLL",
"LLLJKKH   +akhkbNNNNNNoooooNNNNNNbkhks@                  HKKJLLL",
"LLLJKKH  .wkhknNNNNNNNoooooNNNNNNNnkhkt.                 HKKJLLL",
"LLLJKKH  ,kkkbNNNNNNNNoooooNNNNNNNNbkkk,                 HKKJLLL",
"LLLJKKH +skkcNNNNNNNNNoooooNNNNNNBBBvjks@                HKKJLLL",
"LLLJKKH 1kkkNNNNNNNNNNoooooNBBBBBBBBBkhk4                HKKJLLL",
"LLLJKKH.ykkvNNNNNNNNNNoooooBBBBBBBBBBbkkt.               HKKJLLL",
"LLLJKKH%skkNNNNNNNNNBBoooooBBBBBBZZZZBkkf&               HKKJLLL",
"LLLJKKH7fhcNNNNBBBBBBBoooooBZZZZZZZZZZzhj1               HKKJLLL",
"LLLJKKHufkbBBBBBBBBBBBoooooZZZZZZZZZAAmjk6               HKKJLLL",
"LLLJKKHsfkNBBBBBBBBZZZoooooZZZZZAAAAAAVkkyO              HKKJLLL",
"LLLJKKHhfkBoooooooooooooooooooooooooooAkgu+              HKKJLLL",
"LLLJKKHhgkBoooooooooooooooooooooooooooCkhu+              HKKJLLL",
"LLLJKKHhgkZoooooooooooooooooooooooooooCkgu+              HKKJLLL",
"LLLJKKHgfkZoooooooooooooooooooooooooooCkkyO              HKKJLLL",
"LLLJKKHafkVoooooooooooooooooooooooooooCkk8               HKKJLLL",
"LLLJKKHwfhVAAACCCCCCCCoooooSSSSSSSSSSSChk3               HKKJLLL",
"LLLJKKH2fhmCCCCCCCCCSSoooooSSSSSSSSDDDMhg:               HKKJLLL",
"LLLJKKH#skkCCCSCSSSSSSoooooSSSSDDDDDDDhka#               HKKJLLL",
"LLLJKKH.0khCSSSSSSSSSSoooooDDDDDDDDDDShkq.               HKKJLLL",
"LLLJKKH =gjcSSSSSSSSSDoooooDDDDDDDDDDckj=                HKKJLLL",
"LLLJKKH .qkhCSSSSDDDDDoooooDDDDDDFFFChke.                HKKJLLL",
"LLLJKKH  #skkSDDDDDDDDoooooDFFFFFFFDkka#                 HKKJLLL",
"LLLJKKH   -kkkDDDDDDDDoooooFFFFFFFFkkg=                  HKKJLLL",
"LLLJKKH    4khkDDDDDFFoooooFFFFFFFkjkg:                  HKKJLLL",
"LLLJKKH    .8kkhDFFFFFoooooGGGGGDhkkkjs:                 HKKJLLL",
"LLLJKKH      1hkkmFFFFoooooGGGFmkkaukkkf*                HKKJLLL",
"LLLJKKH       &ikkklSFGGGGGGSzkkku@Owkhks@               HKKJLLL",
"LLLJKKH        O<pkkjghjhjhgkkka,O  OukhkuO              HKKJLLL",
"LLLJKKH          X=6tadgggdar8;O     Xwkhku5w>           HKKJLLL",
"LLLJKKH             #*=-;--*#         Xwkkkkkk,          HKKJLLL",
"LLLJKKH                                Xwkkkhkk,         HKKJLLL",
"LLLJKKH                                 :kkhhhkk>        HKKJLLL",
"LLLJKKH                                 5kkgjhhkk>       HKKJLLL",
"LLLJKKH                          G       kkhhhhgkk>      HKKJLLL",
"LLLJKKH                           G      ;kkhhjhgkk>     HKKJLLL",
"LLLJKKH                            GG     :kkhhjhgkk>    HKKJLLL",
"LLLJKKH                              G     -kkghhhgkk,   HKKJLLL",
"LLLJKKH GGGGGGGGGGGGGGGGGGGGGGGGGGGGGGGGG   ;kkghhhhkk>  HKKJLLL",
"LLLJKKH GGGGGGGGGGGGGGGGGGGGGGGGGGGGGGGGG    ;fkghhhhkk> HKKJLLL",
"LLLJKKH GGGGGGGGGGGGGGGGGGGGGGGGGGGGGGGGG     >kjhhhhhkh1HKKJLLL",
"LLLJKKH                              Gooo      7kjhhhhgkkHKKJLLL",
"LLLJKKH                            GG          .8khhhhhkfHKKJLLL",
"LLLJKKH                           G             .8kjghka;HKKJLLL",
"LLLJKKHH                         G               .7jjks=HHKKJLLL",
"LLLJKKKHH                                         Xqkf:HHKKKJLLL",
"LLLJKKKKHHHHHHHHHHHHHHHHHHHHHHHHHHHHHHHHHHHHHHHHHHHHHHHHKKKKJLLL",
"LLLJJKKKKKKKKKKKKKKKKKKKKKKKKKKKKKKKKKKKKKKKKKKKKKKKKKKKKKKJJLLL",
"LLLKJJKKKKKKKKKKKKKKKKKKKKKKKKKKKKKKKKKKKKKKKKKKKKKKKKKKKKJJKLLL",
"LLLKKJJJJJJJJJJJJJJJJJJJJJJJJJJJJJJJJJJJJJJJJJJJJJJJJJJJJJJKKLLL",
"LLLLLLLLLLLLLLLLLLLLLLLLLLLLLLLLLLLLLLLLLLLLLLLLLLLLLLLLLLLLLLLL",
"LLLLLLLLLLLLLLLLLLLLLLLLLLLLLLLLLLLLLLLLLLLLLLLLLLLLLLLLLLLLLLLL",
"LLLLLLLLLLLLLLLLLLLLLLLLLLLLLLLLLLLLLLLLLLLLLLLLLLLLLLLLLLLLLLLL"
};
