/* XPM */
static char *xpm_horiz_zoom_in__[] = {
/* columns rows colors chars-per-pixel */
"32 32 223 2",
"   c black",
".  c #004000810101",
"X  c #0081012C01ED",
"o  c #030303430343",
"O  c #0101022D03AF",
"+  c #0182030304C5",
"@  c #01C2038405A6",
"#  c #060606870687",
"$  c #028305050848",
"%  c #02C3058608C9",
"&  c #034307070B4B",
"*  c #03C407C80CAD",
"=  c #0485098A0F0F",
"-  c #0C0C0D0D0D0D",
";  c #04C509CA0F90",
":  c #05C60BCC12D3",
">  c #06060C4C1394",
",  c #06060C8D13D4",
"<  c #06C70E0E1656",
"1  c #07470F0F17D8",
"2  c #07470FD018D9",
"3  c #0A4A15D622E3",
"4  c #0B4B17572525",
"5  c #0BCC18992767",
"6  c #0CCD1A1A29EA",
"7  c #0FD020E13434",
"8  c #1010216134B5",
"9  c #115123E439BA",
"0  c #119224643A3A",
"q  c #125226263C7C",
"w  c #13533EFF3C7C",
"e  c #276727672767",
"r  c #15152B6B4505",
"t  c #17D831314E0E",
"y  c #185832725090",
"u  c #1A5A36365656",
"i  c #1A9B37775818",
"p  c #1C1C3A3A5C9C",
"a  c #1C1C42824787",
"s  c #21A245056D6D",
"d  c #25654D8D7B7B",
"f  c #26264ECF7D3D",
"g  c #26A77DFE78F9",
"h  c #4ECF4ECF4ECF",
"j  c #4F4F4FD05050",
"k  c #4F8F509051D2",
"l  c #571760606A6A",
"z  c #5A9A67277575",
"x  c #5C5C6AEB7B7B",
"c  c #5D9D6D6D7F7F",
"v  c #763676367636",
"b  c #2CAD82C27FBF",
"n  c #28A954148585",
"m  c #292954D58707",
"M  c #29AA56568949",
"N  c #2B2B59998E8E",
"B  c #2BAC5A1A8ECE",
"V  c #2DEE5E9E9656",
"C  c #2E2E5F5F97D7",
"Z  c #2C2C6D6D8383",
"A  c #2BEC6F6F8303",
"S  c #2C6C6AAA8484",
"D  c #2CAD6AAA8484",
"F  c #2C6C6B6B8444",
"G  c #2CAD6AEB8484",
"H  c #2CAD6DAD8404",
"J  c #2CAD6FF08383",
"K  c #2C6C74B48282",
"L  c #2CAD73F48282",
"P  c #2C6C74F58242",
"I  c #2CAD75758242",
"U  c #2CAD75F68242",
"Y  c #2C6C787881C1",
"T  c #2CAD79648181",
"R  c #2C2C7A3A8141",
"E  c #2C6C7BBB8141",
"W  c #2C6C77F88202",
"Q  c #2CAD7DFE8080",
"!  c #2F6F61A19ADA",
"~  c #2F2F61A19B5B",
"^  c #301063239D7D",
"/  c #32326767A424",
"(  c #337369EAA7E7",
")  c #34B56CACACAC",
"_  c #36366F6FB0B0",
"`  c #36F77171B474",
"'  c #377772B2B636",
"]  c #38B974B4B9B9",
"[  c #38F97595BA7A",
"{  c #39BA76B6BC7C",
"}  c #3BBC7ABAC2C2",
"|  c #3BBC7AFBC302",
" . c #3CBD7CBCC646",
".. c #3D3D7E3EC848",
"X. c #3DBE7F1FC9A9",
"o. c #3DFE7FBFCACA",
"O. c #2C6C80408000",
"+. c #3BFCA2E2BBFB",
"@. c #39FABCFCB575",
"#. c #7C3C82C28A0A",
"$. c #7C7C83438B0B",
"%. c #6C2C8B0BAEAE",
"&. c #6EEF90D0B7B7",
"*. c #3DFE8000CACA",
"=. c #3E7E8080CBCB",
"-. c #3EBF8101CD0C",
";. c #3EFF8181CD8D",
":. c #42228808D7F7",
">. c #42428888D8D8",
",. c #42828949D9D9",
"<. c #44448C0CDE1D",
"1. c #72F39939C4C4",
"2. c #73139999C585",
"3. c #44848D4DE060",
"4. c #473292BDE8FD",
"5. c #47C893D3EAAA",
"6. c #47C89414EAEA",
"7. c #48339494EBC0",
"8. c #4873956AED17",
"9. c #48C99595ED2C",
"0. c #488895D5EDED",
"q. c #48DE9616EE18",
"w. c #48F99676EEE6",
"e. c #492996D6EF8F",
"r. c #49749742EFEF",
"t. c #49499E1EEFAF",
"y. c #49CA97D7F0D0",
"u. c #49CA98B8F110",
"i. c #4A1A9848F1A1",
"p. c #49099C9CF0B0",
"a. c #49CA9E5EF0F0",
"s. c #4A0A9E5EF231",
"d. c #4A4A9E1EF272",
"f. c #49CAA3E3F02F",
"g. c #4989A323F130",
"h. c #4A4AA141F292",
"j. c #4A0AA9A9F130",
"k. c #4A0AA929F3F3",
"l. c #4A8AAD2DF130",
"z. c #4A4AAD2DF1B1",
"x. c #4B0BACACF5B5",
"c. c #4B4BADADF635",
"v. c #4B0BAF6FF676",
"b. c #4A8AB131F171",
"n. c #4A0AB272F0F0",
"m. c #4A8AB1B1F2B2",
"M. c #4B0BB272F6B6",
"N. c #4B4BB5B5F676",
"B. c #4B8BB636F7B7",
"V. c #4ACBB9F9F1B1",
"C. c #4B4BBC3CF3F3",
"Z. c #4B4BB9F9F474",
"A. c #4BCCB9F9F837",
"S. c #4B8BBCBCF676",
"D. c #4A0AC1C1EFAF",
"F. c #4A0AC706EE6E",
"G. c #4ACBC807F0B0",
"H. c #4B8BC605F4F4",
"J. c #4ACBC8C8F0B0",
"K. c #4B8BCCCCF231",
"L. c #4BCCCFCFF3B3",
"P. c #4C0CC585F878",
"I. c #4C8CC484FADA",
"U. c #4C8CC585FA7A",
"Y. c #4CCDC7C7FBBB",
"T. c #4C8CC8C8FBFB",
"R. c #4D10C899FBFB",
"E. c #4D0DC9C9FBDB",
"W. c #4CF8CB8BFB3A",
"Q. c #4D0DCA8AFBBB",
"!. c #4D0DCCECFB1A",
"~. c #4D2DCDADFADA",
"^. c #4D0DCECEFAFA",
"/. c #4D0DCFCFFABA",
"(. c #4C0CD959F373",
"). c #4C0CDADAF2B2",
"_. c #4C8CE01FF736",
"`. c #4D4DDE9EF777",
"'. c #4D0DDF5FF7B7",
"]. c #4D2DD1D1FA39",
"[. c #4D0DD2D2F979",
"{. c #4D0DD3D3F9B9",
"}. c #4C8CD0D0FA7A",
"|. c #4CCDD4D4F9B9",
" X c #4D0DD615F979",
".X c #4CCDD716F8F8",
"XX c #4D0DD817F8B8",
"oX c #4C8CE0E0F6F6",
"OX c #4D4DE1E1F6F6",
"+X c #4D0DE2A2F676",
"@X c #4CCDE423F676",
"#X c #4CF8E6A6F5F5",
"$X c #4D0DE767F5F5",
"%X c #4CCDE524F6B6",
"&X c #4BCCEAAAF1B1",
"*X c #4D4DEEAEF433",
"=X c #4D2DEFEFF3F3",
"-X c #4CCDE969F4F4",
";X c #4D4DE8A8F5B5",
":X c #4D4DE9A9F5B5",
">X c #4D22EAFFF4F4",
",X c #4D0DEBEBF4F4",
"<X c #4D0DEAAAF575",
"1X c #4D4DED2CF474",
"2X c #4D0DEE0DF474",
"3X c #4CCDF1B1F332",
"4X c #4CCDF0B0F3B3",
"5X c #4D4DF171F3F3",
"6X c #4D0DF2F2F332",
"7X c #4D4DF433F2F2",
"8X c #4D0DF534F231",
"9X c #4CCDF4F4F2F2",
"0X c #4D0DF575F373",
"qX c #4D4DF938F1F1",
"wX c #4D4DFBFBF1F1",
"eX c #B636B636B636",
"rX c #CECECECECECE",
"tX c #D5D5D5D5D5D5",
"yX c gray89",
"uX c #E767E767E767",
"iX c #F1F1F1F1F1F1",
"pX c gray100",
"aX c None",
/* pixels */
"aXaXaXaXaXaXaXaXaXaXaXaXaXaXaXaXaXaXaXaXaXaXaXaXaXaXaXaXaXaXaXaX",
"aXaXtXyXyXyXyXyXyXyXyXyXyXyXyXyXyXyXyXyXyXyXyXyXyXyXyXyXyXtXaXaX",
"aXaXiXpXrXrXrXrXrXrXrXrXrXrXrXrXrXrXrXrXrXrXrXrXrXrXrXrXpXiXaXaX",
"aXaXpXeXe       3 m -.4.8.3.' i @                     e eXpXaXaX",
"aXaXpXh     $ n 9.u.g.c.v.k.p.i...0                     h pXaXaX",
"aXaXpXh   & ` y.x.I.R.- - G R.A.d.6.t                   h pXaXaX",
"aXaXpXh X / e.B.R.R.R.- - S T.R.I.h.5.9                 h pXaXaX",
"aXaXpXh u i.M.R.R.R.R.- - D R.R.T.U.s.X.%               h pXaXaX",
"aXaXpXk | h.Y.R.R.R.R.- - F Q.W.!.~.S.y.y               h pXaXaX",
"aXaXpXc 4.N.R.R.E.E.W.- - H /.}.].].[.t.^               h pXaXaX",
"aXaXpX&.7.P.W.!.~.^./.- - J {.|. X.XXXm.*.@             h pXaXaX",
"aXaXpX2.9.Z - - - - - - - - - - - - - Z.:.=             h pXaXaX",
"aXaXpX2.9.A - - - - - - - - - - - - - C.:.*             h pXaXaX",
"aXaXpX%.6.+.L K P I U - - a W Y T T R V.{ .             h pXaXaX",
"aXaXpXz 4.H.`.'._.oXOX- - T #X$X;X:X>Xf.N               h pXaXaX",
"aXaXpXj _ z.+X@X%X#X#X- - E >X,X1X2X).y.q               h pXaXaX",
"aXaXpXh 7 7.L.;X-X<X>X- - Q =X4X5X3Xj.( X               h pXaXaX",
"aXaXpXh   s u.(.2X*X=X- - O.7X0X8Xb.q.4                 h pXaXaX",
"aXaXpXh   X f r.K.6X9X- - b qX&Xl.<.i.} ;               h pXaXaX",
"aXaXpXh       r  .a.D.G.J.F.n.7.M * ^ r.) + .           h pXaXaX",
"aXaXpXh         O 8 d V ~ B p 1     O C i.=.[ 2         h pXaXaX",
"aXaXpXh                               O [ y.w.;.1       h pXaXaX",
"aXaXpXh                         w       ! w.w.q.=.<     h pXaXaX",
"aXaXpXh                           g w   , X.w.e.8.=.<   h pXaXaX",
"aXaXpXh g g g g g g g g g g g g g g @.g w : X.8.q.0.;.1 h pXaXaX",
"aXaXpXh wXwXwXwXwXwXwXwXwXwXwXwXwXwXwXwXg   > X.q.w.w.o.l pXaXaX",
"aXaXpXh                           w g # o     5 ,.0.0.e.1.pXaXaX",
"aXaXpXv                         w w             6 >.w.] #.pXaXaX",
"aXaXpXuXv h h h h h h h h h h h h h h h h h h h h x 1.$.uXpXaXaX",
"aXaXtXpXpXpXpXpXpXpXpXpXpXpXpXpXpXpXpXpXpXpXpXpXpXpXpXpXpXtXaXaX",
"aXaXaXaXaXaXaXaXaXaXaXaXaXaXaXaXaXaXaXaXaXaXaXaXaXaXaXaXaXaXaXaX",
"aXaXaXaXaXaXaXaXaXaXaXaXaXaXaXaXaXaXaXaXaXaXaXaXaXaXaXaXaXaXaXaX"
};
