/* XPM */
static char *xpm_zoom_auto[] = {
/* columns rows colors chars-per-pixel */
"64 64 141 2",
"   c #000000",
".  c #03060A",
"X  c #04080E",
"o  c #0B0B0B",
"O  c #060C13",
"+  c #09121D",
"@  c #101010",
"#  c #0A1522",
"$  c #0B1826",
"%  c #0D1B2C",
"&  c #0F2033",
"*  c #102337",
"=  c #13273E",
"-  c #222426",
";  c #2A2A2A",
":  c #333333",
">  c #152B44",
",  c #162E49",
"<  c #18324F",
"1  c #193453",
"2  c #1C395B",
"3  c #1E3D62",
"4  c #1F4167",
"5  c #21446C",
"6  c #224771",
"7  c #244974",
"8  c #264F7D",
"9  c #484848",
"0  c gray36",
"q  c #5F6468",
"w  c #636363",
"e  c #6C6C6C",
"r  c gray44",
"t  c #7F7F7F",
"y  c #295587",
"u  c #2A5689",
"i  c #2C5A8E",
"p  c #2D5D94",
"a  c #30629C",
"s  c #3266A2",
"d  c #3268A5",
"f  c #356DAD",
"g  c #3771B3",
"h  c #3873B7",
"j  c #3975BB",
"k  c #3C7BC3",
"l  c #3E7FC9",
"z  c #3F81CE",
"x  c #4185D3",
"c  c #438ADB",
"v  c #458EE1",
"b  c #4691E6",
"n  c #4793E9",
"m  c #4895ED",
"M  c #4997F0",
"N  c #4A98F1",
"B  c #48AFED",
"V  c #48B1ED",
"C  c #4AA0F2",
"Z  c #4AACF2",
"A  c #4AB4F5",
"S  c #4BB9F5",
"D  c #4CBDF8",
"F  c #64B8F3",
"G  c #4AC3F2",
"H  c #4DC7FB",
"J  c #4DCAFB",
"K  c #4CD2F5",
"L  c #4DDCF7",
"P  c #4DD3F9",
"I  c #4DD9F8",
"U  c #5ADEF6",
"Y  c #58D5F9",
"T  c #6DD9F5",
"R  c #64DEF8",
"E  c #4DE4F5",
"W  c #4DEBF4",
"Q  c #52E2F6",
"!  c #59E7F5",
"~  c #4DF3F2",
"^  c #4CF9F1",
"/  c #56F4F2",
"(  c #66E6F6",
")  c #7DE3F6",
"_  c #71EFF5",
"`  c #7DE8F8",
"'  c #6BF0F5",
"]  c #818181",
"[  c #9D9D9D",
"{  c #A1A1A1",
"}  c gray67",
"|  c gray71",
" . c #B7BBBF",
".. c gray72",
"X. c #81A8D4",
"o. c #8CB8EA",
"O. c #85B9F5",
"+. c #8ABDF6",
"@. c #BBC3CC",
"#. c #86EEF6",
"$. c #8BE3FB",
"%. c #87EFF8",
"&. c #8DEBF9",
"*. c #98E6FA",
"=. c #9BEAFA",
"-. c #87F0F7",
";. c #8CF6F7",
":. c #93F7F7",
">. c #93F8F7",
",. c #9AF2F8",
"<. c #A6EDFB",
"1. c #A9ECFB",
"2. c #B3E6FA",
"3. c #A5F5F9",
"4. c #AAF6F9",
"5. c #AAFAF9",
"6. c #B6F8FA",
"7. c #BBFAFA",
"8. c #C7C7C7",
"9. c #D2D2D2",
"0. c #DBDBDB",
"q. c #C3D4E7",
"w. c #C9DFF9",
"e. c #CAE1FA",
"r. c #DCEBFC",
"t. c #C2F5FB",
"y. c #CAF5FC",
"u. c #CAF8FB",
"i. c #D1F6FC",
"p. c #DDF7FD",
"a. c #D2FAFC",
"s. c #DEFBFD",
"d. c #E2E2E2",
"f. c #EDEDED",
"g. c #E2FCFD",
"h. c #EDFCFD",
"j. c #F4F4F4",
"k. c #F0F6FD",
"l. c #F4FCFE",
"z. c #FFFFFF",
"x. c None",
/* pixels */
"x.x.x.x.x.x.x.x.x.x.x.x.x.x.x.x.x.x.x.x.x.x.x.x.x.x.x.x.x.x.x.x.x.x.x.x.x.x.x.x.x.x.x.x.x.x.x.x.x.x.x.x.x.x.x.x.x.x.x.x.x.x.x.x.",
"x.x.x.x.x.x.x.x.x.x.x.x.x.x.x.x.x.x.x.x.x.x.x.x.x.x.x.x.x.x.x.x.x.x.x.x.x.x.x.x.x.x.x.x.x.x.x.x.x.x.x.x.x.x.x.x.x.x.x.x.x.x.x.x.",
"x.x.x.z.z.8.8.8.8.8.8.8.8.8.8.8.8.8.8.8.8.8.8.8.8.8.8.8.8.8.8.8.8.8.8.8.8.8.8.8.8.8.8.8.8.8.8.8.8.8.8.8.8.8.8.8.8.8.8.z.z.x.x.x.",
"x.x.x.z.8.8.z.z.z.z.z.z.z.z.z.z.z.z.z.z.z.z.z.z.z.z.z.z.z.z.z.z.z.z.z.z.z.z.z.z.z.z.z.z.z.z.z.z.z.z.z.z.z.z.z.z.z.z.8.8.z.x.x.x.",
"x.x.x.8.8.z.z.z.z.z.z.z.z.z.z.z.z.z.z.z.z.z.z.z.z.z.z.z.z.z.z.z.z.z.z.z.z.z.z.z.z.z.z.z.z.z.z.z.z.z.z.z.z.z.z.z.z.z.z.8.8.x.x.x.",
"x.x.x.8.z.z.z.z.[ [ [ [ [ [ [ [ [ [ [ [ [ [ [ [ [ [ [ [ [ [ [ [ [ [ [ [ [ [ [ [ [ [ [ [ [ [ [ [ [ [ [ [ [ [ [ [ z.z.z.z.8.x.x.x.",
"x.x.x.8.z.z.z.[ [                   O 2 a l v m m m b l s 4 +                                                 [ [ z.z.z.8.x.x.x.",
"x.x.x.8.z.z.[ [                 + 5 k v b n n n n n n b b n x 6 O                                               [ [ z.z.8.x.x.x.",
"x.x.x.8.z.z.[               . 4 c N N M m m N N N N M m m M N N c 3 X                                             [ z.z.8.x.x.x.",
"x.x.x.8.z.z.[             # g N N N m N Z A H H H H D S Z N m N N N j #                                           [ z.z.8.x.x.x.",
"x.x.x.8.z.z.[           % x N N N C A H H H H H H H H H H H A C N m N c %                                         [ z.z.8.x.x.x.",
"x.x.x.8.z.z.[         % c N m N A H H H H H H H H H H H H H H H A N m N v %                                       [ z.z.8.x.x.x.",
"x.x.x.8.z.z.[       + x N m N S H H H H H H H H H H H H H H H H H S N m N c #                                     [ z.z.8.x.x.x.",
"x.x.x.8.z.z.[     . f N m N D H H H H H H H H H H H H H H H H H H H D N m N j .                                   [ z.z.8.x.x.x.",
"x.x.x.8.z.z.[     3 N N N S H H H H H H H H H H H H H H H H H H H H H S N N N 3                                   [ z.z.8.x.x.x.",
"x.x.x.8.z.z.[   + c N N Z H H H H H H H H H H H H H H H H H H H H J J J A M N c #                                 [ z.z.8.x.x.x.",
"x.x.x.8.z.z.[   5 N N N H H H H H H H H H H H H H H H H J J J J J J J J J N m N 8                                 [ z.z.8.x.x.x.",
"x.x.x.8.z.z.[ . j N N A H H H H H H H H H H H H J J J J J J J J J J J J J S N N h .                               [ z.z.8.x.x.x.",
"x.x.x.8.z.z.[ & c N N H H H H H H H H H J J J J J J J J J J J J J P P P P J N N b *                               [ z.z.8.x.x.x.",
"x.x.x.8.z.z.[ i b m Z H H H H J J J J J J J J J J J J J P P P P P P P P P P V m M 5                               [ z.z.8.x.x.x.",
"x.x.x.8.z.z.[ k b N S J J J J J J J J J J J J J J P P P P P P P P P P P P P G M N u                               [ z.z.8.x.x.x.",
"x.x.x.8.z.z.[ c b N H J J J J J J J J P P P P P P P P P P P P P P P I I I I K N N j O                             [ z.z.8.x.x.x.",
"x.x.x.8.z.z.[ m b N J J J J J J P P P P P P P P P P P P P I I I I I I I I L I N n k +                             [ z.z.8.x.x.x.",
"x.x.x.8.z.z.[ m n N J P P P P P P P P P P P P P P I I I I I I L I L L L L L L N m k +                             [ z.z.8.x.x.x.",
"x.x.x.8.z.z.[ m n N P Y l.z.$.P P P P P I z.y.I I I I L I y.z.L L z.z.z.z.z.z.z.z.z.z.z.      o ] 9.j.j.9.] @     [ z.z.8.x.x.x.",
"x.x.x.8.z.z.[ n b N P *.z.l.y.I I I I I I z.y.L L L L L L y.z.L L &.&.&.&.&.z.r.+.X.q 0     ; d.l.{ e w { l.d.;   [ z.z.8.x.x.x.",
"x.x.x.8.z.z.[ x b N K p.g.1.z.R I I I I L z.y.L L L L L E y.z.E E E E E E E z.e.N p       o 0.f.:         : f.0.o [ z.z.8.x.x.x.",
"x.x.x.8.z.z.[ f b m T z.=.R z.<.L L L L L z.y.L E E E E E y.z.E E E E E E E z.e.N 7       e z.w             w z.e [ z.z.8.x.x.x.",
"x.x.x.8.z.z.[ 6 b m 2.z.U L i.h.L L L L E z.y.E E E E E E u.z.E E E E W W W z.w.n 1       8.j..             . j.8.[ z.z.8.x.x.x.",
"x.x.x.8.z.z.[ $ c N k.t.L L &.z.` E E E E z.y.E E E E E E u.z.W W W W W W W z.e.x $       f.8.                8.f.[ z.z.8.x.x.x.",
"x.x.x.8.z.z.[ . s +.z.) E E Q l.t.E E E E z.u.E E E E W W u.z.W W W W W W E z.e.d .       z...                ..z.[ z.z.8.x.x.x.",
"x.x.x.8.z.z.[   > e.k.F ( ( ( t.z.! E E E z.u.W W W W W W u.z.W W W W W W Z z.e.>         f.8.                8.f.[ z.z.8.x.x.x.",
"x.x.x.8.z.z.[   - z.z.z.z.z.z.z.z.,.W W W l.a.W W W W W W a.l.W W ~ ~ ~ L m z.q..         8.j..             . j.8.[ z.z.8.x.x.x.",
"x.x.x.8.z.z.[   ] z.o.O.O.#.%.-.g.s.W W W g.h.W W W W W ~ h.g.~ ~ ~ ~ W N N z. .          r z.w             w z.e [ z.z.8.x.x.x.",
"x.x.x.8.z.z.[   d.9., N N N W W 3.z._ W W 4.z.;.~ ~ ~ ~ ;.z.5.~ ~ ~ ~ N N n z.|           o 0.f.:         : f.0.o [ z.z.8.x.x.x.",
"x.x.x.8.z.z.[ 9 z.t   8 N m N W ' z.6.W ~ / g.z.7.:.>.7.z.g./ ^ ^ ~ N M N n z.|             ; d.l.{ e w [ l.d.;   [ z.z.8.x.x.x.",
"x.x.x.8.z.z.[ } z.;   . p N N m W g.l./ ~ ~ / 5.g.l.l.g.5./ ^ ^ W m N N N M z.@.              @ ] 9.j.j.9.] @     [ z.z.8.x.x.x.",
"x.x.x.8.z.z.[             5 m N N G ~ ~ ~ ^ ~ ^ ^ ^ ^ ^ ^ ^ ~ G N N x k N N N b =                                 [ z.z.8.x.x.x.",
"x.x.x.8.z.z.[               * l N N N B E ~ ^ ^ ^ ^ ^ ^ W V N N N k # O f N m N c #                               [ z.z.8.x.x.x.",
"x.x.x.8.z.z.[                 O 4 z N N M n m M m M m n N N N x 3 O     O k N m N k O                             [ z.z.8.x.x.x.",
"x.x.x.8.z.z.[                     X > u h x v n n n v x g p < O           X f N m N k y f 2                       [ z.z.8.x.x.x.",
"x.x.x.8.z.z.[                           $ = > , < , , = $                   X f N N N N N N 3                     [ z.z.8.x.x.x.",
"x.x.x.8.z.z.[                                                                 X f N N N m N N 3                   [ z.z.8.x.x.x.",
"x.x.x.8.z.z.[                                                                   1 N N m m m N N 2                 [ z.z.8.x.x.x.",
"x.x.x.8.z.z.[                                                                   y N N n M m m N N 2               [ z.z.8.x.x.x.",
"x.x.x.8.z.z.[                                                                   , N N m m m m n N N 2             [ z.z.8.x.x.x.",
"x.x.x.8.z.z.[                                                                     < N N m m M m n N N 2           [ z.z.8.x.x.x.",
"x.x.x.8.z.z.[                                                                       1 N N m m M m n N N 2         [ z.z.8.x.x.x.",
"x.x.x.8.z.z.[                                                                         , N N n m m m n N N 3       [ z.z.8.x.x.x.",
"x.x.x.8.z.z.[                                                                           < N N n m m m m N N 2     [ z.z.8.x.x.x.",
"x.x.x.8.z.z.[                                                                             < b N n m m m m N N 2   [ z.z.8.x.x.x.",
"x.x.x.8.z.z.[                                                                               2 N M m m m m m N m 5 [ z.z.8.x.x.x.",
"x.x.x.8.z.z.[                                                                                 i N M m m m m n N N [ z.z.8.x.x.x.",
"x.x.x.8.z.z.[                                                                                 . p N m m m m m N b [ z.z.8.x.x.x.",
"x.x.x.8.z.z.[                                                                                   . p N M n m N x < [ z.z.8.x.x.x.",
"x.x.x.8.z.z.[ [                                                                                   . i M M N c > [ [ z.z.8.x.x.x.",
"x.x.x.8.z.z.z.[ [                                                                                   X d N b 1 [ [ z.z.z.8.x.x.x.",
"x.x.x.8.z.z.z.z.[ [ [ [ [ [ [ [ [ [ [ [ [ [ [ [ [ [ [ [ [ [ [ [ [ [ [ [ [ [ [ [ [ [ [ [ [ [ [ [ [ [ [ [ [ [ [ [ z.z.z.z.8.x.x.x.",
"x.x.x.8.8.z.z.z.z.z.z.z.z.z.z.z.z.z.z.z.z.z.z.z.z.z.z.z.z.z.z.z.z.z.z.z.z.z.z.z.z.z.z.z.z.z.z.z.z.z.z.z.z.z.z.z.z.z.z.8.8.x.x.x.",
"x.x.x.z.8.8.z.z.z.z.z.z.z.z.z.z.z.z.z.z.z.z.z.z.z.z.z.z.z.z.z.z.z.z.z.z.z.z.z.z.z.z.z.z.z.z.z.z.z.z.z.z.z.z.z.z.z.z.8.8.z.x.x.x.",
"x.x.x.z.z.8.8.8.8.8.8.8.8.8.8.8.8.8.8.8.8.8.8.8.8.8.8.8.8.8.8.8.8.8.8.8.8.8.8.8.8.8.8.8.8.8.8.8.8.8.8.8.8.8.8.8.8.8.8.z.z.x.x.x.",
"x.x.x.x.x.x.x.x.x.x.x.x.x.x.x.x.x.x.x.x.x.x.x.x.x.x.x.x.x.x.x.x.x.x.x.x.x.x.x.x.x.x.x.x.x.x.x.x.x.x.x.x.x.x.x.x.x.x.x.x.x.x.x.x.",
"x.x.x.x.x.x.x.x.x.x.x.x.x.x.x.x.x.x.x.x.x.x.x.x.x.x.x.x.x.x.x.x.x.x.x.x.x.x.x.x.x.x.x.x.x.x.x.x.x.x.x.x.x.x.x.x.x.x.x.x.x.x.x.x.",
"x.x.x.x.x.x.x.x.x.x.x.x.x.x.x.x.x.x.x.x.x.x.x.x.x.x.x.x.x.x.x.x.x.x.x.x.x.x.x.x.x.x.x.x.x.x.x.x.x.x.x.x.x.x.x.x.x.x.x.x.x.x.x.x."
};
