/* XPM */
static char *xpm_icon_earth[] = {
/* columns rows colors chars-per-pixel */
"64 64 256 2",
"   c #000000",
".  c #0C0C0C",
"X  c #080707",
"o  c #131414",
"O  c #1B1A1A",
"+  c #100F0F",
"@  c #252525",
"#  c #353535",
"$  c #30302F",
"%  c #017502",
"&  c #027A02",
"*  c #027C0C",
"=  c #087708",
"-  c #097A18",
";  c #137B17",
":  c #1B7833",
">  c #277638",
",  c #2A6E70",
"<  c #2F7C53",
"1  c #515151",
"2  c #696969",
"3  c #767677",
"4  c #807F7D",
"5  c #098406",
"6  c #14840A",
"7  c #088515",
"8  c #168619",
"9  c #109119",
"0  c #268E17",
"q  c #1A8A26",
"w  c #1B873B",
"e  c #278828",
"r  c #38972B",
"t  c #278A36",
"y  c #2A9336",
"u  c #379936",
"i  c #308D30",
"p  c #3AA43C",
"a  c #479A3B",
"s  c #46A43B",
"d  c #288E48",
"f  c #39964B",
"g  c #3A9856",
"h  c #368B4F",
"j  c #3BA549",
"k  c #35916E",
"l  c #36A369",
"z  c #469B55",
"x  c #439354",
"c  c #47A648",
"v  c #49A557",
"b  c #55A95A",
"n  c #53A844",
"m  c #4A9868",
"M  c #479779",
"N  c #509674",
"B  c #54A866",
"V  c #5BA878",
"C  c #51AB67",
"Z  c #69B46A",
"A  c #68B474",
"S  c #76B979",
"D  c #6BAF6D",
"F  c #66AC5D",
"G  c #83C07E",
"H  c #172FB7",
"J  c #2433B6",
"K  c #2A6D86",
"L  c #344BB7",
"P  c #4E7599",
"I  c #465CB7",
"U  c #566BB8",
"Y  c #5977B6",
"T  c #4C71B0",
"R  c #657AB8",
"E  c #6576AD",
"W  c #777D9F",
"Q  c #1E34C4",
"!  c #1F29C0",
"~  c #233DC8",
"^  c #2443C8",
"/  c #364DDA",
"(  c #3350D3",
")  c #3975DE",
"_  c #344EE7",
"`  c #2C56E6",
"'  c #344EF3",
"]  c #2D5AF6",
"[  c #3756F7",
"{  c #3550E4",
"}  c #2B68E9",
"|  c #3769E7",
" . c #2978E9",
".. c #386AF9",
"X. c #2B79F6",
"o. c #3776FC",
"O. c #3475EF",
"+. c #4B5BC6",
"@. c #424AD6",
"#. c #5666CA",
"$. c #4974C8",
"%. c #567AC6",
"&. c #4676D5",
"*. c #4D6FD1",
"=. c #6779C9",
"-. c #777AC9",
";. c #6979D8",
":. c #4258EE",
">. c #486BFC",
",. c #4876FD",
"<. c #5879FC",
"1. c #4C6FEC",
"2. c #687CFD",
"3. c #6A78E7",
"4. c #379C92",
"5. c #359FA3",
"6. c #56978A",
"7. c #58989A",
"8. c #4C928E",
"9. c #659991",
"0. c #56A792",
"q. c #65A689",
"w. c #72B090",
"e. c #518EB0",
"r. c #6A83AA",
"t. c #708CB3",
"y. c #4DAAAC",
"u. c #74A7B1",
"i. c #7FC292",
"p. c #1E89F7",
"a. c #1C99F1",
"s. c #2784FA",
"d. c #3687F6",
"f. c #2599F6",
"g. c #3697FC",
"h. c #3187E8",
"j. c #36A4FD",
"k. c #36A5F3",
"l. c #3598D8",
"z. c #4F93CF",
"x. c #7786C5",
"c. c #6798C6",
"v. c #6888DB",
"b. c #7886D4",
"n. c #6E91D1",
"m. c #52ADD3",
"M. c #65A4C6",
"N. c #79A4C9",
"B. c #70A6D3",
"V. c #4985E9",
"C. c #4689FC",
"Z. c #4996FA",
"A. c #5590F0",
"S. c #6787FB",
"D. c #7486FD",
"F. c #7A8CFD",
"G. c #788AFB",
"H. c #7B96FB",
"J. c #6F93EA",
"K. c #47A4FA",
"L. c #51ADF4",
"P. c #72A4EF",
"I. c #848585",
"U. c #9D9D9D",
"Y. c #939393",
"T. c #84BD8C",
"R. c #8ABA95",
"E. c #91B897",
"W. c #8C9AB2",
"Q. c #90B5B0",
"!. c #AAAAAA",
"~. c #B6B6B7",
"^. c #A3BDB9",
"/. c #A0A09F",
"(. c #98C897",
"). c #8FC78F",
"_. c #A4D193",
"`. c #99C4A5",
"'. c #9AC3B9",
"]. c #99CEAB",
"[. c #A9CFAB",
"{. c #A6C8B8",
"}. c #AAD3B6",
"|. c #B7D8B9",
" X c #AED6AA",
".X c #C2E2B9",
"XX c #8185CB",
"oX c #8999C7",
"OX c #878ED6",
"+X c #8B96D6",
"@X c #969BD5",
"#X c #9199C9",
"$X c #88A8DC",
"%X c #98A3D8",
"&X c #98B6D8",
"*X c #90AFC8",
"=X c #A4ABD7",
"-X c #A6B9D9",
";X c #B1B8CF",
":X c #849BED",
">X c #8799F9",
",X c #8C94F3",
"<X c #88A4E7",
"1X c #99A9E6",
"2X c #9BB6EB",
"3X c #8CA3F7",
"4X c #96A8F9",
"5X c #9AB4F6",
"6X c #A9B8E9",
"7X c #B6BDE9",
"8X c #A5B7F7",
"9X c #B3BAF6",
"0X c #A8AAEE",
"qX c #C3B5EF",
"wX c #9DC4CD",
"eX c #A7C7C6",
"rX c #B2CBCD",
"tX c #B8D5C8",
"yX c #ABC6D9",
"uX c #B4CBDB",
"iX c #B9D4D8",
"pX c #ACC6E7",
"aX c #B5C4E9",
"sX c #BAC7F5",
"dX c #B6D0F1",
"fX c #C7C7C7",
"gX c #CAC9C9",
"hX c #C2DCCA",
"jX c #C8CCD7",
"kX c #C4DBD7",
"lX c #D8D7D7",
"zX c #D0D0CF",
"xX c #C8E6CA",
"cX c #CAE7D6",
"vX c #D1EED7",
"bX c #D1F0D2",
"nX c #C6C5EC",
"mX c #CBD8E7",
"MX c #D5D9E9",
"NX c #C4C9F7",
"BX c #CAD5F8",
"VX c #D9DBF4",
"CX c #D7CDF1",
"ZX c #DCE2F5",
"AX c #D1E6E5",
"SX c #E4E4E4",
"DX c #EBEAEB",
"FX c #E7EBF8",
"GX c #EEF1FB",
"HX c #F4F4F4",
"JX c #F4F5FC",
"KX c #FFFFFF",
"LX c #F7F9FB",
"PX c #F0EFEE",
"IX c #E0DFDF",
"UX c None",
/* pixels */
"UXUXUXUXUXUXUXUXUXUXUXUXUXUXUXUXUXUXUXUXUXUXUXUXUXUXUXUXUXUXUXUXUXUXUXUXUXUXUXUXUXUXUXUXUXUXUXUXUXUXUXUXUXUXUXUXUXUXUXUXUXUXUXUX",
"UXUXUXUXUXUXUXUXUXUXUXUXUXUXUXUXUXUXUXUXUXUXUXUXUXUXUXUXUXUXUXUXUXUXUXUXUXUXUXUXUXUXUXUXUXUXUXUXUXUXUXUXUXUXUXUXUXUXUXUXUXUXUXUX",
"UXUXUXKXKXfXfXfXfXfXfXfXfXfXfXfXfXfXfXfXfXfXfXfXfXfXfXfXfXfXfXfXfXfXfXfXfXfXfXfXfXfXfXfXfXfXfXfXfXfXfXfXfXfXfXfXfXfXfXKXKXUXUXUX",
"UXUXUXKXfXfXKXKXKXKXKXKXKXKXKXKXKXKXKXKXKXKXKXKXKXKXKXKXKXKXKXKXKXKXKXKXKXKXKXKXKXKXKXKXKXKXKXKXKXKXKXKXKXKXKXKXKXKXfXfXKXUXUXUX",
"UXUXUXfXfXKXKXKXKXKXKXKXKXKXKXKXKXKXKXKXKXKXKXKXKXKXKXKXKXKXKXKXKXKXKXKXKXKXKXKXKXKXKXKXKXKXKXKXKXKXKXKXKXKXKXKXKXKXKXfXfXUXUXUX",
"UXUXUXfXKXKXKXKXU.U.U.U.U.U.U.U.U.U.U.U.U.U.U.U.U.U.U.U.U.U.U.U.U.U.U.U.U.U.U.U.U.U.U.U.U.U.U.U.U.U.U.U.U.U.U.U.KXKXKXKXfXUXUXUX",
"UXUXUXfXKXKXSXU.U.                                                                                            U.U.KXKXKXfXUXUXUX",
"UXUXUXfXKXKXU.                                X # 3 ~.lXDXHXKXKXKXKXHXSXlX~.2 $                                 U.U.KXKXfXUXUXUX",
"UXUXUXfXKXKXU.                            @ 3 lXKXKXKXKXKXKXKXKXKXKXKXKXKXKXKXLXPX/.$                             U.KXKXfXUXUXUX",
"UXUXUXfXKXKXU.                        o 2 SXKXKXFXVXZX7X%X+XOXXX-.-.XX@XuXMXLXLXKXKXKX!.@                         U.KXKXfXUXUXUX",
"UXUXUXfXKXKXU.                      2 lXKXLXLXCX1X+X@X+X@X%X=X=X%X#X#X%X=X@X=X;XMXFXKXKXHX3                       U.KXKXfXUXUXUX",
"UXUXUXfXKXKXU.                  . I.SXKXFXMX7X@Xx.x.+X=XyXuXkXkXcXhXtXrX-X%X@X@X#X=XMXGXKXKX~.o                   U.KXKXfXUXUXUX",
"UXUXUXfXKXKXU.                O 3 SXJXVX-X#X-.oX^.tXkXvXvXcXxXxXbXbXbXxXkXAXmX-X-.R @X7XZXJXKXSX@                 U.KXKXfXUXUXUX",
"UXUXUXfXKXKXU.              @ zXKXJXmX%XXXoX%XuXxXbXbXbXbXxXxXhXxXxXxXxXxXxXbXcXyX%Xb.-.@XnXJXKXDX#               U.KXKXfXUXUXUX",
"UXUXUXfXKXKXU.            O lXLXGXnX@XXX#XyXcXvXvXcXhXhXhXcXxXhX|.|.|.|.|. X|.xXAXBX1X-.-.#XnXJXKXDX@             U.KXKXfXUXUXUX",
"UXUXUXfXKXKXU.          o I.LXHXnXOXb.%XuXAXxX.XkXmXmXkXkXcXkXhX|.}.}.}. X X XhXBXBXsX6XXX-.OXBXLXKXlX.           U.KXKXfXUXUXUX",
"UXUXUXfXKXKXU.          I.KXJXmX@Xb.%XiXcXtX|.|.tXkXmXkXkXkXiXiXtX}.}.[._._. XkXBXsXsXsX6XOX=.OXmXKXKX#           U.KXKXfXUXUXUX",
"UXUXUXfXKXKXU.        1 HXKXMX@Xx.#XiXcXtX}.|.}.[.|.tXiXtXtXtXiXtX}.].(.(._.[.iXNXsX7XaXsX6XoXr.#XVXKXDX@         U.KXKXfXUXUXUX",
"UXUXUXfXKXKXU.      O HXKXFX%X=.t.'.}.}.}.[.}.{.(.(.}.tXtX[.[.uXuX}.(.).(.[.|.rXuXaX7X6XsXdXeXW.x.0XGXKXfXo       U.KXKXfXUXUXUX",
"UXUXUXfXKXKXU.      2 KXJXaXx.t.Q.(.).).(.(.`.`.`.`.eXuXrX{.{.pXaX{.).).eXdXuXeX{.yX6X8XpXrX[.Q.x.b.BXKXKX2       U.KXKXfXUXUXUX",
"UXUXUXfXKXKXU.    @ LXKXZX%XR r.T.).G S T.T.T.`.eXyXyXyXuXuXyXaX9XeX(.`.pXsXaXeX{.eX6X8X-X^.(.`.t.;.1XFXKXSXO     U.KXKXfXUXUXUX",
"UXUXUXfXKXKXU.    2 KXLX7X=.Y q.Z S S S S S S R.uXsXpXeX{.eXaXaX9X-X{.wX8X8X8X-X-X-X6X2X*XE.(.].Q.t.x.aXLXKXY.    U.KXKXfXUXUXUX",
"UXUXUXfXKXKXU.  X SXKXFX%XL U u.S Z D S A Z Z S '.dXdXQ.w.R.*X-X6X6X6X2X5X4X4X5X2X2X&XyX'.E.).].).8.T 2XFXKXzXX   U.KXKXfXUXUXUX",
"UXUXUXfXKXKXU.  $ KXKXBX=.J +.$X'.D F Z A A Z Z S '.wXw.F F w.Q.&X8X5X5X5X4X3X4X4X2X*X'.eX`.T.i.Z f P :XBXKXHX$   U.KXKXfXUXUXUX",
"UXUXUXfXKXKXU.  3 KXGX6X( ! @.G.&XS n b V V A B b A w.A b n b w.&X4X4X4X4X3X3X3X4X*XE.R.wXQ.w.Z c i , v.NXKXKXI.  U.KXKXfXUXUXUX",
"UXUXUXfXKXKXU.  !.KXFX+XH Q / 2.<Xw.s c B V C b b b C v c c C *X1X3X3X>X:X>X>X>X4X*XT.D A q.V v p 0 : T 9XFXKXzX  U.KXKXfXUXUXUX",
"UXUXUXfXKXKXU.@ lXKXBX=.H ~ / 1.J.u.c a c v v v B m g j j b u.2X3X>X>X:X:X:X>X>X3X*Xw.b s c v v u 6 ; K 4XCXKXKX  U.KXKXfXUXUXUX",
"UXUXUXfXKXKXU.  DXKXsX#.H ~ / :.3.M.b r u j v z c c f j v w.1X3X>XH.>X:X:X>X>X>X:Xu.V b B V V b i 6 = , :XnXKXKX  U.KXKXfXUXUXUX",
"UXUXUXfXKXKXU.  HXKX6X#.H ~ / :.1.c.B r r u g f u r r c w.1X3XH.H.F.F.F.H.F.F.>X:Xu.V q.N.&XQ.q.x e ; , v.7XKXKX  U.KXKXfXUXUXUX",
"UXUXUXfXKXKXU.  LXKX%X#.Q ~ / @.1.v.7.x r r y g z a a q.<X3XH.F.F.G.G.G.F.D.D.F.<Xu.V w.$X$X*XN.c.8.< , =.6XKXKX  U.KXKXfXUXUXUX",
"UXUXUXfXKXKXU.  KXKX+X+.Q ^ / / :.<.J.6.u 0 0 V oXu.9.N.3XH.D.D.D.G.D.D.D.D.D.J.u.V z m N m V u.<XN.M , Y -XKXKX  U.KXKXfXUXUXUX",
"UXUXUXfXKXKXU.  KXKX+X+.Q ^ / { _ >.S.c.m e 0 V 5X4X$X$XJ.v.S.2.2.S.S.S.2.D.F.B.6.u t t q 8 i h 8.0.g , R 6XKXKX  U.KXKXfXUXUXUX",
"UXUXUXfXKXKXU.  KXKX%X+.Q ^ { _ ' [ >.A.e.m i m w.N.$X<XN.J.G.S.<.<.S.S.2.2.H.N.x 6 8 q 9 6 6 ; - q y , ;.9XKXKX  U.KXKXfXUXUXUX",
"UXUXUXfXKXKXU.  KXKX6X#.H ^ { ' ' [ :.>.A.c.7.m z N u.$XN.B.H.H.S.S.A.<.<.2.H.u.e 5 8 q 9 7 - = % 5 q K 3.9XKXKX  U.KXKXfXUXUXUX",
"UXUXUXfXKXKXU.  HXKX9X#.H ^ { ' ' ' [ :.>.2.v.e.6.6.u.u.6.M 7.B.>XF.S.<.<.2.H.7.7 & 7 7 7 - - - * 5 7 K 3.qXKXKX  U.KXKXfXUXUXUX",
"UXUXUXfXKXKXU.  DXKXNX#.H ~ / _ ' ' [ [ :.>.<.S.S.v.M.0.d 8 q g 7.P.H.S.<.<.H.7.6 & 5 5 * * - - * 5 ; K ,XCXKXDX  U.KXKXfXUXUXUX",
"UXUXUXfXKXKXU.  lXKXZXb.H Q ( ( _ ' [ [ [ ..>.,.<.S.B.8.8 & & 5 q M u.P.S.<.S.c.h 8 e d q * * - * 5 : P 0XFXKXlX  U.KXKXfXUXUXUX",
"UXUXUXfXKXKXU.  !.KXFX%X~ Q ^ ( { ' [ ........>.>.S.c.h & & 5 & & 8 y M z.,.<.J.c.7.e.z.8.t 7 * * & > r.9XGXKX~.@ U.KXKXfXUXUXUX",
"UXUXUXfXKXKXU.  3 KXGXsX#.J ^ / _ ' ] ..........,.S.u.t % % 7 * * % & t e.C.,.<.S.S.<.<.J.7.t & & = < x.NXKXKXI.o U.KXKXfXUXUXUX",
"UXUXUXfXKXKXU.  $ LXKXFX+XL ~ ` ` ] ] } ........o.S.B.k - % * * * % & d z.C.o.....>.[ [ 2.J.h & & : P 1XVXKXKX#   U.KXKXfXUXUXUX",
"UXUXUXfXKXKXU.    zXKXJX-XI ^ ` ` ` ` } } ..o.o.o.C.P.B.M - % & & % 5 k z.C.o.o...] ] ] >.v.h & ; , c.NXLXKXSX    U.KXKXfXUXUXUX",
"UXUXUXfXKXKXU.    2 HXLXMXt.L ^ ` ` ` } } O.o.o.o.X.C.P.B.h % & & * y y.V.d.o.o.o.......,.c.i = : e.<XVXKXKX3     U.KXKXfXUXUXUX",
"UXUXUXfXKXKXU.    o SXKXHX;XU L ( ` } } }  .X.X.X.X.s.Z.P.m & % = w 4.z.d.d.X.X.X.X.X.} ,.e.t 8 k n.NXKXKXHXo     U.KXKXfXUXUXUX",
"UXUXUXfXKXKXU.      1 KXLXMXx.L ( ( | }  . .X.X.s.s.d.Z.M.f % = q 4.L.Z.d.s.s.s.X. . .} 1.c.m h 7.<XFXKXKX2       U.KXKXfXUXUXUX",
"UXUXUXfXKXKXU.      o PXKXJX6X=.I ( | }  . . .s.s.s.g.A.6.8 % ; k m.K.g.s.s.s.s. . .} } | v.e.e.oXCXLXKXfXX       U.KXKXfXUXUXUX",
"UXUXUXfXKXKXU.        1 LXKXFX%X=.+.| O. . . .p.p.s.Z.M.f % = d y.k.g.f.p.s.s.s. . .} } | ;.;.b.7XJXKXKX1         U.KXKXfXUXUXUX",
"UXUXUXfXKXKXU.          I.KXKXZX+X#.*.| O.h.h.h.p.p.Z.M.i & w 5.k.j.f.a.a.p.s.X. .) ) | | *.;.0XFXKXLX4           U.KXKXfXUXUXUX",
"UXUXUXfXKXKXU.          . ~.KXKXVX+X=.*.&.V.h.h.p.s.Z.M.d q 4.k.j.f.a.a.a.p.s.d.h.) ) &.*.;.1XZXKXKX~.X           U.KXKXfXUXUXUX",
"UXUXUXfXKXKXU.            o !.KXKXZX%X=.$.&.V.d.f.g.L.M.l l m.j.f.f.a.a.f.f.g.Z.V.&.&.$.%.6XZXKXKX~.o             U.KXKXfXUXUXUX",
"UXUXUXfXKXKXU.              @ !.KXKXVXoXY U *.V.g.K.L.M.0.y.L.j.j.j.j.g.g.Z.Z.V.&.$.$.%.oXFXLXLXgXo               U.KXKXfXUXUXUX",
"UXUXUXfXKXKXU.                . Y.LXLXjXW.E U T &.V.A.m.m.m.L.K.K.K.K.K.Z.A.V.$.I T R oXjXLXKX!..                 U.KXKXfXUXUXUX",
"UXUXUXfXKXKXU.                  X I.KXHXjXW.W E T *.&.z.z.z.A.A.A.A.z.z.$.$.$.U E t.;XjXPXKX3 X                   U.KXKXfXUXUXUX",
"UXUXUXfXKXKXU.                      1 SXKXSX;X!.r.E U U Y Y %.*.%.%.T P P P r.W.;XjXHXKXzX1                       U.KXKXfXUXUXUX",
"UXUXUXfXKXKXU.                        . 3 SXKXSX~.W.t.t.r.r.R R R R E r.r.W.;XMXHXKXHX3 X                         U.KXKXfXUXUXUX",
"UXUXUXfXKXKXU.                            O I.IXKXKXKXKXKXKXKXKXKXKXKXKXKXKXKXKXSX2 +                             U.KXKXfXUXUXUX",
"UXUXUXfXKXKXU.U.                              . 1 3 ~.lXDXLXKXKXKXKXHXlXgX!.3 # X                               U.U.KXKXfXUXUXUX",
"UXUXUXfXKXKXKXU.U.                                                      o                                     U.U.KXKXKXfXUXUXUX",
"UXUXUXfXKXKXKXKXU.U.U.U.U.U.U.U.U.U.U.U.U.U.U.U.U.U.U.U.U.U.U.U.U.U.U.U.U.U.U.U.U.U.U.U.U.U.U.U.U.U.U.U.U.U.U.U.KXKXKXKXfXUXUXUX",
"UXUXUXfXfXKXKXKXKXKXKXKXKXKXKXKXKXKXKXKXKXKXKXKXKXKXKXKXKXKXKXKXKXKXKXKXKXKXKXKXKXKXKXKXKXKXKXKXKXKXKXKXKXKXKXKXKXKXKXfXfXUXUXUX",
"UXUXUXKXfXfXKXKXKXKXKXKXKXKXKXKXKXKXKXKXKXKXKXKXKXKXKXKXKXKXKXKXKXKXKXKXKXKXKXKXKXKXKXKXKXKXKXKXKXKXKXKXKXKXKXKXKXKXfXfXKXUXUXUX",
"UXUXUXKXKXfXfXfXfXfXfXfXfXfXfXfXfXfXfXfXfXfXfXfXfXfXfXfXfXfXfXfXfXfXfXfXfXfXfXfXfXfXfXfXfXfXfXfXfXfXfXfXfXfXfXfXfXfXfXKXKXUXUXUX",
"UXUXUXUXUXUXUXUXUXUXUXUXUXUXUXUXUXUXUXUXUXUXUXUXUXUXUXUXUXUXUXUXUXUXUXUXUXUXUXUXUXUXUXUXUXUXUXUXUXUXUXUXUXUXUXUXUXUXUXUXUXUXUXUX",
"UXUXUXUXUXUXUXUXUXUXUXUXUXUXUXUXUXUXUXUXUXUXUXUXUXUXUXUXUXUXUXUXUXUXUXUXUXUXUXUXUXUXUXUXUXUXUXUXUXUXUXUXUXUXUXUXUXUXUXUXUXUXUXUX",
"UXUXUXUXUXUXUXUXUXUXUXUXUXUXUXUXUXUXUXUXUXUXUXUXUXUXUXUXUXUXUXUXUXUXUXUXUXUXUXUXUXUXUXUXUXUXUXUXUXUXUXUXUXUXUXUXUXUXUXUXUXUXUXUX"
};
