/* XPM */
static char *xpm_zoom_auto__[] = {
/* columns rows colors chars-per-pixel */
"32 32 178 2",
"   c #002200340048",
".  c #01C805D90A76",
"X  c #0560099F0E6D",
"o  c #0E560E410E29",
"O  c #06130CE114DD",
"+  c #08850D3612A8",
"@  c #085811371B76",
"#  c #129F12BA12D6",
"$  c #15BB17B019EA",
"%  c #1DA91DA91DA9",
"&  c #0C0B18CE2762",
"*  c #0CA61A922A94",
"=  c #15F81D132551",
"-  c #13CB1E1C29F2",
";  c #0EF9222C387C",
":  c #10DE230737C6",
">  c #2DC92DC92DC9",
",  c #24CD2DF93861",
"<  c #34CB34AF3490",
"1  c #15062B8B45FF",
"2  c #1F6C30CF44BD",
"3  c #189532085069",
"4  c #18B536C3595F",
"5  c #1B3A38135946",
"6  c #2499363F4AD2",
"7  c #1DF23C8A6249",
"8  c #2C334B266E95",
"9  c #249E4B0D7960",
"0  c #43F343B04364",
"q  c #4B524B524B52",
"w  c #4FE64FE64FE6",
"e  c #5A0B5A0559FD",
"r  c #5B3A602A65BA",
"t  c #5EF164786ACF",
"y  c #613061516174",
"u  c #6C5D6C566C4D",
"i  c #758575857585",
"p  c #7C3F7C3D7C3C",
"a  c #26FE50AC8141",
"s  c #298154088831",
"d  c #2BBB59508F87",
"f  c #39895B598301",
"g  c #37615D3989B8",
"h  c #2D2E5CD6945A",
"j  c #371160F991AA",
"k  c #308A64559F96",
"l  c #317865FBA237",
"z  c #32D06BEBAE5E",
"x  c #369871FBB510",
"c  c #39F77464B761",
"v  c #373572FEB913",
"b  c #38B274BDB93B",
"n  c #66FC752C8501",
"m  c #6A547C8A9164",
"M  c #42247805B658",
"N  c #4A1279D9B1AF",
"B  c #3B347B4CC490",
"V  c #7C6380A9854B",
"C  c #6CFF812A9883",
"Z  c #6BB886D4A6EE",
"A  c #781797DABD15",
"S  c #47F38373C8BF",
"D  c #55288CE0CEC8",
"F  c #3FFB8405D2AC",
"G  c #415D8D83D560",
"H  c #4C8B8CF3D7F0",
"J  c #3FC787F5D8E2",
"K  c #424788B9D976",
"L  c #5086900ED680",
"P  c #4ECB9196DF55",
"I  c #7A1B9D3FC57E",
"U  c #7DEEA3B0CF8D",
"Y  c #7D16A72DD71A",
"T  c #452194D7E609",
"R  c #447F9FDDE37C",
"E  c #463B94C2EC15",
"W  c #48AC962BEE10",
"Q  c #45B19AABEF29",
"!  c #4A959ACEECF7",
"~  c #500093CEE2EB",
"^  c #539E9BA2EE2C",
"/  c #499F97CAF0E3",
"(  c #4A009982F248",
")  c #46FEB374EB51",
"_  c #49ADB1B0EE5F",
"`  c #49BDC017EE89",
"'  c #4A9BA499F4DF",
"]  c #4A73AD22F617",
"[  c #4AF3B4B8F644",
"{  c #4BA3BABCF6DC",
"}  c #4C02B7DAF89C",
"|  c #4C6FBFE1F9F9",
" . c #6017A4D1F439",
".. c #60CCBD2EF531",
"X. c #481EC7F0F04E",
"o. c #4BDEC15EF866",
"O. c #4A81CB19F4ED",
"+. c #4CB6C51CFB03",
"@. c #4D0ACA4FFBA2",
"#. c #4B79D748F82D",
"$. c #49F0DD2BF788",
"%. c #4C82D413F9B9",
"&. c #5606D392F550",
"*. c #51D5DC93F847",
"=. c #5455D54DFA2B",
"-. c #5D22D46DFAFC",
";. c #562BDB89F916",
":. c #6063C2C0F72D",
">. c #760ACEDBF80D",
",. c #6396DFF3F952",
"<. c #708ED589F9A5",
"1. c #4ACAE457F5E3",
"2. c #4A60EBACF443",
"3. c #5205E603F685",
"4. c #5644EB9DF5C2",
"5. c #4B78F3B1F35F",
"6. c #61EEE210F567",
"7. c #6D2EE5BBF7ED",
"8. c #64E0EC7AF6FA",
"9. c #62DCE19DF905",
"0. c #6BC4E52CF8A2",
"q. c #768DED75F6A2",
"w. c #7A0BE78AF9AE",
"e. c #72E3F54AF586",
"r. c #7FC0F3F4F75B",
"t. c #73C2F9B3F577",
"y. c #880188018801",
"u. c #8BEC8BE78BE0",
"i. c #933093309330",
"p. c #954898A79C8E",
"a. c #9FFB9FFB9FFB",
"s. c #894094DEA224",
"d. c #A2FBA346A399",
"f. c #B1B5B1B5B1B5",
"g. c #BE96BE7BBE5C",
"h. c #B3C7BBDCC543",
"j. c #BFE1C108C265",
"k. c #B6B8C2E8D278",
"l. c #AA2BC543E4B6",
"z. c #BF7ED9D1EECF",
"x. c #BC8ED871F68D",
"c. c #834FE2CFFB5C",
"v. c #8D51E7A1FAEE",
"b. c #8D50E957FABE",
"n. c #9ED0E184FA32",
"m. c #95F9ED64FAB0",
"M. c #99DFE958FBF2",
"N. c #892BF664F769",
"B. c #976FFD52F7CE",
"V. c #950EF1BBF995",
"C. c #9D30F4CCF982",
"Z. c #AAEBE1D5FAB1",
"A. c #A343EF24FB7F",
"S. c #AD7FEE5DFC0D",
"D. c #B7BDE90BFC5E",
"F. c #BAE1EB82FE5D",
"G. c #A325F32EFAA1",
"H. c #ADA6F217FB88",
"J. c #B451F499FBA6",
"K. c #BA0BF479FBFB",
"L. c #BE4FFAE6FAE7",
"P. c #C261C644CAA6",
"I. c #CB47CB47CB47",
"U. c #C575CC84D492",
"Y. c #C6B4CF13D89E",
"T. c #D1D3D1D3D1D3",
"R. c #DF51DF3DDF26",
"E. c #C3ACE6DEFC81",
"W. c #C6CEE8B1FE6A",
"Q. c #D6D7EFA7FE2E",
"!. c #C220F84AFBFF",
"~. c #D66CF5EEFE43",
"^. c #E4A7E4A7E4A7",
"/. c #EC40EBF8EBA5",
"(. c #F0A3EFDBEEF8",
"). c #F134F0B8F02B",
"_. c #F208F206F205",
"`. c None",
/* pixels */
"`.`.`.`.`.`.`.`.`.`.`.`.`.`.`.`.`.`.`.`.`.`.`.`.`.`.`.`.`.`.`.`.",
"`.`.R.^././././././././././././././././././././././././.^.R.`.`.",
"`.`./._.I.g.g.g.g.j.U.Y.Y.U.P.g.g.g.g.g.g.g.g.g.g.g.g.I._./.`.`.",
"`.`._.f.< o o # 2 j S P ~ H M 8 = o o o o o o o o o o < f._.`.`.",
"`.`._.e     O a K ( ' ] ] ] ' E x 1                     e _.`.`.",
"`.`._.e   @ l ! ] | +.@.@.@.+.} ' K 5                   e _.`.`.",
"`.`._.e . h ( [ +.@.@.@.@.@.@.@.o.' K 1                 e _.`.`.",
"`.`._.e 4 E [ @.@.@.@.@.@.@.@.@.@.o.' v @               e _.`.`.",
"`.`.).t z ' +.@.@.@.@.@.@.@.@.@.@.@.{ E 5               e _.`.`.",
"`.`.(.C J [ @.@.@.@.@.@.@.@.@.%.%.%.@.' h .             e _.`.`.",
"`.`./.I E o.@.@.@.@.@.%.%.%.%.%.%.#.#.[ v O             e _.`.`.",
"`.`./.U Q @.-.=.%.%.=.=.#.#.;.;.;.,.9.:.D ,     # % #   e _.`.`.",
"`.`./.U Q <.~.c.#.#.M.v.$.$.b.m.w.H.J.Q.l.V # w i.u.i.q e _.`.`.",
"`.`./.A T n.K.S.*.$.A.m.$.1.m.G.1.3.8.W.N + < d.> X > a.u./.`.`.",
"`.`.(.m L D.0.J.0.$.A.m.1.1.V.G.2.2.8.E.g   u i       i I./.`.`.",
"`.`._.r Z F.7.H.C.1.G.V.2.2.V.G.2.2.6.z.6   i u       u T./.`.`.",
"`.`._.y p.x.Z.K.!.4.C.C.2.2.C.C.5.2...k.$   e u..   . y.f./.`.`.",
"`.`./.u.d.f ! &.J.r.e.L.N.N.L.t.2.[  .h.#   # i.i q i u.u /.`.`.",
"`.`./.y.0 X 9 T >.q.5.t.B.B.e.1._ F ^ Y -     $ e u e # e _.`.`.",
"`.`._.e     . 3 x R ` O.O.X.) G a * h E k @ .           e _.`.`.",
"`.`._.e         O 1 9 d h s 7 * .   O d T B l *         e _.`.`.",
"`.`._.e                 .             O x ( ( b *       e _.`.`.",
"`.`._.e                               . h ( W / b *     e _.`.`.",
"`.`._.e                                 & x / W / c *   e _.`.`.",
"`.`._.e                                   & x W W / b & e _.`.`.",
"`.`._.e                                     & b / W / x n (.`.`.",
"`.`._.e                                       : B / W E I /.`.`.",
"`.`._.p o                                       ; B E c s.).`.`.",
"`.`._.R.p e e e e e e e e e e e e e e e e e e e e m I s.R._.`.`.",
"`.`.R._._._._._._._._._._._._._._._._._._._._._._.(./.)._.R.`.`.",
"`.`.R.`.`.`.`.`.`.`.`.`.`.`.`.`.`.`.`.`.`.`.`.`.`.`.`.`.`.R.`.`.",
"`.`.`.`.`.`.`.`.`.`.`.`.`.`.`.`.`.`.`.`.`.`.`.`.`.`.`.`.`.`.`.`."
};
