/* XPM */
static char *xpm_icon_ff[] = {
/* columns rows colors chars-per-pixel */
"64 64 6 1",
"  c black",
". c #9D9D9D",
"X c gray78",
"o c #E4E4E4",
"O c gray100",
"+ c None",
/* pixels */
"++++++++++++++++++++++++++++++++++++++++++++++++++++++++++++++++",
"++++++++++++++++++++++++++++++++++++++++++++++++++++++++++++++++",
"+++OOXXXXXXXXXXXXXXXXXXXXXXXXXXXXXXXXXXXXXXXXXXXXXXXXXXXXXXOO+++",
"+++OXXOOOOOOOOOOOOOOOOOOOOOOOOOOOOOOOOOOOOOOOOOOOOOOOOOOOOXXO+++",
"+++XXOOOOOOOOOOOOOOOOOOOOOOOOOOOOOOOOOOOOOOOOOOOOOOOOOOOOOOXX+++",
"+++XOOOO................................................OOOOX+++",
"+++XOOo..                                              ..OOOX+++",
"+++XOO.                                                 ..OOX+++",
"+++XOO.                                                  .OOX+++",
"+++XOO.                                                  .OOX+++",
"+++XOO.                                                  .OOX+++",
"+++XOO.                                                  .OOX+++",
"+++XOO.                                                  .OOX+++",
"+++XOO.                                                  .OOX+++",
"+++XOO.                                                  .OOX+++",
"+++XOO.                                                  .OOX+++",
"+++XOO.                                                  .OOX+++",
"+++XOO.                                                  .OOX+++",
"+++XOO.                                                  .OOX+++",
"+++XOO.                                                  .OOX+++",
"+++XOO.            O              O                      .OOX+++",
"+++XOO.            OO             OO                     .OOX+++",
"+++XOO.            OOO            OOO                    .OOX+++",
"+++XOO.            OOOO           OOOO                   .OOX+++",
"+++XOO.            OOOOO          OOOOO                  .OOX+++",
"+++XOO.            OOOOOO         OOOOOO                 .OOX+++",
"+++XOO.            OOOOOOO        OOOOOOO                .OOX+++",
"+++XOO.            OOOOOOOO       OOOOOOOO               .OOX+++",
"+++XOO.            OOOOOOOOO      OOOOOOOOO              .OOX+++",
"+++XOO.            OOOOOOOOOO     OOOOOOOOOO             .OOX+++",
"+++XOO.            OOOOOOOOOOO    OOOOOOOOOOO            .OOX+++",
"+++XOO.            OOOOOOOOOOOO   OOOOOOOOOOOO           .OOX+++",
"+++XOO.            OOOOOOOOOOO    OOOOOOOOOOO            .OOX+++",
"+++XOO.            OOOOOOOOOO     OOOOOOOOOO             .OOX+++",
"+++XOO.            OOOOOOOOO      OOOOOOOOO              .OOX+++",
"+++XOO.            OOOOOOOO       OOOOOOOO               .OOX+++",
"+++XOO.            OOOOOOO        OOOOOOO                .OOX+++",
"+++XOO.            OOOOOO         OOOOOO                 .OOX+++",
"+++XOO.            OOOOO          OOOOO                  .OOX+++",
"+++XOO.            OOOO           OOOO                   .OOX+++",
"+++XOO.            OOO            OOO                    .OOX+++",
"+++XOO.            OO             OO                     .OOX+++",
"+++XOO.            O              O                      .OOX+++",
"+++XOO.                                                  .OOX+++",
"+++XOO.                                                  .OOX+++",
"+++XOO.                                                  .OOX+++",
"+++XOO.                                                  .OOX+++",
"+++XOO.                                                  .OOX+++",
"+++XOO.                                                  .OOX+++",
"+++XOO.                                                  .OOX+++",
"+++XOO.                                                  .OOX+++",
"+++XOO.                                                  .OOX+++",
"+++XOO.                                                  .OOX+++",
"+++XOO.                                                  .OOX+++",
"+++XOO.                                                  .OOX+++",
"+++XOO..                                                ..OOX+++",
"+++XOOO..                                              ..OOOX+++",
"+++XOOOO................................................OOOOX+++",
"+++XXOOOOOOOOOOOOOOOOOOOOOOOOOOOOOOOOOOOOOOOOOOOOOOOOOOOOOOXX+++",
"+++OXXOOOOOOOOOOOOOOOOOOOOOOOOOOOOOOOOOOOOOOOOOOOOOOOOOOOOXXO+++",
"+++OOXXXXXXXXXXXXXXXXXXXXXXXXXXXXXXXXXXXXXXXXXXXXXXXXXXXXXXOO+++",
"++++++++++++++++++++++++++++++++++++++++++++++++++++++++++++++++",
"++++++++++++++++++++++++++++++++++++++++++++++++++++++++++++++++",
"++++++++++++++++++++++++++++++++++++++++++++++++++++++++++++++++"
};
