/* XPM */
static char *xpm_icon_threed[] = {
/* columns rows colors chars-per-pixel */
"64 64 195 2",
"   c black",
".  c #010000",
"X  c #000101",
"o  c #010101",
"O  c #020000",
"+  c #030000",
"@  c #020101",
"#  c #020202",
"$  c #030202",
"%  c #040000",
"&  c #050000",
"*  c #060000",
"=  c #070000",
"-  c #050202",
";  c #080000",
":  c #090000",
">  c #090101",
",  c #0A0000",
"<  c #0B0000",
"1  c #0A0101",
"2  c #0C0000",
"3  c #0E0000",
"4  c #0F0000",
"5  c #0F0101",
"6  c #100000",
"7  c #110000",
"8  c #110101",
"9  c #130000",
"0  c #150000",
"q  c #180000",
"w  c #190000",
"e  c #1A0000",
"r  c #1C0000",
"t  c #1D0000",
"y  c #1E0000",
"u  c #1F0000",
"i  c #200000",
"p  c #210000",
"a  c #230000",
"s  c #250000",
"d  c #280000",
"f  c #290000",
"g  c #2A0000",
"h  c #2C0000",
"j  c #2D0000",
"k  c #2F0000",
"l  c #320000",
"z  c #330000",
"x  c #380000",
"c  c #3A0000",
"v  c #3B0000",
"b  c #3C0000",
"n  c #3D0000",
"m  c gray19",
"M  c gray20",
"N  c #353535",
"B  c #3C3C3C",
"V  c #400000",
"C  c #410000",
"Z  c #430000",
"A  c #440000",
"S  c #450000",
"D  c #460000",
"F  c #4B0000",
"G  c #4C0000",
"H  c #590000",
"J  c #5A0000",
"K  c #5C0000",
"L  c #5D0000",
"P  c #600000",
"I  c #610000",
"U  c #620000",
"Y  c #630000",
"T  c #640000",
"R  c #650000",
"E  c #660000",
"W  c #670000",
"Q  c #6A0000",
"!  c #6B0000",
"~  c #6C0000",
"^  c #6D0000",
"/  c #700000",
"(  c #720000",
")  c #740000",
"_  c #760000",
"`  c #770000",
"'  c #780000",
"]  c #790000",
"[  c #7A0000",
"{  c #7B0000",
"}  c #7E0000",
"|  c #7F0000",
" . c #414141",
".. c gray29",
"X. c gray31",
"o. c #555555",
"O. c #5A5A5A",
"+. c #5F5F5F",
"@. c gray38",
"#. c #797979",
"$. c #800000",
"%. c #810000",
"&. c #820000",
"*. c #840000",
"=. c #860000",
"-. c #8A0000",
";. c #8B0000",
":. c #8C0000",
">. c #8D0000",
",. c #8F0000",
"<. c #900000",
"1. c #910000",
"2. c #920000",
"3. c #930000",
"4. c #940000",
"5. c #950000",
"6. c #960000",
"7. c #970000",
"8. c #980000",
"9. c #990000",
"0. c #9A0000",
"q. c #9B0000",
"w. c #9C0000",
"e. c #9E0000",
"r. c #9F0000",
"t. c #A00000",
"y. c #A30000",
"u. c #A40000",
"i. c #A60000",
"p. c #A70000",
"a. c #A80000",
"s. c #A90000",
"d. c #AB0000",
"f. c #AC0000",
"g. c #AD0000",
"h. c #AF0000",
"j. c #B00000",
"k. c #B10000",
"l. c #B20000",
"z. c #B30000",
"x. c #B60000",
"c. c #B80000",
"v. c #BA0000",
"b. c #BF0000",
"n. c #C20000",
"m. c #C40000",
"M. c #C60000",
"N. c #C80000",
"B. c #CA0000",
"V. c #CD0000",
"C. c #CF0000",
"Z. c #D00000",
"A. c #D10000",
"S. c #D40000",
"D. c #D50000",
"F. c #D60000",
"G. c #D80000",
"H. c #D90000",
"J. c #DB0000",
"K. c #DF0000",
"L. c #E30000",
"P. c #E50000",
"I. c #E80000",
"U. c #E90000",
"Y. c #EA0000",
"T. c #EB0000",
"R. c #EC0000",
"E. c #EF0000",
"W. c #F00000",
"Q. c #F10000",
"!. c #F30000",
"~. c #F40000",
"^. c #F50000",
"/. c #F70000",
"(. c #FA0000",
"). c #FB0000",
"_. c #FC0000",
"`. c #FD0000",
"'. c #FE0000",
"]. c red",
"[. c #8C8D8D",
"{. c #8D8D8D",
"}. c #8E8D8D",
"|. c #8F8D8F",
" X c gray57",
".X c #9D9D9D",
"XX c gray83",
"oX c #D7D7D7",
"OX c #E1E1E1",
"+X c #F4F4F4",
"@X c #F8F8F8",
"#X c #FFFDFD",
"$X c #FEFEFE",
"%X c gray100",
"&X c None",
/* pixels */
"&X&X&X&X&X&X&X&X&X&X&X&X&X&X&X&X&X&X&X&X&X&X&X&X&X&X&X&X&X&X&X&X&X&X&X&X&X&X&X&X&X&X&X&X&X&X&X&X&X&X&X&X&X&X&X&X&X&X&X&X&X&X&X&X",
"&X&X&X&X&X&X&X&X&X&X&X&X&X&X&X&X&X&X&X&X&X&X&X&X&X&X&X&X&X&X&X&X&X&X&X&X&X&X&X&X&X&X&X&X&X&X&X&X&X&X&X&X&X&X&X&X&X&X&X&X&X&X&X&X",
"&X&X&X&X&X&X&X&X&X&X&X&X&X&X&X&X&X&X&X&X&X&X&X&X&X&X&X&X&X&X&X&X&X&X&X&X&X&X&X&X&X&X&X&X&X&X&X&X&X&X&X&X&X&X&X&X&X&X&X&X&X&X&X&X",
"&X&X&X&X&X&X&X&X&X&X&X&X&X&X&X&X&X&X&X&X&X&X&X&X&X&X&X&X&X&X&X&X&X&X&X&X&X&X&X&X&X&X&X&X&X&X&X&X&X&X&X&X&X&X&X&X&X&X&X&X&X&X&X&X",
"&X&X&X&X&X&X%X%X%X%X%X%X%X%X%X%X%X%X%X%X%X%X%X%X%X%X%X%X%X%X%X%X%X%X%X%X%X%X%X%X%X%X%X%X%X%X%X%X%X%X%X%X%X%X%X%X%X%X&X&X&X&X&X&X",
"&X&X&X&X&X%X%X%X%X%X%X%X%X%X%X%X%X%X%X%X%X%X%X%X%X%X%X%X%X%X%X%X%X%X%X%X%X%X%X%X%X%X%X%X%X%X%X%X%X%X%X%X%X%X%X%X%X%X%X&X&X&X&X&X",
"&X&X&X&X%X%X%X%X.X.X.X.X.X.X.X.X.X.X.X.X.X.X.X.X.X.X.X.X.X.X.X.X.X.X.X.X.X.X.X.X.X.X.X.X.X.X.X.X.X.X.X.X.X.X.X.X%X%X%X%X&X&X&X&X",
"&X&X&X&X%X%X%X.X.X                                                                                            .X.X%X%X%X&X&X&X&X",
"&X&X&X&X%X%X.X.X                                                                                                .X.X%X%X&X&X&X&X",
"&X&X&X&X%X%X.X                                                                                                    .X%X%X&X&X&X&X",
"&X&X&X&X%X%X.X                                                                                                    .X%X%X&X&X&X&X",
"&X&X&X&X%X%X.X        # o o o                                                                                     .X%X%X&X&X&X&X",
"&X&X&X&X%X%X.X      # #  .+.  #                                                                                   .X%X%X&X&X&X&X",
"&X&X&X&X%X%X.X    # # ..oX%XX.  #                                                                                 .X%X%X&X&X&X&X",
"&X&X&X&X%X%X.X  # # m %X%X%X$XM   #                                                                               .X%X%X&X&X&X&X",
"&X&X&X&X%X%X.X  # B XX%X%X%X%X+XN o                                                                               .X%X%X&X&X&X&X",
"&X&X&X&X%X%X.X  # # # # %X%X                                                                                      .X%X%X&X&X&X&X",
"&X&X&X&X%X%X.X        # %X%X                                                                                      .X%X%X&X&X&X&X",
"&X&X&X&X%X%X.X        # %X%X                                                                                      .X%X%X&X&X&X&X",
"&X&X&X&X%X%X.X        # %X%X                                                                                      .X%X%X&X&X&X&X",
"&X&X&X&X%X%X.X        # %X%X# # # o                                                                               .X%X%X&X&X&X&X",
"&X&X&X&X%X%X.X        # %X%X#                                                                                     .X%X%X&X&X&X&X",
"&X&X&X&X%X%X.X        # %X%X#                           f ~ F 0                                                   .X%X%X&X&X&X&X",
"&X&X&X&X%X%X.X        # %X%X#                           <.].].v.&.x =                                             .X%X%X&X&X&X&X",
"&X&X&X&X%X%X.X        # %X%X#                         k D.].'.].'.B.&.+                                           .X%X%X&X&X&X&X",
"&X&X&X&X%X%X.X        # %X%X#                         I ].]._.(.N.k.n.$.                                          .X%X%X&X&X&X&X",
"&X&X&X|.%X%X.X        # %X%X#                       * 9.].].]._.l.3.w.h.A                                         .X%X%X&X&X&X&X",
"&X&X&X&X%X%X.X        # %X%X#                       b /.].].].].i.8.8.e.1.d                                       .X%X%X&X&X&X&X",
"&X&X&X&X%X%X.X        # %X%X#       .               J ].'.].].H.w.8.9.7.j.!                                       .X%X%X&X&X&X&X",
"&X&X&X&X%X%X.X        # %X%X#       .             9 h.].'.].`.a.6.9.9.9.9.s.C                                     .X%X%X&X&X&X&X",
"&X&X&X&X%X%X.X        # %X%X@                     z ].].].].v.6.9.9.9.8.7.g.` 2                                   .X%X%X&X&X&X&X",
"&X&X&X&X%X%X.X        # %X%X%                   = :.]._.].].z.4.9.9.9.9.9.7.h.b                                   .X%X%X&X&X&X&X",
"&X&X&X&X%X%X.X        # %X%XX O > X             y ].].'.].^.f.5.9.9.9.9.9.8.u.[ 6                   #             .X%X%X&X&X&X&X",
"&X&X&X&X%X%X.X        # %X%X- O 1             % -.].].].].N.7.8.9.9.9.9.9.9.1.D.Z                   $             .X%X%X&X&X&X&X",
"&X&X&X&X%X%X.X        # %X%X8     O O         3 '.`.].].].v.<.9.9.9.9.9.8.8.6.x.:.2                               .X%X%X&X&X&X&X",
"&X&X&X&X%X%X.X        # %X%X& .     .         G ].).].].S.8.8.7.6.7.9.9.9.8.0.<.d.g                               .X%X%X&X&XOXOX",
"&X&X&X&X%X%X.X        # %X%Xo &               K.).(.].].m.,.0.6.8.6.9.9.9.9.9.8.0.>.=         S h.h               .X%X%X&X&XOXOX",
"&X&X&X&X%X%X.X        # %X%Xn c.Q.Q.~.Q.W.L.W.'._.].].A.2.9.9.7.6.9.9.9.9.9.9.9.7.v.n       v F.].I.j             .X%X%X{.&XOX&X",
"&X&X&X&X%X%X.X        # %X%X9 y V.).].].].].].].`.`.D.7.8.9.9.9.9.9.9.9.9.9.9.8.9.7.h.7 a =.!.].].].Z.f         . .X%X%X[.&XOX&X",
"&X&X&X&X%X%X.X        # %X%X4   < } U.E.R.T.I.U.Y.M.-.t.t.y.u.u.u.y.y.u.u.u.y.r.0.q.p.0.k.].].].].].C.U         . .X%X%X}.&X&X&X",
"&X&X&X&X%X%X.X        # %X%X* O     A %.) ( _ _ ) ' $.| / I P I I P P I I P T { =.*.] 8.H.P.H.G.J.b.*.;.          .X%X%X&X&X&X&X",
"&X&X&X&X%X%X.X        # %X%X  +     , q 9 q i p y t w e :                     c Q T U P 2.t.,.,.,.>.` S           .X%X%X&X&X&X&X",
"&X&X&X&X%X%X.X        # %X%X  .                                               9 D ~ W R E -.w.9.p.L r .           .X%X%X&X&X&X&X",
"&X&X&X&X%X%X.X        # %X%X                      . .                           : u W ^ Y ) t.s.K &               .X%X%X&X&X&X&X",
"&X&X&X&X%X%X.X        # %X%X      % &                                               7 s H Q ~ V &                 .X%X%X&X&X&X&X",
"&X&X&X&X%X%X.X        # %X%X        .                                                   ; l c O                   .X%X%X&X&X&X&X",
"&X&X&X&X%X%X.X        # %X%X                                                                                5     .X%X%X&X&X&X&X",
"&X&X&X&X%X%X.X        # %X%X                                                                        M             .X%X%X&X&X&X&X",
"&X&X&X&X%X%X.X        # %X%X                                                                  . .   #XM           .X%X%X&X&X&X&X",
"&X&X&X&X%X%X.X        # %X%X        # o                                                             %X%XM   o     .X%X%X&X&X&X&X",
"&X&X&X&X%X%X.X        # %X%X%X%X%X%X%X%X%X%X%X%X%X%X%X%X%X%X%X%X%X%X%X%X%X%X%X%X%X%X%X%X%X%X%X%X%X%X%X%X%XO.      .X%X%X&X&X&X&X",
"&X&X&X&X%X%X.X        # %X%X%X%X%X%X%X%X%X%X%X%X%X%X%X%X%X%X%X%X%X%X%X%X%X%X%X%X%X%X%X%X%X%X%X%X%X%X%X%X%Xo.      .X%X%X&X&X&X&X",
"&X&X&X&X%X%X.X        # # # # # # # # # # # # # # # # # # # # # # # # # # # # # # # # # # # # # # # %X@X@.        .X%X%X&X&X&X&X",
"&X&X&X&X%X%X.X                                                                                    # %X X          .X%X%X&X&X&X&X",
"&X&X&X&X%X%X.X                                                                                    # #.            .X%X%X&X&X&X&X",
"&X&X&X&X%X%X.X                                                                                    #   o           .X%X%X&X&X&X&X",
"&X&X&X&X%X%X.X.X                                                                                                .X.X%X%X&X&X&X&X",
"&X&X&X&X%X%X%X.X.X                                                                                            .X.X%X%X%X&X&X&X&X",
"&X&X&X&X%X%X%X%X.X.X.X.X.X.X.X.X.X.X.X.X.X.X.X.X.X.X.X.X.X.X.X.X.X.X.X.X.X.X.X.X.X.X.X.X.X.X.X.X.X.X.X.X.X.X.X.X%X%X%X%X&X&X&X&X",
"&X&X&X&X&X%X%X%X%X%X%X%X%X%X%X%X%X%X%X%X%X%X%X%X%X%X%X%X%X%X%X%X%X%X%X%X%X%X%X%X%X%X%X%X%X%X%X%X%X%X%X%X%X%X%X%X%X%X%X&X&X&X&X&X",
"&X&X&X&X&X&X%X%X%X%X%X%X%X%X%X%X%X%X%X%X%X%X%X%X%X%X%X%X%X%X%X%X%X%X%X%X%X%X%X%X%X%X%X%X%X%X%X%X%X%X%X%X%X%X%X%X%X%X&X&X&X&X&X&X",
"&X&X&X&X&X&X&X&X&X&X&X&X&X&X&X&X&X&X&X&X&X&X&X&X&X&X&X&X&X&X&X&X&X&X&X&X&X&X&X&X&X&X&X&X&X&X&X&X&X&X&X&X&X&X&X&X&X&X&X&X&X&X&X&X",
"&X&X&X&X&X&X&X&X&X&X&X&X&X&X&X&X&X&X&X&X&X&X&X&X&X&X&X&X&X&X&X&X&X&X&X&X&X&X&X&X&X&X&X&X&X&X&X&X&X&X&X&X&X&X&X&X&X&X&X&X&X&X&X&X",
"&X&X&X&X&X&X&X&X&X&X&X&X&X&X&X&X&X&X&X&X&X&X&X&X&X&X&X&X&X&X&X&X&X&X&X&X&X&X&X&X&X&X&X&X&X&X&X&X&X&X&X&X&X&X&X&X&X&X&X&X&X&X&X&X"
};
