/* XPM */
static char *xpm_icon_camera[] = {
/* columns rows colors chars-per-pixel */
"64 64 256 2",
"   c #000000",
".  c #0A0A0B",
"X  c #05050B",
"o  c #0E0E12",
"O  c #020418",
"+  c #091016",
"@  c #141416",
"#  c #1C1C1C",
"$  c #181716",
"%  c #1E0F09",
"&  c #06182B",
"*  c #1C1D24",
"=  c #000436",
"-  c #001436",
";  c #0D243C",
":  c #2B2C2C",
">  c #242526",
",  c #322E2C",
"<  c #333333",
"1  c #3E3A39",
"2  c #313134",
"3  c #49372C",
"4  c #4E4138",
"5  c #000D42",
"6  c #001646",
"7  c #000E52",
"8  c #001B53",
"9  c #001A59",
"0  c #012445",
"q  c #01265A",
"w  c #132D4A",
"e  c #3B3B4A",
"r  c #273758",
"t  c #393B59",
"y  c #28324C",
"u  c #001D64",
"i  c #032A66",
"p  c #01326C",
"a  c #063B6F",
"s  c #1E3E68",
"d  c #0A3D75",
"f  c #2B3F65",
"g  c #30445D",
"h  c #0F467A",
"j  c #24487B",
"k  c #354E70",
"l  c #464747",
"z  c #5D524E",
"x  c #4B4A54",
"c  c #4D5253",
"v  c #535353",
"b  c #5A585A",
"n  c #44446D",
"m  c #4C4A6C",
"M  c #4A4768",
"N  c #595868",
"B  c #444473",
"V  c #474976",
"C  c #4E4B74",
"Z  c #4A4B79",
"A  c #484678",
"S  c #47557A",
"D  c #54547B",
"F  c #565777",
"G  c #4A5371",
"H  c #615F76",
"J  c #5C6166",
"K  c #54647A",
"L  c #656566",
"P  c #6B6B6C",
"I  c #67666B",
"U  c #736F6B",
"Y  c #76746D",
"T  c #646373",
"R  c #6D6D7E",
"E  c #726D72",
"W  c #757474",
"Q  c #71727D",
"!  c #7C7C7C",
"~  c #7B7876",
"^  c #807771",
"/  c #82827E",
"(  c #164881",
")  c #045493",
"_  c #244982",
"`  c #2D5985",
"'  c #0A649E",
"]  c #30639A",
"[  c #0A65A7",
"{  c #3F6BA3",
"}  c #5B5A85",
"|  c #465C82",
" . c #5B7796",
".. c #556D8C",
"X. c #646484",
"o. c #62638B",
"O. c #6C6B8A",
"+. c #686D86",
"@. c #706E86",
"#. c #677189",
"$. c #737382",
"%. c #7B7A8C",
"&. c #76778A",
"*. c #6B6B92",
"=. c #727293",
"-. c #7E7D9E",
";. c #787795",
":. c #617097",
">. c #4F7BAD",
",. c #577AA5",
"<. c #807E94",
"1. c #807FA0",
"2. c #7E8283",
"3. c #5785B9",
"4. c #7788A5",
"5. c #6D93B7",
"6. c #768FA5",
"7. c #1587D6",
"8. c #3B9EDC",
"9. c #0589E1",
"0. c #0093FC",
"q. c #0085F2",
"w. c #319EE2",
"e. c #26AEFF",
"r. c #28B6FF",
"t. c #5C99DA",
"y. c #6496C3",
"u. c #6AA7D5",
"i. c #75ADDD",
"p. c #7AB2D4",
"a. c #73AFE5",
"s. c #7AB2E8",
"d. c #7CBAF7",
"f. c #78DBFE",
"g. c #7FC0E1",
"h. c #838383",
"j. c #848489",
"k. c #8B8B8B",
"l. c #888786",
"z. c #938E8C",
"x. c #9B948D",
"c. c #838494",
"v. c #83859B",
"b. c #8C8B97",
"n. c #918F91",
"m. c #939494",
"M. c #9A9A95",
"N. c #9D9D9D",
"B. c #979697",
"V. c #84939D",
"C. c #A39F9A",
"Z. c #AAA19D",
"A. c #8484A3",
"S. c #8D8DAA",
"D. c #8A89A4",
"F. c #9493AD",
"G. c #9696A3",
"H. c #9B9BB4",
"J. c #999AB4",
"K. c #8A90AA",
"L. c #A29EA3",
"P. c #97A6BD",
"I. c #A2A2A2",
"U. c #AAAAAA",
"Y. c #A8A7A7",
"T. c #B4ABA8",
"R. c #ADAEB3",
"E. c #A3A6BA",
"W. c #AFB1B4",
"Q. c #AFB1B8",
"!. c #B4B4B5",
"~. c #B3B3B9",
"^. c #BABABA",
"/. c #B6B9B7",
"(. c #B2B1AE",
"). c #C9BDAE",
"_. c #BFC0BF",
"`. c #C3C1BC",
"'. c #96B4D7",
"]. c #93B0CA",
"[. c #ACACC3",
"{. c #A8A7C3",
"}. c #B6BACB",
"|. c #BBBACC",
" X c #B6B5C7",
".X c #A9BDD8",
"XX c #BBBCD3",
"oX c #B7B8D1",
"OX c #B2AFC4",
"+X c #82BCF7",
"@X c #82B9E7",
"#X c #C1BED4",
"$X c #B6C3C9",
"%X c #B8CCD3",
"&X c #A5C6DC",
"*X c #8CC3FD",
"=X c #8CCCFF",
"-X c #94CAFE",
";X c #9BCCFF",
":X c #91C7FE",
">X c #93D4FF",
",X c #98D6FD",
"<X c #93CAEF",
"1X c #BBD6EC",
"2X c #A3D7FE",
"3X c #A5CFF6",
"4X c #97E6FF",
"5X c #A8E3FF",
"6X c #C7C7C7",
"7X c #C5C5C9",
"8X c #CCCBCB",
"9X c #CAC8C7",
"0X c #C2C2D3",
"qX c #CBCBDA",
"wX c #CACAD7",
"eX c #D4D5D4",
"rX c #DBDBDB",
"tX c #D8D8DA",
"yX c #CBD1D4",
"uX c #E7DED5",
"iX c #E3E2DC",
"pX c #CAD9E9",
"aX c #D4D4E4",
"sX c #D4D4EB",
"dX c #DBDAEC",
"fX c #D9D9E6",
"gX c #E3DFEE",
"hX c #E3DFF4",
"jX c #C7E8FC",
"kX c #D9E4F8",
"lX c #D7F4FF",
"zX c #D2EFF7",
"xX c #E3E3E3",
"cX c #E3E3EC",
"vX c #EBEBEC",
"bX c #EAE7E7",
"nX c #F4ECE9",
"mX c #F6F2EC",
"MX c #E3E3F2",
"NX c #ECECF3",
"BX c #E6E6FD",
"VX c #EAE7FE",
"CX c #E7E9FE",
"ZX c #ECECFE",
"AX c #E9E6F4",
"SX c #F1EEFE",
"DX c #F6EEF7",
"FX c #EEF1FF",
"GX c #EBF9FB",
"HX c #F4F4F4",
"JX c #F4F4FE",
"KX c #F8F6FE",
"LX c #F7F8FE",
"PX c #FFFFFF",
"IX c #FAFAF5",
"UX c None",
/* pixels */
"UXUXUXUXUXUXUXUXUXUXUXUXUXUXUXUXUXUXUXUXUXUXUXUXUXUXUXUXUXUXUXUXUXUXUXUXUXUXUXUXUXUXUXUXUXUXUXUXUXUXUXUXUXUXUXUXUXUXUXUXUXUXUXUX",
"UXUXUXUXUXUXUXUXUXUXUXUXUXUXUXUXUXUXUXUXUXUXUXUXUXUXUXUXUXUXUXUXUXUXUXUXUXUXUXUXUXUXUXUXUXUXUXUXUXUXUXUXUXUXUXUXUXUXUXUXUXUXUXUX",
"UXUXUXPXPX6X6X6X6X6X6X6X6X6X6X6X6X6X6X6X6X6X6X6X6X6X6X6X6X6X6X6X6X6X6X6X6X6X6X6X6X6X6X6X6X6X6X6X6X6X6X6X6X6X6X6X6X6X6XPXPXUXUXUX",
"UXUXUXPX6X6XPXPXPXPXPXPXPXPXPXPXPXPXPXPXPXPXPXPXPXPXPXPXPXPXPXPXPXPXPXPXPXPXPXPXPXPXPXPXPXPXPXPXPXPXPXPXPXPXPXPXPXPX6X6XPXUXUXUX",
"UXUXUX6X6XPXPXPXPXPXPXPXPXPXPXPXPXPXPXPXPXPXPXPXPXPXPXPXPXPXPXPXPXPXPXPXPXPXPXPXPXPXPXPXPXPXPXPXPXPXPXPXPXPXPXPXPXPXPX6X6XUXUXUX",
"UXUXUX6XPXPXPXPXN.N.N.N.N.N.N.N.N.N.N.N.N.N.N.N.N.N.N.N.N.N.N.N.N.N.N.N.N.N.N.N.N.N.N.N.N.N.N.N.N.N.N.N.N.N.N.N.PXPXPXPX6XUXUXUX",
"UXUXUX6XPXPXPXN.N.                                                                                            N.N.PXPXPX6XUXUXUX",
"UXUXUX6XPXPXN.N.                                                                                                N.N.PXPX6XUXUXUX",
"UXUXUX6XPXPXN.                      # v.c.%.;.;.=.=.=.O.O.O.O.X.X.X.X.X.F F F F F F D C O.b.G.b                   N.PXPX6XUXUXUX",
"UXUXUX6XPXPXN.                      * F.H.E.H.H.H.H.J.F.F.F.F.S.S.S.D.D.A.A.A.A.-.-.-.-.D.H.|.%..                 N.PXPX6XUXUXUX",
"UXUXUX6XPXPXN.                      @ %.wXHXHXNXNXHXNXHXNXNXNXNXNXNXNXNXNXNXNXNXvXNXNXNX XF.JXwXH X               N.PXPX6XUXUXUX",
"UXUXUX6XPXPXN.                      @ @.tXPXPXPXPXPXPXPXPXPXPXPXPXPXPXPXPXPXPXPXPXPXPXPX0XD.JXHX|.N @             N.PXPX6XUXUXUX",
"UXUXUX6XPXPXN.                      o O.qXPXPXPXPXPXPXPXPXPXPXPXPXPXPXPXPXPXPXPXLXKXPXPX}.A.MXPXLXE.N .           N.PXPX6XUXUXUX",
"UXUXUX6XPXPXN.                      X O.fXPXPXPXPXPXPXPXPXPXPXPXPXPXPXPXPXPXPXPXLXKXPXPX XA.cXPXPXIXOXx           N.PXPX6XUXUXUX",
"UXUXUX6XPXPXN.  L < # L L L   # 1 l l M G.9X! L L L L L L L L L L L L L L L G.NXPXPXPXPXOXA.HXPXPXPXHX Xt *       N.PXPX6XUXUXUX",
"UXUXUX6XPXPXN.  L < x < . . $ l ! M.! e I U                                 @ k.vXPXLXPX[.=.fXNXgXdXHXMX*.N       N.PXPX6XUXUXUX",
"UXUXUX6XPXPXN.  L < l.N.~ ! ! l.k.k.k.j.l./ P M.6X8X8X8X8X8X6X^.$X%XeXyX%X/., o 7XPXPXPX[.Z =.1.;.*.X.} D Q >     N.PXPX6XUXUXUX",
"UXUXUX6XPXPXN.  L < 7XHXtXtXtXeX6X7X6X8X8X9XeXHXPXPXPXPXPXPXPXcX,Xf.4Xf.f.rX4   ~.PXKXPXdX{.J.F.F.S.F.v.D c.      N.PXPX6XUXUXUX",
"UXUXUX6XPXPXN.  L < eXPXHXHXHXHXIXIXHXHXvXbXxXtX8X8X8XyXtXvXbX/.8.0.0.q.7.U.3   /.PXNXKXPXPXHXNXNXNXPXfX} <.      N.PXPX6XUXUXUX",
"UXUXUX6XPXPXN.  L < 8XIXrXrXxXxXxXxXrXrX6XR.N.n.k.j.l.m.Y.8XrX7Xp.w.7.7.u.R.<   !.LXAXJXPXLXKXKXLXKXPXqXD T       N.PXPX6XUXUXUX",
"UXUXUX6XPXPXN.  L < ^.xX!./././././.U.N.N.I.Y.!.^.^.R.I.B.B.(.eXpX&X].&XqX!.,   !.LXAXJXKXLXKXLXLXKXPX0XZ T       N.PXPX6XUXUXUX",
"UXUXUX6XPXPXN.  L < Y.6XM.N.N.N.N.m.l./ N.6XxXIXPXPXHXrX!.h.l.`.bXnXnXmXbX!.:   !.LXNXJXLXLXJXJXLXJXKX0XZ @.      N.PXPX6XUXUXUX",
"UXUXUX6XPXPXN.  L < U.9XN.I.I.I.N.l.h.Y.eXmXIXHXcXxXNXHXxX/.k.l./.bXiXbXiXU.>   !.LXNXHXLXLXJXJXJXKXLX0XB R       N.PXPX6XUXUXUX",
"UXUXUX6XPXPXN.  L < U.8XN.I.Y.I.B.l.m.eXIXHX/.~ z z ~ !.vXvX/.! B.eXxXHXbX!.:   W.LXAXJXLXLXKXJXJXKXLX0XB R       N.PXPX6XUXUXUX",
"UXUXUX6XPXPXN.  L < U.9XN.I.I.N.l.k./.HXIX^.c +     + c !.HXxXN.k./.xXPXnX`.:   W.LXAXJXLXLXKXJXJXJXKX0XB R       N.PXPX6XUXUXUX",
"UXUXUX6XPXPXN.  L < U.9XN.I.I.B.h.N.eXIX9XL & q [ ' q & J 6XbX Xn.M.rXIXvX7X<   R.JXNXJXJXJXJXJXJXJXKX0XB R       N.PXPX6XUXUXUX",
"UXUXUX6XPXPXN.  L < U.6XM.N.I.B.! Y.xXHXT.l - ) e.e.) & 1 Z.bXeXm.h.6XxXeXU.:   ~.JXNXJXJXJXJXJXJXJXKX0XB R       N.PXPX6XUXUXUX",
"UXUXUX6XPXPXN.  L < U.6XM.N.I.m.~ I.xXHXY.l ; [ r.r.[ 0 l Z.bXeXn.E I._.W.l.# X ~.LXNXJXJXJXJXJXJXJXKX0XB R       N.PXPX6XUXUXUX",
"UXUXUX6XPXPXN.  L < U.6XM.N.N.m.~ N.tXHX(.l & h 9.9.) 0 G W.bX9Xl.L h.M.k.E $ . ~.JXAXJXJXJXJXJXJXJXJX#XB R       N.PXPX6XUXUXUX",
"UXUXUX6XPXPXN.  L < Y.6XB.N.N.m.! k.^.HXiXk.2 - 0 0 - y V.fXbXU.W I 2.n.j.P $ . Q.JXAXJXJXJXJXJXJXJXKX0XB R       N.PXPX6XUXUXUX",
"UXUXUX6XPXPXN.  L < Y.6XM.N.N.M.k.! B.rXPXtX! < % % 1 h.eXIXeXl.U / k.m.k.P $ X ~.JXAXJXJXJXJXJXJXFXJX0XB R       N.PXPX6XUXUXUX",
"UXUXUX6XPXPXN.  L < Y.6XM.N.N.N.M.! W U.rXNXrX^.L.C.`.mXIXuXZ.U ^ x.k.n.k.P $ . ~.KXAXSXJXJXFXJXJXZXJX#XB R       N.PXPX6XUXUXUX",
"UXUXUX6XPXPXN.  L < I.^.k.m.m.m.m.! P W B.8XvXHXmXIX%X4. .S r w r K ~ x.x.Y $ X ~.JXMXZXJXJXFXFXSXFXJX#XB R       N.PXPX6XUXUXUX",
"UXUXUX6XPXPXN.  L < U.6XN.I.I.I.N.N.m.W ! I.7XeXiXmX..= 9 p p d i i 2.M.$.J @ . ~.JXMXSXJXJXFXFXZXZXJX#XB R       N.PXPX6XUXUXUX",
"UXUXUX6XPXPXN.  L < 9XHXeXeXeXeXeXtXeX6X/.U.I.N.N.T.k i '.pX1XjX{ q `.6.q 9 O $ ~.JXMXZXJXJXFXZXZXZXJXXXB R       N.PXPX6XUXUXUX",
"UXUXUX6XPXPXN.  L < 8XPXeXtXrXrXrXrXrXrX8X^.T.I.I.T.k p 3XlXjXPX3.q ).#.u y.f O R.DXAXZXJXJXZXZXZXZXJXXXB R       N.PXPX6XUXUXUX",
"UXUXUX6XPXPXN.  L < l.N.! ! h.h.h.h.h.l.l.h.h.h.l.z.g p a.=X*XlX>.6 W t a GX'.p :.|.NXSXSXZXZXZXZXZXJXXXB R       N.PXPX6XUXUXUX",
"UXUXUX6XPXPXN.  L P                                 X ( s.=X*XlX,.= 6 = q <XGX.X7 k NXJXSXZXZXZXZXZXJXXXA &.      N.PXPX6XUXUXUX",
"UXUXUX6XPXPXN.  v L b b v v v v v b l * 2 b c x c z w d a.=X*XjX'.,.>.,.5.+XjXjX5.j | aXPXZXZXZXSXSXJXXXB %.      N.PXPX6XUXUXUX",
"UXUXUX6XPXPXN.      P 8XtXtXeXeXeXtX8Xo.H.LXHXNXHXIX .9 a.>X+X3XjXlXlXGXlX;Xd.2XPX5.8 4.pXSXZXZXZXZXJXXXB %.      N.PXPX6XUXUXUX",
"UXUXUX6XPXPXN.      . # # # # # # # : G H.PXHXNXKXPX..7 d.2Xd.+X*X-X-X;X;X-X*X-X;XGX1Xq ..LXFXCXCXZXFXXXB %.      N.PXPX6XUXUXUX",
"UXUXUX6XPXPXN.                      X M [.PXJXNXKXPX{.j j t.5X>X=X>X>X,X,X:X*X;X5X<X .j 4.NXAXBXZXZXFXXXB $.      N.PXPX6XUXUXUX",
"UXUXUX6XPXPXN.                      o m |.PXPXJXLXPXJXP.- ( @Xi.u.i.i.i.@X*X;X2X<X_ = E.cXfXMXVXZXZXZXoXB R       N.PXPX6XUXUXUX",
"UXUXUX6XPXPXN.                      o m |.PXPXKXLXJXPXAXP.s = 5 5 5 5 - s s.lX-X8 r E.qXdXdXAXVXCXCXZXXXB @.      N.PXPX6XUXUXUX",
"UXUXUX6XPXPXN.                      o m }.PXPXJXLXJXLXPXZXJ.F F K K +.; 6 ,Xg._ r c.gXdXdXMXBXCXCXVXSXXXB T       N.PXPX6XUXUXUX",
"UXUXUX6XPXPXN.                      o C }.PXPXJXJXKXLXJXJXKXLXKXHXIXPX .8 s.] - E.gXaXdXkXBXBXCXCXVXZXXXB T       N.PXPX6XUXUXUX",
"UXUXUX6XPXPXN.                      o C |.PXPXJXLXKXLXJXKXKXJXNXNXJXPX .= 7 ` E.qXfXdXhXBXCXVXVXVXVXZXoXB v.      N.PXPX6XUXUXUX",
"UXUXUX6XPXPXN.                      o C }.PXPXJXJXJXJXJXJXJXSXSXZXZXKX.X:.S K.tXaXsXMXBXVXCXVXVXVXCXZXoXB %.      N.PXPX6XUXUXUX",
"UXUXUX6XPXPXN.                      o m }.PXPXJXJXJXJXJXJXJXJXKXJXZXZXKXKXHXfXqXaXkXBXCXCXCXBXVXCXCXZXoXn R       N.PXPX6XUXUXUX",
"UXUXUX6XPXPXN.                      o C }.PXPXJXKXJXJXJXJXJXJXJXJXJXZXJXKXJXSXVXVXCXCXCXBXBXBXBXBXBXCXoXn %.      N.PXPX6XUXUXUX",
"UXUXUX6XPXPXN.                      o m 0XPXPXPXPXPXPXPXPXPXPXPXPXPXPXPXPXPXPXPXPXPXPXLXLXLXLXLXLXLXLXqXC $.      N.PXPX6XUXUXUX",
"UXUXUX6XPXPXN.                      o F  XHXAXcXcXMXcXgXcXgXdXdXdXdXdXdXdXsXsXsXsXsXsXsXsXsXsXsXsXsXsX{.n $.      N.PXPX6XUXUXUX",
"UXUXUX6XPXPXN.                      @ =.A.S.-.=.=.=.*.O.*.o.o.o.} } } } D D Z V V V V V A A A A A A n t y G.      N.PXPX6XUXUXUX",
"UXUXUX6XPXPXN.                      X e e e &.c.%.c.G.G.%.$.$.$.$.$.$.Q R R R R R T R v.$.N R T T v.Q N j.G.      N.PXPX6XUXUXUX",
"UXUXUX6XPXPXN.                                                                                                    N.PXPX6XUXUXUX",
"UXUXUX6XPXPXN.N.                                                                                                N.N.PXPX6XUXUXUX",
"UXUXUX6XPXPXPXN.N.                                                                                            N.N.PXPXPX6XUXUXUX",
"UXUXUX6XPXPXPXPXN.N.N.N.N.N.N.N.N.N.N.N.N.N.N.N.N.N.N.N.N.N.N.N.N.N.N.N.N.N.N.N.N.N.N.N.N.N.N.N.N.N.N.N.N.N.N.N.PXPXPXPX6XUXUXUX",
"UXUXUX6X6XPXPXPXPXPXPXPXPXPXPXPXPXPXPXPXPXPXPXPXPXPXPXPXPXPXPXPXPXPXPXPXPXPXPXPXPXPXPXPXPXPXPXPXPXPXPXPXPXPXPXPXPXPXPX6X6XUXUXUX",
"UXUXUXPX6X6XPXPXPXPXPXPXPXPXPXPXPXPXPXPXPXPXPXPXPXPXPXPXPXPXPXPXPXPXPXPXPXPXPXPXPXPXPXPXPXPXPXPXPXPXPXPXPXPXPXPXPXPX6X6XPXUXUXUX",
"UXUXUXPXPX6X6X6X6X6X6X6X6X6X6X6X6X6X6X6X6X6X6X6X6X6X6X6X6X6X6X6X6X6X6X6X6X6X6X6X6X6X6X6X6X6X6X6X6X6X6X6X6X6X6X6X6X6X6XPXPXUXUXUX",
"UXUXUXUXUXUXUXUXUXUXUXUXUXUXUXUXUXUXUXUXUXUXUXUXUXUXUXUXUXUXUXUXUXUXUXUXUXUXUXUXUXUXUXUXUXUXUXUXUXUXUXUXUXUXUXUXUXUXUXUXUXUXUXUX",
"UXUXUXUXUXUXUXUXUXUXUXUXUXUXUXUXUXUXUXUXUXUXUXUXUXUXUXUXUXUXUXUXUXUXUXUXUXUXUXUXUXUXUXUXUXUXUXUXUXUXUXUXUXUXUXUXUXUXUXUXUXUXUXUX",
"UXUXUXUXUXUXUXUXUXUXUXUXUXUXUXUXUXUXUXUXUXUXUXUXUXUXUXUXUXUXUXUXUXUXUXUXUXUXUXUXUXUXUXUXUXUXUXUXUXUXUXUXUXUXUXUXUXUXUXUXUXUXUXUX"
};
