/* XPM */
static char * xpm_horiz_zoom_in32_xpm[] = {
"32 32 295 2",
"  	c None",
". 	c #FFFFFF",
"+ 	c #D0D0D0",
"@ 	c #E3E3E3",
"# 	c #E1E1E1",
"$ 	c #BFBFBF",
"% 	c #F4F4F4",
"& 	c #CFCFCF",
"* 	c #D7D7D7",
"= 	c #D6D5D4",
"- 	c #D4D0CC",
"; 	c #D3CEC9",
"> 	c #D3CEC8",
", 	c #D3CFCA",
"' 	c #D5D2CF",
") 	c #C0C0C0",
"! 	c #B9B9B9",
"~ 	c #1D1D1D",
"{ 	c #000000",
"] 	c #00030B",
"^ 	c #204C7F",
"/ 	c #387ECE",
"( 	c #4191ED",
"_ 	c #4394F1",
": 	c #3E8BE3",
"< 	c #306EB5",
"[ 	c #0F2A49",
"} 	c #424242",
"| 	c #295587",
"1 	c #4D9EFA",
"2 	c #4996F1",
"3 	c #48A0EE",
"4 	c #4FB9FF",
"5 	c #4EBAFF",
"6 	c #4BAEFA",
"7 	c #4899EF",
"8 	c #4B99F5",
"9 	c #4186D5",
"0 	c #0D1C2E",
"a 	c #484848",
"b 	c #3A79C1",
"c 	c #4A96F1",
"d 	c #4AABF4",
"e 	c #4CC6FA",
"f 	c #51D5FF",
"g 	c #030000",
"h 	c #080100",
"i 	c #2A657C",
"j 	c #4DCAFB",
"k 	c #4BBBF7",
"l 	c #499AF0",
"m 	c #4B9CF7",
"n 	c #142A43",
"o 	c #356DAD",
"p 	c #4894EE",
"q 	c #4BB7F7",
"r 	c #4DC9FB",
"s 	c #4DC8FB",
"t 	c #50D3FF",
"u 	c #070100",
"v 	c #0C0D0D",
"w 	c #2C6A84",
"x 	c #4CC8FB",
"y 	c #4CC7FA",
"z 	c #499DF0",
"A 	c #0D1C2D",
"B 	c #484847",
"C 	c #183251",
"D 	c #4C9BF8",
"E 	c #4AB2F5",
"F 	c #4DC7FB",
"G 	c #4CC7FB",
"H 	c #4CC8FA",
"I 	c #4187D6",
"J 	c #454340",
"K 	c #3F81CD",
"L 	c #499EF0",
"M 	c #4CC9FB",
"N 	c #2C6A83",
"O 	c #4CC9FA",
"P 	c #4CCAFA",
"Q 	c #4CCCFA",
"R 	c #4BBDF5",
"S 	c #162E4B",
"T 	c #546170",
"U 	c #4996F0",
"V 	c #4BB5F5",
"W 	c #50D6FF",
"X 	c #2C6D83",
"Y 	c #4CCFF9",
"Z 	c #4CD0F9",
"` 	c #4DD1F9",
" .	c #4DD5F9",
"..	c #4899ED",
"+.	c #3267A3",
"@.	c #688AB0",
"#.	c #4892EC",
"$.	c #4DCDFF",
"%.	c #51D8FF",
"&.	c #51D9FF",
"*.	c #50DAFF",
"=.	c #55E8FF",
"-.	c #070000",
";.	c #2E758A",
">.	c #50DFFF",
",.	c #50E0FF",
"'.	c #50E2FF",
").	c #50E3FF",
"!.	c #51E5FF",
"~.	c #49AFF0",
"{.	c #4186D4",
"].	c #6C93BF",
"^.	c #4891EB",
"/.	c #2A6A7C",
"(.	c #090605",
"_.	c #080000",
":.	c #4FC7FF",
"<.	c #448DE1",
"[.	c #010305",
"}.	c #2B7283",
"|.	c #4FC8FF",
"1.	c #458EE2",
"2.	c #000102",
"3.	c #6583A6",
"4.	c #4791EC",
"5.	c #3BA6BB",
"6.	c #2C7382",
"7.	c #2C7482",
"8.	c #2C7481",
"9.	c #2E7B89",
"0.	c #1B4247",
"a.	c #2C7781",
"b.	c #2C7880",
"c.	c #2C7981",
"d.	c #297379",
"e.	c #4CBFF7",
"f.	c #3C7BC4",
"g.	c #515A64",
"h.	c #4A97F3",
"i.	c #4BC6F4",
"j.	c #4DDDF6",
"k.	c #4CDEF6",
"l.	c #4CDFF6",
"m.	c #51EEFF",
"n.	c #4CE5F5",
"o.	c #4CE6F4",
"p.	c #4DE7F5",
"q.	c #4CE8F4",
"r.	c #4CEDF4",
"s.	c #499FEF",
"t.	c #2C5B92",
"u.	c #464441",
"v.	c #3975B9",
"w.	c #49AAF0",
"x.	c #4CE3F5",
"y.	c #4CE4F5",
"z.	c #50F3FF",
"A.	c #2C7B80",
"B.	c #4CEAF3",
"C.	c #4CEAF4",
"D.	c #4DECF3",
"E.	c #4BDEF1",
"F.	c #4C9AF9",
"G.	c #0F2033",
"H.	c #0C1928",
"I.	c #4B99F7",
"J.	c #4BD3F2",
"K.	c #4DE7F4",
"L.	c #4CE8F3",
"M.	c #4CE9F4",
"N.	c #51F8FF",
"O.	c #2C7D80",
"P.	c #4CEEF3",
"Q.	c #4CEFF2",
"R.	c #4DF0F3",
"S.	c #4CF7F2",
"T.	c #49A4F0",
"U.	c #366FB1",
"V.	c #20426A",
"W.	c #4B96F6",
"X.	c #4BDFF2",
"Y.	c #4CEDF3",
"Z.	c #4DEDF3",
"`.	c #51FDFF",
" +	c #2C7F7F",
".+	c #4DF3F1",
"++	c #4CF4F2",
"@+	c #4CFAF1",
"#+	c #4AAAF0",
"$+	c #4C9CF7",
"%+	c #03070C",
"&+	c #264F7D",
"*+	c #4C98FA",
"=+	c #4BCEF1",
"-+	c #4DF9F2",
";+	c #50FFFF",
">+	c #2A7A78",
",+	c #4DFBF1",
"'+	c #4BEFF0",
")+	c #4AA8F2",
"!+	c #4791E6",
"~+	c #4A99F4",
"{+	c #4084D1",
"]+	c #12253B",
"^+	c #4082D1",
"/+	c #4C9CF9",
"(+	c #4AC2F0",
"_+	c #4ED7FF",
":+	c #4ED7FE",
"<+	c #4BCEF5",
"[+	c #4AB2F4",
"}+	c #2A588C",
"|+	c #3268A5",
"1+	c #4A98F2",
"2+	c #3873B7",
"3+	c #0D1B2A",
"4+	c #234776",
"5+	c #3989BA",
"6+	c #4BCAF2",
"7+	c #2B568D",
"8+	c #1B3859",
"9+	c #03060A",
"0+	c #30639F",
"a+	c #4B9BF6",
"b+	c #4084D2",
"c+	c #3E80CB",
"d+	c #020508",
"e+	c #103534",
"f+	c #3BBEB9",
"g+	c #4EFCF7",
"h+	c #54FFFF",
"i+	c #3A77BD",
"j+	c #4997F0",
"k+	c #4895EC",
"l+	c #438BDD",
"m+	c #020407",
"n+	c #267B79",
"o+	c #4FFDF9",
"p+	c #3CC0BD",
"q+	c #103433",
"r+	c #4896EE",
"s+	c #4894EB",
"t+	c #438ADB",
"u+	c #454040",
"v+	c #52FFFF",
"w+	c #4CF5F1",
"x+	c #4FFEFA",
"y+	c #1E6261",
"z+	c #0C2625",
"A+	c #4081D2",
"B+	c #4996EF",
"C+	c #4794EA",
"D+	c #438ADC",
"E+	c #71CBC8",
"F+	c #4DF6F2",
"G+	c #51FFFF",
"H+	c #298382",
"I+	c #4289D9",
"J+	c #4895ED",
"K+	c #4794EB",
"L+	c #448BDD",
"M+	c #020507",
"N+	c #5B8584",
"O+	c #1E6260",
"P+	c #267A78",
"Q+	c #133D3C",
"R+	c #000103",
"S+	c #4288D7",
"T+	c #4894EC",
"U+	c #4895EE",
"V+	c #4D5258",
"W+	c #4CF4F0",
"X+	c #030404",
"Y+	c #070F19",
"Z+	c #4793E9",
"`+	c #4996EE",
" @	c #6F98C6",
".@	c #717171",
"+@	c #08101A",
"@@	c #4691E6",
"#@	c #3171BB",
"$@	c #747679",
"%@	c #ECECEC",
"&@	c #484949",
"*@	c #402F2F",
"=@	c #74C8C6",
"-@	c #3FF8F4",
";@	c #41FFFB",
">@	c #483D3D",
",@	c #535E6B",
"'@	c #6E97C5",
")@	c #74777A",
"!@	c #ECECED",
"~@	c #E7E7E7",
"{@	c #CDCDCD",
"                                                                ",
"  . + @ # # # # # # # # # # # # # # # # # # # # # # # # @ + .   ",
"  $ % . & * * * * = - ; > , ' * * * * * * * * * * * * & . % $   ",
"  ) . ! ~ { { { ] ^ / ( _ : < [ { { { { { { { { { { { ~ ! . )   ",
"  ) . } { { { | 1 2 3 4 5 6 7 8 9 0 { { { { { { { { { { } . )   ",
"  ) . a { { b c d e f g h i j k l m n { { { { { { { { { a . )   ",
"  ) . a { o p q r s t u v w x y y z m A { { { { { { { { a . )   ",
"  ) . B C D E x F G t u v w y G G H l I { { { { { { { { a . )   ",
"  ) . J K L M G F x t u v N O P Q Q R 8 S { { { { { { { a . )   ",
"  ) . T U V G x x O W u v X Y Z Z `  ...+.{ { { { { { { a . )   ",
"  ) . @.#.$.W %.&.*.=.-.v ;.>.,.'.).!.~.{.{ { { { { { { a . )   ",
"  ) . ].^./.u u -.-.-.v v (.-._.-.-.g :.<.[.{ { { { { { a . )   ",
"  ) . ].^.}.v v v v v v v v v v v v _.|.1.2.{ { { { { { a . )   ",
"  ) . 3.4.5.6.7.8.8.9.(.v 0.a.a.b.c.d.e.f.{ { { { { { { a . )   ",
"  ) . g.h.i.j.k.l.l.m.-.v b.n.o.p.q.r.s.t.{ { { { { { { a . )   ",
"  ) . u.v.w.x.x.y.n.z.-.v A.B.C.D.D.E.F.G.{ { { { { { { a . )   ",
"  ) . a H.I.J.K.L.M.N.-.v O.P.Q.R.S.T.U.{ { { { { { { { a . )   ",
"  ) . a { V.W.X.Y.Z.`.-.v  +.+++@+#+$+%+{ { { { { { { { a . )   ",
"  ) . a { { &+*+=+-+;+g _.>+,+'+)+!+~+{+{ { { { { { { { a . )   ",
"  ) . a { { { ]+^+/+(+_+:+<+[+*+}+{ |+1+2+{ { { { { { { a . )   ",
"  ) . a { { { { { 3+4+5+6+7+8+9+{ { { 0+a+b+c+d+{ { { { a . )   ",
"  ) . a { { { { { e+f+g+h+{ { { { { { { i+j+k+l+m+{ { { a . )   ",
"  ) . a { { { n+h+o+o+p+q+{ { { { { { { |+k+r+s+t+[.{ { a . )   ",
"  ) . u+e+p+v+w+x+y+z+{ { { { { { { { { { A+k+B+C+D+[.{ a . )   ",
"  ) . E+o+F+F+F+w+v+G+G+G+G+G+G+G+G+G+G+G+H+I+C+J+K+L+M+a . )   ",
"  ) . N+p+o+F+F+x+O+n+n+n+n+n+n+n+n+n+n+P+Q+R+S+T+U+k+I+V+. )   ",
"  ) . a { e+p+v+W+h+n+{ { { { { { { { { X+{ { Y+Z+K+J+`+ @. )   ",
"  ) . .@{ { { { n+h+W+h+P+{ { { { { { { { { { { +@@@U+#@$@. )   ",
"  $ . %@.@a a a &@*@=@-@;@>@a a a a a a a a a a a ,@'@)@!@. $   ",
"  ~@{@. . . . . . . . . . . . . . . . . . . . . . . . . . {@~@  ",
"    ~@$ ) ) ) ) ) ) ) ) ) ) ) ) ) ) ) ) ) ) ) ) ) ) ) ) $ ~@    ",
"                                                                "};
