/* XPM */
static char *xpm_horiz_zoom_out__[] = {
/* columns rows colors chars-per-pixel */
"32 32 223 2",
"   c black",
".  c #004000810101",
"X  c #0081012C01ED",
"o  c #0101022D03AF",
"O  c #0182030304C5",
"+  c #01C2038405A6",
"@  c #060606870687",
"#  c #028305050848",
"$  c #02C3058608C9",
"%  c #034307070B4B",
"&  c #03C407C80CAD",
"*  c #0485098A0F0F",
"=  c #0C0C0D0D0D0D",
"-  c #04C509CA0F90",
";  c #05C60BCC12D3",
":  c #06060C4C1394",
">  c #06060C8D13D4",
",  c #06C70E0E1656",
"<  c #07470F0F17D8",
"1  c #07470FD018D9",
"2  c #0A4A15D622E3",
"3  c #0B4B17572525",
"4  c #0BCC18992767",
"5  c #0CCD1A1A29EA",
"6  c #0FD020E13434",
"7  c #1010216134B5",
"8  c #115123E439BA",
"9  c #119224643A3A",
"0  c #125226263C7C",
"q  c #13533EFF3C7C",
"w  c #276727672767",
"e  c #15152B6B4505",
"r  c #17D831314E0E",
"t  c #185832725090",
"y  c #1A5A36365656",
"u  c #1A9B37775818",
"i  c #1C1C3A3A5C9C",
"p  c #165642423FC0",
"a  c #21A245056D6D",
"s  c #25654D8D7B7B",
"d  c #26264ECF7D3D",
"f  c #26A77DFE78F9",
"g  c #4ECF4ECF4ECF",
"h  c #4F4F4FD05050",
"j  c #4F8F509051D2",
"k  c #571760606A6A",
"l  c #5A9A67277575",
"z  c #5C5C6AEB7B7B",
"x  c #5D9D6D6D7F7F",
"c  c #763676367636",
"v  c #28A954148585",
"b  c #292954D58707",
"n  c #29AA56568949",
"m  c #2B2B59998E8E",
"M  c #2BAC5A1A8ECE",
"N  c #2DEE5E9E9656",
"B  c #2E2E5F5F97D7",
"V  c #2C2C6D6D8383",
"C  c #2BEC6F6F8303",
"Z  c #2C6C74B48282",
"A  c #2CAD73F48282",
"S  c #2C6C74F58242",
"D  c #2CAD75758242",
"F  c #2CAD76368222",
"G  c #2C6C77B78202",
"H  c #2CAD76F78202",
"J  c #2C6C787881C1",
"K  c #2CAD79598181",
"L  c #2C2C7A3A8141",
"P  c #2C6C77F88202",
"I  c #2F6F61A19ADA",
"U  c #2F2F61A19B5B",
"Y  c #301063239D7D",
"T  c #32326767A424",
"R  c #337369EAA7E7",
"E  c #34B56CACACAC",
"W  c #36366F6FB0B0",
"Q  c #36F77171B474",
"!  c #377772B2B636",
"~  c #38B974B4B9B9",
"^  c #38F97595BA7A",
"/  c #39BA76B6BC7C",
"(  c #3BBC7ABAC2C2",
")  c #3BBC7AFBC302",
"_  c #3CBD7CBCC646",
"`  c #3D3D7E3EC848",
"'  c #3DBE7F1FC9A9",
"]  c #3DFE7FBFCACA",
"[  c #3BFCA2E2BBFB",
"{  c #39FABCFCB575",
"}  c #7C3C82C28A0A",
"|  c #7C7C83438B0B",
" . c #6C2C8B0BAEAE",
".. c #6EEF90D0B7B7",
"X. c #3DFE8000CACA",
"o. c #3E7E8080CBCB",
"O. c #3EBF8101CD0C",
"+. c #3EFF8181CD8D",
"@. c #42228808D7F7",
"#. c #42428888D8D8",
"$. c #42828949D9D9",
"%. c #44448C0CDE1D",
"&. c #72F39939C4C4",
"*. c #73139999C585",
"=. c #44848D4DE060",
"-. c #473292BDE8FD",
";. c #47C893D3EAAA",
":. c #47C89414EAEA",
">. c #48339494EBC0",
",. c #4873956AED17",
"<. c #48C99595ED2C",
"1. c #488895D5EDED",
"2. c #48DE9616EE18",
"3. c #48F99676EEE6",
"4. c #492996D6EF8F",
"5. c #49749742EFEF",
"6. c #49499E1EEFAF",
"7. c #49CA97D7F0D0",
"8. c #49CA98B8F110",
"9. c #4A1A9848F1A1",
"0. c #49099C9CF0B0",
"q. c #49CA9E5EF0F0",
"w. c #4A0A9E5EF231",
"e. c #4A4A9E1EF272",
"r. c #49CAA3E3F02F",
"t. c #4989A323F130",
"y. c #4A4AA141F292",
"u. c #4A0AA9A9F130",
"i. c #4A0AA929F3F3",
"p. c #4A8AAD2DF130",
"a. c #4A4AAD2DF1B1",
"s. c #4B0BACACF5B5",
"d. c #4B4BADADF635",
"f. c #4B0BAF6FF676",
"g. c #4A8AB131F171",
"h. c #4A0AB272F0F0",
"j. c #4A8AB1B1F2B2",
"k. c #4B0BB272F6B6",
"l. c #4B4BB5B5F676",
"z. c #4B8BB636F7B7",
"x. c #4ACBB9F9F1B1",
"c. c #4B4BBC3CF3F3",
"v. c #4B4BB9F9F474",
"b. c #4BCCB9F9F837",
"n. c #4B8BBCBCF676",
"m. c #4A0AC1C1EFAF",
"M. c #4A0AC706EE6E",
"N. c #4ACBC807F0B0",
"B. c #4B8BC605F4F4",
"V. c #4ACBC8C8F0B0",
"C. c #4B8BCCCCF231",
"Z. c #4BCCCFCFF3B3",
"A. c #4C0CC585F878",
"S. c #4C8CC484FADA",
"D. c #4C8CC585FA7A",
"F. c #4CCDC7C7FBBB",
"G. c #4C8CC8C8FBFB",
"H. c #4D16C891FBFB",
"J. c #4CFDC9B9FBCB",
"K. c #4CF8CB8BFB3A",
"L. c #4D0DCA8AFBBB",
"P. c #4D0DCCB7FB0F",
"I. c #4D2DCDBDFADA",
"U. c #4D0DCECEFAFA",
"Y. c #4D0DCFCFFABA",
"T. c #4C0CD959F373",
"R. c #4C0CDADAF2B2",
"E. c #4C8CE01FF736",
"W. c #4D4DDE9EF777",
"Q. c #4D0DDF5FF7B7",
"!. c #4D38D1D1FA39",
"~. c #4D0DD2D2F9B9",
"^. c #4D0DD3D3F9B9",
"/. c #4C8CD0D0FA7A",
"(. c #4D0DD0D0FABA",
"). c #4CCDD4D4F9B9",
"_. c #4D0DD615F979",
"`. c #4CCDD716F8F8",
"'. c #4D0DD817F8B8",
"]. c #4C8CE0E0F6F6",
"[. c #4D4DE1E1F6F6",
"{. c #4D0DE2A2F676",
"}. c #4CCDE3C3F696",
"|. c #4D0DE5A5F635",
" X c #4CF8E6A6F5F5",
".X c #4D2DE7A7F5B5",
"XX c #4CCDE4C4F6B6",
"oX c #4BCCEAAAF1B1",
"OX c #4D2DEE8EF433",
"+X c #4D2DEFEFF3F3",
"@X c #4CCDE9A9F514",
"#X c #4D38E8BDF5A0",
"$X c #4D4DE9A9F5B5",
"%X c #4D22EAFFF4F4",
"&X c #4D0DEBEBF4F4",
"*X c #4D0DEAAAF575",
"=X c #4D4DECCCF494",
"-X c #4CF8EDEDF489",
";X c #4CCDF1B1F332",
":X c #4CCDF0B0F3B3",
">X c #4D0DF171F3D3",
",X c #4D0DF2F2F332",
"<X c #4D2DF3D3F2F2",
"1X c #4D4DF272F373",
"2X c #4D0DF534F231",
"3X c #4CCDF4F4F2F2",
"4X c #4CCDF5B5F2F2",
"5X c #4D0DF575F373",
"6X c #4D4DF736F2B2",
"7X c #4D0DF837F2B2",
"8X c #4D4DF938F1F1",
"9X c #4D4DFBFBF1F1",
"0X c #79FAFCFCF575",
"qX c #B636B636B636",
"wX c #8A8AE1E1DCDC",
"eX c #9898EFEFEAEA",
"rX c #A6A6FDFDF8F8",
"tX c #CECECECECECE",
"yX c #D5D5D5D5D5D5",
"uX c gray89",
"iX c #E767E767E767",
"pX c #F1F1F1F1F1F1",
"aX c gray100",
/* pixels */
"9X9X9X9X9X9X9X9X9X9X9X9X9X9X9X9X9X9X9X9X9X9X9X9X9X9X9X9X9X9X9X9X",
"9XrXyXuXuXuXuXuXuXuXuXuXuXuXuXuXuXuXuXuXuXuXuXuXuXuXuXuXuXyXrX9X",
"9XwXpXaXtXtXtXtXtXtXtXtXtXtXtXtXtXtXtXtXtXtXtXtXtXtXtXtXaXpXwX9X",
"9XwXaXqXw       2 b O.-.,.=.! u +                     w qXaXwX9X",
"9XwXaXg     # v <.8.t.d.f.i.0.9.` 9                     g aXwX9X",
"9XwXaXg   % Q 7.s.S.H.H.H.H.H.b.e.:.r                   g aXwX9X",
"9XwXaXg X T 4.z.H.H.H.H.H.H.G.H.S.y.;.8                 g aXwX9X",
"9XwXaXg y 9.k.H.H.H.H.H.H.H.H.H.G.D.w.' $               g aXwX9X",
"9XwXaXj ) y.F.H.H.H.H.H.J.J.L.K.P.I.n.7.t               g aXwX9X",
"9XwXaXx -.l.H.H.J.J.K.P.I.I.Y./.!.!.~.6.Y               g aXwX9X",
"9XwXaX..>.A.K.P.I.U.Y.(.!.~.^.)._.`.'.j.X.+             g aXwX9X",
"9XwXaX*.<.V = = = = = = = = = = = = = v.@.*             g aXwX9X",
"9XwXaX*.<.C = = = = = = = = = = = = = c.@.&             g aXwX9X",
"9XwXaX .:.[ A Z S D F F H G P J K K L x./ .             g aXwX9X",
"9XwXaXl -.B.W.Q.E.].[.}.XX|. X.X#X$X%Xr.m               g aXwX9X",
"9XwXaXh W a.{.}.XX X X.X#X@X%X&X=X-XR.7.0               g aXwX9X",
"9XwXaXg 6 >.Z.#X@X*X%X=X-XOX+X:X>X;Xu.R X               g aXwX9X",
"9XwXaXg   a 8.T.-XOX+X>X1X<X<X5X2Xg.2.3                 g aXwX9X",
"9XwXaXg   X d 5.C.,X3X4X6X7X8XoXp.%.9.( -               g aXwX9X",
"9XwXaXg       e _ q.m.N.V.M.h.>.n & Y 5.E O .           g aXwX9X",
"9XwXaXg         o 7 s N U M i <     o B 9.o.^ 1         g aXwX9X",
"9XwXaXg                               o ^ 7.3.+.<       g aXwX9X",
"9XwXaXg       q                         I 3.3.2.o.,     g aXwX9X",
"9XwXaXg     f q                         > ' 3.4.,.o.,   g aXwX9X",
"9XwXaXg f { f f f f f f f f f f f f f f q ; ' ,.2.1.+.< g aXwX9X",
"9XwXaXg 9X9X9X9X9X9X9X9X9X9X9X9X9X9X9X9Xf   : ' 2.3.3.] k aXwX9X",
"9XwXaXg @ p f                                 4 $.1.1.4.&.aXwX9X",
"9XwXaXc       f                                 5 #.3.~ } aXwX9X",
"9XwXaXiXc g g g g g g g g g g g g g g g g g g g g z &.| iXaXwX9X",
"9XeXyXaXaXaXaXaXaXaXaXaXaXaXaXaXaXaXaXaXaXaXaXaXaXaXaXaXaXyXeX9X",
"9X0XeXwXwXwXwXwXwXwXwXwXwXwXwXwXwXwXwXwXwXwXwXwXwXwXwXwXwXeX0X9X",
"9X9X9X9X9X9X9X9X9X9X9X9X9X9X9X9X9X9X9X9X9X9X9X9X9X9X9X9X9X9X9X9X"
};
