/* XPM */
static char * xpm_vert_zoom_in32_xpm[] = {
"32 32 294 2",
"  	c None",
". 	c #FFFFFF",
"+ 	c #D0D0D0",
"@ 	c #E3E3E3",
"# 	c #E1E1E1",
"$ 	c #BFBFBF",
"% 	c #F4F4F4",
"& 	c #CFCFCF",
"* 	c #D7D7D7",
"= 	c #D6D5D4",
"- 	c #D4D0CC",
"; 	c #D3CEC9",
"> 	c #D3CEC8",
", 	c #D3CFCA",
"' 	c #D5D2CF",
") 	c #D8D8D8",
"! 	c #D2C7C7",
"~ 	c #D5D0D0",
"{ 	c #C0C0C0",
"] 	c #B9B9B9",
"^ 	c #1D1D1D",
"/ 	c #000000",
"( 	c #00030B",
"_ 	c #204C7F",
": 	c #387ECE",
"< 	c #4191ED",
"[ 	c #4394F1",
"} 	c #3E8BE3",
"| 	c #306EB5",
"1 	c #0F2A49",
"2 	c #4DFFFF",
"3 	c #1C706E",
"4 	c #424242",
"5 	c #295587",
"6 	c #4D9EFA",
"7 	c #4996F1",
"8 	c #48A0EE",
"9 	c #4FB9FF",
"0 	c #4EBAFF",
"a 	c #4BAEFA",
"b 	c #4899EF",
"c 	c #4B99F5",
"d 	c #4186D5",
"e 	c #0D1C2E",
"f 	c #267B79",
"g 	c #4CF5F1",
"h 	c #54FFFF",
"i 	c #484848",
"j 	c #3A79C1",
"k 	c #4A96F1",
"l 	c #4AABF4",
"m 	c #4CC6FA",
"n 	c #51D5FF",
"o 	c #030000",
"p 	c #080100",
"q 	c #2A657C",
"r 	c #4DCAFB",
"s 	c #4BBBF7",
"t 	c #499AF0",
"u 	c #4B9CF7",
"v 	c #142A43",
"w 	c #4DF6F2",
"x 	c #298381",
"y 	c #356DAD",
"z 	c #4894EE",
"A 	c #4BB7F7",
"B 	c #4DC9FB",
"C 	c #4DC8FB",
"D 	c #50D3FF",
"E 	c #070100",
"F 	c #0C0D0D",
"G 	c #2C6A84",
"H 	c #4CC8FB",
"I 	c #4CC7FA",
"J 	c #499DF0",
"K 	c #0D1C2D",
"L 	c #3CC0BD",
"M 	c #484847",
"N 	c #183251",
"O 	c #4C9BF8",
"P 	c #4AB2F5",
"Q 	c #4DC7FB",
"R 	c #4CC7FB",
"S 	c #4CC8FA",
"T 	c #4187D6",
"U 	c #4FFDF9",
"V 	c #103534",
"W 	c #454340",
"X 	c #3F81CD",
"Y 	c #499EF0",
"Z 	c #4CC9FB",
"` 	c #2C6A83",
" .	c #4CC9FA",
"..	c #4CCAFA",
"+.	c #4CCCFA",
"@.	c #4BBDF5",
"#.	c #162E4B",
"$.	c #37B0AD",
"%.	c #237270",
"&.	c #484949",
"*.	c #546170",
"=.	c #4996F0",
"-.	c #4BB5F5",
";.	c #50D6FF",
">.	c #2C6D83",
",.	c #4CCFF9",
"'.	c #4CD0F9",
").	c #4DD1F9",
"!.	c #4DD5F9",
"~.	c #4899ED",
"{.	c #2F5F9C",
"].	c #3ABDB8",
"^.	c #0C2625",
"/.	c #51FFFF",
"(.	c #216A68",
"_.	c #402F2F",
":.	c #688AB0",
"<.	c #4892EC",
"[.	c #4DCDFF",
"}.	c #51D8FF",
"|.	c #51D9FF",
"1.	c #50DAFF",
"2.	c #55E8FF",
"3.	c #070000",
"4.	c #2E758A",
"5.	c #50DFFF",
"6.	c #50E0FF",
"7.	c #50E2FF",
"8.	c #50E3FF",
"9.	c #51E5FF",
"0.	c #49AFF0",
"a.	c #429BD5",
"b.	c #4EFAF5",
"c.	c #4CF4F0",
"d.	c #74C8C6",
"e.	c #6C93BF",
"f.	c #4891EB",
"g.	c #2A6A7C",
"h.	c #090605",
"i.	c #080000",
"j.	c #4FC7FF",
"k.	c #4AC4EE",
"l.	c #3FF8F4",
"m.	c #2B7283",
"n.	c #4FC8FF",
"o.	c #48AAE9",
"p.	c #288280",
"q.	c #103433",
"r.	c #459E9C",
"s.	c #6583A6",
"t.	c #4791EC",
"u.	c #3BA6BB",
"v.	c #2C7382",
"w.	c #2C7482",
"x.	c #2C7481",
"y.	c #2E7B89",
"z.	c #1B4247",
"A.	c #2C7781",
"B.	c #2C7880",
"C.	c #2C7981",
"D.	c #297379",
"E.	c #4CBFF7",
"F.	c #3C7BC4",
"G.	c #515A64",
"H.	c #4A97F3",
"I.	c #4BC6F4",
"J.	c #4DDDF6",
"K.	c #4CDEF6",
"L.	c #4CDFF6",
"M.	c #51EEFF",
"N.	c #4CE5F5",
"O.	c #4CE6F4",
"P.	c #4DE7F5",
"Q.	c #4CE8F4",
"R.	c #4CEDF4",
"S.	c #499FEF",
"T.	c #2C5B92",
"U.	c #464441",
"V.	c #3975B9",
"W.	c #49AAF0",
"X.	c #4CE3F5",
"Y.	c #4CE4F5",
"Z.	c #50F3FF",
"`.	c #2C7B80",
" +	c #4CEAF3",
".+	c #4CEAF4",
"++	c #4DECF3",
"@+	c #4BDEF1",
"#+	c #4C9AF9",
"$+	c #0F2033",
"%+	c #0C1928",
"&+	c #4B99F7",
"*+	c #4BD3F2",
"=+	c #4DE7F4",
"-+	c #4CE8F3",
";+	c #4CE9F4",
">+	c #51F8FF",
",+	c #2C7D80",
"'+	c #4CEEF3",
")+	c #4CEFF2",
"!+	c #4DF0F3",
"~+	c #4CF7F2",
"{+	c #49A4F0",
"]+	c #366FB1",
"^+	c #20426A",
"/+	c #4B96F6",
"(+	c #4BDFF2",
"_+	c #4CEDF3",
":+	c #4DEDF3",
"<+	c #51FDFF",
"[+	c #2C7F7F",
"}+	c #4DF3F1",
"|+	c #4CF4F2",
"1+	c #4CFAF1",
"2+	c #4AAAF0",
"3+	c #4C9CF7",
"4+	c #03070C",
"5+	c #264F7D",
"6+	c #4C98FA",
"7+	c #4BCEF1",
"8+	c #4DF9F2",
"9+	c #50FFFF",
"0+	c #2A7A78",
"a+	c #4DFBF1",
"b+	c #4BEFF0",
"c+	c #4AA8F2",
"d+	c #4791E6",
"e+	c #4A99F4",
"f+	c #4084D1",
"g+	c #12253B",
"h+	c #4082D1",
"i+	c #4C9CF9",
"j+	c #4AC2F0",
"k+	c #4ED7FF",
"l+	c #4ED7FE",
"m+	c #4BCEF5",
"n+	c #4AB2F4",
"o+	c #2A588C",
"p+	c #3268A5",
"q+	c #4A98F2",
"r+	c #3873B7",
"s+	c #0D1B2A",
"t+	c #254E7D",
"u+	c #2F609A",
"v+	c #30649F",
"w+	c #2D5C92",
"x+	c #1B3859",
"y+	c #03060A",
"z+	c #30639F",
"A+	c #4B9BF6",
"B+	c #4084D2",
"C+	c #3E80CB",
"D+	c #57FFFF",
"E+	c #3A77BD",
"F+	c #4997F0",
"G+	c #4895EC",
"H+	c #448CDE",
"I+	c #3977BC",
"J+	c #4896EE",
"K+	c #4894EB",
"L+	c #438ADB",
"M+	c #010305",
"N+	c #010203",
"O+	c #4289DA",
"P+	c #4996EF",
"Q+	c #4794EA",
"R+	c #438ADC",
"S+	c #000102",
"T+	c #4289D9",
"U+	c #4895ED",
"V+	c #4794EB",
"W+	c #448BDD",
"X+	c #020507",
"Y+	c #000103",
"Z+	c #4288D7",
"`+	c #4894EC",
" @	c #4895EE",
".@	c #4D5258",
"+@	c #070F19",
"@@	c #4793E9",
"#@	c #4996EE",
"$@	c #6F98C6",
"%@	c #717171",
"&@	c #08101A",
"*@	c #4691E6",
"=@	c #3171BB",
"-@	c #747679",
";@	c #ECECEC",
">@	c #535E6B",
",@	c #6E97C5",
"'@	c #74777A",
")@	c #ECECED",
"!@	c #E7E7E7",
"~@	c #CDCDCD",
"                                                                ",
"  . + @ # # # # # # # # # # # # # # # # # # # # # # # # @ + .   ",
"  $ % . & * * * * = - ; > , ' * * * * * * * * ) ! ~ * & . % $   ",
"  { . ] ^ / / / ( _ : < [ } | 1 / / / / / / / / 2 3 / ^ ] . {   ",
"  { . 4 / / / 5 6 7 8 9 0 a b c d e / / / / / f g h / / 4 . {   ",
"  { . i / / j k l m n o p q r s t u v / / / / h w g x / i . {   ",
"  { . i / y z A B C D E F G H I I J u K / / x g w w L / i . {   ",
"  { . M N O P H Q R D E F G I R R S t T / / L w w w U V i . {   ",
"  { . W X Y Z R Q H D E F `  ...+.+.@.c #.V U $.U $.U %.&.. {   ",
"  { . *.=.-.R H H  .;.E F >.,.'.'.).!.~.{.].U ^./.(.h h _.. {   ",
"  { . :.<.[.;.}.|.1.2.3.F 4.5.6.7.8.9.0.a.b.L / /.f f c.d.. {   ",
"  { . e.f.g.E E 3.3.3.F F h.3.i.3.3.o j.k.U V / /.f / h l.. {   ",
"  { . e.f.m.F F F F F F F F F F F F i.n.o.p./ / /.f / q.r.. {   ",
"  { . s.t.u.v.w.x.x.y.h.F z.A.A.B.C.D.E.F./ / / /.f / / i . {   ",
"  { . G.H.I.J.K.L.L.M.3.F B.N.O.P.Q.R.S.T./ / / /.f / / i . {   ",
"  { . U.V.W.X.X.Y.N.Z.3.F `. +.+++++@+#+$+/ / / /.f / / i . {   ",
"  { . i %+&+*+=+-+;+>+3.F ,+'+)+!+~+{+]+/ / / / /.f / / i . {   ",
"  { . i / ^+/+(+_+:+<+3.F [+}+|+1+2+3+4+/ / / / /.f / / i . {   ",
"  { . i / / 5+6+7+8+9+o i.0+a+b+c+d+e+f+/ / / / /.f / / i . {   ",
"  { . i / / / g+h+i+j+k+l+m+n+6+o+/ p+q+r+/ / / /.f / / i . {   ",
"  { . i / / / / / s+t+u+v+w+x+y+/ / / z+A+B+C+/ D+p./ / i . {   ",
"  { . i / / / / / / / / / / / / / / / / E+F+G+H+/ / / / i . {   ",
"  { . i / / / / / / / / / / / / / / / / I+G+J+K+L+M+/ / i . {   ",
"  { . i / / / / / / / / / / / / / / / / N+O+G+P+Q+R+M+/ i . {   ",
"  { . i / / / / / / / / / / / / / / / / / S+T+Q+U+V+W+X+i . {   ",
"  { . i / / / / / / / / / / / / / / / / / / Y+Z+`+ @G+T+.@. {   ",
"  { . i / / / / / / / / / / / / / / / / / / / +@@@V+U+#@$@. {   ",
"  { . %@/ / / / / / / / / / / / / / / / / / / / &@*@ @=@-@. {   ",
"  $ . ;@%@i i i i i i i i i i i i i i i i i i i i >@,@'@)@. $   ",
"  !@~@. . . . . . . . . . . . . . . . . . . . . . . . . . ~@!@  ",
"    !@$ { { { { { { { { { { { { { { { { { { { { { { { { $ !@    ",
"                                                                "};
