/* XPM */
static char * xpm_vert_zoom_in_xpm[] = {
"64 64 352 2",
"  	c None",
". 	c #FFFFFF",
"+ 	c #C7C7C7",
"@ 	c #9D9D9D",
"# 	c #000000",
"$ 	c #070E17",
"% 	c #1C3A5C",
"& 	c #30629C",
"* 	c #3D7EC8",
"= 	c #458EE1",
"- 	c #4895EC",
"; 	c #4996EE",
"> 	c #4690E4",
", 	c #3E7FCA",
"' 	c #3165A0",
") 	c #1F4167",
"! 	c #08121D",
"~ 	c #4DF6F2",
"{ 	c #21456E",
"] 	c #3C7BC4",
"^ 	c #458FE3",
"/ 	c #4690E5",
"( 	c #4792E8",
"_ 	c #4793EA",
": 	c #4894EB",
"< 	c #4691E6",
"[ 	c #4084D1",
"} 	c #224771",
"| 	c #03060A",
"1 	c #448CDE",
"2 	c #4A98F1",
"3 	c #4997F0",
"4 	c #4895ED",
"5 	c #4288D8",
"6 	c #1E3F64",
"7 	c #04080D",
"8 	c #0A1421",
"9 	c #3670B2",
"0 	c #4996EF",
"a 	c #4A9CF1",
"b 	c #4AAAF2",
"c 	c #4BB6F6",
"d 	c #4CC0F9",
"e 	c #4CC4FA",
"f 	c #4CC7FA",
"g 	c #4BC4FA",
"h 	c #4CBFF9",
"i 	c #4AB7F6",
"j 	c #49A9F1",
"k 	c #499BF1",
"l 	c #3874B9",
"m 	c #0A1522",
"n 	c #0E1D2F",
"o 	c #4084D2",
"p 	c #4AA0F2",
"q 	c #4CC8FB",
"r 	c #4DC8FB",
"s 	c #4DC7FB",
"t 	c #0C0D0D",
"u 	c #4AB5F5",
"v 	c #4289D9",
"w 	c #0D1C2C",
"x 	c #0D1C2D",
"y 	c #438BDD",
"z 	c #4AB0F5",
"A 	c #4BB0F6",
"B 	c #458DE0",
"C 	c #0D1B2B",
"D 	c #09131F",
"E 	c #4083D0",
"F 	c #4A99F1",
"G 	c #4BB9F7",
"H 	c #4BB8F7",
"I 	c #020508",
"J 	c #356EAE",
"K 	c #4CBCF8",
"L 	c #03070C",
"M 	c #4BB8F6",
"N 	c #4CC7FB",
"O 	c #4AB8F6",
"P 	c #1F3F65",
"Q 	c #08101A",
"R 	c #4389DA",
"S 	c #4AAFF5",
"T 	c #4CC9FB",
"U 	c #4DC9FB",
"V 	c #4DCAFA",
"W 	c #4AB0F3",
"X 	c #0B1623",
"Y 	c #20436A",
"Z 	c #4A9EF2",
"` 	c #4CC6FA",
" .	c #4CCAFB",
"..	c #4CCAFA",
"+.	c #4DCCFB",
"@.	c #4DCBFB",
"#.	c #4DCCFA",
"$.	c #4CCAF9",
"%.	c #4A9EF1",
"&.	c #264F7E",
"*.	c #3A77BD",
"=.	c #4AB5F3",
"-.	c #4DCAFB",
";.	c #4DCBFA",
">.	c #4DCDFA",
",.	c #4CCEFA",
"'.	c #4DCEFA",
").	c #4DCFFA",
"!.	c #4AB9F2",
"~.	c #3873B7",
"{.	c #0F2033",
"].	c #438ADC",
"^.	c #4CCFFA",
"/.	c #4DCFF9",
"(.	c #4DD0FA",
"_.	c #4DD0F9",
":.	c #4DD2F9",
"<.	c #4CCFF8",
"[.	c #112337",
"}.	c #2C5A8F",
"|.	c #49AEF0",
"1.	c #4CCBFB",
"2.	c #4CCBFA",
"3.	c #4CD0F9",
"4.	c #4CD2F9",
"5.	c #4DD3F9",
"6.	c #4DD4F8",
"7.	c #48B1ED",
"8.	c #204269",
"9.	c #4ABBF2",
"0.	c #4DD1F9",
"a.	c #4CD1F9",
"b.	c #4DD4F9",
"c.	c #4DD5F8",
"d.	c #4CD5F8",
"e.	c #4DD6F8",
"f.	c #4CD6F8",
"g.	c #4AC4F1",
"h.	c #2A588B",
"i.	c #4BC4F7",
"j.	c #4DCDF9",
"k.	c #4DCEF9",
"l.	c #4CD0FA",
"m.	c #4DD5F9",
"n.	c #4CD5F9",
"o.	c #4DD6F9",
"p.	c #4DD7F8",
"q.	c #4CD8F8",
"r.	c #4DD8F8",
"s.	c #4DD9F7",
"t.	c #4CD1F5",
"u.	c #4792E7",
"v.	c #4CCBF9",
"w.	c #4CD8F6",
"x.	c #4CCFF9",
"y.	c #4CDDF6",
"z.	c #4CD0F8",
"A.	c #4CDFF5",
"B.	c #4BD2F8",
"C.	c #060D14",
"D.	c #4185D3",
"E.	c #4CD3F5",
"F.	c #4CDEF3",
"G.	c #2E5F97",
"H.	c #010204",
"I.	c #346BAB",
"J.	c #4AD0F3",
"K.	c #4DD9F8",
"L.	c #4DDAF7",
"M.	c #4DDBF7",
"N.	c #4CDCF7",
"O.	c #4DDCF6",
"P.	c #4DDDF7",
"Q.	c #4DDDF6",
"R.	c #4DDEF7",
"S.	c #4DDEF6",
"T.	c #4CE2F6",
"U.	c #4DE2F6",
"V.	c #4CE3F5",
"W.	c #4DE3F6",
"X.	c #4DE4F5",
"Y.	c #4DE5F5",
"Z.	c #4DE6F5",
"`.	c #4CE6F5",
" +	c #4CE7F4",
".+	c #4BD9F0",
"++	c #244A76",
"@+	c #234872",
"#+	c #4AC5F3",
"$+	c #4DDCF7",
"%+	c #4CDDF7",
"&+	c #4CDEF7",
"*+	c #4CDFF6",
"=+	c #4DDFF6",
"-+	c #4DE0F6",
";+	c #4DE7F5",
">+	c #4DE8F5",
",+	c #4DE9F5",
"'+	c #4DE9F4",
")+	c #4BC9F0",
"!+	c #193352",
"~+	c #0C1928",
"{+	c #4CDCF5",
"]+	c #4DDFF7",
"^+	c #4DE0F7",
"/+	c #4CE0F6",
"(+	c #4CE1F6",
"_+	c #4CE7F5",
":+	c #4DEAF4",
"<+	c #4DEAF5",
"[+	c #4DEBF4",
"}+	c #4CEAF3",
"|+	c #4997EF",
"1+	c #4187D6",
"2+	c #0B1826",
"3+	c #020406",
"4+	c #3267A3",
"5+	c #4CD9F3",
"6+	c #4DE1F6",
"7+	c #4CE3F6",
"8+	c #4DE4F6",
"9+	c #4CE5F5",
"0+	c #4CE9F4",
"a+	c #4DEBF3",
"b+	c #4DECF4",
"c+	c #4DEDF3",
"d+	c #4CE0F1",
"e+	c #3267A4",
"f+	c #142941",
"g+	c #4AACF1",
"h+	c #4DE3F5",
"i+	c #4DE5F6",
"j+	c #4DE6F4",
"k+	c #4CEBF4",
"l+	c #4CECF3",
"m+	c #4DEEF4",
"n+	c #4DEEF3",
"o+	c #4CEEF2",
"p+	c #4AADF1",
"q+	c #152C45",
"r+	c #3268A5",
"s+	c #4BD9F2",
"t+	c #4DE7F4",
"u+	c #4DE8F4",
"v+	c #4CEDF3",
"w+	c #4CEEF3",
"x+	c #4DEFF3",
"y+	c #4DF0F3",
"z+	c #4DF2F3",
"A+	c #4ADEF1",
"B+	c #366FB0",
"C+	c #020509",
"D+	c #0B1725",
"E+	c #4CE6F3",
"F+	c #4CF1F3",
"G+	c #4DF1F2",
"H+	c #4DF1F3",
"I+	c #4CF3F2",
"J+	c #4CEEF1",
"K+	c #4186D4",
"L+	c #162D47",
"M+	c #4A9BF1",
"N+	c #4CEBF3",
"O+	c #4CECF4",
"P+	c #4DECF3",
"Q+	c #4DF2F2",
"R+	c #4CF3F3",
"S+	c #4DF3F3",
"T+	c #4DF4F2",
"U+	c #4CF2F1",
"V+	c #4A9BF0",
"W+	c #152B44",
"X+	c #264E7C",
"Y+	c #4CEFF4",
"Z+	c #4DEFF4",
"`+	c #4CF4F2",
" @	c #4DF5F2",
".@	c #4DF6F1",
"+@	c #4CF3F0",
"@@	c #183250",
"#@	c #2C5C92",
"$@	c #4CE8F1",
"%@	c #4CF2F2",
"&@	c #4DF7F2",
"*@	c #4DF7F1",
"=@	c #4CF8F1",
"-@	c #4DF8F1",
";@	c #4CECF0",
">@	c #21446C",
",@	c #4AC0F0",
"'@	c #4CF1F1",
")@	c #4DF9F1",
"!@	c #4DFAF1",
"~@	c #4CF5F1",
"{@	c #49C2F0",
"]@	c #3C7BC3",
"^@	c #13273E",
"/@	c #102236",
"(@	c #48AFED",
"_@	c #4BE5F0",
":@	c #4CF8F0",
"<@	c #4CF9F0",
"[@	c #4CFAF0",
"}@	c #4CF7F0",
"|@	c #4BE7F1",
"1@	c #48B0ED",
"2@	c #3B7AC2",
"3@	c #050A11",
"4@	c #356DAD",
"5@	c #060C13",
"6@	c #1F4066",
"7@	c #3F81CE",
"8@	c #4793E9",
"9@	c #4287D7",
"0@	c #1D3C60",
"a@	c #040A10",
"b@	c #050B12",
"c@	c #3B7AC1",
"d@	c #04090F",
"e@	c #2A5789",
"f@	c #458FE2",
"g@	c #3772B5",
"h@	c #2D5C93",
"i@	c #18314E",
"j@	c #050B11",
"k@	c #356EAF",
"l@	c #295588",
"m@	c #346CAC",
"n@	c #1B395A",
"o@	c #000101",
"p@	c #12263D",
"q@	c #162E49",
"r@	c #162D48",
"s@	c #0B1724",
"t@	c #010305",
"u@	c #04080E",
"v@	c #1D3D61",
"w@	c #1A3656",
"x@	c #1D3B5E",
"y@	c #295587",
"z@	c #1B3858",
"A@	c #1B3859",
"B@	c #18324F",
"C@	c #183351",
"D@	c #172F4B",
"E@	c #1D3C5F",
"F@	c #1C3B5D",
"G@	c #21456D",
"H@	c #020407",
"I@	c #2E5E96",
"J@	c #142A44",
"K@	c #193453",
"                                                                                                                                ",
"                                                                                                                                ",
"      . . + + + + + + + + + + + + + + + + + + + + + + + + + + + + + + + + + + + + + + + + + + + + + + + + + + + + + + . .       ",
"      . + + . . . . . . . . . . . . . . . . . . . . . . . . . . . . . . . . . . . . . . . . . . . . . . . . . . . . + + .       ",
"      + + . . . . . . . . . . . . . . . . . . . . . . . . . . . . . . . . . . . . . . . . . . . . . . . . . . . . . . + +       ",
"      + . . . . @ @ @ @ @ @ @ @ @ @ @ @ @ @ @ @ @ @ @ @ @ @ @ @ @ @ @ @ @ @ @ @ @ @ @ @ @ @ @ @ @ @ @ @ @ @ @ @ . . . . +       ",
"      + . . . @ @ # # # # # # # # # $ % & * = - ; ; > , ' ) ! # # # # # # # # # # # # # # # # # ~ ~ ~ # # # # @ @ . . . +       ",
"      + . . @ @ # # # # # # # # ! { ] ^ / ( _ _ : _ _ < / _ [ } $ # # # # # # # # # # # # # # # ~ ~ ~ # # # # # @ @ . . +       ",
"      + . . @ # # # # # # # | ) 1 2 2 3 - 4 2 2 2 2 3 4 4 3 2 2 5 6 7 # # # # # # # # # # # # ~ ~ ~ ~ ~ # # # # # @ . . +       ",
"      + . . @ # # # # # # 8 9 2 2 2 0 a b c d e f g h i j k 0 2 2 2 l m # # # # # # # # # # # ~ ~ ~ ~ ~ # # # # # @ . . +       ",
"      + . . @ # # # # # n o 2 2 2 p c q r s t t t t t r r s u p 2 ; 2 v w # # # # # # # # # ~ ~ ~ ~ ~ ~ ~ # # # # @ . . +       ",
"      + . . @ # # # # x y 2 - 2 z r r r r r t t t t t r r s r r A 2 - 2 B C # # # # # # # # ~ ~ ~ ~ ~ ~ ~ # # # # @ . . +       ",
"      + . . @ # # # D E 2 - F G r r r r q r t t t t t q q q r s r H F - 2 5 8 # # # # # # ~ ~ ~ ~ ~ ~ ~ ~ # # # # @ . . +       ",
"      + . . @ # # I J 2 - 2 K q r r r r s r t t t t t s q r s q r q K 2 4 2 l L # # # # # ~ ~ ~ ~ ~ ~ ~ ~ ~ # # # @ . . +       ",
"      + . . @ # # 6 2 2 2 M q r s r r s r q t t t t t s r N q s r s r O 2 2 2 P # # # # # ~ ~ ~ ~ ~ ~ ~ ~ ~ # # # @ . . +       ",
"      + . . @ # Q R 2 2 S q r N r r r q r r t t t t t r q s q r q T U V W 3 2 y X # # # ~ ~ ~ ~ ~ ~ ~ ~ ~ ~ ~ # # @ . . +       ",
"      + . . @ # Y 2 2 Z ` N r N r s r r q r t t t t t q T U V  ...+.@.#.$.%.- 2 &.# # # ~ ~ ~ ~ ~ ~ ~ ~ ~ ~ ~ # # @ . . +       ",
"      + . . @ L *.2 2 =.s r q r r s q r r r t t t t t V -.;.#.#.>.,.'.,.).!.2 2 ~.L # ~ ~ ~ ~ # ~ ~ ~ # ~ ~ ~ # # @ . . +       ",
"      + . . @ {.].2 2 ` r r r r r r s r T V t t t t t #.,.'.^.^./.(.(._.:.<.2 2 / [.# ~ ~ ~ ~ # ~ ~ ~ # ~ ~ ~ ~ # @ . . +       ",
"      + . . @ }.> 0 |.r q r r T T -.;.1.2.#.t t t t t ).(.3.3.:.:.4.:.5.5.6.7.- 3 8.~ ~ ~ ~ # # ~ ~ ~ # ~ ~ ~ ~ # @ . . +       ",
"      + . . @ ] / 2 9.U ..-.@.;.#.#.#.>.'.'.t t t t t 0.a.:.5.5.b.c.c.d.e.f.g.3 2 h.~ ~ ~ ~ # # ~ ~ ~ # # ~ ~ ~ ~ @ . . +       ",
"      + . . @ 1 < 2 i.;.;.#.>.j.k.k.).l.(._.t t t t t 5.6.m.d.n.f.o.p.q.r.s.t.2 2 ~ ~ ~ ~ # # # ~ ~ ~ # # ~ ~ ~ ~ @ . . +       ",
"      + . . @ - u.2 v.t t t t t t t t t t t t t t t t t t t t t t t t t t t w.2 : ~ ~ ~ ~ # # # ~ ~ ~ # # # ~ ~ ~ ~ . . +       ",
"      + . . @ ; ( 2 x.t t t t t t t t t t t t t t t t t t t t t t t t t t t y.2 - ~ ~ ~ # # # # ~ ~ ~ # # # ~ ~ ~ ~ . . +       ",
"      + . . @ ; ( 2 z.t t t t t t t t t t t t t t t t t t t t t t t t t t t A.2 : ~ ~ ~ # # # # ~ ~ ~ # # # # ~ ~ ~ . . +       ",
"      + . . @ _ u.2 B.t t t t t t t t t t t t t t t t t t t t t t t t t t t A.2 2 *.C.# # # # # ~ ~ ~ # # # # # # @ . . +       ",
"      + . . @ D.< 2 E.t t t t t t t t t t t t t t t t t t t t t t t t t t t F.2 2 G.H.# # # # # ~ ~ ~ # # # # # # @ . . +       ",
"      + . . @ I./ 4 J.K.L.L.M.N.N.O.P.Q.R.S.t t t t t T.T.U.V.W.X.X.Y.Z.`. +.+0 2 ++# # # # # # ~ ~ ~ # # # # # # @ . . +       ",
"      + . . @ @+u.0 #+$+O.P.%+R.&+S.*+=+-+-+t t t t t X.X.Y.Y.Z.Z.;+;+>+,+'+)+4 _ !+# # # # # # ~ ~ ~ # # # # # # @ . . +       ",
"      + . . @ ~+v 2 2 {+]+=+^+=+/+(+(+(+U.U.t t t t t Z.;+_+_+>+,+,+:+<+[+}+|+2 1+2+# # # # # # ~ ~ ~ # # # # # # @ . . +       ",
"      + . . @ 3+4+2 0 5+-+6+U.T.7+W.8+9+9+9+t t t t t >+0+'+<+:+[+a+b+b+c+d+; 2 e+I # # # # # # ~ ~ ~ # # # # # # @ . . +       ",
"      + . . @ # f+: 3 g+V.h+X.9+i+`.Z.;+j+>+t t t t t k+[+b+b+l+c+m+n+n+o+p+2 3 q+# # # # # # # ~ ~ ~ # # # # # # @ . . +       ",
"      + . . @ # 3+r+2 - s+Y.;+t+ +u+>+,+,+'+t t t t t c+v+n+w+x+x+y+y+z+A+; 2 B+C+# # # # # # # ~ ~ ~ # # # # # # @ . . +       ",
"      + . . @ # # D+y 2 2 E+>+'+0+:+k+[+a+b+t t t t t x+y+y+F+G+H+z+I+J+2 2 K+~+# # # # # # # # ~ ~ ~ # # # # # # @ . . +       ",
"      + . . @ # # # L+2 2 M+N+[+O+P+P+c+n+m+t t t t t G+Q+Q+R+S+T+T+U+V+2 : W+# # # # # # # # # ~ ~ ~ # # # # # # @ . . +       ",
"      + . . @ # # # # X+2 4 %.o+n+Y+Z+x+y+G+t t t t t `+T+ @~ ~ .@+@%.3 2 ( @@# # # # # # # # # ~ ~ ~ # # # # # # @ . . +       ",
"      + . . @ # # # # 3+#@2 2 ; $@y+H+z+%@I+t t t t t &@*@*@=@-@;@0 2 2 2 3 1 !+# # # # # # # # ~ ~ ~ # # # # # # @ . . +       ",
"      + . . @ # # # # # H.>@4 2 2 ,@'@T+ @~ t t t t t -@)@!@~@{@2 2 E ]@2 2 2 u.^@# # # # # # # ~ ~ ~ # # # # # # @ . . +       ",
"      + . . @ # # # # # # # /@, 2 2 2 (@_@~@=@:@<@[@[@}@|@1@2 2 2 2@8 3@4@2 4 2 y 8 # # # # # # ~ ~ ~ # # # # # # @ . . +       ",
"      + . . @ # # # # # # # # 5@6@7@2 2 3 _ ; 3 0 3 4 8@2 2 2 9@0@a@# # b@2@2 ; 2 c@5@# H.# # # ~ ~ ~ # # # # # # @ . . +       ",
"      + . . @ # # # # # # # # # # d@q+e@~.o B _ _ _ f@[ g@h@i@j@# # # # # d@k@2 0 2 ]@l@m@n@o@# ~ ~ ~ # # # # # # @ . . +       ",
"      + . . @ # # # # # # # # # # # # H.2+p@W+q@i@q@r@^@s@t@# # # # # # # # u@k@2 2 2 2 2 2 v@o@~ ~ ~ # # # # # # @ . . +       ",
"      + . . @ # # # # # # # # # # # # # # # # # # # # # # # # # # # # # # # # u@J 2 2 2 ; 2 2 0@# # # # # # # # # @ . . +       ",
"      + . . @ # # # # # # # # # # # # # # # # # # # # # # # # # # # # # # # # # w@2 2 4 4 - 2 2 x@# # # # # # # # @ . . +       ",
"      + . . @ # # # # # # # # # # # # # # # # # # # # # # # # # # # # # # # # # y@2 2 _ 3 4 4 2 2 z@# # # # # # # @ . . +       ",
"      + . . @ # # # # # # # # # # # # # # # # # # # # # # # # # # # # # # # # # q@2 2 - - 0 - : 2 2 A@# # # # # # @ . . +       ",
"      + . . @ # # # # # # # # # # # # # # # # # # # # # # # # # # # # # # # # # # B@2 2 ; - 3 ; : 2 2 A@# # # # # @ . . +       ",
"      + . . @ # # # # # # # # # # # # # # # # # # # # # # # # # # # # # # # # # # # C@2 2 4 4 3 - 8@2 2 A@# # # # @ . . +       ",
"      + . . @ # # # # # # # # # # # # # # # # # # # # # # # # # # # # # # # # # # # # D@2 2 8@4 ; - _ 2 2 0@# # # @ . . +       ",
"      + . . @ # # # # # # # # # # # # # # # # # # # # # # # # # # # # # # # # # # # # # B@2 2 8@- ; - - 2 2 E@o@# @ . . +       ",
"      + . . @ # # # # # # # # # # # # # # # # # # # # # # # # # # # # # # # # # # # # # # i@/ 2 : ; ; 4 4 2 2 A@o@@ . . +       ",
"      + . . @ # # # # # # # # # # # # # # # # # # # # # # # # # # # # # # # # # # # # # # # F@2 3 4 ; 0 - ; 2 4 G@@ . . +       ",
"      + . . @ # # # # # # # # # # # # # # # # # # # # # # # # # # # # # # # # # # # # # # # t@}.2 3 - 4 0 4 : 2 2 @ . . +       ",
"      + . . @ # # # # # # # # # # # # # # # # # # # # # # # # # # # # # # # # # # # # # # # # C+#@2 0 - 4 - 4 2 > @ . . +       ",
"      + . . @ # # # # # # # # # # # # # # # # # # # # # # # # # # # # # # # # # # # # # # # # # H@I@2 3 _ ; 2 9@B@@ . . +       ",
"      + . . @ @ # # # # # # # # # # # # # # # # # # # # # # # # # # # # # # # # # # # # # # # # # | }.3 3 2 5 J@@ @ . . +       ",
"      + . . . @ @ # # # # # # # # # # # # # # # # # # # # # # # # # # # # # # # # # # # # # # # # # 7 r+2 < K@@ @ . . . +       ",
"      + . . . . @ @ @ @ @ @ @ @ @ @ @ @ @ @ @ @ @ @ @ @ @ @ @ @ @ @ @ @ @ @ @ @ @ @ @ @ @ @ @ @ @ @ @ @ @ @ @ @ . . . . +       ",
"      + + . . . . . . . . . . . . . . . . . . . . . . . . . . . . . . . . . . . . . . . . . . . . . . . . . . . . . . + +       ",
"      . + + . . . . . . . . . . . . . . . . . . . . . . . . . . . . . . . . . . . . . . . . . . . . . . . . . . . . + + .       ",
"      . . + + + + + + + + + + + + + + + + + + + + + + + + + + + + + + + + + + + + + + + + + + + + + + + + + + + + + + . .       ",
"                                                                                                                                ",
"                                                                                                                                ",
"                                                                                                                                "};
