/* XPM */
static char * xpm_icon_threed_xpm[] = {
"32 32 651 2",
"  	c None",
". 	c #B5B52F",
"+ 	c #D9DA0D",
"@ 	c #DCDD13",
"# 	c #DFDF14",
"$ 	c #E1E013",
"% 	c #E4E214",
"& 	c #E2E212",
"* 	c #E4E414",
"= 	c #E5E513",
"- 	c #E7E713",
"; 	c #E8EA1D",
"> 	c #F1F22C",
", 	c #888719",
"' 	c #B9B932",
") 	c #D7D90C",
"! 	c #DEDE13",
"~ 	c #E2E113",
"{ 	c #E3E214",
"] 	c #E3E313",
"^ 	c #E6E413",
"/ 	c #E6E612",
"( 	c #E9E814",
"_ 	c #E7E811",
": 	c #FFFF33",
"< 	c #B7B731",
"[ 	c #D8D90E",
"} 	c #DBDC12",
"| 	c #E0DF12",
"1 	c #E5E412",
"2 	c #E6E613",
"3 	c #E8E713",
"4 	c #E9EA13",
"5 	c #F6F622",
"6 	c #B7B732",
"7 	c #D7D80D",
"8 	c #DBDC13",
"9 	c #DDDE13",
"0 	c #E0E013",
"a 	c #E2E213",
"b 	c #E4E413",
"c 	c #E6E711",
"d 	c #DBDB2D",
"e 	c #BEBE39",
"f 	c #D4D510",
"g 	c #DEDF14",
"h 	c #E6E712",
"i 	c #E5E611",
"j 	c #D9DA36",
"k 	c #6F6F3D",
"l 	c #141500",
"m 	c #CCCB62",
"n 	c #878811",
"o 	c #BBBD1D",
"p 	c #E2E31E",
"q 	c #DADC11",
"r 	c #E1DF13",
"s 	c #E4E412",
"t 	c #E6E614",
"u 	c #D7D835",
"v 	c #D1D154",
"w 	c #BBBB2B",
"x 	c #474711",
"y 	c #CAC833",
"z 	c #DAD921",
"A 	c #AEAE27",
"B 	c #A0A016",
"C 	c #D8D91C",
"D 	c #DFDF17",
"E 	c #DFDE12",
"F 	c #E2E114",
"G 	c #E6E515",
"H 	c #E5E413",
"I 	c #CCCD33",
"J 	c #313217",
"K 	c #DFDE31",
"L 	c #D5D512",
"M 	c #ECEC37",
"N 	c #6F6F18",
"O 	c #1A1805",
"P 	c #CFCF34",
"Q 	c #D4D50E",
"R 	c #DCDD14",
"S 	c #C4C527",
"T 	c #8C8E1B",
"U 	c #D1D325",
"V 	c #E4E51B",
"W 	c #E3E112",
"X 	c #E2E312",
"Y 	c #E6E314",
"Z 	c #CDCE32",
"` 	c #4D4C1B",
" .	c #E5E51A",
"..	c #D6D613",
"+.	c #D6D713",
"@.	c #E2E323",
"#.	c #D5D438",
"$.	c #CDCD35",
"%.	c #D9DA14",
"&.	c #DBDA14",
"*.	c #E6E626",
"=.	c #9B9C1D",
"-.	c #9D9D1A",
";.	c #EBE91F",
">.	c #E2E216",
",.	c #E3E114",
"'.	c #E4E312",
").	c #CDCD30",
"!.	c #4C4B1A",
"~.	c #E6E61A",
"{.	c #D5D514",
"].	c #D7D713",
"^.	c #D8D912",
"/.	c #DDDB19",
"(.	c #CCCE30",
"_.	c #838215",
":.	c #D6D623",
"<.	c #DBDC16",
"[.	c #DAD913",
"}.	c #DCDB13",
"|.	c #DFE017",
"1.	c #CFD123",
"2.	c #808017",
"3.	c #D4D427",
"4.	c #E2E217",
"5.	c #E1E312",
"6.	c #E1E413",
"7.	c #D4D537",
"8.	c #4C4B19",
"9.	c #E4E517",
"0.	c #D6D614",
"a.	c #D6D612",
"b.	c #D8D913",
"c.	c #DCDD15",
"d.	c #E8E822",
"e.	c #8C8D15",
"f.	c #9E9D1B",
"g.	c #EBEB26",
"h.	c #DEDF16",
"i.	c #EDED29",
"j.	c #A09F18",
"k.	c #C4C422",
"l.	c #ECEC1A",
"m.	c #E2E214",
"n.	c #F0F01E",
"o.	c #6E6E00",
"p.	c #4C4A19",
"q.	c #E6E319",
"r.	c #D4D413",
"s.	c #D8D814",
"t.	c #D7DA14",
"u.	c #DADB12",
"v.	c #E7E821",
"w.	c #D4D329",
"x.	c #73720B",
"y.	c #D1D228",
"z.	c #DBDB11",
"A.	c #DEDE12",
"B.	c #E9E91D",
"C.	c #D8D81C",
"D.	c #92931C",
"E.	c #D0D127",
"F.	c #F2F122",
"G.	c #717001",
"H.	c #E4E317",
"I.	c #D4D414",
"J.	c #D6D615",
"K.	c #D8DA14",
"L.	c #D9DA12",
"M.	c #DCDD11",
"N.	c #DCDC17",
"O.	c #F2F129",
"P.	c #989813",
"Q.	c #BFC028",
"R.	c #DEDD13",
"S.	c #E2E115",
"T.	c #DBDB21",
"U.	c #A0A217",
"V.	c #CDCE37",
"W.	c #707004",
"X.	c #2C2B05",
"Y.	c #4B4A19",
"Z.	c #E3E318",
"`.	c #D4D415",
" +	c #D5D513",
".+	c #D9D914",
"++	c #DADB11",
"@+	c #DBDD12",
"#+	c #DEDD11",
"$+	c #E0DF10",
"%+	c #EBEA23",
"&+	c #B2B328",
"*+	c #9D9E17",
"=+	c #E6E518",
"-+	c #E1E012",
";+	c #EAEB22",
">+	c #A2A320",
",+	c #717003",
"'+	c #CFD04E",
")+	c #4B4A1A",
"!+	c #E3E31A",
"~+	c #D3D314",
"{+	c #D8D914",
"]+	c #DADB13",
"^+	c #DDDD13",
"/+	c #DFDF13",
"(+	c #E3E311",
"_+	c #B4B419",
":+	c #797906",
"<+	c #E5E61A",
"[+	c #E1DD13",
"}+	c #E1E014",
"|+	c #E1E114",
"1+	c #CCCC3E",
"2+	c #6D6C00",
"3+	c #C8C730",
"4+	c #414111",
"5+	c #E3E419",
"6+	c #D4D314",
"7+	c #D9DA13",
"8+	c #E2E211",
"9+	c #B7B720",
"0+	c #787907",
"a+	c #E5E61B",
"b+	c #DFDF12",
"c+	c #E1DF14",
"d+	c #E3E113",
"e+	c #EEED20",
"f+	c #686A00",
"g+	c #7E7E0B",
"h+	c #C9C82C",
"i+	c #111200",
"j+	c #C1C14F",
"k+	c #D4D417",
"l+	c #D2D212",
"m+	c #D8DA13",
"n+	c #DADB14",
"o+	c #DDDE12",
"p+	c #E2E112",
"q+	c #949518",
"r+	c #E1E117",
"s+	c #DDDF13",
"t+	c #EDED22",
"u+	c #6E6E06",
"v+	c #838312",
"w+	c #B6B614",
"x+	c #A5A647",
"y+	c #474805",
"z+	c #717048",
"A+	c #636320",
"B+	c #5A5B26",
"C+	c #3A3A1C",
"D+	c #8E8F53",
"E+	c #545413",
"F+	c #5C5D18",
"G+	c #A8A843",
"H+	c #5A5A00",
"I+	c #BBBC29",
"J+	c #D9DA24",
"K+	c #E1E112",
"L+	c #ACAD0F",
"M+	c #D0D136",
"N+	c #DDDE14",
"O+	c #E1E011",
"P+	c #ECEC21",
"Q+	c #6F6E06",
"R+	c #828311",
"S+	c #B8B812",
"T+	c #B4B42B",
"U+	c #BFBF29",
"V+	c #5C5C00",
"W+	c #959628",
"X+	c #747513",
"Y+	c #5D5D08",
"Z+	c #585800",
"`+	c #A3A33E",
" @	c #6B6C0C",
".@	c #5B5C00",
"+@	c #CFD04F",
"@@	c #6D6D0B",
"#@	c #747305",
"$@	c #E0DF2C",
"%@	c #D4D310",
"&@	c #D9D713",
"*@	c #DBDD13",
"=@	c #E1E113",
"-@	c #ADAD10",
";@	c #CACA31",
">@	c #D9D912",
",@	c #E0DF13",
"'@	c #ECEB23",
")@	c #6F6E07",
"!@	c #818112",
"~@	c #BABA19",
"{@	c #B9B82D",
"]@	c #C9C911",
"^@	c #DDDE29",
"/@	c #7E7F10",
"(@	c #7F8016",
"_@	c #9F9F34",
":@	c #585900",
"<@	c #8F9024",
"[@	c #929228",
"}@	c #454600",
"|@	c #8F8F24",
"1@	c #AFAF39",
"2@	c #6A6A04",
"3@	c #DAD91A",
"4@	c #D7D712",
"5@	c #D8D812",
"6@	c #C9C930",
"7@	c #D8D911",
"8@	c #DCDE14",
"9@	c #EDEB21",
"0@	c #706E07",
"a@	c #7B7B0D",
"b@	c #8F8F0F",
"c@	c #8B8C16",
"d@	c #D2D21D",
"e@	c #CECE15",
"f@	c #D8D824",
"g@	c #878A19",
"h@	c #5D5D00",
"i@	c #B1B13E",
"j@	c #72720E",
"k@	c #5C5D0C",
"l@	c #757512",
"m@	c #B3B343",
"n@	c #5C5B00",
"o@	c #85861C",
"p@	c #A4A534",
"q@	c #434600",
"r@	c #B6B625",
"s@	c #E0DE21",
"t@	c #DAD812",
"u@	c #DCDA13",
"v@	c #DBDB13",
"w@	c #DEE013",
"x@	c #AEAF13",
"y@	c #C9C92F",
"z@	c #D7D810",
"A@	c #DFDE11",
"B@	c #EBEB22",
"C@	c #676500",
"D@	c #B6B62A",
"E@	c #6C6D00",
"F@	c #969624",
"G@	c #8C8D1B",
"H@	c #BCBC20",
"I@	c #D0D01A",
"J@	c #D3D31E",
"K@	c #CDCC2E",
"L@	c #545400",
"M@	c #97992A",
"N@	c #73750F",
"O@	c #595A05",
"P@	c #A7A73E",
"Q@	c #5F6000",
"R@	c #575A00",
"S@	c #D9DA4F",
"T@	c #6F6F0E",
"U@	c #97971E",
"V@	c #DCDD26",
"W@	c #E0E121",
"X@	c #87870A",
"Y@	c #D3D438",
"Z@	c #DBDD11",
"`@	c #DDDF11",
" #	c #EBEB24",
".#	c #626200",
"+#	c #DDDC30",
"@#	c #9D9E2C",
"##	c #A0A125",
"$#	c #93931D",
"%#	c #A2A21F",
"&#	c #D7D81F",
"*#	c #CFCF14",
"=#	c #CCCC2F",
"-#	c #77770B",
";#	c #8F901A",
">#	c #C3C242",
",#	c #565700",
"'#	c #5B5B00",
")#	c #A6A838",
"!#	c #989829",
"~#	c #515200",
"{#	c #8E8D23",
"]#	c #979728",
"^#	c #676702",
"/#	c #E4E334",
"(#	c #DADC16",
"_#	c #D9DB11",
":#	c #E3E331",
"<#	c #606000",
"[#	c #949527",
"}#	c #ACAC1E",
"|#	c #E3E41B",
"1#	c #DADE14",
"2#	c #DDDD15",
"3#	c #D8D72C",
"4#	c #DBD92F",
"5#	c #777806",
"6#	c #747405",
"7#	c #A09F2A",
"8#	c #ACAC28",
"9#	c #8E9019",
"0#	c #909317",
"a#	c #D9DA20",
"b#	c #CECE14",
"c#	c #E1E229",
"d#	c #969717",
"e#	c #AAAA3A",
"f#	c #706F06",
"g#	c #585802",
"h#	c #6F6F0C",
"i#	c #A2A231",
"j#	c #686701",
"k#	c #696A08",
"l#	c #AAAB39",
"m#	c #525200",
"n#	c #A8A822",
"o#	c #DFDF1C",
"p#	c #E0E032",
"q#	c #626100",
"r#	c #747510",
"s#	c #B0B135",
"t#	c #A4A51B",
"u#	c #ECED20",
"v#	c #DCDD17",
"w#	c #B0AF24",
"x#	c #505000",
"y#	c #BFBD3E",
"z#	c #8D8E0F",
"A#	c #E9E937",
"B#	c #7B7B07",
"C#	c #78790B",
"D#	c #A4A52D",
"E#	c #888819",
"F#	c #9B9B1C",
"G#	c #C3C424",
"H#	c #D5D518",
"I#	c #D8D722",
"J#	c #CACA2D",
"K#	c #616000",
"L#	c #CDCD56",
"M#	c #7A7A10",
"N#	c #5F5D0C",
"O#	c #6D6D0A",
"P#	c #A1A034",
"Q#	c #72730C",
"R#	c #BDBE45",
"S#	c #7C7C13",
"T#	c #A6A61C",
"U#	c #E2E246",
"V#	c #82820A",
"W#	c #BEC036",
"X#	c #585A00",
"Y#	c #A7A932",
"Z#	c #7D7F08",
"`#	c #E0E22F",
" $	c #BEBD31",
".$	c #C7C64A",
"+$	c #777701",
"@$	c #E3E42D",
"#$	c #888A11",
"$$	c #787808",
"%$	c #BCBB39",
"&$	c #9C9C20",
"*$	c #ACAC20",
"=$	c #C1C11C",
"-$	c #DADB1A",
";$	c #DAD916",
">$	c #E1E132",
",$	c #999A2A",
"'$	c #7E7E1D",
")$	c #63632A",
"!$	c #5A5917",
"~$	c #9B9B3C",
"{$	c #A6A54B",
"]$	c #4F4F02",
"^$	c #86862A",
"/$	c #80802B",
"($	c #6E6E24",
"_$	c #605F13",
":$	c #939327",
"<$	c #DCDC5D",
"[$	c #494B00",
"}$	c #CBCC5C",
"|$	c #666716",
"1$	c #686722",
"2$	c #1B1A00",
"3$	c #6E6C31",
"4$	c #373800",
"5$	c #303101",
"6$	c #898A22",
"7$	c #9B9D26",
"8$	c #696B25",
"9$	c #1F1F00",
"0$	c #75752E",
"a$	c #868618",
"b$	c #4C4D06",
"c$	c #999A21",
"d$	c #949410",
"e$	c #939311",
"f$	c #85832A",
"g$	c #282703",
"h$	c #56561B",
"i$	c #0D0E00",
"j$	c #2B2C07",
"k$	c #525118",
"l$	c #181601",
"m$	c #333311",
"n$	c #0E0F00",
"o$	c #1C1C00",
"p$	c #5D5B07",
"q$	c #413F19",
"r$	c #4A492B",
"s$	c #4E4D33",
"t$	c #141504",
"u$	c #4F4F23",
"v$	c #696A1C",
"w$	c #3C3C18",
"x$	c #464631",
"y$	c #595A13",
"z$	c #292908",
"A$	c #6A6B29",
"B$	c #666612",
"C$	c #646311",
"D$	c #504F1B",
"E$	c #4D4C2A",
"F$	c #111310",
"G$	c #303112",
"H$	c #5A5831",
"I$	c #0E0E06",
"J$	c #1C1C07",
"K$	c #393927",
"L$	c #111114",
"M$	c #646432",
"N$	c #5A591E",
"O$	c #474627",
"P$	c #20200B",
"Q$	c #4B4A2B",
"R$	c #4C4C2F",
"S$	c #171803",
"T$	c #0E0E05",
"U$	c #525323",
"V$	c #6C6D1C",
"W$	c #3E3F19",
"X$	c #151503",
"Y$	c #4C4C2E",
"Z$	c #5E5E1A",
"`$	c #2E2E0B",
" %	c #6E6E29",
".%	c #676611",
"+%	c #55541C",
"@%	c #171703",
"#%	c #6D6D31",
"$%	c #12110F",
"%%	c #333516",
"&%	c #454427",
"*%	c #12120B",
"=%	c #171701",
"-%	c #3A3A24",
";%	c #0E0E00",
">%	c #605F27",
",%	c #5C5A1D",
"'%	c #464422",
")%	c #393B19",
"!%	c #4C4B27",
"~%	c #202008",
"{%	c #615F3A",
"]%	c #181804",
"^%	c #0E0E07",
"/%	c #3C3D17",
"(%	c #333114",
"_%	c #50512B",
":%	c #4D4E21",
"<%	c #121100",
"[%	c #6E6C29",
"}%	c #686612",
"|%	c #676613",
"1%	c #595925",
"2%	c #171600",
"3%	c #6B6B25",
"4%	c #131210",
"5%	c #393A1C",
"6%	c #17170F",
"7%	c #0E0E10",
"8%	c #555325",
"9%	c #353315",
"0%	c #111115",
"a%	c #0D0E01",
"b%	c #5F5F26",
"c%	c #5B5B1D",
"d%	c #42421C",
"e%	c #363719",
"f%	c #504F2F",
"g%	c #1E1E04",
"h%	c #64643F",
"i%	c #0F0F06",
"j%	c #0E0F06",
"k%	c #55551F",
"l%	c #6D6A1B",
"m%	c #42421E",
"n%	c #302E11",
"o%	c #4F502A",
"p%	c #4D4B26",
"q%	c #121000",
"r%	c #6C6C29",
"s%	c #686712",
"t%	c #6C6C20",
"u%	c #23230A",
"v%	c #1E1E09",
"w%	c #68672B",
"x%	c #12120F",
"y%	c #38391B",
"z%	c #1C1C13",
"A%	c #55551C",
"B%	c #35340E",
"C%	c #0E0E02",
"D%	c #65642A",
"E%	c #3A3A1E",
"F%	c #1F1E0A",
"G%	c #2B2C11",
"H%	c #2F2F17",
"I%	c #0E0F12",
"J%	c #72721D",
"K%	c #6C6A1D",
"L%	c #1B1A05",
"M%	c #323113",
"N%	c #4F4F2D",
"O%	c #4D4C27",
"P%	c #6D6E29",
"Q%	c #696712",
"R%	c #6D6C28",
"S%	c #1A1A06",
"T%	c #252518",
"U%	c #2D2C12",
"V%	c #141412",
"W%	c #0D0E10",
"X%	c #555421",
"Y%	c #343311",
"Z%	c #0E0E01",
"`%	c #5E5E26",
" &	c #5E5D22",
".&	c #0E0D00",
"+&	c #6E6D27",
"@&	c #3A3A20",
"#&	c #16160E",
"$&	c #2C2D12",
"%&	c #262619",
"                                      . + @ # $ % & * = - ; > , ",
"                                      ' ) @ ! $ ~ { ] ^ / ( _ : ",
"                                      < [ } ! | ~ ~ ] 1 2 3 4 5 ",
"                                      6 7 8 9 0 $ a ] b = 3 c d ",
"                                      e f } @ g $ ~ & * = h i j ",
"                        k l         m n o p q ! r $ a ] s t = u ",
"                        v w x       y z A B C D E F ~ ] s G H I ",
"                      J K L M N O   P Q R S T U V E W X * Y s Z ",
"                      `  ...+.@.#.  $.f %.&.*.=.-.;.>.,.] = '.).",
"                      !.~.{.].^./.(._.:.<.[.}.|.1.2.3.4.5.6.& 7.",
"                      8.9.0.a.b.b.c.d.e.f.g.^.@ h.i.j.k.l.m.n.o.",
"                      p.q.r...s.t.u.u.v.w.x.y.z.! A.B.C.D.E.F.G.",
"                      8.H.I.J.].K.L.} M.N.O.P.Q.@.R.| S.T.U.V.W.",
"X.                    Y.Z.`. +]..+b.++@+#+$+%+&+*+=+r -+~ ;+>+,+",
"'+                    )+!+~+ +a.s.{+]+} ^+/+(+_+:+<+[+}+W |+1+2+",
"3+                    4+5+6+ +0.].%.7+]+R ! 8+9+0+a+b+c+d+e+f+g+",
"h+                  i+j+k+l+I. +].m+%.n+8 o+p+_+q+r+s+r $ t+u+v+",
"w+x+y+z+A+B+C+D+E+F+G+H+I+J+l+ +a.s.%.L.8 @ K+L+M+^.N+| O+P+Q+R+",
"S+T+U+V+W+X+Y+Z+`+ @.@+@@@#@$@%@..&@%.L.n+*@=@-@;@>@@ E ,@'@)@!@",
"~@{@]@^@/@(@_@Z+:@<@[@}@|@1@2@d 3@4@5@L.]+8 | L+6@7@} 8@| 9@0@a@",
"b@c@d@e@f@g@h@i@j@k@l@m@n@o@p@q@r@s@t@.+u@v@w@x@y@z@@ R.A@B@C@D@",
"E@F@G@H@I@J@K@L@M@N@O@Z+P@Q@R@S@T@U@V@].b.]+W@X@Y@{+]+Z@`@ #.#+#",
"E@@###$#%#&#*#=#-#;#>#,#'#)#!#~#{#]#^#/#(#_#:#<#[#}#|#1#2#3#h@4#",
"5#6#7#8#9#0#a#b#c#d#V+e#f#g#h#i#j#k#l#m#n#o#p#q#r#s#t#u#v#w#x#y#",
"z#A#B#C#D#E#F#G#H#I#J#K#L#M#N#O#P#Q#m#R#S#T#U#V#W#X#Y#Z#`# $Z+.$",
"+$(.@$#$$$%$&$*$=$-$;$>$q#,$'$)$!$~${$]$^$/$($_$:$<$[$}$|$1$2$3$",
"4$5$6$7$8$9$0$a$b$c$d$e$f$g$h$  i$j$k$  l$m$  n$o$p$  q$  r$  s$",
"t$  u$v$w$  x$y$z$A$B$C$D$  E$  F$G$H$I$J$K$L$  M$N$  O$P$Q$  R$",
"S$T$U$V$W$X$Y$Z$`$ %.%.%+%@%#%  $%%%&%*%=%-%L$;%>%,%  '%)%!%~%{%",
"]%^%U$V$/%(%_%:%<%[%}%|%1%2%3%  4%5%6%7%8%9%0%a%b%c%  d%e%f%g%h%",
"i%j%k%l%m%n%o%p%q%r%s%t%u%v%w%  x%y%z%7%A%B%0%C%b%c%  D%E%F%G%H%",
"I%F%J%K%L%M%N%O%  P%Q%R%S%T%U%V%x%y%z%W%X%Y%0%Z%`% &.&+&@&#&$&%&"};
