/* XPM */
static char * icon_twod_xpm[] = {
"32 32 142 2",
"  	c None",
". 	c #9A9ABA",
"+ 	c #74758E",
"@ 	c #1E1E76",
"# 	c #4545BD",
"$ 	c #1B1BC9",
"% 	c #282884",
"& 	c #3434C2",
"* 	c #15136B",
"= 	c #4242A6",
"- 	c #12128A",
"; 	c #12127A",
"> 	c #121276",
", 	c #121282",
"' 	c #2121B7",
") 	c #11117F",
"! 	c #8D90C7",
"~ 	c #9997B9",
"{ 	c #9B9BB3",
"] 	c #9F9DAF",
"^ 	c #A29FAD",
"/ 	c #8F92C5",
"( 	c #3F3F85",
"_ 	c #111177",
": 	c #2525E9",
"< 	c #3737BD",
"[ 	c #A3A0AC",
"} 	c #A3A3A7",
"| 	c #A4A4A4",
"1 	c #1E23E8",
"2 	c #121476",
"3 	c #4E4EDE",
"4 	c #4F4FED",
"5 	c #131363",
"6 	c #1E1E6E",
"7 	c #1D1D83",
"8 	c #121270",
"9 	c #4343A5",
"0 	c #494979",
"a 	c #5A5ABC",
"b 	c #373799",
"c 	c #3D3DEB",
"d 	c #4848D4",
"e 	c #1D1D91",
"f 	c #121280",
"g 	c #121268",
"h 	c #34347A",
"i 	c #13136B",
"j 	c #32328E",
"k 	c #3333C3",
"l 	c #4448EC",
"m 	c #111475",
"n 	c #1E1EE8",
"o 	c #121278",
"p 	c #4949CF",
"q 	c #131361",
"r 	c #121286",
"s 	c #3535EB",
"t 	c #131373",
"u 	c #111371",
"v 	c #4D4DED",
"w 	c #13136D",
"x 	c #3D3D85",
"y 	c #282872",
"z 	c #131365",
"A 	c #1C1CB0",
"B 	c #111191",
"C 	c #2727BB",
"D 	c #3D3D89",
"E 	c #404096",
"F 	c #4848EC",
"G 	c #111195",
"H 	c #1D1D97",
"I 	c #5551ED",
"J 	c #343478",
"K 	c #5E5ECE",
"L 	c #11118F",
"M 	c #1919E1",
"N 	c #5858B4",
"O 	c #4545A9",
"P 	c #484884",
"Q 	c #4F4FD1",
"R 	c #3131E7",
"S 	c #4444EC",
"T 	c #2E2E80",
"U 	c #12127E",
"V 	c #1515D9",
"W 	c #5A5AE0",
"X 	c #12126A",
"Y 	c #373797",
"Z 	c #2323DD",
"` 	c #11117D",
" .	c #111183",
"..	c #1D1D9B",
"+.	c #131367",
"@.	c #1D1D85",
"#.	c #2929A5",
"$.	c #2A2AA2",
"%.	c #272793",
"&.	c #2222E4",
"*.	c #4B47D1",
"=.	c #34346E",
"-.	c #131357",
";.	c #5155ED",
">.	c #2222D2",
",.	c #12127C",
"'.	c #2D2D9B",
").	c #4441BB",
"!.	c #141274",
"~.	c #3939EB",
"{.	c #3C3A8E",
"].	c #14126E",
"^.	c #12128C",
"/.	c #3434EA",
"(.	c #1D1D7B",
"_.	c #131577",
":.	c #1E1E70",
"<.	c #414193",
"[.	c #4242EC",
"}.	c #151280",
"|.	c #1C1C98",
"1.	c #1D1D8B",
"2.	c #3A3A8E",
"3.	c #4747D7",
"4.	c #211CE8",
"5.	c #4141A9",
"6.	c #393993",
"7.	c #131371",
"8.	c #4C4CEC",
"9.	c #3E3EB0",
"0.	c #4F4FDB",
"a.	c #3737EB",
"b.	c #121260",
"c.	c #393981",
"d.	c #2727D1",
"e.	c #232369",
"f.	c #404074",
"g.	c #2D2D6F",
"h.	c #212163",
"i.	c #4545B5",
"j.	c #4646B2",
"k.	c #5451B5",
". +                                                             ",
". +                                                             ",
". +                                                             ",
". +                                                             ",
". + @                         #                                 ",
". + $ %                     & * =                               ",
". + - ;                     > ,                                 ",
". + ' ) ! ~ ~ { ] ] ^ / / ( _ : ; < [ } | | | } } | | | | | | | ",
". + 1 2 3               4 5 6   - 7                             ",
". +   8 9     0 a       b c d   e f                             ",
". +   g h     i j k   l m %     n o p                           ",
". +   q q   n r s t   6 u v     v w x                           ",
". +   y z   A B   t C 8 D         5 q                           ",
". +   E w F G H   q 8 I           J z                         K ",
". +     > : L M   N O P           Q R                       S T ",
". +     U V f S                   W X Y                     Z ` ",
". +      ...+.                      ; @.                    #.r ",
". +     ; f                         f ,                     f r ",
". +       z                         $.U                     f %.",
". +                                 &.o *.        =.-.    ;.; >.",
". +                                 S 8 E         i ,.'.  ).!.~.",
". +                                   X y       v f V ,   {.].  ",
". +                                   q q       n ^./.U   (.i   ",
". +                                   y X       @.B   _.n ; :.  ",
". +                                   <.8 [.    }.|.  8 1.; 2.  ",
". +                                   p o n   3.; 4.  :.f   5.  ",
". +                                     U V   6.7.8.  9.f s 0.  ",
". +                                     t e a.5 b.    ;.7.8     ",
". +                                     c.d.  e.f.      g.h.    ",
". +                                       i.j.k.                ",
". +                                                             ",
". +                                                             "};
