/* XPM */
static char *icon_moon_xpm[] = {
/* columns rows colors chars-per-pixel */
"32 32 78 1",
"  c #007E007F0076",
". c #0D550D5A0D24",
"X c #102F105B0F78",
"o c #121B12341158",
"O c #1BF91C091AD1",
"+ c #20C320E41F00",
"@ c #242E24572275",
"# c #2A152A8E27A5",
"$ c #2B952BD62A17",
"% c #305130C82DAD",
"& c #34AA350632E8",
"* c #37B238563478",
"= c #389B391736B0",
"- c #3F5D402B3C07",
"; c #41A842583E89",
": c #45A545D343B1",
"> c #47B9488643F7",
", c #49F14AE046C9",
"< c #4D5F4DE94A70",
"1 c #4F3A50374B66",
"2 c #546F556F4F48",
"3 c #551855A75215",
"4 c #56D858565113",
"5 c #5B335BC45586",
"6 c #59FE5A0459CC",
"7 c #5FB160745956",
"8 c #626E62D75C43",
"9 c #65BA667960F6",
"0 c #67AE685662B1",
"q c #6AB96B18640D",
"w c #6D946DFF6925",
"e c #6F7F6FFC69B8",
"r c #737073D46D74",
"t c #76F5777F72EC",
"y c #7B017B66747B",
"u c #7E527EA27B27",
"i c #7F78801878C2",
"p c #83B8842F7DC0",
"a c #866586F5812E",
"s c #87FC888A8094",
"d c #8BA08C068546",
"f c #8DF78E6A896F",
"g c #8FE9905E897F",
"h c #936D93ED8C91",
"j c #96C297189349",
"k c #97F4986D91DA",
"l c #99ED9A7493E3",
"z c #9DE19E7598ED",
"x c #9FEEA0999A89",
"c c #A2D9A3509C73",
"v c #A71AA7CEA1CE",
"b c #A805A872A335",
"n c #AAB6AB33A53B",
"m c #AEBEAF5CA9DA",
"M c #B361B3B2AD62",
"N c #B5D3B5F6B1C7",
"B c #BB66BBE4B4DB",
"V c #BEBABEC4BE44",
"C c #C40BC490BD1E",
"Z c #C6E7C730C11B",
"A c #CA49CAC7C303",
"S c #CD95CDB9CAEF",
"D c #D438D486CCF0",
"F c #D5A9D5BED28D",
"G c #DC23DC65D50A",
"H c #DEA1DEA8DD46",
"J c #E370E3DADC12",
"K c #E822E8B7DEB3",
"L c #E8F3E980DDF7",
"P c #E5D9E5FDE3DE",
"I c #EB58EBC7E54D",
"U c #EB7AEB82EB10",
"Y c #F05FF111E6A7",
"T c #F06CF092EE16",
"R c #F0C7F0E3E7BD",
"E c #F0A1F09EEEFB",
"W c #F207F20AF1EE",
"Q c None",
/* pixels */
"QQQQQQQQQQQQQQQQQQQQQQQQQQQQQQQQ",
"QQHPUUUUUUUUUUUUUUUUUUUUUUUUPHQQ",
"QQUWSVVVVVVVVVVVVVVVVVVVVVVSWUQQ",
"QQWj$......................&NWQQ",
"QQW6         o#=&O.         6WQQ",
"QQW6      .&tlczhu8;O       6WQQ",
"QQW6     OtMvhhlhfdt8&.     6WQQ",
"QQW6    $jBcpreuhlcpw2*o    6WQQ",
"QQW6   @lMkq558qrdrr882%X   6WQQ",
"QQW6  .pchr5455qr04557q;+.  6WQQ",
"QQW6  <ndyq558qytr58849,$O  6WQQ",
"QQW6 .fzhyw0qqqrhp8qw85;&@o 6WQQ",
"QQW6 &bxkupuiytyprfdp82-%@O 6WQQ",
"QQW6 6mPChGmSldrrkHnprd1&+O 6WQQ",
"QQW6 wbWIMPMFcMnVCWGBnUj>@O.6WQQ",
"QQW6 ybPFPIMUCGCUBWJUGWz5@O.6WQQ",
"QQW6 pnPcPUMIFFNEAWDWPUa5#O.6WQQ",
"QQW6 rMGfMPMJNHHWSUDTGUM<#O.6WQQ",
"QQW6 3BhppfkghZDPCCAACBu-@O 6WQQ",
"QQW6 #BvhkhudhBBCACCCBcr-@O 6WQQ",
"QQW6  dAbmhakhssMDAAAMk0*@. 6WQQ",
"QQW6  &ZCnyyhhhhBJJDCMa3$O  6WQQ",
"QQW6   rDCchccCDKILGCzr;O   6WQQ",
"QQW6   .uDZMBBDKIIYGmp3@.   6WQQ",
"QQW6    .tZDDDDKIIICf6$.    6WQQ",
"QQW6      :bDJGKRJVh5+      6WQQ",
"QQW6       X:uvMbf6%.       6WQQ",
"QQWu.         ...          .uWQQ",
"QQWHu6666666666666666666666uHWQQ",
"QQHWWWWWWWWWWWWWWWWWWWWWWWWWWHQQ",
"QQHQQQQQQQQQQQQQQQQQQQQQQQQQQHQQ",
"QQQQQQQQQQQQQQQQQQQQQQQQQQQQQQQQ"
};
