/* XPM */
static char * icon_cube_xpm[] = {
"32 32 266 2",
"  	c None",
". 	c #061786",
"+ 	c #0511AC",
"@ 	c #0609CC",
"# 	c #0806CE",
"$ 	c #0807CB",
"% 	c #0808CA",
"& 	c #0708CC",
"* 	c #0405DD",
"= 	c #0102F5",
"- 	c #0000FF",
"; 	c #0000FE",
"> 	c #0302D5",
", 	c #06058F",
"' 	c #2F52B6",
") 	c #0F1BC1",
"! 	c #0000DF",
"~ 	c #0100F2",
"{ 	c #0202F1",
"] 	c #0202EE",
"^ 	c #0202EF",
"/ 	c #0101F4",
"( 	c #0000FB",
"_ 	c #0000FD",
": 	c #0202E1",
"< 	c #0607B7",
"[ 	c #408AA6",
"} 	c #132EB1",
"| 	c #0000E5",
"1 	c #0000FC",
"2 	c #0102F0",
"3 	c #0406E1",
"4 	c #2FBC5A",
"5 	c #115887",
"6 	c #0001DF",
"7 	c #0102E5",
"8 	c #02029C",
"9 	c #23E829",
"0 	c #108964",
"a 	c #0019CD",
"b 	c #0001E6",
"c 	c #0404A6",
"d 	c #1EF41E",
"e 	c #1BB15C",
"f 	c #0934B5",
"g 	c #0000F0",
"h 	c #0101EF",
"i 	c #0606CB",
"j 	c #1EFD22",
"k 	c #27DD5F",
"l 	c #1459A1",
"m 	c #0000DA",
"n 	c #0101F9",
"o 	c #0404E7",
"p 	c #19FF1B",
"q 	c #1BFF33",
"r 	c #108C6F",
"s 	c #020FCA",
"t 	c #0001FD",
"u 	c #0001F2",
"v 	c #0104B9",
"w 	c #14FF12",
"x 	c #0AFF01",
"y 	c #08B83A",
"z 	c #0634B6",
"A 	c #0000CB",
"B 	c #11FF0E",
"C 	c #07FF00",
"D 	c #11E133",
"E 	c #0F5C9B",
"F 	c #0000E0",
"G 	c #0000F8",
"H 	c #0000F6",
"I 	c #0000F2",
"J 	c #0000EE",
"K 	c #0000EB",
"L 	c #0000E8",
"M 	c #0000E6",
"N 	c #0000E7",
"O 	c #0000EC",
"P 	c #0000E4",
"Q 	c #0000CA",
"R 	c #11FC0E",
"S 	c #06FF01",
"T 	c #17FA30",
"U 	c #208D70",
"V 	c #312886",
"W 	c #5D258B",
"X 	c #693A8A",
"Y 	c #613689",
"Z 	c #623689",
"` 	c #633688",
" .	c #633588",
"..	c #623688",
"+.	c #62358A",
"@.	c #61358A",
"#.	c #633585",
"$.	c #6E3881",
"%.	c #783B7E",
"&.	c #7A3B7A",
"*.	c #783A79",
"=.	c #783B7A",
"-.	c #773B7A",
";.	c #783B79",
">.	c #77397A",
",.	c #783C7C",
"'.	c #79437F",
").	c #12FE13",
"!.	c #01FF04",
"~.	c #11F913",
"{.	c #42B933",
"].	c #A08133",
"^.	c #FE8120",
"/.	c #FF8D1B",
"(.	c #FD8B1E",
"_.	c #FF8B1E",
":.	c #FF8A1D",
"<.	c #FF8A1C",
"[.	c #FF8B1C",
"}.	c #FF8B1D",
"|.	c #FF8A1E",
"1.	c #FF8915",
"2.	c #FF880F",
"3.	c #FF880E",
"4.	c #FF8910",
"5.	c #FF8811",
"6.	c #FF8911",
"7.	c #FF860C",
"8.	c #FF8A14",
"9.	c #FF952A",
"0.	c #14FF16",
"a.	c #00FF06",
"b.	c #10F400",
"c.	c #66CE06",
"d.	c #D7A50C",
"e.	c #FF9008",
"f.	c #FF9106",
"g.	c #FF9308",
"h.	c #FF9207",
"i.	c #FF9208",
"j.	c #FF9205",
"k.	c #FF8F00",
"l.	c #FF8C00",
"m.	c #FF8D00",
"n.	c #FF8A00",
"o.	c #FF8E00",
"p.	c #FF990D",
"q.	c #12F300",
"r.	c #6DCB00",
"s.	c #D29A03",
"t.	c #FF7B08",
"u.	c #FC7A09",
"v.	c #F87D09",
"w.	c #F97D09",
"x.	c #F97C09",
"y.	c #F97C07",
"z.	c #FA7B03",
"A.	c #FA7B00",
"B.	c #F97B00",
"C.	c #F97A00",
"D.	c #FA7A00",
"E.	c #FA7900",
"F.	c #FA7C04",
"G.	c #F88717",
"H.	c #00FF07",
"I.	c #12F400",
"J.	c #69C800",
"K.	c #CE9600",
"L.	c #FF7B00",
"M.	c #FD7E00",
"N.	c #FE7D00",
"O.	c #FE7E00",
"P.	c #FF7D00",
"Q.	c #FF7C00",
"R.	c #FE8004",
"S.	c #FC8B19",
"T.	c #69C900",
"U.	c #CE9700",
"V.	c #FE7F00",
"W.	c #FC8B18",
"X.	c #68C900",
"Y.	c #FD7D00",
"Z.	c #FD8B18",
"`.	c #FF7E00",
" +	c #CD9700",
".+	c #FC8A18",
"++	c #13FF16",
"@+	c #68CA00",
"#+	c #FE8003",
"$+	c #FD8B16",
"%+	c #12FF15",
"&+	c #11F400",
"*+	c #65CB00",
"=+	c #CB9800",
"-+	c #FE8203",
";+	c #FC8C17",
">+	c #14FB15",
",+	c #14F300",
"'+	c #6DC700",
")+	c #D19500",
"!+	c #FC7F00",
"~+	c #FD7F00",
"{+	c #FE8303",
"]+	c #1DEE1D",
"^+	c #00FD08",
"/+	c #20ED00",
"(+	c #8BB800",
"_+	c #E88A00",
":+	c #FF7A00",
"<+	c #FD8C16",
"[+	c #22E827",
"}+	c #00FD0C",
"|+	c #2FE600",
"1+	c #ADA700",
"2+	c #FF7800",
"3+	c #FF7F00",
"4+	c #FE8304",
"5+	c #FC8C18",
"6+	c #00FF18",
"7+	c #3CE50A",
"8+	c #BA9E00",
"9+	c #FF7400",
"0+	c #FB8000",
"a+	c #FC8C19",
"b+	c #06FF24",
"c+	c #41E310",
"d+	c #B6A000",
"e+	c #07D320",
"f+	c #3FCE0E",
"g+	c #B6A400",
"h+	c #FF7700",
"i+	c #FA8000",
"j+	c #FE7C00",
"k+	c #FE8204",
"l+	c #FD8C18",
"m+	c #43B912",
"n+	c #BBA500",
"o+	c #FB7F00",
"p+	c #62BC1D",
"q+	c #C3A309",
"r+	c #FF7900",
"s+	c #FF7500",
"t+	c #FC7E00",
"u+	c #FF8300",
"v+	c #FC8D17",
"w+	c #98B731",
"x+	c #C79E1E",
"y+	c #FB830C",
"z+	c #FF7F08",
"A+	c #FB850B",
"B+	c #FD830B",
"C+	c #FD850B",
"D+	c #FD870B",
"E+	c #FD870A",
"F+	c #FD8708",
"G+	c #FD8A0E",
"H+	c #FC8F1D",
"I+	c #9D9444",
"J+	c #C59433",
"K+	c #F99225",
"L+	c #FF9021",
"M+	c #F79024",
"N+	c #FA9023",
"O+	c #FA9123",
"P+	c #FA9124",
"Q+	c #FA9025",
"    . + @ # $ % & * = - - - ; ; ; ; ; ; ; ; ; - - > ,           ",
"    ' ) ! ~ { ] ^ / ( ; ; ; _ _ _ _ ; ; ; _ ; - - : <           ",
"    [ } | - - - - - ; _ _ _ 1 1 1 _ ; ; _ 1 _ - - 2 3           ",
"    4 5 6 - - ; - ; _ _ ; _ 1 1 _ _ ; ; _ _ 1 _ ; - 7 8         ",
"    9 0 a - - ; _ _ _ _ _ _ _ 1 _ _ _ _ _ _ _ _ _ - b c         ",
"    d e f g - - 1 _ 1 1 _ _ _ 1 _ _ _ _ _ _ _ _ _ - h i         ",
"    j k l m - - ( _ 1 1 _ _ _ 1 1 _ _ _ _ _ 1 1 _ - n o         ",
"    p q r s - - t - - - - - - - - - - - - - - - - - - u v       ",
"    w x y z - - - - - - - - - - - - - - - - - - - - - - A       ",
"    B C D E F 1 G H H H H H H H H I J K L M M N N | O P Q       ",
"    R S T U V W X Y Z `  ...Z +.@.#.$.%.&.*.=.-.-.;.>.,.'.      ",
"    ).!.~.{.].^./.(._.:.<.[.}.|.|.<.1.2.3.4.5.5.5.6.7.8.9.      ",
"    0.a.b.c.d.e.f.g.g.h.h.h.i.g.g.j.k.l.l.m.l.l.l.m.n.o.p.      ",
"    0.a.q.r.s.t.u.v.w.w.x.x.x.w.w.y.z.A.B.C.D.D.D.B.E.F.G.      ",
"    0.H.I.J.K.L.L.M.N.O.O.P.P.P.N.N.N.O.M.M.O.O.O.O.Q.R.S.      ",
"    0.H.q.T.U.Q.Q.M.O.O.V.O.O.O.O.M.N.N.O.M.M.M.O.O.Q.R.W.      ",
"    0.H.q.X.U.L.Q.M.O.O.O.O.O.O.O.M.O.O.O.M.Y.M.O.O.Q.R.Z.      ",
"    0.H.q.X.U.L.Q.M.O.O.O.O.O.O.O.M.O.V.V.M.O.O.O.`.Q.R.W.      ",
"    0.H.q.X. +L.Q.O.O.N.O.O.`.O.O.O.O.O.M.M.O.O.O.V.Q.R.S.      ",
"    0.H.q.T.U.L.Q.V.O.Y.O.O.O.O.O.V.O.O.O.O.O.O.O.O.Q.R..+      ",
"    ++H.I.@+ +L.Q.V.O.Y.O.O.M.V.O.O.O.O.O.O.N.O.O.O.L.#+$+      ",
"    %+a.&+*+=+L.Q.V.O.Y.O.V.V.V.O.Y.O.V.V.O.O.O.O.N.Q.-+;+      ",
"    >+a.,+'+)+L.Q.V.O.O.O.O.O.O.O.O.O.O.M.!+~+O.N.N.Q.{+;+      ",
"    ]+^+/+(+_+:+P.O.O.O.O.O.N.N.O.O.O.O.O.~+~+V.`.`.P.{+<+      ",
"    [+}+|+1+Q.2+!+`.O.Y.O.O.N.N.M.~+O.O.O.~+M.V.V.3+P.4+5+      ",
"      6+7+8+9+2+0+`.O.Y.O.O.O.O.~+~+O.O.O.M.O.V.V.O.P.4+a+      ",
"      b+c+d+9+2+0+O.O.O.O.O.O.O.O.O.O.O.O.O.O.O.O.N.N.4+5+      ",
"      e+f+g+2+h+i+O.V.V.V.V.V.V.`.O.O.O.N.N.O.N.j+N.j+k+l+      ",
"        m+n+:+h+o+N.O.O.O.O.O.`.N.N.O.O.N.N.N.N.j+Q.L.-+5+      ",
"        p+q+r+s+t+Q.Q.j+Q.Q.Q.Q.Q.Q.Q.Q.N.O.V.O.`.`.P.u+v+      ",
"        w+x+y+z+A+B+B+B+B+B+B+B+B+B+B+B+C+D+D+E+E+D+F+G+H+      ",
"        I+J+K+L+M+N+N+N+N+N+N+N+N+N+N+N+O+O+O+O+O+O+O+P+Q+      "};
