/* XPM */
static char * icon_scaled_xpm[] = {
"32 32 112 2",
"  	c None",
". 	c #DCDCDC",
"+ 	c #E4E4E4",
"@ 	c #EAEAEA",
"# 	c #ECECEC",
"$ 	c #F7F7F7",
"% 	c #CCCCCC",
"& 	c #BEBEBE",
"* 	c #F5F5F5",
"= 	c #B1B1B1",
"- 	c #343434",
"; 	c #0D0D0D",
"> 	c #0F0F0F",
", 	c #F1F1F1",
"' 	c #5F5F5F",
") 	c #000000",
"! 	c #595959",
"~ 	c #9A3434",
"{ 	c #D50C0C",
"] 	c #CC0B0B",
"^ 	c #460404",
"/ 	c #180101",
"( 	c #D00C0C",
"_ 	c #F0E4E4",
": 	c #D81111",
"< 	c #1F0101",
"[ 	c #710606",
"} 	c #BE0B0B",
"| 	c #F0E8E8",
"1 	c #DC0F0F",
"2 	c #840707",
"3 	c #2F0202",
"4 	c #090000",
"5 	c #5F0505",
"6 	c #D60C0C",
"7 	c #AF0A0A",
"8 	c #0C0000",
"9 	c #1C0101",
"0 	c #BF0B0B",
"a 	c #DA0C0C",
"b 	c #780606",
"c 	c #4C0404",
"d 	c #A50909",
"e 	c #040000",
"f 	c #600505",
"g 	c #D70C0C",
"h 	c #A20909",
"i 	c #D10C0C",
"j 	c #585959",
"k 	c #8D3B3B",
"l 	c #D20C0C",
"m 	c #E10D0D",
"n 	c #6A0606",
"o 	c #7B0707",
"p 	c #320202",
"q 	c #2D0202",
"r 	c #590505",
"s 	c #420303",
"t 	c #CB0B0B",
"u 	c #C20B0B",
"v 	c #390303",
"w 	c #980808",
"x 	c #470404",
"y 	c #050000",
"z 	c #D80C0C",
"A 	c #3A0303",
"B 	c #610505",
"C 	c #EFDEDE",
"D 	c #7E4343",
"E 	c #5E0505",
"F 	c #C50B0B",
"G 	c #130101",
"H 	c #D40C0C",
"I 	c #290202",
"J 	c #A80909",
"K 	c #9E0909",
"L 	c #DE0C0C",
"M 	c #D30C0C",
"N 	c #D90C0C",
"O 	c #150101",
"P 	c #1E0101",
"Q 	c #EECECE",
"R 	c #DB1010",
"S 	c #2C0202",
"T 	c #530404",
"U 	c #BA0A0A",
"V 	c #010000",
"W 	c #8C0808",
"X 	c #450404",
"Y 	c #810707",
"Z 	c #910808",
"` 	c #480404",
" .	c #310202",
"..	c #350303",
"+.	c #A03131",
"@.	c #CA0B0B",
"#.	c #400303",
"$.	c #5D0505",
"%.	c #B00A0A",
"&.	c #0D0000",
"*.	c #200101",
"=.	c #4F0404",
"-.	c #B60A0A",
";.	c #110101",
">.	c #5B0505",
",.	c #950808",
"'.	c #0A0000",
").	c #7E7E7E",
"!.	c #0C0C0C",
"~.	c #F6F6F6",
"{.	c #E0E0E0",
"].	c #585858",
"                                                                ",
"    . + @ @ @ @ @ @ @ @ @ @ @ @ @ @ @ @ @ @ @ @ @ @ @ @ + .     ",
"    # $ % & & & & & & & & & & & & & & & & & & & & & & % $ #     ",
"    * = - ; > > > > > > > > > > > > > > > > > > > > ; - = *     ",
"    , ' ) ) ) ) ) ) ) ) ) ) ) ) ) ) ) ) ) ) ) ) ) ) ) ) ' ,     ",
"    , ! ) ) ) ) ) ) ) ) ) ) ) ) ) ) ) ) ) ) ) ) ) ) ) ) ! ,     ",
"    , ! ) ) ) ) ) ) ) ) ) ) ) ) ) ) ) ) ) ) ) ) ) ) ) ) ! ,     ",
"    , ! ) ) ) ) ) ) ) ) ) ) ) ) ) ) ) ) ) ) ) ) ) ) ) ) ! ,     ",
"    , ! ) ) ) ) ) ) ) ) ) ) ) ) ) ) ) ) ) ) ) ) ) ) ) ) ! ,     ",
"    , ! ) ) ) ) ) ) ) ) ) ) ) ) ) ) ) ) ) ) ) ) ) ) ) ) ! ,     ",
"    , ! ) ) ) ) ) ) ) ) ) ) ) ) ) ) ) ) ) ) ) ) ) ) ) ) ! ,     ",
"    , ~ { ] ^ ) ) ) ) ) ) ) ) ) / ( ) ) ) ) ) ) ) ) / ( ! ,     ",
"    _ : < [ } ) ) ) ) ) ) ) ) ) / ( ) ) ) ) ) ) ) ) / ( ! ,     ",
"    | 1 2 3 4 ) 5 6 7 8 9 0 a b / ( ) c { d e ) f g h i j ,     ",
"    , k l m n e 6 3 o p q r s t / ( ) u v w x y z A B l j ,     ",
"    C D y E F G H ) ) ) I J K ( / ( ) L M N n O H ) P l j ,     ",
"    Q R S T U V l p W X Y Z ` i / ( ) F c [  .e 6 ..B l j ,     ",
"    , +.z @.#.) $.g %.&.#.H K 6 *.( ) =.H -.;.) >.g ,.l j ,     ",
"    , ! ) ) ) ) ) ) ) ) ) ) ) ) ) ) ) ) ) ) ) ) ) ) ) '.! ,     ",
"    , ! ) ) ) ) ) ) ) ) ) ) ) ) ) ) ) ) ) ) ) ) ) ) ) ) ! ,     ",
"    , ! ) ) ) ) ) ) ) ) ) ) ) ) ) ) ) ) ) ) ) ) ) ) ) ) ! ,     ",
"    , ! ) ) ) ) ) ) ) ) ) ) ) ) ) ) ) ) ) ) ) ) ) ) ) ) ! ,     ",
"    , ! ) ) ) ) ) ) ) ) ) ) ) ) ) ) ) ) ) ) ) ) ) ) ) ) ! ,     ",
"    , ! ) ) ) ) ) ) ) ) ) ) ) ) ) ) ) ) ) ) ) ) ) ) ) ) ! ,     ",
"    , ! ) ) ) ) ) ) ) ) ) ) ) ) ) ) ) ) ) ) ) ) ) ) ) ) ! ,     ",
"    , ! ) ) ) ) ) ) ) ) ) ) ) ) ) ) ) ) ) ) ) ) ) ) ) ) ! ,     ",
"    , ! ) ) ) ) ) ) ) ) ) ) ) ) ) ) ) ) ) ) ) ) ) ) ) ) ! ,     ",
"    , ).!.) ) ) ) ) ) ) ) ) ) ) ) ) ) ) ) ) ) ) ) ) ) !.).,     ",
"    ~.{.).].! ! ! ! ! ! ! ! ! ! ! ! ! ! ! ! ! ! ! ! ].).{.~.    ",
"    {.~., , , , , , , , , , , , , , , , , , , , , , , , ~.{.    ",
"    {.                                                    {.    ",
"                                                                "};
