/* XPM */
static char * icon_sig_xpm[] = {
"32 32 230 2",
"  	c None",
". 	c #FF0000",
"+ 	c #000000",
"@ 	c #4B0000",
"# 	c #C30000",
"$ 	c #4D0000",
"% 	c #150000",
"& 	c #030000",
"* 	c #0E0000",
"= 	c #310000",
"- 	c #690000",
"; 	c #E20000",
"> 	c #B10000",
", 	c #020000",
"' 	c #200000",
") 	c #800000",
"! 	c #9F0000",
"~ 	c #910000",
"{ 	c #5D0000",
"] 	c #120000",
"^ 	c #B70000",
"/ 	c #F70000",
"( 	c #FA0000",
"_ 	c #2B0000",
": 	c #160000",
"< 	c #EE0000",
"[ 	c #EF0000",
"} 	c #050000",
"| 	c #450000",
"1 	c #DC0000",
"2 	c #0B0000",
"3 	c #110000",
"4 	c #5A0000",
"5 	c #E90000",
"6 	c #210000",
"7 	c #D30000",
"8 	c #EB0000",
"9 	c #190000",
"0 	c #790000",
"a 	c #9C0000",
"b 	c #570000",
"c 	c #330000",
"d 	c #9E0000",
"e 	c #010000",
"f 	c #360000",
"g 	c #6E0000",
"h 	c #A60000",
"i 	c #EA0000",
"j 	c #740000",
"k 	c #B20000",
"l 	c #620000",
"m 	c #C00000",
"n 	c #510000",
"o 	c #0F0000",
"p 	c #040000",
"q 	c #270000",
"r 	c #1D0000",
"s 	c #CF0000",
"t 	c #FD0000",
"u 	c #D70000",
"v 	c #990000",
"w 	c #760000",
"x 	c #070000",
"y 	c #440000",
"z 	c #F80000",
"A 	c #F40000",
"B 	c #180000",
"C 	c #B50000",
"D 	c #E70000",
"E 	c #100000",
"F 	c #730000",
"G 	c #240000",
"H 	c #700000",
"I 	c #980000",
"J 	c #7A0000",
"K 	c #9D0000",
"L 	c #580000",
"M 	c #320000",
"N 	c #4C0000",
"O 	c #560000",
"P 	c #230000",
"Q 	c #1C0000",
"R 	c #CB0000",
"S 	c #DA0000",
"T 	c #0A0000",
"U 	c #E10000",
"V 	c #550000",
"W 	c #630000",
"X 	c #B80000",
"Y 	c #660000",
"Z 	c #9A0000",
"` 	c #960000",
" .	c #490000",
"..	c #FE0000",
"+.	c #870000",
"@.	c #2A0000",
"#.	c #090000",
"$.	c #F60000",
"%.	c #FF0001",
"&.	c #FF0100",
"*.	c #FF0101",
"=.	c #FF0102",
"-.	c #FF0202",
";.	c #FF0303",
">.	c #FF1C1C",
",.	c #FF1D1D",
"'.	c #FF1D1C",
").	c #FF1E1E",
"!.	c #FF1D1E",
"~.	c #FF1E1F",
"{.	c #FF1F1F",
"].	c #FF201F",
"^.	c #FF1F20",
"/.	c #FF2020",
"(.	c #FF2121",
"_.	c #FF2221",
":.	c #FF2222",
"<.	c #FF2323",
"[.	c #FF2324",
"}.	c #FF2424",
"|.	c #FF2425",
"1.	c #FF3D3E",
"2.	c #FF3D3D",
"3.	c #FF3E3E",
"4.	c #FF3E3F",
"5.	c #FF3F3F",
"6.	c #FF3F40",
"7.	c #FF4040",
"8.	c #FF4141",
"9.	c #FF4041",
"0.	c #FF4242",
"a.	c #FF4241",
"b.	c #FF4243",
"c.	c #FF4343",
"d.	c #FF4342",
"e.	c #FF4344",
"f.	c #FF4444",
"g.	c #FF4544",
"h.	c #FF4545",
"i.	c #FF4646",
"j.	c #FF5E5E",
"k.	c #FF5F5E",
"l.	c #FF5F5F",
"m.	c #FF5F60",
"n.	c #FF605F",
"o.	c #FF6060",
"p.	c #FF6161",
"q.	c #FF6162",
"r.	c #FF6262",
"s.	c #FF6263",
"t.	c #FF6363",
"u.	c #FF6364",
"v.	c #FF6464",
"w.	c #FF6465",
"x.	c #FF6564",
"y.	c #FF6565",
"z.	c #FF6566",
"A.	c #FF6666",
"B.	c #FF7F7F",
"C.	c #FF8080",
"D.	c #FF8081",
"E.	c #FF8181",
"F.	c #FF8282",
"G.	c #FF8382",
"H.	c #FF8383",
"I.	c #FF8483",
"J.	c #FF8384",
"K.	c #FF8484",
"L.	c #FF8485",
"M.	c #FF8585",
"N.	c #FF8686",
"O.	c #FF8786",
"P.	c #FF8787",
"Q.	c #FF9FA0",
"R.	c #FFA0A0",
"S.	c #FFA1A0",
"T.	c #FFA0A1",
"U.	c #FFA1A1",
"V.	c #FFA1A2",
"W.	c #FFA2A2",
"X.	c #FFA3A3",
"Y.	c #FFA3A4",
"Z.	c #FFA4A4",
"`.	c #FFA4A5",
" +	c #FFA5A5",
".+	c #FFA6A6",
"++	c #FFA6A7",
"@+	c #FFA7A6",
"#+	c #FFA7A7",
"$+	c #FFA8A8",
"%+	c #FFA7A8",
"&+	c #FFA8A9",
"*+	c #FFC0C1",
"=+	c #FFC1C1",
"-+	c #FFC2C2",
";+	c #FFC2C3",
">+	c #FFC3C2",
",+	c #FFC3C3",
"'+	c #FFC3C4",
")+	c #FFC4C3",
"!+	c #FFC4C4",
"~+	c #FFC5C4",
"{+	c #FFC5C5",
"]+	c #FFC6C6",
"^+	c #FFC6C5",
"/+	c #FFC7C6",
"(+	c #FFC7C7",
"_+	c #FFC8C8",
":+	c #FFC8C9",
"<+	c #FFC9C9",
"[+	c #FFE2E2",
"}+	c #FFE2E3",
"|+	c #FFE3E3",
"1+	c #FFE4E4",
"2+	c #FFE4E3",
"3+	c #FFE5E4",
"4+	c #FFE4E5",
"5+	c #FFE5E5",
"6+	c #FFE6E5",
"7+	c #FFE5E6",
"8+	c #FFE6E6",
"9+	c #FFE6E7",
"0+	c #FFE7E7",
"a+	c #FFE8E7",
"b+	c #FFE7E8",
"c+	c #FFE8E8",
"d+	c #FFE8E9",
"e+	c #FFE9E9",
"f+	c #FFEAEA",
"g+	c #FFEAE9",
". . . . . . . . . . . . . . . . . . . . . . . . . . . . . . . . ",
". . . . . . . . . . . . . . . . . . . . . . . . . . . . . . . . ",
". . . . . . . . . . . . . . . . . . . . . . . . . . . . . . . . ",
". . . . . . . . . . . . . . . . . . . . . . . . . . . . . . . . ",
". . . . . . . . . . . . . . . . . . . . . . . . . . . . . . . . ",
". . . . . . . . . . . . . . . . . . . . . . . . . . . . . . . . ",
". . . . . . . . . . . . . . . + @ . . . . . . . . . . . . . . . ",
". . . . # $ % & * = - ; . . . + @ . . . . . . . . . . . . . . . ",
". . . > , ' ) ! ~ { ] ^ . . . / ( . . . . . . . . . . . . . . . ",
". . . _ : < . . . . / [ . . . . . . . . . . . . . . . . . . . . ",
". . . } | . . . . . . . . . . + @ . . . 1 $ 2 3 4 5 + @ . . . . ",
". . . 6 * 7 . . . . . . . . . + @ . . 8 9 2 0 a b c + @ . . . . ",
". . . d e , f g h i . . . . . + @ . . j + k . . . l + @ . . . . ",
". . . . m n o + + p g ( . . . + @ . . q r . . . . s + @ . . . . ",
". . . . . . t u v _ + w . . . + @ . . x y . . . . z + @ . . . . ",
". . . . . . . . . A 9 B . . . + @ . . x y . . . . z + @ . . . . ",
". . . . . . . . . . | x . . . + @ . . q r . . . . s + @ . . . . ",
". . . C . . . . . D E = . . . + @ . . F + k . . . l + @ . . . . ",
". . . + G H I d 0 9 p ^ . . . + @ . . 5 B 2 J K L M + N . . . . ",
". . . ! O P x } Q b R . . . . + @ . . . S @ T o O U + V . . . . ",
". . . . . . . . . . . . . . . . . . . . . . . . . 7 + F . . . . ",
". . . . . . . . . . . . . . . . . . . . / . . . . W + X . . . . ",
". . . . . . . . . . . . . . . . . . . . | Y Z `  .+ y ... . . . ",
". . . . . . . . . . . . . . . . . . . . +.@.#.} P 0 $.. . . . . ",
". . . . . . . . . . . . . . . . . . %.&.&.*.*.*.=.-.-.;.-.;.;.;.",
">.,.'.,.).!.).).).~.{.].^./././.(.(._.:._.:.:.:.:.<.<.[.}.}.}.|.",
"1.2.3.3.3.3.4.5.6.7.7.7.7.8.9.8.0.a.0.b.c.d.c.e.c.f.f.f.g.h.h.i.",
"j.k.k.l.l.m.n.o.o.o.p.p.p.q.r.s.s.s.t.t.u.v.v.v.w.x.y.y.z.A.A.A.",
"B.B.C.C.C.D.D.E.E.E.F.F.F.G.G.H.I.J.K.K.L.L.M.M.M.N.N.N.O.P.P.P.",
"Q.R.R.S.T.U.V.W.W.X.X.X.X.Y.Y.Z.Z.`. + + + +.+.+++@+#+#+$+%+$+&+",
"*+=+=+-+=+;+>+,+,+,+'+)+!+!+~+{+{+{+]+^+]+]+/+(+(+(+_+_+_+:+<+<+",
"[+[+}+|+}+|+1+2+1+3+4+1+5+6+7+5+8+9+9+0+0+a+b+c+c+d+d+e+f+f+f+g+"};
