/* XPM */
static char * icon_sig_xpm[] = {
"32 32 109 2",
"  	c None",
". 	c #DCDCDC",
"+ 	c #E4E4E4",
"@ 	c #EAEAEA",
"# 	c #ECECEC",
"$ 	c #F7F7F7",
"% 	c #CCCCCC",
"& 	c #BEBEBE",
"* 	c #F5F5F5",
"= 	c #B1B1B1",
"- 	c #343434",
"; 	c #0D0D0D",
"> 	c #0F0F0F",
", 	c #F1F1F1",
"' 	c #5F5F5F",
") 	c #000000",
"! 	c #595959",
"~ 	c #020000",
"{ 	c #690606",
"] 	c #BD0A0A",
"^ 	c #DB0C0C",
"/ 	c #D40C0C",
"( 	c #A60909",
"_ 	c #360303",
": 	c #E10D0D",
"< 	c #DA0C0C",
"[ 	c #770606",
"} 	c #D20C0C",
"| 	c #A40909",
"1 	c #B70A0A",
"2 	c #2B0202",
"3 	c #9B0808",
"4 	c #960808",
"5 	c #D00C0C",
"6 	c #E00C0C",
"7 	c #140101",
"8 	c #840707",
"9 	c #810707",
"0 	c #D30C0C",
"a 	c #730606",
"b 	c #120101",
"c 	c #100000",
"d 	c #340303",
"e 	c #220101",
"f 	c #740606",
"g 	c #CB0B0B",
"h 	c #540404",
"i 	c #BE0B0B",
"j 	c #7E0707",
"k 	c #DF0C0C",
"l 	c #B20A0A",
"m 	c #6D0606",
"n 	c #150101",
"o 	c #610505",
"p 	c #D60C0C",
"q 	c #A30909",
"r 	c #D80C0C",
"s 	c #040000",
"t 	c #760606",
"u 	c #2E0202",
"v 	c #B80A0A",
"w 	c #3E0303",
"x 	c #430303",
"y 	c #070000",
"z 	c #3D0303",
"A 	c #7C0707",
"B 	c #AA0909",
"C 	c #030000",
"D 	c #7D0707",
"E 	c #180101",
"F 	c #1D0101",
"G 	c #DD0C0C",
"H 	c #2C0202",
"I 	c #380303",
"J 	c #BB0A0A",
"K 	c #480404",
"L 	c #8D0808",
"M 	c #A50909",
"N 	c #A70909",
"O 	c #550404",
"P 	c #5D0505",
"Q 	c #D50C0C",
"R 	c #585959",
"S 	c #050000",
"T 	c #6E0606",
"U 	c #BF0B0B",
"V 	c #DC0C0C",
"W 	c #B00A0A",
"X 	c #4F0404",
"Y 	c #780606",
"Z 	c #C80B0B",
"` 	c #490404",
" .	c #DE0C0C",
"..	c #575959",
"+.	c #750606",
"@.	c #5E0505",
"#.	c #110101",
"$.	c #CA0B0B",
"%.	c #9F0909",
"&.	c #850707",
"*.	c #210101",
"=.	c #CC0B0B",
"-.	c #870707",
";.	c #0B0000",
">.	c #7E7E7E",
",.	c #0C0C0C",
"'.	c #F6F6F6",
").	c #E0E0E0",
"!.	c #585858",
"                                                                ",
"    . + @ @ @ @ @ @ @ @ @ @ @ @ @ @ @ @ @ @ @ @ @ @ @ @ + .     ",
"    # $ % & & & & & & & & & & & & & & & & & & & & & & % $ #     ",
"    * = - ; > > > > > > > > > > > > > > > > > > > > ; - = *     ",
"    , ' ) ) ) ) ) ) ) ) ) ) ) ) ) ) ) ) ) ) ) ) ) ) ) ) ' ,     ",
"    , ! ) ) ) ) ) ) ) ) ) ) ) ) ) ) ) ) ) ) ) ) ) ) ) ) ! ,     ",
"    , ! ) ) ) ) ) ) ) ) ) ) ) ) ) ) ) ) ) ) ) ) ) ) ) ) ! ,     ",
"    , ! ) ) ) ) ) ) ) ) ) ) ) ) ) ) ) ) ) ) ) ) ) ) ) ) ! ,     ",
"    , ! ) ) ) ) ) ) ) ) ) ) ) ) ) ) ) ) ) ) ) ) ) ) ) ) ! ,     ",
"    , ! ) ) ~ { ] ^ / ( _ ) ) ) : < ) ) ) ) ) ) ) ) ) ) ! ,     ",
"    , ! ) ) [ : } | 1 : ^ 2 ) ) 3 4 ) ) ) ) ) ) ) ) ) ) ! ,     ",
"    , ! ) ) 5 6 7 ) ) 8 : 9 ) ) ) ) ) ) ) ) ) ) ) ) ) ) ! ,     ",
"    , ! ) ) 0 : a b ) c d e ) ) : < ) ) ) f } g h i : ) ! ,     ",
"    , ! ) ) j : : k l m n ) ) ) : < ) ) o : p q p r : ) ! ,     ",
"    , ! ) ) s t / : : : } u ) ) : < ) ) v : w ) x : : ) ! ,     ",
"    , ! ) ) ) ) y z A g : B ) ) : < ) ) < k ~ ) C k : ) ! ,     ",
"    , ! ) 2 4 D ) ) ) E : } ) ) : < ) ) ^ k ~ ) C k : ) ! ,     ",
"    , ! ) F : G H ) ) I : J ) ) : < ) ) 1 : w ) K : : ) ! ,     ",
"    , ! ) ) L : < M N ^ : O ) ) : < ) ) P : p q Q k : ) ! ,     ",
"    , R ) ) S T U V p W X ) ) ) : < ) ) ) Y / Z ` <  .) ! ,     ",
"    , ..) ) ) ) ) ) ) ) ) ) ) ) ) ) ) ) +.@.E ) #.6 $.) ! ,     ",
"    , ! ) ) ) ) ) ) ) ) ) ) ) ) ) ) ) ) 1 : Z %.$.: &.) ! ,     ",
"    , ! ) ) ) ) ) ) ) ) ) ) ) ) ) ) ) ) *.%.}  .=.-.;.) ! ,     ",
"    , ! ) ) ) ) ) ) ) ) ) ) ) ) ) ) ) ) ) ) ) ) ) ) ) ) ! ,     ",
"    , ! ) ) ) ) ) ) ) ) ) ) ) ) ) ) ) ) ) ) ) ) ) ) ) ) ! ,     ",
"    , ! ) ) ) ) ) ) ) ) ) ) ) ) ) ) ) ) ) ) ) ) ) ) ) ) ! ,     ",
"    , ! ) ) ) ) ) ) ) ) ) ) ) ) ) ) ) ) ) ) ) ) ) ) ) ) ! ,     ",
"    , >.,.) ) ) ) ) ) ) ) ) ) ) ) ) ) ) ) ) ) ) ) ) ) ,.>.,     ",
"    '.).>.!.! ! ! ! ! ! ! ! ! ! ! ! ! ! ! ! ! ! ! ! !.>.).'.    ",
"    ).'., , , , , , , , , , , , , , , , , , , , , , , , '.).    ",
"    ).                                                    ).    ",
"                                                                "};
