/* XPM */
static char * xpm_icon_twod_xpm[] = {
"32 32 192 2",
"  	c None",
". 	c #DFDFEB",
"+ 	c #A3A4B8",
"@ 	c #1C1DAB",
"# 	c #807FDD",
"$ 	c #3B3AF8",
"% 	c #2929BF",
"& 	c #6766E5",
"* 	c #0E0C9D",
"= 	c #6A69D1",
"- 	c #0707CB",
"; 	c #0909B5",
"> 	c #F3F3F3",
", 	c #F4F2F3",
"' 	c #0B0AAE",
") 	c #0808C0",
"! 	c #3434EE",
"~ 	c #0708BA",
"{ 	c #CCCBFF",
"] 	c #DADBF0",
"^ 	c #DCDBE9",
"/ 	c #DCDCE6",
"( 	c #DDDCE4",
"_ 	c #DDDCE2",
": 	c #DDDDDF",
"< 	c #DADBEF",
"[ 	c #D6D7FF",
"} 	c #4E4FB9",
"| 	c #0809AF",
"1 	c #6D6EFF",
"2 	c #090AB4",
"3 	c #6868E2",
"4 	c #DEDDE2",
"5 	c #DDDDDD",
"6 	c #6164FF",
"7 	c #090BAE",
"8 	c #9D9DF7",
"9 	c #ABABFF",
"0 	c #0E0E92",
"a 	c #1C1CA0",
"b 	c #1A19BF",
"c 	c #0B0CA4",
"d 	c #6B6AD0",
"e 	c #5E5EA8",
"f 	c #9898DE",
"g 	c #4949CF",
"h 	c #8F8FFF",
"i 	c #8E8EF0",
"j 	c #1616D6",
"k 	c #0908BC",
"l 	c #0C0D99",
"m 	c #3C3CAE",
"n 	c #B6B5FF",
"o 	c #0C0C9E",
"p 	c #3939CB",
"q 	c #6766E6",
"r 	c #9A9CFF",
"s 	c #090BAD",
"t 	c #2829BF",
"u 	c #6363FF",
"v 	c #0B0AB0",
"w 	c #8F8EEC",
"x 	c #0E0E90",
"y 	c #0F0E8D",
"z 	c #EEEFFF",
"A 	c #6160FF",
"B 	c #0707C7",
"C 	c #8485FF",
"D 	c #0B0BAB",
"E 	c #1D1DA1",
"F 	c #090CA7",
"G 	c #A7A8FF",
"H 	c #A8A7FF",
"I 	c #0C0CA2",
"J 	c #4B4BBB",
"K 	c #2C2DA3",
"L 	c #0E0D95",
"M 	c #CECFFF",
"N 	c #2422F1",
"O 	c #0505D5",
"P 	c #0B0BA9",
"Q 	c #4445EB",
"R 	c #4A4BBF",
"S 	c #595AC6",
"T 	c #A1A1FF",
"U 	c #0504DC",
"V 	c #1615DF",
"W 	c #0E0F8E",
"X 	c #AEADFF",
"Y 	c #BDBCFF",
"Z 	c #3C3CAC",
"` 	c #0E0E94",
" .	c #B8B8FF",
"..	c #A7A7ED",
"+.	c #6D6CFF",
"@.	c #0506D2",
"#.	c #5253FD",
"$.	c #9191D7",
"%.	c #7171D1",
"&.	c #5E5EB4",
"*.	c #9696EE",
"=.	c #7B7BFD",
"-.	c #D4D6FF",
";.	c #9A9BFF",
">.	c #3231B9",
",.	c #0909B9",
"'.	c #4041FF",
").	c #0809BB",
"!.	c #9899FF",
"~.	c #AEAEF8",
"{.	c #0C0D9B",
"].	c #4949CD",
"^.	c #6464F6",
"/.	c #0708B8",
"(.	c #0707C1",
"_.	c #1415E3",
":.	c #0E0D97",
"<.	c #080AB5",
"[.	c #1819C1",
"}.	c #3536E0",
"|.	c #0708C4",
"1.	c #090AB2",
"2.	c #0808BE",
"3.	c #0809BC",
"4.	c #3536DE",
"5.	c #0809B9",
"6.	c #BDBBFF",
"7.	c #2526D6",
"8.	c #6364FC",
"9.	c #090AB0",
"0.	c #8E8CED",
"a.	c #3F3E9C",
"b.	c #101080",
"c.	c #ACADFF",
"d.	c #5454F4",
"e.	c #9898FF",
"f.	c #0B0CA5",
"g.	c #0C0D9D",
"h.	c #0909B7",
"i.	c #3737D7",
"j.	c #7977DC",
"k.	c #0C0AA9",
"l.	c #8A89FF",
"m.	c #2C2CA4",
"n.	c #4042FF",
"o.	c #4B49C4",
"p.	c #0E0BA0",
"q.	c #B6B6FF",
"r.	c #6463FF",
"s.	c #0706D0",
"t.	c #8384FF",
"u.	c #1A19B2",
"v.	c #D5D6FF",
"w.	c #1A18C4",
"x.	c #0505D7",
"y.	c #0A0CAF",
"z.	c #6061FF",
"A.	c #1D1CA4",
"B.	c #595AC4",
"C.	c #0C0BA5",
"D.	c #9897FF",
"E.	c #0B08BB",
"F.	c #1513E0",
"G.	c #1718CB",
"H.	c #4A4AC4",
"I.	c #8E8FEC",
"J.	c #6362FF",
"K.	c #8E8EF2",
"L.	c #0B09B5",
"M.	c #615FFF",
"N.	c #6869D3",
"O.	c #4242FF",
"P.	c #4A49C9",
"Q.	c #0C0BA7",
"R.	c #A5A5FF",
"S.	c #6868D8",
"T.	c #8585FF",
"U.	c #9D9DF5",
"V.	c #1716D4",
"W.	c #8887FF",
"X.	c #0E0D8D",
"Y.	c #0B0BA7",
"Z.	c #0C0BA4",
"`.	c #4342B9",
" +	c #5D5DF1",
".+	c #252597",
"++	c #4E4EA6",
"@+	c #3334A0",
"#+	c #23248E",
"$+	c #7878D8",
"%+	c #7978D6",
"&+	c #8A89D7",
". +                                                             ",
". +                                                             ",
". +                                                             ",
". +                                                             ",
". + @                         #                                 ",
". + $ %                     & * =                               ",
". + - ; > > > > > > , , > > ' ) > > > > > , , > > > > > > > > > ",
". + ! ~ { ] ^ / ( _ : < [ } | 1 2 3 4 : 5 5 5 : : 5 5 5 5 5 5 5 ",
". + 6 7 8               9 0 a   - b                             ",
". +   c d     e f       g h i   j k                             ",
". +   l m   n o p q   r s t     u v w                           ",
". +   x y z A B C D   E F G     H I J                           ",
". +   K L M N O   P Q c R         0 x                           ",
". +   S I T U V   W c X Y         Z `  .                      ..",
". +     ' +.@.#.  $.%.&.          *.=.-.                    ;.>.",
". +     ,.'.).!.                  ~.{.].                    ^./.",
". +     (._.:.                      <.[.                    }.|.",
". +     1.2.                        2.)                     3.|.",
". +       L                         4.5.6.                  ).7.",
". +                                 8.9.0.        a.b.    c.2 d.",
". +                                 e.f.S         g.h.i.  j.k.l.",
". +                                   {.m.      H 3.n.)   o.p.q.",
". +                                   x x       r.s.t.5.  u.g.v.",
". +                                   K {.      w.x.  y.z.1.A.  ",
". +                                   B.C.D.    E.F.  c G.2 H.  ",
". +                                   I.v J.  K.L.M.  A.3.  N.  ",
". +                                     ,.O.  P.Q.R.  S.3.T.U.  ",
". +                                     D V.W.0 X.    c.Y.Z.    ",
". +                                     `. +  .+++      @+#+    ",
". +                                       $+%+&+                ",
". +                                                             ",
". +                                                             "};
