/* XPM */
static char * icon_cube_xpm[] = {
"32 32 126 2",
"  	c None",
". 	c #000E79",
"+ 	c #050FBB",
"@ 	c #0908C8",
"# 	c #0909C6",
"$ 	c #0909C7",
"% 	c #0809C9",
"& 	c #0405E1",
"* 	c #0001FD",
"= 	c #0000FF",
"- 	c #0101FF",
"; 	c #070681",
"> 	c #4780C9",
", 	c #0004C9",
"' 	c #0000FE",
") 	c #0000FD",
"! 	c #0000FB",
"~ 	c #0708C7",
"{ 	c #389B7F",
"] 	c #000EA2",
"^ 	c #0000FC",
"/ 	c #0405E5",
"( 	c #2AEB39",
"_ 	c #095595",
": 	c #0001FF",
"< 	c #03037B",
"[ 	c #1FE922",
"} 	c #0F7B6F",
"| 	c #0006DA",
"1 	c #090AC0",
"2 	c #1AF51A",
"3 	c #31D891",
"4 	c #0008A9",
"5 	c #0505DE",
"6 	c #17FF19",
"7 	c #12F532",
"8 	c #0C4F8D",
"9 	c #0001F8",
"0 	c #070892",
"a 	c #17FF18",
"b 	c #00FF00",
"c 	c #0E8A66",
"d 	c #0000EB",
"e 	c #0002FF",
"f 	c #0406BE",
"g 	c #17FF17",
"h 	c #2DD275",
"i 	c #000D9A",
"j 	c #0000CF",
"k 	c #0000D1",
"l 	c #0000D0",
"m 	c #0100D0",
"n 	c #0800C3",
"o 	c #2008C0",
"p 	c #2106B6",
"q 	c #2006B6",
"r 	c #2007B4",
"s 	c #1F07B7",
"t 	c #2006B9",
"u 	c #240FA2",
"v 	c #30E531",
"w 	c #54714C",
"x 	c #FF8A20",
"y 	c #FF8B20",
"z 	c #FF8A1E",
"A 	c #FF8B1D",
"B 	c #FF9E43",
"C 	c #36E203",
"D 	c #AFAF16",
"E 	c #FB871C",
"F 	c #FE861E",
"G 	c #FD871E",
"H 	c #FD861D",
"I 	c #FF8513",
"J 	c #FE7E00",
"K 	c #FF7F00",
"L 	c #FF7E00",
"M 	c #FD911F",
"N 	c #38E200",
"O 	c #AFA700",
"P 	c #FD8000",
"Q 	c #FE7F00",
"R 	c #FF7E02",
"S 	c #FB9124",
"T 	c #AFA800",
"U 	c #FC8000",
"V 	c #FE7E01",
"W 	c #AEA800",
"X 	c #FC9124",
"Y 	c #AEA700",
"Z 	c #FF7E01",
"` 	c #FC9125",
" .	c #39E200",
"..	c #FE8000",
"+.	c #16FF18",
"@.	c #37E300",
"#.	c #ADA800",
"$.	c #FD7F00",
"%.	c #FF8200",
"&.	c #1BF319",
"*.	c #47DA00",
"=.	c #C39D00",
"-.	c #2CE42B",
";.	c #00FE00",
">.	c #66CB00",
",.	c #ED8800",
"'.	c #147213",
").	c #07FF14",
"!.	c #79C200",
"~.	c #FF7A00",
"{.	c #1EFF28",
"].	c #77C300",
"^.	c #0FB519",
"/.	c #7AC800",
"(.	c #FE7D02",
"_.	c #1EA42A",
":.	c #87C00C",
"<.	c #A1C023",
"[.	c #FF8000",
"}.	c #FF8400",
"|.	c #FF8300",
"1.	c #FF8700",
"2.	c #9B933E",
"3.	c #FF9527",
"4.	c #FA9226",
"5.	c #FA9126",
"                                                                ",
"                                                                ",
"                                                                ",
"        . + @ # $ % & * = = = = = = = = = = = - ;               ",
"        > , = = = = = ' ) ' ) ) ) ' ' ' ) ' = ! ~               ",
"        { ] = ) ) * ) ) ' ' ) ) ) ' ' ' ) ) ' ^ /               ",
"        ( _ = ' ' ' ) ' ' ' ) ) ' ' ' ' ) ) ' ) : <             ",
"        [ } | = ) ' ) ) ) ' ) ) ) ) ) ) ' ' ) ) = 1             ",
"        2 3 4 = ) ' ) ) ) ' ) ) ) ' ' ' ) ^ ' ) = 5             ",
"        6 7 8 = ^ ) ' ' ' ' ' ) ' ' ' ' ) ^ ' ) = 9 0           ",
"        a b c d = = = = = = = = = = : : : : : : e : f           ",
"        g b h i j k l l m l l l l n o p q r s r q t u           ",
"        g b v w x x y y z A y x x y z A y x x y y z B           ",
"        a b C D E F G F F F F G H I J K K K K K K L M           ",
"        a b N O P L K K L L L K K L K Q J L R Q Q L S           ",
"        a b N T U Q V K Q K L K J J J J Q Q J L L L S           ",
"        a b N W U Q K J Q K J K Q J L Q J J Q J K L X           ",
"        a b N Y U L J K K L Q L J V Q Q J J Q L Z L X           ",
"        a b N W U L K L J K K L Q J K Q J K K K K L S           ",
"        a b N W U L K J J L J L Q K L J Q J L J L L `           ",
"        a b  .O U L K J J Q Q ..J J Q K L J K J L K M           ",
"        +.b @.#.U L K J J K Q K J J K Q $.K J J L %.S           ",
"        &.b *.=.U L K K Q L L J L K L Q $...L L L %.M           ",
"        -.;.>.,.$.L L J J K J L Q Q L Q Q $.K K K %.S           ",
"        '.).!.~.$.L K J J K J L U Q L Q $.L ..K K %.S           ",
"          {.].~.Q Q K Q Q K Q Q L L J L L Q L J J %.X           ",
"          ^./.~.$.J K K K K K K L Q K J L K (.L L %.X           ",
"          _.:.~.Q J K Q Q K Q K J K K J J Q J L L %.S           ",
"            <.~.L L L L L L L L L L L [.}.|.|.}.|.1.`           ",
"            2.3.4.4.4.4.4.4.4.4.5.4.4.4.4.4.4.4.4.5.5.          ",
"                                                                ",
"                                                                "};
