/* XPM */
static char * icon_nospin_xpm[] = {
"32 32 448 2",
"  	c None",
". 	c #100000",
"+ 	c #0E0000",
"@ 	c #0C0000",
"# 	c #0D0000",
"$ 	c #0A0000",
"% 	c #080000",
"& 	c #000000",
"* 	c #040000",
"= 	c #3B0202",
"- 	c #910808",
"; 	c #E20E0E",
"> 	c #FF1010",
", 	c #2F0202",
"' 	c #960909",
") 	c #E10E0E",
"! 	c #EA0F0F",
"~ 	c #CA0D0D",
"{ 	c #290202",
"] 	c #920909",
"^ 	c #F30F0F",
"/ 	c #FC1010",
"( 	c #B10B0B",
"_ 	c #640606",
": 	c #1F0101",
"< 	c #2C0202",
"[ 	c #230202",
"} 	c #310202",
"| 	c #970909",
"1 	c #F40F0F",
"2 	c #B90B0B",
"3 	c #4D0404",
"4 	c #210101",
"5 	c #630404",
"6 	c #900909",
"7 	c #740606",
"8 	c #330303",
"9 	c #980808",
"0 	c #F50F0F",
"a 	c #4E0404",
"b 	c #030000",
"c 	c #010000",
"d 	c #360302",
"e 	c #A20A09",
"f 	c #E90F0F",
"g 	c #BF0C0C",
"h 	c #500404",
"i 	c #9A0909",
"j 	c #B70B0B",
"k 	c #480404",
"l 	c #020000",
"m 	c #3A0202",
"n 	c #B10A0A",
"o 	c #FE0F0F",
"p 	c #D40C0C",
"q 	c #580404",
"r 	c #300202",
"s 	c #9B0909",
"t 	c #F70F0F",
"u 	c #B50A0A",
"v 	c #4B0404",
"w 	c #380201",
"x 	c #AD0A0A",
"y 	c #FB1010",
"z 	c #D00D0D",
"A 	c #550404",
"B 	c #350303",
"C 	c #9C0909",
"D 	c #B40B0B",
"E 	c #4A0404",
"F 	c #010101",
"G 	c #020202",
"H 	c #300000",
"I 	c #A60605",
"J 	c #F60F0E",
"K 	c #C70909",
"L 	c #490000",
"M 	c #360404",
"N 	c #9E0909",
"O 	c #F60E0D",
"P 	c #FF100F",
"Q 	c #B50D0C",
"R 	c #460505",
"S 	c #310000",
"T 	c #F60F0F",
"U 	c #C20D0D",
"V 	c #440506",
"W 	c #000101",
"X 	c #270000",
"Y 	c #950101",
"Z 	c #EB0101",
"` 	c #F10000",
" .	c #A20000",
"..	c #380000",
"+.	c #0E0E11",
"@.	c #211F26",
"#.	c #272B32",
"$.	c #2B3439",
"%.	c #34393C",
"&.	c #633234",
"*.	c #BB1F21",
"=.	c #F61518",
"-.	c #C71C20",
";.	c #6C2125",
">.	c #4D1718",
",.	c #950807",
"'.	c #EF0606",
").	c #BA1415",
"!.	c #480608",
"~.	c #040406",
"{.	c #1D1D20",
"].	c #333337",
"^.	c #4D4D51",
"/.	c #6C6C70",
"(.	c #86858D",
"_.	c #9598A0",
":.	c #A0A8AD",
"<.	c #A6ADB2",
"[.	c #B88D96",
"}.	c #DC4952",
"|.	c #F41C23",
"1.	c #DA262E",
"2.	c #B5353C",
"3.	c #BA2426",
"4.	c #F11110",
"5.	c #FF2625",
"6.	c #F95554",
"7.	c #AC6C6E",
"8.	c #575A5F",
"9.	c #23393E",
"0.	c #0E1B1F",
"a.	c #07080A",
"b.	c #18181C",
"c.	c #48484E",
"d.	c #7D7D83",
"e.	c #A4A4AA",
"f.	c #C9C9CD",
"g.	c #E6E6E9",
"h.	c #F6F4FA",
"i.	c #FCFFFF",
"j.	c #FEFFFF",
"k.	c #F7FDFF",
"l.	c #EEC8D5",
"m.	c #ED626F",
"n.	c #F21C25",
"o.	c #F31D24",
"p.	c #F8292F",
"q.	c #FF2124",
"r.	c #FF2C2D",
"s.	c #FF7272",
"t.	c #FFC4C5",
"u.	c #E9E7EB",
"v.	c #CCD9E0",
"w.	c #AAB2B9",
"x.	c #838388",
"y.	c #59585D",
"z.	c #27272B",
"A.	c #09090B",
"B.	c #3F3F45",
"C.	c #7E7D84",
"D.	c #BBBBC1",
"E.	c #E5E5E9",
"F.	c #FDFDFE",
"G.	c #FFFFFF",
"H.	c #FEFEFE",
"I.	c #FAFDFE",
"J.	c #ECF4F7",
"K.	c #D7DEE4",
"L.	c #CBA8B3",
"M.	c #D8505B",
"N.	c #F2151A",
"O.	c #FE0A0C",
"P.	c #FE0E0F",
"Q.	c #FF1B1D",
"R.	c #EA4C50",
"S.	c #E4A7AD",
"T.	c #EDF1FA",
"U.	c #EAE9EC",
"V.	c #C1C1C5",
"W.	c #7E7E84",
"X.	c #37373D",
"Y.	c #0C0C10",
"Z.	c #0F1214",
"`.	c #45474D",
" +	c #A2A2AA",
".+	c #E8E7EE",
"++	c #EEEEF0",
"@+	c #CACACE",
"#+	c #A6A4AA",
"$+	c #8D9098",
"%+	c #778087",
"&+	c #646C71",
"*+	c #724E53",
"=+	c #B2262A",
"-+	c #F70F10",
";+	c #FF0504",
">+	c #E90302",
",+	c #AE1617",
"'+	c #804348",
")+	c #797D87",
"!+	c #8EA4B0",
"~+	c #AAB1BB",
"{+	c #CBCCD3",
"]+	c #F0EFF3",
"^+	c #FEFDFF",
"/+	c #E9E9EC",
"(+	c #B2B2B7",
"_+	c #6D6D76",
":+	c #33333A",
"<+	c #07070B",
"[+	c #3B4047",
"}+	c #8E9098",
"|+	c #EEEFF3",
"1+	c #F7F7F9",
"2+	c #C0C0C5",
"3+	c #7E7E83",
"4+	c #444447",
"5+	c #221E21",
"6+	c #0E1116",
"7+	c #000D10",
"8+	c #060E10",
"9+	c #421011",
"0+	c #AE0E0E",
"a+	c #FF0E0D",
"b+	c #FA0A09",
"c+	c #A40706",
"d+	c #430B0B",
"e+	c #131619",
"f+	c #102328",
"g+	c #202C32",
"h+	c #323137",
"i+	c #535258",
"j+	c #8C8C92",
"k+	c #BBBBC0",
"l+	c #CCCCCE",
"m+	c #C5C5C7",
"n+	c #A8A8AC",
"o+	c #707078",
"p+	c #26282D",
"q+	c #515760",
"r+	c #ADB0B7",
"s+	c #DCDCE0",
"t+	c #898991",
"u+	c #323138",
"v+	c #0B0000",
"w+	c #6D0908",
"x+	c #DA0A09",
"y+	c #FF0404",
"z+	c #D60000",
"A+	c #650000",
"B+	c #020205",
"C+	c #2B2B31",
"D+	c #6E6E75",
"E+	c #BBBBBF",
"F+	c #F1F1F1",
"G+	c #EDECEE",
"H+	c #A5A5AA",
"I+	c #3E4145",
"J+	c #363B41",
"K+	c #898B93",
"L+	c #EDEDF2",
"M+	c #EBEBEE",
"N+	c #A6A5AD",
"O+	c #616169",
"P+	c #333539",
"Q+	c #1B2325",
"R+	c #0C1E20",
"S+	c #1C1012",
"T+	c #600707",
"U+	c #C30B0B",
"V+	c #FE1313",
"W+	c #FF1314",
"X+	c #B70709",
"Y+	c #430000",
"Z+	c #3E3E43",
"`+	c #B2B2B8",
" @	c #F8F8FB",
".@	c #9A9A9D",
"+@	c #333436",
"@@	c #0B0E10",
"#@	c #3F4147",
"$@	c #9999A0",
"%@	c #DCDCE1",
"&@	c #F4F3F8",
"*@	c #DBDCE2",
"=@	c #B6BEC2",
"-@	c #8E9B9E",
";@	c #776D72",
">@	c #8B3135",
",@	c #C30607",
"'@	c #FD1010",
")@	c #FE3C3E",
"!@	c #FE595C",
"~@	c #B74446",
"{@	c #4B1618",
"]@	c #212124",
"^@	c #7B7B82",
"/@	c #B7B7BF",
"(@	c #9E9EA4",
"_@	c #515153",
":@	c #121213",
"<@	c #08080B",
"[@	c #3A3A3F",
"}@	c #75757B",
"|@	c #B3B2B9",
"1@	c #E2E1E8",
"2@	c #F8FDFF",
"3@	c #F9FFFF",
"4@	c #E8DEE0",
"5@	c #E1888C",
"6@	c #ED2F32",
"7@	c #FF0708",
"8@	c #FF3232",
"9@	c #FE8A8A",
"0@	c #FFC7C7",
"a@	c #DAB2B4",
"b@	c #81676C",
"c@	c #272227",
"d@	c #000305",
"e@	c #0F0F11",
"f@	c #303034",
"g@	c #414146",
"h@	c #2F2F33",
"i@	c #0E0E10",
"j@	c #16161A",
"k@	c #414147",
"l@	c #6A6C73",
"m@	c #849297",
"n@	c #A9BCC1",
"o@	c #DBCED2",
"p@	c #FEABAD",
"q@	c #FE5556",
"r@	c #FA2020",
"s@	c #F77C7C",
"t@	c #FEE3E2",
"u@	c #F7FEFE",
"v@	c #B1B2B9",
"w@	c #4F4C55",
"x@	c #0E0D11",
"y@	c #000609",
"z@	c #0D1F22",
"A@	c #4F4248",
"B@	c #B5565C",
"C@	c #FE474A",
"D@	c #FE1212",
"E@	c #D70000",
"F@	c #B63C3B",
"G@	c #D2B7B6",
"H@	c #F1EFF2",
"I@	c #AAA1A8",
"J@	c #49454C",
"K@	c #0C0D10",
"L@	c #610406",
"M@	c #D00D10",
"N@	c #FE0E10",
"O@	c #CE0000",
"P@	c #740000",
"Q@	c #624646",
"R@	c #B6C1C3",
"S@	c #FFDDE3",
"T@	c #CD8B8F",
"U@	c #704447",
"V@	c #191113",
"W@	c #000203",
"X@	c #5D0000",
"Y@	c #C50101",
"Z@	c #FC0303",
"`@	c #DB0505",
" #	c #6F0000",
".#	c #180000",
"+#	c #243A3D",
"@#	c #949198",
"##	c #F2AAB3",
"$#	c #FF7379",
"%#	c #B8292B",
"&#	c #4A0000",
"*#	c #120000",
"=#	c #670404",
"-#	c #CE0A0A",
";#	c #FE0C0B",
">#	c #DD0808",
",#	c #780202",
"'#	c #130000",
")#	c #041E23",
"!#	c #66424B",
"~#	c #CD3F47",
"{#	c #F81A1D",
"]#	c #BD0000",
"^#	c #680606",
"/#	c #D30E0E",
"(#	c #FF1212",
"_#	c #E41111",
":#	c #7F0A0A",
"<#	c #200303",
"[#	c #000608",
"}#	c #440C0F",
"|#	c #B30A0C",
"1#	c #FC0707",
"2#	c #CE0605",
"3#	c #140000",
"4#	c #690606",
"5#	c #D40E0E",
"6#	c #FF1111",
"7#	c #7C0707",
"8#	c #1D0101",
"9#	c #340000",
"0#	c #AC0201",
"a#	c #FF0D0C",
"b#	c #D50C0C",
"c#	c #140101",
"d#	c #6D0606",
"e#	c #D50E0E",
"f#	c #E00E0E",
"g#	c #7A0707",
"h#	c #1C0101",
"i#	c #320000",
"j#	c #A20505",
"k#	c #F20E0E",
"l#	c #C90D0D",
"m#	c #540505",
"n#	c #1E0202",
"o#	c #6C0707",
"p#	c #D70E0E",
"q#	c #FE1111",
"r#	c #DF0E0E",
"s#	c #760707",
"t#	c #1A0101",
"u#	c #230101",
"v#	c #700706",
"w#	c #A50A0A",
"x#	c #8A0809",
"y#	c #3A0303",
"z#	c #800707",
"A#	c #C00C0C",
"B#	c #F71010",
"C#	c #DE0E0E",
"D#	c #780707",
"E#	c #3E0303",
"F#	c #150101",
"G#	c #E30909",
"H#	c #E70C0C",
"I#	c #C40C0C",
"J#	c #730707",
"K#	c #190101",
"L#	c #FE0606",
"M#	c #EA0909",
"N#	c #860808",
"O#	c #200202",
". + @ @ @ @ @ @ @ @ # # # @ $ $ $ @ @ # @ @ # # @ % & * = - ; > ",
"& & & & & & & & & & & & & & & & & & & & & & & & & & & , ' ) ! ~ ",
"& & & & & & & & & & & & & & & & & & & & & & & & & & { ] ^ / ( _ ",
"& & & & & & & & & & & & & $ : < [ + & & & & & & & } | 1 > 2 3 % ",
"& & & & & & & & & & & & & 4 5 6 7 , & & & & & & 8 9 0 > 2 a b & ",
"& & & & & & & & & c & & & d e f g h c & & & & 8 i 0 > j k l & & ",
"& & & & & & & & & & & & & m n o p q & & & & r s t o u v c & & & ",
"& & & & & & & & & & & & & w x y z A & & & B C t > D E & & & & & ",
"& & & & F G G & & & & & & H I J K L & & M N O P Q R & & & & & & ",
"& & & & & & & & & & & & & S I T U V W X Y Z `  ...& & & & c & & ",
"& & & & & & & & +.@.#.$.%.&.*.=.-.;.>.,.'.> ).!.& & & & & & & & ",
"& & & & ~.{.].^./.(._.:.<.[.}.|.1.2.3.4.5.6.7.8.9.0.a.& & & & & ",
"& & & b.c.d.e.f.g.h.i.j.k.l.m.n.o.p.q.r.s.t.u.v.w.x.y.z.~.& & & ",
"& A.B.C.D.E.F.G.G.H.I.J.K.L.M.N.O.P.Q.R.S.T.H.G.G.U.V.W.X.Y.& & ",
"Z.`. +.+G.G.G.++@+#+$+%+&+*+=+-+;+>+,+'+)+!+~+{+]+^+/+(+_+:+<+& ",
"[+}+|+G.G.1+2+3+4+5+6+7+8+9+0+a+b+c+d+e+f+g+h+i+j+k+l+m+n+o+p+& ",
"q+r+G.G.G.s+t+u+& & & & v+w+x+y+z+A+b & & & & B+C+D+E+F+G+H+I+& ",
"J+K+L+G.G.M+N+O+P+Q+R+S+T+U+V+W+X+Y+& & & & & & & Z+`+G. @.@+@& ",
"@@#@$@%@G.G.&@*@=@-@;@>@,@'@)@!@~@{@& & & & & & & ]@^@/@(@_@:@& ",
"& <@[@}@|@1@2@G.3@4@5@6@7@8@9@0@a@b@c@d@& & G & & e@f@g@h@i@& & ",
"& & & j@k@l@m@n@o@p@q@W+r@s@t@G.u@v@w@x@& & G F & & & & & & & & ",
"& & & & & y@z@A@B@C@D@E@F@G@H.H.H@I@J@K@& & & F F & & & & & & & ",
"& F & & & & & L@M@N@O@P@Q@R@H.S@T@U@V@W@& & & & & & & & F F & & ",
"& & & & & # X@Y@Z@`@ #.#+#@###$#%#&#& & & & & & & & & & & & & & ",
"c & & & *#=#-#;#>#,#'#& )#!#~#{#]#&#& & & & & & & & & & & & & & ",
"& & & @ ^#/#(#_#:#<#& & [#}#|#1#2#q F & & & & & & & & & & & & & ",
"& & 3#4#5#6#) 7#8#& & & & 9#0#a#b#q & & & & & & & & & & & & & & ",
"& c#d#e#6#f#g#h#& & & & & i#j#k#l#m#& & & & & & & & & & & & & & ",
"n#o#p#q#r#s#t#& & & & & & u#v#w#x#y#& & & & & & & & & & & & & & ",
"z#A#B#C#D#t#& & & c & & & @ { E#8 F#& & & & & & & & & & & & & & ",
"G#H#I#J#K#& & & & & & & & & & & & & & & & & & & & & & & & & & & ",
"L#M#N#O#& & & & & & & & & & & & & & & & & & & & & & & & & & & & "};
