/* XPM */
static char * icon_threed_xpm[] = {
"32 32 590 2",
"  	c None",
". 	c #B5B52F",
"+ 	c #D9DA0D",
"@ 	c #DCDD13",
"# 	c #DFDF14",
"$ 	c #E1E013",
"% 	c #E4E214",
"& 	c #E2E212",
"* 	c #E4E414",
"= 	c #E5E513",
"- 	c #E7E713",
"; 	c #E8EA1D",
"> 	c #F1F22C",
", 	c #888719",
"' 	c #B9B932",
") 	c #D7D90C",
"! 	c #DEDE13",
"~ 	c #E2E113",
"{ 	c #E3E214",
"] 	c #E3E313",
"^ 	c #E6E413",
"/ 	c #E6E612",
"( 	c #E9E814",
"_ 	c #E7E811",
": 	c #FFFF33",
"< 	c #B7B731",
"[ 	c #D8D90E",
"} 	c #DBDC12",
"| 	c #E0DF12",
"1 	c #E5E412",
"2 	c #E6E613",
"3 	c #E8E713",
"4 	c #E9EA13",
"5 	c #F6F622",
"6 	c #B7B732",
"7 	c #D7D80D",
"8 	c #DBDC13",
"9 	c #DDDE13",
"0 	c #E0E013",
"a 	c #E2E213",
"b 	c #E4E413",
"c 	c #E6E711",
"d 	c #DBDB2D",
"e 	c #BEBE39",
"f 	c #D4D510",
"g 	c #DEDF14",
"h 	c #E6E712",
"i 	c #E5E611",
"j 	c #D9DA36",
"k 	c #6F6F3D",
"l 	c #CCCB62",
"m 	c #878811",
"n 	c #BBBD1D",
"o 	c #E2E31E",
"p 	c #DADC11",
"q 	c #E1DF13",
"r 	c #E4E412",
"s 	c #E6E614",
"t 	c #D7D835",
"u 	c #D1D154",
"v 	c #BBBB2B",
"w 	c #474711",
"x 	c #CAC833",
"y 	c #DAD921",
"z 	c #AEAE27",
"A 	c #A0A016",
"B 	c #D8D91C",
"C 	c #DFDF17",
"D 	c #DFDE12",
"E 	c #E2E114",
"F 	c #E6E515",
"G 	c #E5E413",
"H 	c #CCCD33",
"I 	c #DFDE31",
"J 	c #D5D512",
"K 	c #ECEC37",
"L 	c #6F6F18",
"M 	c #CFCF34",
"N 	c #D4D50E",
"O 	c #DCDD14",
"P 	c #C4C527",
"Q 	c #8C8E1B",
"R 	c #D1D325",
"S 	c #E4E51B",
"T 	c #E3E112",
"U 	c #E2E312",
"V 	c #E6E314",
"W 	c #CDCE32",
"X 	c #E5E51A",
"Y 	c #D6D613",
"Z 	c #D6D713",
"` 	c #E2E323",
" .	c #D5D438",
"..	c #CDCD35",
"+.	c #D9DA14",
"@.	c #DBDA14",
"#.	c #E6E626",
"$.	c #9B9C1D",
"%.	c #9D9D1A",
"&.	c #EBE91F",
"*.	c #E2E216",
"=.	c #E3E114",
"-.	c #E4E312",
";.	c #CDCD30",
">.	c #E6E61A",
",.	c #D5D514",
"'.	c #D7D713",
").	c #D8D912",
"!.	c #DDDB19",
"~.	c #CCCE30",
"{.	c #838215",
"].	c #D6D623",
"^.	c #DBDC16",
"/.	c #DAD913",
"(.	c #DCDB13",
"_.	c #DFE017",
":.	c #CFD123",
"<.	c #808017",
"[.	c #D4D427",
"}.	c #E2E217",
"|.	c #E1E312",
"1.	c #E1E413",
"2.	c #D4D537",
"3.	c #E4E517",
"4.	c #D6D614",
"5.	c #D6D612",
"6.	c #D8D913",
"7.	c #DCDD15",
"8.	c #E8E822",
"9.	c #8C8D15",
"0.	c #9E9D1B",
"a.	c #EBEB26",
"b.	c #DEDF16",
"c.	c #EDED29",
"d.	c #A09F18",
"e.	c #C4C422",
"f.	c #ECEC1A",
"g.	c #E2E214",
"h.	c #F0F01E",
"i.	c #6E6E00",
"j.	c #E6E319",
"k.	c #D4D413",
"l.	c #D8D814",
"m.	c #D7DA14",
"n.	c #DADB12",
"o.	c #E7E821",
"p.	c #D4D329",
"q.	c #73720B",
"r.	c #D1D228",
"s.	c #DBDB11",
"t.	c #DEDE12",
"u.	c #E9E91D",
"v.	c #D8D81C",
"w.	c #92931C",
"x.	c #D0D127",
"y.	c #F2F122",
"z.	c #717001",
"A.	c #E4E317",
"B.	c #D4D414",
"C.	c #D6D615",
"D.	c #D8DA14",
"E.	c #D9DA12",
"F.	c #DCDD11",
"G.	c #DCDC17",
"H.	c #F2F129",
"I.	c #989813",
"J.	c #BFC028",
"K.	c #DEDD13",
"L.	c #E2E115",
"M.	c #DBDB21",
"N.	c #A0A217",
"O.	c #CDCE37",
"P.	c #707004",
"Q.	c #E3E318",
"R.	c #D4D415",
"S.	c #D5D513",
"T.	c #D9D914",
"U.	c #DADB11",
"V.	c #DBDD12",
"W.	c #DEDD11",
"X.	c #E0DF10",
"Y.	c #EBEA23",
"Z.	c #B2B328",
"`.	c #9D9E17",
" +	c #E6E518",
".+	c #E1E012",
"++	c #EAEB22",
"@+	c #A2A320",
"#+	c #717003",
"$+	c #CFD04E",
"%+	c #4B4A1A",
"&+	c #E3E31A",
"*+	c #D3D314",
"=+	c #D8D914",
"-+	c #DADB13",
";+	c #DDDD13",
">+	c #DFDF13",
",+	c #E3E311",
"'+	c #B4B419",
")+	c #797906",
"!+	c #E5E61A",
"~+	c #E1DD13",
"{+	c #E1E014",
"]+	c #E1E114",
"^+	c #CCCC3E",
"/+	c #6D6C00",
"(+	c #C8C730",
"_+	c #414111",
":+	c #E3E419",
"<+	c #D4D314",
"[+	c #D9DA13",
"}+	c #E2E211",
"|+	c #B7B720",
"1+	c #787907",
"2+	c #E5E61B",
"3+	c #DFDF12",
"4+	c #E1DF14",
"5+	c #E3E113",
"6+	c #EEED20",
"7+	c #686A00",
"8+	c #7E7E0B",
"9+	c #C9C82C",
"0+	c #C1C14F",
"a+	c #D4D417",
"b+	c #D2D212",
"c+	c #D8DA13",
"d+	c #DADB14",
"e+	c #DDDE12",
"f+	c #E2E112",
"g+	c #949518",
"h+	c #E1E117",
"i+	c #DDDF13",
"j+	c #EDED22",
"k+	c #6E6E06",
"l+	c #838312",
"m+	c #B6B614",
"n+	c #A5A647",
"o+	c #474805",
"p+	c #717048",
"q+	c #636320",
"r+	c #5A5B26",
"s+	c #3A3A1C",
"t+	c #8E8F53",
"u+	c #545413",
"v+	c #5C5D18",
"w+	c #A8A843",
"x+	c #5A5A00",
"y+	c #BBBC29",
"z+	c #D9DA24",
"A+	c #E1E112",
"B+	c #ACAD0F",
"C+	c #D0D136",
"D+	c #DDDE14",
"E+	c #E1E011",
"F+	c #ECEC21",
"G+	c #6F6E06",
"H+	c #828311",
"I+	c #B8B812",
"J+	c #B4B42B",
"K+	c #BFBF29",
"L+	c #5C5C00",
"M+	c #959628",
"N+	c #747513",
"O+	c #5D5D08",
"P+	c #585800",
"Q+	c #A3A33E",
"R+	c #6B6C0C",
"S+	c #5B5C00",
"T+	c #CFD04F",
"U+	c #6D6D0B",
"V+	c #747305",
"W+	c #E0DF2C",
"X+	c #D4D310",
"Y+	c #D9D713",
"Z+	c #DBDD13",
"`+	c #E1E113",
" @	c #ADAD10",
".@	c #CACA31",
"+@	c #D9D912",
"@@	c #E0DF13",
"#@	c #ECEB23",
"$@	c #6F6E07",
"%@	c #818112",
"&@	c #BABA19",
"*@	c #B9B82D",
"=@	c #C9C911",
"-@	c #DDDE29",
";@	c #7E7F10",
">@	c #7F8016",
",@	c #9F9F34",
"'@	c #585900",
")@	c #8F9024",
"!@	c #929228",
"~@	c #454600",
"{@	c #8F8F24",
"]@	c #AFAF39",
"^@	c #6A6A04",
"/@	c #DAD91A",
"(@	c #D7D712",
"_@	c #D8D812",
":@	c #C9C930",
"<@	c #D8D911",
"[@	c #DCDE14",
"}@	c #EDEB21",
"|@	c #706E07",
"1@	c #7B7B0D",
"2@	c #8F8F0F",
"3@	c #8B8C16",
"4@	c #D2D21D",
"5@	c #CECE15",
"6@	c #D8D824",
"7@	c #878A19",
"8@	c #5D5D00",
"9@	c #B1B13E",
"0@	c #72720E",
"a@	c #5C5D0C",
"b@	c #757512",
"c@	c #B3B343",
"d@	c #5C5B00",
"e@	c #85861C",
"f@	c #A4A534",
"g@	c #434600",
"h@	c #B6B625",
"i@	c #E0DE21",
"j@	c #DAD812",
"k@	c #DCDA13",
"l@	c #DBDB13",
"m@	c #DEE013",
"n@	c #AEAF13",
"o@	c #C9C92F",
"p@	c #D7D810",
"q@	c #DFDE11",
"r@	c #EBEB22",
"s@	c #676500",
"t@	c #B6B62A",
"u@	c #6C6D00",
"v@	c #969624",
"w@	c #8C8D1B",
"x@	c #BCBC20",
"y@	c #D0D01A",
"z@	c #D3D31E",
"A@	c #CDCC2E",
"B@	c #545400",
"C@	c #97992A",
"D@	c #73750F",
"E@	c #595A05",
"F@	c #A7A73E",
"G@	c #5F6000",
"H@	c #575A00",
"I@	c #D9DA4F",
"J@	c #6F6F0E",
"K@	c #97971E",
"L@	c #DCDD26",
"M@	c #E0E121",
"N@	c #87870A",
"O@	c #D3D438",
"P@	c #DBDD11",
"Q@	c #DDDF11",
"R@	c #EBEB24",
"S@	c #626200",
"T@	c #DDDC30",
"U@	c #9D9E2C",
"V@	c #A0A125",
"W@	c #93931D",
"X@	c #A2A21F",
"Y@	c #D7D81F",
"Z@	c #CFCF14",
"`@	c #CCCC2F",
" #	c #77770B",
".#	c #8F901A",
"+#	c #C3C242",
"@#	c #565700",
"##	c #5B5B00",
"$#	c #A6A838",
"%#	c #989829",
"&#	c #515200",
"*#	c #8E8D23",
"=#	c #979728",
"-#	c #676702",
";#	c #E4E334",
">#	c #DADC16",
",#	c #D9DB11",
"'#	c #E3E331",
")#	c #606000",
"!#	c #949527",
"~#	c #ACAC1E",
"{#	c #E3E41B",
"]#	c #DADE14",
"^#	c #DDDD15",
"/#	c #D8D72C",
"(#	c #DBD92F",
"_#	c #777806",
":#	c #747405",
"<#	c #A09F2A",
"[#	c #ACAC28",
"}#	c #8E9019",
"|#	c #909317",
"1#	c #D9DA20",
"2#	c #CECE14",
"3#	c #E1E229",
"4#	c #969717",
"5#	c #AAAA3A",
"6#	c #706F06",
"7#	c #585802",
"8#	c #6F6F0C",
"9#	c #A2A231",
"0#	c #686701",
"a#	c #696A08",
"b#	c #AAAB39",
"c#	c #525200",
"d#	c #A8A822",
"e#	c #DFDF1C",
"f#	c #E0E032",
"g#	c #626100",
"h#	c #747510",
"i#	c #B0B135",
"j#	c #A4A51B",
"k#	c #ECED20",
"l#	c #DCDD17",
"m#	c #B0AF24",
"n#	c #505000",
"o#	c #BFBD3E",
"p#	c #8D8E0F",
"q#	c #E9E937",
"r#	c #7B7B07",
"s#	c #78790B",
"t#	c #A4A52D",
"u#	c #888819",
"v#	c #9B9B1C",
"w#	c #C3C424",
"x#	c #D5D518",
"y#	c #D8D722",
"z#	c #CACA2D",
"A#	c #616000",
"B#	c #CDCD56",
"C#	c #7A7A10",
"D#	c #5F5D0C",
"E#	c #6D6D0A",
"F#	c #A1A034",
"G#	c #72730C",
"H#	c #BDBE45",
"I#	c #7C7C13",
"J#	c #A6A61C",
"K#	c #E2E246",
"L#	c #82820A",
"M#	c #BEC036",
"N#	c #585A00",
"O#	c #A7A932",
"P#	c #7D7F08",
"Q#	c #E0E22F",
"R#	c #BEBD31",
"S#	c #C7C64A",
"T#	c #777701",
"U#	c #E3E42D",
"V#	c #888A11",
"W#	c #787808",
"X#	c #BCBB39",
"Y#	c #9C9C20",
"Z#	c #ACAC20",
"`#	c #C1C11C",
" $	c #DADB1A",
".$	c #DAD916",
"+$	c #E1E132",
"@$	c #999A2A",
"#$	c #7E7E1D",
"$$	c #63632A",
"%$	c #5A5917",
"&$	c #9B9B3C",
"*$	c #A6A54B",
"=$	c #4F4F02",
"-$	c #86862A",
";$	c #80802B",
">$	c #6E6E24",
",$	c #605F13",
"'$	c #939327",
")$	c #DCDC5D",
"!$	c #494B00",
"~$	c #CBCC5C",
"{$	c #666716",
"]$	c #686722",
"^$	c #6E6C31",
"/$	c #373800",
"($	c #303101",
"_$	c #898A22",
":$	c #9B9D26",
"<$	c #696B25",
"[$	c #75752E",
"}$	c #868618",
"|$	c #4C4D06",
"1$	c #999A21",
"2$	c #949410",
"3$	c #939311",
"4$	c #85832A",
"5$	c #56561B",
"6$	c #0D0E00",
"7$	c #2B2C07",
"8$	c #525118",
"9$	c #333311",
"0$	c #5D5B07",
"a$	c #413F19",
"b$	c #4A492B",
"c$	c #4E4D33",
"d$	c #4F4F23",
"e$	c #696A1C",
"f$	c #3C3C18",
"g$	c #464631",
"h$	c #595A13",
"i$	c #292908",
"j$	c #6A6B29",
"k$	c #666612",
"l$	c #646311",
"m$	c #504F1B",
"n$	c #4D4C2A",
"o$	c #303112",
"p$	c #5A5831",
"q$	c #393927",
"r$	c #646432",
"s$	c #5A591E",
"t$	c #474627",
"u$	c #4B4A2B",
"v$	c #4C4C2F",
"w$	c #525323",
"x$	c #6C6D1C",
"y$	c #3E3F19",
"z$	c #4C4C2E",
"A$	c #5E5E1A",
"B$	c #2E2E0B",
"C$	c #6E6E29",
"D$	c #676611",
"E$	c #55541C",
"F$	c #6D6D31",
"G$	c #333516",
"H$	c #454427",
"I$	c #3A3A24",
"J$	c #605F27",
"K$	c #5C5A1D",
"L$	c #464422",
"M$	c #393B19",
"N$	c #4C4B27",
"O$	c #615F3A",
"P$	c #3C3D17",
"Q$	c #333114",
"R$	c #50512B",
"S$	c #4D4E21",
"T$	c #6E6C29",
"U$	c #686612",
"V$	c #676613",
"W$	c #595925",
"X$	c #6B6B25",
"Y$	c #393A1C",
"Z$	c #555325",
"`$	c #353315",
" %	c #5F5F26",
".%	c #5B5B1D",
"+%	c #42421C",
"@%	c #363719",
"#%	c #504F2F",
"$%	c #64643F",
"%%	c #55551F",
"&%	c #6D6A1B",
"*%	c #42421E",
"=%	c #302E11",
"-%	c #4F502A",
";%	c #4D4B26",
">%	c #6C6C29",
",%	c #686712",
"'%	c #6C6C20",
")%	c #68672B",
"!%	c #38391B",
"~%	c #55551C",
"{%	c #35340E",
"]%	c #65642A",
"^%	c #3A3A1E",
"/%	c #2F2F17",
"(%	c #72721D",
"_%	c #6C6A1D",
":%	c #323113",
"<%	c #4F4F2D",
"[%	c #4D4C27",
"}%	c #6D6E29",
"|%	c #696712",
"1%	c #6D6C28",
"2%	c #555421",
"3%	c #343311",
"4%	c #5E5E26",
"5%	c #5E5D22",
"6%	c #6E6D27",
"7%	c #3A3A20",
"8%	c #2C2D12",
"9%	c #262619",
"                                      . + @ # $ % & * = - ; > , ",
"                                      ' ) @ ! $ ~ { ] ^ / ( _ : ",
"                                      < [ } ! | ~ ~ ] 1 2 3 4 5 ",
"                                      6 7 8 9 0 $ a ] b = 3 c d ",
"                                      e f } @ g $ ~ & * = h i j ",
"                        k           l m n o p ! q $ a ] r s = t ",
"                        u v w       x y z A B C D E ~ ] r F G H ",
"                        I J K L     M N O P Q R S D T U * V r W ",
"                        X Y Z `  .  ..f +.@.#.$.%.&.*.=.] = -.;.",
"                        >.,.'.).!.~.{.].^./.(._.:.<.[.}.|.1.& 2.",
"                        3.4.5.6.6.7.8.9.0.a.).@ b.c.d.e.f.g.h.i.",
"                        j.k.Y l.m.n.n.o.p.q.r.s.! t.u.v.w.x.y.z.",
"                        A.B.C.'.D.E.} F.G.H.I.J.` K.| L.M.N.O.P.",
"                        Q.R.S.'.T.6.U.V.W.X.Y.Z.`. +q .+~ ++@+#+",
"$+                    %+&+*+S.5.l.=+-+} ;+>+,+'+)+!+~+{+T ]+^+/+",
"(+                    _+:+<+S.4.'.+.[+-+O ! }+|+1+2+3+4+5+6+7+8+",
"9+                    0+a+b+B.S.'.c++.d+8 e+f+'+g+h+i+q $ j+k+l+",
"m+n+o+p+q+r+s+t+u+v+w+x+y+z+b+S.5.l.+.E.8 @ A+B+C+).D+| E+F+G+H+",
"I+J+K+L+M+N+O+P+Q+R+S+T+U+V+W+X+Y Y++.E.d+Z+`+ @.@+@@ D @@#@$@%@",
"&@*@=@-@;@>@,@P+'@)@!@~@{@]@^@d /@(@_@E.-+8 | B+:@<@} [@| }@|@1@",
"2@3@4@5@6@7@8@9@0@a@b@c@d@e@f@g@h@i@j@T.k@l@m@n@o@p@@ K.q@r@s@t@",
"u@v@w@x@y@z@A@B@C@D@E@P+F@G@H@I@J@K@L@'.6.-+M@N@O@=+-+P@Q@R@S@T@",
"u@U@V@W@X@Y@Z@`@ #.#+#@###$#%#&#*#=#-#;#>#,#'#)#!#~#{#]#^#/#8@(#",
"_#:#<#[#}#|#1#2#3#4#L+5#6#7#8#9#0#a#b#c#d#e#f#g#h#i#j#k#l#m#n#o#",
"p#q#r#s#t#u#v#w#x#y#z#A#B#C#D#E#F#G#c#H#I#J#K#L#M#N#O#P#Q#R#P+S#",
"T#~.U#V#W#X#Y#Z#`# $.$+$g#@$#$$$%$&$*$=$-$;$>$,$'$)$!$~${$]$  ^$",
"/$($_$:$<$  [$}$|$1$2$3$4$  5$  6$7$8$    9$      0$  a$  b$  c$",
"    d$e$f$  g$h$i$j$k$l$m$  n$    o$p$    q$    r$s$  t$  u$  v$",
"    w$x$y$  z$A$B$C$D$D$E$  F$    G$H$    I$    J$K$  L$M$N$  O$",
"    w$x$P$Q$R$S$  T$U$V$W$  X$    Y$    Z$`$     %.%  +%@%#%  $%",
"    %%&%*%=%-%;%  >%,%'%    )%    !%    ~%{%     %.%  ]%^%    /%",
"    (%_%  :%<%[%  }%|%1%          !%    2%3%    4%5%  6%7%  8%9%"};
