/* XPM */
static char *icon_scaled_xpm[] = {
/* columns rows colors chars-per-pixel */
"32 32 128 2",
"   c black",
".  c #0103000F000F",
"X  c #018800130013",
"o  c #0314002B002B",
"O  c #043400350035",
"+  c #055300280028",
"@  c #05E100000000",
"#  c #073400640064",
"$  c #083700730073",
"%  c #08CC007D007D",
"&  c #092900890089",
"*  c #0A4500000000",
"=  c #0A52008F008F",
"-  c #0B1000A700A7",
";  c #0C1400B300B3",
":  c #0CDB00B200B2",
">  c #0E3B00B600B6",
",  c #0F5000E600E6",
"<  c #0C6B0C6B0C6B",
"1  c #0D910D910D91",
"2  c #0F4B0F4B0F4B",
"3  c #0FF900DE00DE",
"4  c #10E700ED00ED",
"5  c #136D00000000",
"6  c #13DC011A011A",
"7  c #166700000000",
"8  c #166701390139",
"9  c #173F01500150",
"0  c #191C00000000",
"q  c #188201660166",
"w  c #1A86016F016F",
"e  c #1A2001880188",
"r  c #1B8001870187",
"t  c #1D3701AD01AD",
"y  c #1F6D01B301B3",
"u  c #21C101EA01EA",
"i  c #232001C801C8",
"p  c #253601F701F7",
"a  c #270D02170217",
"s  c #28BB02230223",
"d  c #29E9024A024A",
"f  c #2BE802630263",
"g  c #2D2D025C025C",
"h  c #2DDB029B029B",
"j  c #35B703210321",
"k  c #399B03630363",
"l  c #3A3F03330333",
"z  c #3B1103330333",
"x  c #3DB603420342",
"c  c #3EC703960396",
"v  c #34C634C634C6",
"b  c #419703980398",
"n  c #421503A103A1",
"m  c #43E603E103E1",
"M  c #450A03F003F0",
"N  c #488304000400",
"B  c #4B7904160416",
"V  c #4C2B04230423",
"C  c #4DBA04530453",
"Z  c #4E59044F044F",
"A  c #4E7A048A048A",
"S  c #4FD304740474",
"D  c #512004840484",
"F  c #5094048C048C",
"G  c #525A04B304B3",
"H  c #53F504BD04BD",
"J  c #573E04E804E8",
"K  c #580504DF04DF",
"L  c #59CC04DE04DE",
"P  c #5AC505000500",
"I  c #5B10050B050B",
"U  c #5C7B05240524",
"Y  c #5D01050B050B",
"T  c #5E7905430543",
"R  c #6359056F056F",
"E  c #68A605EC05EC",
"W  c #6A2A05D905D9",
"Q  c #6B6705EF05EF",
"!  c #6FF6061E061E",
"~  c #7421067E067E",
"^  c #750106640664",
"/  c #7C7307140714",
"(  c #7D3C07590759",
")  c #7EE507170717",
"_  c #7F8507230723",
"`  c #585458545854",
"'  c #583359D659D6",
"]  c #59A859A859A8",
"[  c #587659DB59DB",
"{  c #596159E959E9",
"}  c #59F059F059F0",
"|  c #5FA35FA35FA3",
" . c #7E5C7E5C7E5C",
".. c #813E073A073A",
"X. c #86C007B507B5",
"o. c #8930080D080D",
"O. c #8A24081B081B",
"+. c #8C5508360836",
"@. c #8D3408490849",
"#. c #8EA408010801",
"$. c #94AE086D086D",
"%. c #955508760876",
"&. c #994608A008A0",
"*. c #9B6008CD08CD",
"=. c #9C8308D808D8",
"-. c #9DE509210921",
";. c #9E4809000900",
":. c #A30C095C095C",
">. c #A6F309390939",
",. c #A7E8098B098B",
"<. c #A89B09A309A3",
"1. c #B1D9B1D9B1D9",
"2. c #BE1FBE1FBE1F",
"3. c #BEC6BEC6BEC6",
"4. c #CCA1CCA1CCA1",
"5. c #DCF8DCF8DCF8",
"6. c #E034E034E034",
"7. c #E4A7E4A7E4A7",
"8. c #EA24EA24EA24",
"9. c #EABEEABEEABE",
"0. c #EC92EC92EC92",
"q. c #F15BF15BF15B",
"w. c #F1CBF1CBF1CB",
"e. c #F534F534F534",
"r. c #F647F647F647",
"t. c #F6B0F6B0F6B0",
"y. c #F7E1F7E1F7E1",
"u. c None",
/* pixels */
"u.u.u.u.u.u.u.u.u.u.u.u.u.u.u.u.u.u.u.u.u.u.u.u.u.u.u.u.u.u.u.u.",
"u.u.5.7.8.9.9.9.9.9.9.9.9.9.9.9.9.9.9.9.9.9.9.9.9.9.9.8.7.5.u.u.",
"u.u.0.y.4.2.3.3.3.3.3.3.3.3.3.3.3.3.3.3.3.3.3.3.3.3.2.4.y.0.u.u.",
"u.u.e.1.v 1 2 2 2 2 2 2 2 2 2 2 2 2 2 2 2 2 2 2 2 2 1 v 1.e.u.u.",
"u.u.q.|                                                 | q.u.u.",
"u.u.q.}                                                 } q.u.u.",
"u.u.q.}                                                 } q.u.u.",
"u.u.q.}                                                 } q.u.u.",
"u.u.q.}                                                 } q.u.u.",
"u.u.q.}                                                 } q.u.u.",
"u.u.q.}                                                 } q.u.u.",
"u.u.q.}                                                 } q.u.u.",
"u.u.q.}   % r 6 X               o , X             X ,   } q.u.u.",
"u.u.q.{ @ Q ! L =               e ( -             - ( 7 [ q.u.u.",
"u.u.q.[ 5 =.d O . u P D = g Y n u @.; y K b O $ N U -.0 ' q.u.u.",
"u.u.q.{   J %.N 4 X.B a # p Z *.j O.q _ U #.h M ~ z :.0 ' q.u.u.",
"u.u.q.}   . f $.C #.3   $ R ^ <.k o.p >.W W i E F & +.0 ' q.u.u.",
"u.u.q.{ @ z g ..c ) B a t &.V ;.A +.9 / C s > G ~ x ,.0 ' q.u.u.",
"u.u.q.{ + S T l o y I V ; m A N n M + w J H 8 : G D G * { q.u.u.",
"u.u.q.}                                                 } q.u.u.",
"u.u.q.}                                                 } q.u.u.",
"u.u.q.}                                                 } q.u.u.",
"u.u.q.}                                                 } q.u.u.",
"u.u.q.}                                                 } q.u.u.",
"u.u.q.}                                                 } q.u.u.",
"u.u.q.}                                                 } q.u.u.",
"u.u.q.]                                                 ] q.u.u.",
"u.u.w. .<                                             <  .w.u.u.",
"u.u.r.6. .` } } } } } } } } } } } } } } } } } } } } `  .6.r.u.u.",
"u.u.6.t.w.q.q.q.q.q.q.q.q.q.q.q.q.q.q.q.q.q.q.q.q.q.q.w.t.6.u.u.",
"u.u.6.u.u.u.u.u.u.u.u.u.u.u.u.u.u.u.u.u.u.u.u.u.u.u.u.u.u.6.u.u.",
"u.u.u.u.u.u.u.u.u.u.u.u.u.u.u.u.u.u.u.u.u.u.u.u.u.u.u.u.u.u.u.u."
};
