/* XPM */
static char * xpm_icon_cube_xpm[] = {
"32 32 154 2",
"  	c None",
". 	c #060792",
"+ 	c #04059C",
"@ 	c #04059B",
"# 	c #06079B",
"$ 	c #000E79",
"% 	c #050FBB",
"& 	c #0908C8",
"* 	c #0909C6",
"= 	c #0909C7",
"- 	c #0809C9",
"; 	c #0405E1",
"> 	c #0001FD",
", 	c #0000FF",
"' 	c #0101FF",
") 	c #070681",
"! 	c #4780C9",
"~ 	c #0004C9",
"{ 	c #0000FE",
"] 	c #0000FD",
"^ 	c #0000FB",
"/ 	c #0708C7",
"( 	c #389B7F",
"_ 	c #000EA2",
": 	c #0000FC",
"< 	c #0405E5",
"[ 	c #2AEB39",
"} 	c #095595",
"| 	c #0001FF",
"1 	c #03037B",
"2 	c #1FE922",
"3 	c #0F7B6F",
"4 	c #0006DA",
"5 	c #090AC0",
"6 	c #1AF51A",
"7 	c #31D891",
"8 	c #0008A9",
"9 	c #0505DE",
"0 	c #1C741C",
"a 	c #17FF19",
"b 	c #12F532",
"c 	c #0C4F8D",
"d 	c #0001F8",
"e 	c #070892",
"f 	c #1B721B",
"g 	c #17FF18",
"h 	c #00FF00",
"i 	c #0E8A66",
"j 	c #0000EB",
"k 	c #0002FF",
"l 	c #0406BE",
"m 	c #1B711B",
"n 	c #17FF17",
"o 	c #2DD275",
"p 	c #000D9A",
"q 	c #0000CF",
"r 	c #0000D1",
"s 	c #0000D0",
"t 	c #0100D0",
"u 	c #0800C3",
"v 	c #2008C0",
"w 	c #2106B6",
"x 	c #2006B6",
"y 	c #2007B4",
"z 	c #1F07B7",
"A 	c #2006B9",
"B 	c #240FA2",
"C 	c #30E531",
"D 	c #54714C",
"E 	c #8A4A7E",
"F 	c #8A4980",
"G 	c #8B4980",
"H 	c #8B497F",
"I 	c #8C487F",
"J 	c #8A497F",
"K 	c #8B497D",
"L 	c #AA524C",
"M 	c #FF9145",
"N 	c #FF8B1D",
"O 	c #FF8B20",
"P 	c #FF8A20",
"Q 	c #FF8A1E",
"R 	c #FF9E43",
"S 	c #36E203",
"T 	c #AFAF16",
"U 	c #FB871C",
"V 	c #FE861E",
"W 	c #FD871E",
"X 	c #FD861D",
"Y 	c #FF8513",
"Z 	c #FE7E00",
"` 	c #FF7F00",
" .	c #FF7E00",
"..	c #FD911F",
"+.	c #38E200",
"@.	c #AFA700",
"#.	c #FD8000",
"$.	c #FE7F00",
"%.	c #FF7E02",
"&.	c #FB9124",
"*.	c #AFA800",
"=.	c #FC8000",
"-.	c #FE7E01",
";.	c #AEA800",
">.	c #FC9124",
",.	c #AEA700",
"'.	c #FF7E01",
").	c #FC9125",
"!.	c #39E200",
"~.	c #FE8000",
"{.	c #E9892B",
"].	c #1E791E",
"^.	c #16FF18",
"/.	c #37E300",
"(.	c #ADA800",
"_.	c #FD7F00",
":.	c #FF8200",
"<.	c #AC5A16",
"[.	c #1BF319",
"}.	c #47DA00",
"|.	c #C39D00",
"1.	c #AE601C",
"2.	c #2CE42B",
"3.	c #00FE00",
"4.	c #66CB00",
"5.	c #ED8800",
"6.	c #AE601B",
"7.	c #147213",
"8.	c #07FF14",
"9.	c #79C200",
"0.	c #FF7A00",
"a.	c #1EFF28",
"b.	c #77C300",
"c.	c #0FB519",
"d.	c #7AC800",
"e.	c #FE7D02",
"f.	c #1EA42A",
"g.	c #87C00C",
"h.	c #A1C023",
"i.	c #FF8000",
"j.	c #FF8400",
"k.	c #FF8300",
"l.	c #FF8700",
"m.	c #B5641C",
"n.	c #9B933E",
"o.	c #FF9527",
"p.	c #FA9226",
"q.	c #FA9126",
"r.	c #D57B25",
"s.	c #9D5418",
"t.	c #A45A1A",
"u.	c #A35A1A",
"v.	c #A95C1A",
"w.	c #724321",
"                                                                ",
"                                                                ",
"                      . + @ @ @ @ @ @ @ @ @ @ #                 ",
"        $ % & * = - ; > , , , , , , , , , , , ' )               ",
"        ! ~ , , , , , { ] { ] ] ] { { { ] { , ^ /               ",
"        ( _ , ] ] > ] ] { { ] ] ] { { { ] ] { : <               ",
"        [ } , { { { ] { { { ] ] { { { { ] ] { ] | 1             ",
"        2 3 4 , ] { ] ] ] { ] ] ] ] ] ] { { ] ] , 5             ",
"        6 7 8 , ] { ] ] ] { ] ] ] { { { ] : { ] , 9             ",
"      0 a b c , : ] { { { { { ] { { { { ] : { ] , d e           ",
"      f g h i j , , , , , , , , , , | | | | | | k | l           ",
"      m n h o p q r s s t s s s s u v w x y z y x A B           ",
"      m n h C D E F G F H I J F K L M N O P P O O Q R           ",
"      m g h S T U V W V V V V W X Y Z ` ` ` ` ` `  ...          ",
"      m g h +.@.#. .` `  . . .` `  .` $.Z  .%.$.$. .&.          ",
"      m g h +.*.=.$.-.` $.`  .` Z Z Z Z $.$.Z  . . .&.          ",
"      m g h +.;.=.$.` Z $.` Z ` $.Z  .$.Z Z $.Z `  .>.          ",
"      m g h +.,.=. .Z ` `  .$. .Z -.$.$.Z Z $. .'. .>.          ",
"      m g h +.;.=. .`  .Z ` `  .$.Z ` $.Z ` ` ` `  .&.          ",
"      m g h +.;.=. .` Z Z  .Z  .$.`  .Z $.Z  .Z  . .).          ",
"      m g h !.@.=. .` Z Z $.$.~.Z Z $.`  .Z ` Z  .` {.          ",
"      ].^.h /.(.=. .` Z Z ` $.` Z Z ` $._.` Z Z  .:.<.          ",
"        [.h }.|.=. .` ` $. . .Z  .`  .$._.~. . . .:.1.          ",
"        2.3.4.5._. . .Z Z ` Z  .$.$. .$.$._.` ` ` :.6.          ",
"        7.8.9.0._. .` Z Z ` Z  .=.$. .$._. .~.` ` :.6.          ",
"          a.b.0.$.$.` $.$.` $.$. . .Z  . .$. .Z Z :.6.          ",
"          c.d.0._.Z ` ` ` ` ` `  .$.` Z  .` e. . .:.6.          ",
"          f.g.0.$.Z ` $.$.` $.` Z ` ` Z Z $.Z  . .:.6.          ",
"            h.0. . . . . . . . . . . .i.j.k.k.j.k.l.m.          ",
"            n.o.p.p.p.p.p.p.p.p.q.q.o.r.s.t.t.u.u.v.w.          ",
"                                                                ",
"                                                                "};
