/* XPM */
static char *xpm_icon_sun[] = {
/* columns rows colors chars-per-pixel */
"64 64 218 2",
"   c #000000",
".  c #080705",
"X  c #0B0A06",
"o  c #0E0D09",
"O  c #110F04",
"+  c #111103",
"@  c #14110B",
"#  c #19160D",
"$  c #1C180F",
"%  c #171610",
"&  c #1D1B12",
"*  c #1B1A18",
"=  c #221C0F",
"-  c #231E12",
";  c #222207",
":  c #24200F",
">  c #33330A",
",  c #252114",
"<  c #2B2516",
"1  c #2E2C16",
"2  c #2F2D18",
"3  c #302A15",
"4  c #382F13",
"5  c #332D1A",
"6  c #3D3316",
"7  c #36341E",
"8  c #3B331B",
"9  c #333020",
"0  c #3A3420",
"q  c #3D3A22",
"w  c #403616",
"e  c #403519",
"r  c #443B1E",
"t  c #483D1D",
"y  c #413B22",
"u  c #44440E",
"i  c #4C411E",
"p  c #594917",
"a  c #50421A",
"s  c #5B4A18",
"d  c #555412",
"f  c #604E18",
"g  c #666514",
"h  c #777718",
"j  c #4B4425",
"k  c #474428",
"l  c #524727",
"z  c #554A27",
"x  c #594C25",
"c  c #574E2C",
"v  c #5E5027",
"b  c #5F5A34",
"n  c #62572F",
"m  c #725E23",
"M  c #6A5F35",
"N  c #616028",
"B  c #6B682E",
"V  c #766226",
"C  c #7C6726",
"Z  c #79662C",
"A  c #7F6929",
"S  c #6C6936",
"D  c #67623C",
"F  c #7D6A31",
"G  c #73643D",
"H  c #767234",
"J  c #7D7C33",
"K  c #88751D",
"L  c #997B1F",
"P  c #826D2C",
"I  c #87712E",
"U  c #967B2C",
"Y  c #8C7739",
"T  c #947D37",
"R  c #88861C",
"E  c #88881B",
"W  c #99991F",
"Q  c #998220",
"!  c #9C8234",
"~  c #9C843A",
"^  c #928F39",
"/  c #99883E",
"(  c #BB9B26",
")  c #AD8F33",
"_  c #A78B39",
"`  c #A98E3E",
"'  c #AE9036",
"]  c #B59536",
"[  c #B89734",
"{  c #B0943E",
"}  c #BE9C3C",
"|  c #BBAE29",
" . c #BBB426",
".. c #BBBB25",
"X. c #BBB728",
"o. c #BBB928",
"O. c #B0AC3F",
"+. c #C19E35",
"@. c #CCA92B",
"#. c #D5AC2D",
"$. c #CCBB2C",
"%. c #C7A236",
"&. c #C4A23A",
"*. c #CAA63C",
"=. c #CFAC3D",
"-. c #D0AA34",
";. c #D2AB3C",
":. c #D7B13E",
">. c #DBB339",
",. c #D0BC39",
"<. c #E4B42F",
"1. c #E5B833",
"2. c #ECBD31",
"3. c #E4BA3B",
"4. c #E8BC38",
"5. c #CCCC29",
"6. c #DDDD2C",
"7. c #D1CD3D",
"8. c #D4D43E",
"9. c #DFD53F",
"0. c #FFC722",
"q. c #FFC925",
"w. c #FDC62C",
"e. c #FFCA2C",
"r. c #FFD02D",
"t. c #EFC136",
"y. c #EECD33",
"u. c #ECC03B",
"i. c #F5C535",
"p. c #FFC633",
"a. c #FFCB33",
"s. c #F3C439",
"d. c #FBC738",
"f. c #F4CB3F",
"g. c #FECC3A",
"h. c #E6DD35",
"j. c #FFD435",
"k. c #FFDC35",
"l. c #F7D03E",
"z. c #FED23C",
"x. c #F3DE3D",
"c. c #FFDD3A",
"v. c #FFE92F",
"b. c #FFF52F",
"n. c #FEFD2F",
"m. c #EEEE31",
"M. c #E6E638",
"N. c #ECE538",
"B. c #EDEC3A",
"V. c #FFE335",
"C. c #FFEB35",
"Z. c #FFE239",
"A. c #F4EE3A",
"S. c #FEED3A",
"D. c #F3F335",
"F. c #FFF435",
"G. c #FFFE34",
"H. c #F6F63F",
"J. c #FEF33A",
"K. c #F7F83D",
"L. c #FDFB3B",
"P. c #8B8744",
"I. c #958045",
"U. c #A18C42",
"Y. c #A4A241",
"T. c #A5A148",
"R. c #BCA843",
"E. c #BAB263",
"W. c #D3AE42",
"Q. c #CAB247",
"!. c #D9B342",
"~. c #C5BF51",
"^. c #CCB75E",
"/. c #E0B642",
"(. c #C8B861",
"). c #C6C34B",
"_. c #D4C342",
"`. c #DAC446",
"'. c #D5D445",
"]. c #DBD241",
"[. c #CBC650",
"{. c #DFDB51",
"}. c #EEC740",
"|. c #EDCA45",
" X c #F6CF46",
".X c #FCCF45",
"XX c #FDDC42",
"oX c #F3D74E",
"OX c #FDD44A",
"+X c #FAD94E",
"@X c #E0D457",
"#X c #E0D85E",
"$X c #F7DF53",
"%X c #FCDF50",
"&X c #FDE245",
"*X c #FCEB42",
"=X c #FCE54B",
"-X c #FDEC4A",
";X c #FBF443",
":X c #FCFA42",
">X c #F7F04B",
",X c #FAF34E",
"<X c #FDF949",
"1X c #F2E350",
"2X c #F4EB53",
"3X c #FCF153",
"4X c #DAD661",
"5X c #F0DF65",
"6X c #F9DB7E",
"7X c #FAE764",
"8X c #FDEC61",
"9X c #FDFA6E",
"0X c #9D9D9D",
"qX c #FCDD8B",
"wX c gray78",
"eX c #E4E4E4",
"rX c gray100",
"tX c None",
/* pixels */
"tXtXtXtXtXtXtXtXtXtXtXtXtXtXtXtXtXtXtXtXtXtXtXtXtXtXtXtXtXtXtXtXtXtXtXtXtXtXtXtXtXtXtXtXtXtXtXtXtXtXtXtXtXtXtXtXtXtXtXtXtXtXtXtX",
"tXtXtXtXtXtXtXtXtXtXtXtXtXtXtXtXtXtXtXtXtXtXtXtXtXtXtXtXtXtXtXtXtXtXtXtXtXtXtXtXtXtXtXtXtXtXtXtXtXtXtXtXtXtXtXtXtXtXtXtXtXtXtXtX",
"tXtXtXrXrXwXwXwXwXwXwXwXwXwXwXwXwXwXwXwXwXwXwXwXwXwXwXwXwXwXwXwXwXwXwXwXwXwXwXwXwXwXwXwXwXwXwXwXwXwXwXwXwXwXwXwXwXwXwXrXrXtXtXtX",
"tXtXtXrXwXwXrXrXrXrXrXrXrXrXrXrXrXrXrXrXrXrXrXrXrXrXrXrXrXrXrXrXrXrXrXrXrXrXrXrXrXrXrXrXrXrXrXrXrXrXrXrXrXrXrXrXrXrXwXwXrXtXtXtX",
"tXtXtXwXwXrXrXrXrXrXrXrXrXrXrXrXrXrXrXrXrXrXrXrXrXrXrXrXrXrXrXrXrXrXrXrXrXrXrXrXrXrXrXrXrXrXrXrXrXrXrXrXrXrXrXrXrXrXrXwXwXtXtXtX",
"tXtXtXwXrXrXrXrX0X0X0X0X0X0X0X0X0X0X0X0X0X0X0X0X0X0X0X0X0X0X0X0X0X0X0X0X0X0X0X0X0X0X0X0X0X0X0X0X0X0X0X0X0X0X0X0XrXrXrXrXwXtXtXtX",
"tXtXtXwXrXrXeX0X0X                                                                                            0X0XrXrXrXwXtXtXtX",
"tXtXtXwXrXrX0X                                                                                                  0X0XrXrXwXtXtXtX",
"tXtXtXwXrXrX0X                                                  .                                                 0XrXrXwXtXtXtX",
"tXtXtXwXrXrX0X                                                t Z                                                 0XrXrXwXtXtXtX",
"tXtXtXwXrXrX0X                                .               *.w.o             n .                               0XrXrXwXtXtXtX",
"tXtXtXwXrXrX0X                                _ c .         8 e.q.v           X |.j                               0XrXrXwXtXtXtX",
"tXtXtXwXrXrX0X                                e c.).%       +.e.a.2..         ] &XS                               0XrXrXwXtXtXtX",
"tXtXtXwXrXrX0X                                6 z.;XY.    3 e.a.a.q.x       ! d.;XT.                              0XrXrXwXtXtXtX",
"tXtXtXwXrXrX0X                                6 g.3X8.    3.e.a.a.a.i.  . #.w.=XG.&                               0XrXrXwXtXtXtX",
"tXtXtXwXrXrX0X                  X             w g.2XD.9 5 w.a.j.j.j.e.` ` w.%XL.B             = #                 0XrXrXwXtXtXtX",
"tXtXtXwXrXrX0X                . %.[ 8         3 w.+X<X5XXXS.F.F.G.G.F.F.Z.z.3XB..       . x ] e.0                 0XrXrXwXtXtXtX",
"tXtXtXwXrXrX0X                  ' q.e.i.] < . @ f.S.L.G.F.J.C.j.V.S.F.G.G.G.L.#Xo . < ' i.e.q.#.                  0XrXrXwXtXtXtX",
"tXtXtXwXrXrX0X                  , e.a.a.e.e.s._.A.F.V.k.a.a.j.j.p.a.a.j.j.V.F.G.9.l.e.e.a.a.e.T                   0XrXrXwXtXtXtX",
"tXtXtXwXrXrX0X                    i.a.a.a.a.C.G.V.a.p.k.j.p.c.Z.p.k.V.p.k.a.a.k.G.L.Z.a.a.a.e.<                   0XrXrXwXtXtXtX",
"tXtXtXwXrXrX0X                    _ e.a.z.F.G.j.j.c.p.k.F.a.V.F.a.F.V.k.F.a.p.p.j.G.G.V.a.a.i.                    0XrXrXwXtXtXtX",
"tXtXtXwXrXrX0X                    - e.z.L.F.j.p.j.L.V.j.G.C.C.G.Z.G.V.F.J.a.j.C.j.j.C.G.C.a.!                     0XrXrXwXtXtXtX",
"tXtXtXwXrXrX0X        . q J H .     2.F.F.a.a.a.p.C.G.C.G.G.G.G.G.G.G.G.C.V.G.G.j.p.a.C.G.v.-             X .     0XrXrXwXtXtXtX",
"tXtXtXwXrXrX0X      # U.OX*XG.7., X ,.F.a.j.J.V.j.V.G.G.G.G.G.G.G.G.G.G.G.G.G.C.p.k.c.a.F.n.y & p f s p U U.      0XrXrXwXtXtXtX",
"tXtXtXwXrXrX0X          m a.&XL.G.@XA.k.p.a.C.G.G.F.G.G.G.G.G.G.G.G.G.G.G.G.G.C.V.F.j.p.j.G.C.e..XOXOXXX*Xk       0XrXrXwXtXtXtX",
"tXtXtXwXrXrX0X            6 p.+X-X;XF.j.Z.k.j.F.G.G.G.G.G.G.G.G.G.G.G.G.G.G.G.G.G.j.j.k.a.V.G.$X,X<X:XG.N         0XrXrXwXtXtXtX",
"tXtXtXwXrXrX0X              t q.a.F.V.p.j.F.F.F.G.G.G.G.G.G.G.G.G.G.G.G.G.G.G.G.F.F.F.Z.p.j.G.,XK.M.O.q           0XrXrXwXtXtXtX",
"tXtXtXwXrXrX0X                - `.G.j.a.a.@.>       > g 6.G.G.G.G.G.G.G.G.G.G.G.G.G.c.j.j.j.G.J.(.X               0XrXrXwXtXtXtX",
"tXtXtXwXrXrX0X                . 7.F.c.F.F. .    E h ;   + 5.G.G.G.G.G.G.G.G.G.G.G.G.G.G.S.a.C.G.}.t               0XrXrXwXtXtXtX",
"tXtXtXwXrXrX0X            o P d.F.C.a.j.F...    G.G.G.d   > G.G.G.G.G.G.G.G.G.G.G.G.G.k.a.p.V.G.z.e.t.i .         0XrXrXwXtXtXtX",
"tXtXtXwXrXrX0X        @ F a.e.j.F.k.p.a.j.|     G.G.G.6.    m...u     u 5.G.>   h G.$.    y.V.G.&Xa.e.e.>.i       0XrXrXwXtXtXtX",
"tXtXtXwXrXrX0X    # ! i.q.a.a.j.F.k.k.C.F.X.    G.G.G.G.    ..5.> E d   ; G.W   ; G.R   d c.j.G.S.a.a.a.e.q.-.8   0XrXrXwXtXtXtX",
"tXtXtXwXrXrX0X    x 4.q.e.a.a.j.F.j.k.k.C.X.    G.G.G.G.    5.m.G.6...    5.m.+   6.d   L p.k.G.S.a.a.e.e.&.5     0XrXrXwXtXtXtX",
"tXtXtXwXrXrX0X      . l >.q.e.j.F.j.a.k.C.o.    G.G.G...    G.5.>         ..G.g   E + O j.p.V.G.XXe.e.) <         0XrXrXwXtXtXtX",
"tXtXtXwXrXrX0X          . r 3.e.F.k.a.k.k.|     G.G.m.>   g G.;   E G.    ..G.5.  ;   g J.k.C.G.XX&.-             0XrXrXwXtXtXtX",
"tXtXtXwXrXrX0X                z N.C.p.p.k.o.    E h ;   + 6.G.;   d d     ..G.G.>     ( a.j.F.D.:                 0XrXrXwXtXtXtX",
"tXtXtXwXrXrX0X                  ~.b.a.V.F.$.+     + u E m.G.G.5.>   g >   ..G.G.E   ; L.k.j.G.h.4 X               0XrXrXwXtXtXtX",
"tXtXtXwXrXrX0X            . 1 '.2XF.k.j.a.V.G.G.G.G.G.G.G.G.G.G.G.G.G.G.G.G.G.5.;   Q k.j.k.G.c.p.2.,             0XrXrXwXtXtXtX",
"tXtXtXwXrXrX0X          P.H.K.;X=XF.F.p.V.F.V.F.G.G.G.G.G.G.G.G.G.G.G.G.G.G.5.    g F.j.p.V.L.7X+Xa.2.&           0XrXrXwXtXtXtX",
"tXtXtXwXrXrX0X        7 >XXX Xg.w.k.G.k.a.a.V.G.F.G.G.G.G.G.G.G.G.G.G.G.G.G.G.> K j.V.k.j.G.*XK.G.,XOXd.x o       0XrXrXwXtXtXtX",
"tXtXtXwXrXrX0X        / a./.W.!.W.I.].b.a.j.S.k.S.L.G.G.G.G.G.G.G.G.G.G.G.G.F.F.F.a.p.p.C.m.j D {.D.L.=XoX^.o     0XrXrXwXtXtXtX",
"tXtXtXwXrXrX0X        Y X           Q.n.C.a.a.k.C.c.G.F.G.G.G.G.G.G.G.G.J.F.F.a.V.Z.a.V.G.x.X     . b E.q o       0XrXrXwXtXtXtX",
"tXtXtXwXrXrX0X                    o w.V.G.k.g.Z.a.k.F.Z.G.F.G.G.F.G.F.G.F.j.F.k.p.g.Z.G.*Xe.j                     0XrXrXwXtXtXtX",
"tXtXtXwXrXrX0X                    y e.a.C.G.V.a.p.V.V.a.F.Z.F.F.k.G.k.k.F.a.j.j.p.V.G.S.g.q.{                     0XrXrXwXtXtXtX",
"tXtXtXwXrXrX0X                    3.e.a.z.*XG.V.j.c.a.a.F.j.F.V.p.F.V.a.V.a.p.j.C.G.J.j.a.a.t.                    0XrXrXwXtXtXtX",
"tXtXtXwXrXrX0X                  @ e.a.a.a.a.V.G.G.V.j.j.Z.a.V.k.p.j.j.p.a.j.V.G.G.S.r.a.a.a.e.$                   0XrXrXwXtXtXtX",
"tXtXtXwXrXrX0X                  ~ q.e.a.u.A = % ).n.G.F.F.V.V.k.j.j.k.V.C.F.L.C.R.c } d.e.e.e.F                   0XrXrXwXtXtXtX",
"tXtXtXwXrXrX0X                  >.;.I #         ).>X*XC.A.F.G.G.G.L.F.F.F.<X7Xp.;.    X V :.e.1.                  0XrXrXwXtXtXtX",
"tXtXtXwXrXrX0X                . ,             & G.-Xg.<., &.j.c.c.k.j.e.qX9X8Xg.i.          8 P X                 0XrXrXwXtXtXtX",
"tXtXtXwXrXrX0X                                ^ :XOX0.z   , e.a.a.a.q.} * 4X;Xg.)                                 0XrXrXwXtXtXtX",
"tXtXtXwXrXrX0X                              % :X&Xp.C       } q.a.a.e.-   P.F.z.a                                 0XrXrXwXtXtXtX",
"tXtXtXwXrXrX0X                              . [..XC         5 w.a.e.]     & K.XXG                                 0XrXrXwXtXtXtX",
"tXtXtXwXrXrX0X                                5 =.            *.e.e.$       2 1X6X.                               0XrXrXwXtXtXtX",
"tXtXtXwXrXrX0X                                . 0             < 0.!           . M &                               0XrXrXwXtXtXtX",
"tXtXtXwXrXrX0X                                                  >.5                                               0XrXrXwXtXtXtX",
"tXtXtXwXrXrX0X0X                                                .                                               0X0XrXrXwXtXtXtX",
"tXtXtXwXrXrXrX0X0X                                                                                            0X0XrXrXrXwXtXtXtX",
"tXtXtXwXrXrXrXrX0X0X0X0X0X0X0X0X0X0X0X0X0X0X0X0X0X0X0X0X0X0X0X0X0X0X0X0X0X0X0X0X0X0X0X0X0X0X0X0X0X0X0X0X0X0X0X0XrXrXrXrXwXtXtXtX",
"tXtXtXwXwXrXrXrXrXrXrXrXrXrXrXrXrXrXrXrXrXrXrXrXrXrXrXrXrXrXrXrXrXrXrXrXrXrXrXrXrXrXrXrXrXrXrXrXrXrXrXrXrXrXrXrXrXrXrXwXwXtXtXtX",
"tXtXtXrXwXwXrXrXrXrXrXrXrXrXrXrXrXrXrXrXrXrXrXrXrXrXrXrXrXrXrXrXrXrXrXrXrXrXrXrXrXrXrXrXrXrXrXrXrXrXrXrXrXrXrXrXrXrXwXwXrXtXtXtX",
"tXtXtXrXrXwXwXwXwXwXwXwXwXwXwXwXwXwXwXwXwXwXwXwXwXwXwXwXwXwXwXwXwXwXwXwXwXwXwXwXwXwXwXwXwXwXwXwXwXwXwXwXwXwXwXwXwXwXwXrXrXtXtXtX",
"tXtXtXtXtXtXtXtXtXtXtXtXtXtXtXtXtXtXtXtXtXtXtXtXtXtXtXtXtXtXtXtXtXtXtXtXtXtXtXtXtXtXtXtXtXtXtXtXtXtXtXtXtXtXtXtXtXtXtXtXtXtXtXtX",
"tXtXtXtXtXtXtXtXtXtXtXtXtXtXtXtXtXtXtXtXtXtXtXtXtXtXtXtXtXtXtXtXtXtXtXtXtXtXtXtXtXtXtXtXtXtXtXtXtXtXtXtXtXtXtXtXtXtXtXtXtXtXtXtX",
"tXtXtXtXtXtXtXtXtXtXtXtXtXtXtXtXtXtXtXtXtXtXtXtXtXtXtXtXtXtXtXtXtXtXtXtXtXtXtXtXtXtXtXtXtXtXtXtXtXtXtXtXtXtXtXtXtXtXtXtXtXtXtXtX"
};
