/* XPM */
static char *xpm_icon_spin[] = {
/* columns rows colors chars-per-pixel */
"64 64 155 2",
"   c black",
".  c #010000",
"X  c #010101",
"o  c #020202",
"O  c gray1",
"+  c #040000",
"@  c #040404",
"#  c gray2",
"$  c #060606",
"%  c #070707",
"&  c #0E0303",
"*  c gray3",
"=  c #090909",
"-  c gray4",
";  c #0B0B0B",
":  c gray5",
">  c #0E0E0E",
",  c #0E0E0F",
"<  c gray6",
"1  c #101010",
"2  c #101011",
"3  c #111111",
"4  c #111112",
"5  c gray7",
"6  c gray8",
"7  c #151515",
"8  c #151516",
"9  c #181819",
"0  c #1E1B1B",
"q  c #1B1B1C",
"w  c gray12",
"e  c #241515",
"r  c #391F1F",
"t  c #1F1F21",
"y  c gray13",
"u  c #202022",
"i  c #222222",
"p  c #222225",
"a  c #232326",
"s  c #2A2A2A",
"d  c #2A2A2D",
"f  c #2C2C2F",
"g  c #303033",
"h  c gray20",
"j  c #323235",
"k  c #343439",
"l  c #39393E",
"z  c #430505",
"x  c #540606",
"c  c #760808",
"v  c #7F1818",
"b  c #3C3C40",
"n  c #3D3D43",
"m  c #424141",
"M  c #444444",
"N  c #424248",
"B  c #4D4D55",
"V  c #555555",
"C  c #505059",
"Z  c #54545D",
"A  c #575760",
"S  c #595963",
"D  c #5B5B66",
"F  c gray40",
"G  c #6B6767",
"H  c #62626D",
"J  c #666673",
"K  c #6A6A78",
"L  c #777777",
"P  c #787777",
"I  c #A50B0B",
"U  c #B30C0C",
"Y  c #8A1E21",
"T  c #9C3333",
"R  c #FB1111",
"E  c #FA1112",
"W  c #FA1213",
"Q  c #9B4A4A",
"!  c #F47B7B",
"~  c #787886",
"^  c #C26882",
"/  c #888888",
"(  c #808091",
")  c #868697",
"_  c #86869E",
"`  c #979797",
"'  c gray60",
"]  c #9D9D9D",
"[  c #8E8EA1",
"{  c #8080AD",
"}  c #9090A4",
"|  c #9494A9",
" . c #9595AB",
".. c #9999B1",
"X. c #9C9CB4",
"o. c #AAAAAA",
"O. c #B0AAAA",
"+. c #A0A0B9",
"@. c #BBBBBB",
"#. c #D782A8",
"$. c #D18EBC",
"%. c #D1ADAD",
"&. c #FDA0A0",
"*. c #A6A6C1",
"=. c #A7A7C3",
"-. c #A6A6C6",
";. c #A8A8C5",
":. c #ABABC8",
">. c #ABABC9",
",. c #B1B1D1",
"<. c #B3B3D3",
"1. c #B4B4D5",
"2. c #B7B7D9",
"3. c #BABADE",
"4. c #BEBEE3",
"5. c gray78",
"6. c gray80",
"7. c #DDDDDD",
"8. c #DEDDDD",
"9. c #FEDFDF",
"0. c #C0C0E5",
"q. c #C3C3E8",
"w. c #C5C5EB",
"e. c #CACAF0",
"r. c #CCCCF2",
"t. c #CDCDF2",
"y. c #CDCDF3",
"u. c #D0D0F5",
"i. c #D1D1F6",
"p. c #D5D5F9",
"a. c #D7D7FA",
"s. c #DBDBFB",
"d. c #DBD9FC",
"f. c #DFDFFD",
"g. c #E4E4E4",
"h. c #E7E7E7",
"j. c #EBE5E5",
"k. c #E0E0EE",
"l. c #EEEEEE",
"z. c #FFEFEF",
"x. c #E1E1FC",
"c. c #E3E3FE",
"v. c #E5E5FE",
"b. c #E8E8FE",
"n. c #E9E9FF",
"m. c #EBEBFE",
"M. c #ECEBFE",
"N. c #ECECFF",
"B. c #EDEDFF",
"V. c #EFEFFF",
"C. c #F3F3FF",
"Z. c #F5F5FF",
"A. c #F9F9FF",
"S. c gray100",
"D. c None",
/* pixels */
"D.D.D.D.D.D.D.D.D.D.D.D.D.D.D.D.D.D.D.D.D.D.D.D.D.D.D.D.D.D.D.D.D.D.D.D.D.D.D.D.D.D.D.D.D.D.D.D.D.D.D.D.D.D.D.D.D.D.D.D.D.D.D.D.",
"D.D.D.D.D.D.D.D.D.D.D.D.D.D.D.D.D.D.D.D.D.D.D.D.D.D.D.D.D.D.D.D.D.D.D.D.D.D.D.D.D.D.D.D.D.D.D.D.D.D.D.D.D.D.D.D.D.D.D.D.D.D.D.D.",
"D.D.D.S.S.5.5.5.5.5.5.5.5.5.5.5.5.5.5.5.5.5.5.5.5.5.5.5.5.5.5.5.5.5.5.5.5.5.5.5.5.5.5.5.5.5.5.5.5.5.5.5.5.5.5.5.5.5.5.S.S.D.D.D.",
"D.D.D.S.5.5.S.S.S.S.S.S.S.S.S.S.S.S.S.S.S.S.S.S.S.S.S.S.S.S.S.S.S.S.S.S.S.S.S.S.S.S.S.S.S.S.S.S.S.S.S.S.S.S.S.S.S.S.5.5.S.D.D.D.",
"D.D.D.5.5.S.S.S.S.S.S.S.S.S.S.S.S.S.S.S.S.S.S.S.S.S.S.S.S.S.S.S.S.S.S.S.S.S.S.S.S.S.S.S.S.S.S.S.S.S.S.S.S.S.S.S.S.S.S.5.5.D.D.D.",
"D.D.D.5.S.S.S.S.] ] ] ] ] ] ] ] ] ] ] ] ] ] ] ] ] ] ] ] ] ] ] ] ] ] ] ] ] ] ] ] ] ] ] ] ] ] ] ] ] ] ] ] ] ] ] ] S.S.S.S.5.D.D.D.",
"D.D.D.5.S.S.g.] ]                                                                                             ] ] S.S.S.5.D.D.D.",
"D.D.D.5.S.S.]                                                                                                   ] ] S.S.5.D.D.D.",
"D.D.D.5.S.S.]                                                                                                     ] S.S.5.D.D.D.",
"D.D.D.5.S.S.]                           3 ' l.S.S.L                   3 7.o.                                      ] S.S.5.D.D.D.",
"D.D.D.5.S.S.]                           6.S.7.@.l.M                   i S.7.                                      ] S.S.5.D.D.D.",
"D.D.D.5.S.S.]                         h S.S.3     3                     i 3                                       ] S.S.5.D.D.D.",
"D.D.D.5.S.S.]                         i S.S.L         S.S.G 8.S.O.3   M S.S.  M S.6.' l.7.V                       ] S.S.5.D.D.D.",
"D.D.D.5.S.S.]                           ' S.S.l.L     S.S.l.P 7.S.@.  M S.S.  M S.S.o.o.S.l.                      ] S.S.5.D.D.D.",
"D.D.D.5.S.S.]                             F 7.S.S.L   S.S.m . 0 S.S.i M S.S.  M S.S.3 3 S.S.M                     ] S.S.5.D.D.D.",
"D.D.D.5.S.S.]                                 / S.l.  S.S.e   + h.S.M M S.S.  M S.S.    S.S.M                     ] S.S.5.D.D.D.",
"D.D.D.5.S.S.]                           i     V S.l.  S.S.r . & 7.S.3 M S.S.  M S.S.    S.S.M                     ] S.S.5.D.D.D.",
"D.D.D.5.S.S.]                         i S.7.@.l.S.L   S.S.j.! 9.S.%.  M S.S.  M S.S.    S.S.M                     ] S.S.5.D.D.D.",
"D.D.D.5.S.S.]                         i o.l.S.6.L     S.S.%.9.z.&.v   M S.S.  M S.S.    S.S.M                     ] S.S.5.D.D.D.",
"D.D.D.5.S.S.]                                         S.S.Q R R R c                                               ] S.S.5.D.D.D.",
"D.D.D.5.S.S.]                                         S.S.Q R R R c                                               ] S.S.5.D.D.D.",
"D.D.D.5.S.S.]                                         S.S.Q R R R c                                               ] S.S.5.D.D.D.",
"D.D.D.5.S.S.]                                             c R R R c                                               ] S.S.5.D.D.D.",
"D.D.D.5.S.S.]                                             c R R R c                                               ] S.S.5.D.D.D.",
"D.D.D.5.S.S.]                                             Y R R R c                                               ] S.S.5.D.D.D.",
"D.D.D.5.S.S.]                             N [ <.w.p.Z.S.S.$.R R R $.S.S.N.p.0.>.( f                               ] S.S.5.D.D.D.",
"D.D.D.5.S.S.]                     9 ) w.A.S.S.S.S.S.S.S.S.$.R R R $.S.S.S.S.S.S.S.S.N.3.K =                       ] S.S.5.D.D.D.",
"D.D.D.5.S.S.]                 n 4.S.S.S.S.S.S.S.S.S.S.S.S.$.R R R $.S.S.S.S.S.S.S.S.S.S.S.Z.,.a                   ] S.S.5.D.D.D.",
"D.D.D.5.S.S.]             2 0.S.S.S.S.S.S.S.S.S.S.S.S.S.C.^ R R R ^ b.S.S.S.S.S.S.S.S.S.S.S.S.S.=.$               ] S.S.5.D.D.D.",
"D.D.D.5.S.S.]           k v.S.S.S.S.S.S.S.S.S.u.| ;.J C p c R R R c t g D +.=.r.a.c.S.S.S.S.S.S.S.a.<             ] S.S.5.D.D.D.",
"D.D.D.5.S.S.]         8 f.S.S.S.S.S.S.S.S.*.$ X o X     X c R R R c   % o X O 6 h l B q.S.S.k.      y.O           ] S.S.5.D.D.D.",
"D.D.D.5.S.S.]         ..S.S.S.S.S.S.i.K #   X @ o X X     c R R R c         X   o @ 1 u [ k.  S.S.S.  Z           ] S.S.5.D.D.D.",
"D.D.D.5.S.S.]         ,.S.S.S.S.S.S.d X : O X O O o     ` T R R R c         X       @ * 5   S.S.S.S.S.(           ] S.S.5.D.D.D.",
"D.D.D.5.S.S.]         K S.S.S.S.S.S.s.q $   * * : <     B.d.E R R c X     X $ @ O O : o w [ S.S.S.S.S.f           ] S.S.5.D.D.D.",
"D.D.D.5.S.S.]           3.S.S.S.S.S.S.b.a.X.4 , f - # o A.S.#.E R c         X o X > O     j v.S.S.S. .            ] S.S.5.D.D.D.",
"D.D.D.5.S.S.]           $ 2.S.S.S.S.S.S.S.S.S.S.} :.|   A.S.S.x.W c   $ O X     X o o     @ A B.2.b               ] S.S.5.D.D.D.",
"D.D.D.5.S.S.]               H a.S.S.S.S.S.S.S.S.S.S.S.  S.S.A.S.S.c X   X   o #       - X   y s ;                 ] S.S.5.D.D.D.",
"D.D.D.5.S.S.]                   S q.V.S.S.S.S.S.S.S.S.  S.S.S.S.S.S.-.@     X   X       # o                       ] S.S.5.D.D.D.",
"D.D.D.5.S.S.]                         l ..w.V.S.S.S.S.  S.S.S.S.S.S.S.t.: o o     X = #                           ] S.S.5.D.D.D.",
"D.D.D.5.S.S.]                                 l ~ [ 1.  S.S.S.S.S.S._ #       X                                   ] S.S.5.D.D.D.",
"D.D.D.5.S.S.]                                           S.S.S.S.S.c                                               ] S.S.5.D.D.D.",
"D.D.D.5.S.S.]                                           A.S.M.e.W c                                               ] S.S.5.D.D.D.",
"D.D.D.5.S.S.]                                         7 n.m.R R R c                                               ] S.S.5.D.D.D.",
"D.D.D.5.S.S.]                                         % { c R R R c                                               ] S.S.5.D.D.D.",
"D.D.D.5.S.S.]                                             c R R R c                                               ] S.S.5.D.D.D.",
"D.D.D.5.S.S.]                                             c R R R c                                               ] S.S.5.D.D.D.",
"D.D.D.5.S.S.]                                             c R R R c                                               ] S.S.5.D.D.D.",
"D.D.D.5.S.S.]                                             c R R R c                                               ] S.S.5.D.D.D.",
"D.D.D.5.S.S.]                                             c R R R c                                               ] S.S.5.D.D.D.",
"D.D.D.5.S.S.]                                             z I U U x                                               ] S.S.5.D.D.D.",
"D.D.D.5.S.S.]                                               .                                                     ] S.S.5.D.D.D.",
"D.D.D.5.S.S.]                                                                                                     ] S.S.5.D.D.D.",
"D.D.D.5.S.S.]                                                                                                     ] S.S.5.D.D.D.",
"D.D.D.5.S.S.]                                                                                                     ] S.S.5.D.D.D.",
"D.D.D.5.S.S.]                                                                                                     ] S.S.5.D.D.D.",
"D.D.D.5.S.S.] ]                                                                                                 ] ] S.S.5.D.D.D.",
"D.D.D.5.S.S.S.] ]                                                                                             ] ] S.S.S.5.D.D.D.",
"D.D.D.5.S.S.S.S.] ] ] ] ] ] ] ] ] ] ] ] ] ] ] ] ] ] ] ] ] ] ] ] ] ] ] ] ] ] ] ] ] ] ] ] ] ] ] ] ] ] ] ] ] ] ] ] S.S.S.S.5.D.D.D.",
"D.D.D.5.5.S.S.S.S.S.S.S.S.S.S.S.S.S.S.S.S.S.S.S.S.S.S.S.S.S.S.S.S.S.S.S.S.S.S.S.S.S.S.S.S.S.S.S.S.S.S.S.S.S.S.S.S.S.S.5.5.D.D.D.",
"D.D.D.S.5.5.S.S.S.S.S.S.S.S.S.S.S.S.S.S.S.S.S.S.S.S.S.S.S.S.S.S.S.S.S.S.S.S.S.S.S.S.S.S.S.S.S.S.S.S.S.S.S.S.S.S.S.S.5.5.S.D.D.D.",
"D.D.D.S.S.5.5.5.5.5.5.5.5.5.5.5.5.5.5.5.5.5.5.5.5.5.5.5.5.5.5.5.5.5.5.5.5.5.5.5.5.5.5.5.5.5.5.5.5.5.5.5.5.5.5.5.5.5.5.S.S.D.D.D.",
"D.D.D.D.D.D.D.D.D.D.D.D.D.D.D.D.D.D.D.D.D.D.D.D.D.D.D.D.D.D.D.D.D.D.D.D.D.D.D.D.D.D.D.D.D.D.D.D.D.D.D.D.D.D.D.D.D.D.D.D.D.D.D.D.",
"D.D.D.D.D.D.D.D.D.D.D.D.D.D.D.D.D.D.D.D.D.D.D.D.D.D.D.D.D.D.D.D.D.D.D.D.D.D.D.D.D.D.D.D.D.D.D.D.D.D.D.D.D.D.D.D.D.D.D.D.D.D.D.D.",
"D.D.D.D.D.D.D.D.D.D.D.D.D.D.D.D.D.D.D.D.D.D.D.D.D.D.D.D.D.D.D.D.D.D.D.D.D.D.D.D.D.D.D.D.D.D.D.D.D.D.D.D.D.D.D.D.D.D.D.D.D.D.D.D."
};
