/* XPM */
static char *xpm_icon_play[] = {
/* columns rows colors chars-per-pixel */
"64 64 6 1",
"  c black",
". c #9D9D9D",
"X c gray78",
"o c #E4E4E4",
"O c gray100",
"+ c None",
/* pixels */
"++++++++++++++++++++++++++++++++++++++++++++++++++++++++++++++++",
"++++++++++++++++++++++++++++++++++++++++++++++++++++++++++++++++",
"+++OOXXXXXXXXXXXXXXXXXXXXXXXXXXXXXXXXXXXXXXXXXXXXXXXXXXXXXXOO+++",
"+++OXXOOOOOOOOOOOOOOOOOOOOOOOOOOOOOOOOOOOOOOOOOOOOOOOOOOOOXXO+++",
"+++XXOOOOOOOOOOOOOOOOOOOOOOOOOOOOOOOOOOOOOOOOOOOOOOOOOOOOOOXX+++",
"+++XOOOO................................................OOOOX+++",
"+++XOOo..                                              ..OOOX+++",
"+++XOO.                                                 ..OOX+++",
"+++XOO.                                                  .OOX+++",
"+++XOO.                                                  .OOX+++",
"+++XOO.                                                  .OOX+++",
"+++XOO.                                                  .OOX+++",
"+++XOO.                                                  .OOX+++",
"+++XOO.                                                  .OOX+++",
"+++XOO.                                                  .OOX+++",
"+++XOO.                                                  .OOX+++",
"+++XOO.                                                  .OOX+++",
"+++XOO.                                                  .OOX+++",
"+++XOO.                                                  .OOX+++",
"+++XOO.                                                  .OOX+++",
"+++XOO.                   O                              .OOX+++",
"+++XOO.                   OO                             .OOX+++",
"+++XOO.                   OOO                            .OOX+++",
"+++XOO.                   OOOO                           .OOX+++",
"+++XOO.                   OOOOO                          .OOX+++",
"+++XOO.                   OOOOOO                         .OOX+++",
"+++XOO.                   OOOOOOO                        .OOX+++",
"+++XOO.                   OOOOOOOO                       .OOX+++",
"+++XOO.                   OOOOOOOOO                      .OOX+++",
"+++XOO.                   OOOOOOOOOO                     .OOX+++",
"+++XOO.                   OOOOOOOOOOO                    .OOX+++",
"+++XOO.                   OOOOOOOOOOOO                   .OOX+++",
"+++XOO.                   OOOOOOOOOOO                    .OOX+++",
"+++XOO.                   OOOOOOOOOO                     .OOX+++",
"+++XOO.                   OOOOOOOOO                      .OOX+++",
"+++XOO.                   OOOOOOOO                       .OOX+++",
"+++XOO.                   OOOOOOO                        .OOX+++",
"+++XOO.                   OOOOOO                         .OOX+++",
"+++XOO.                   OOOOO                          .OOX+++",
"+++XOO.                   OOOO                           .OOX+++",
"+++XOO.                   OOO                            .OOX+++",
"+++XOO.                   OO                             .OOX+++",
"+++XOO.                   O                              .OOX+++",
"+++XOO.                                                  .OOX+++",
"+++XOO.                                                  .OOX+++",
"+++XOO.                                                  .OOX+++",
"+++XOO.                                                  .OOX+++",
"+++XOO.                                                  .OOX+++",
"+++XOO.                                                  .OOX+++",
"+++XOO.                                                  .OOX+++",
"+++XOO.                                                  .OOX+++",
"+++XOO.                                                  .OOX+++",
"+++XOO.                                                  .OOX+++",
"+++XOO.                                                  .OOX+++",
"+++XOO.                                                  .OOX+++",
"+++XOO..                                                ..OOX+++",
"+++XOOO..                                              ..OOOX+++",
"+++XOOOO................................................OOOOX+++",
"+++XXOOOOOOOOOOOOOOOOOOOOOOOOOOOOOOOOOOOOOOOOOOOOOOOOOOOOOOXX+++",
"+++OXXOOOOOOOOOOOOOOOOOOOOOOOOOOOOOOOOOOOOOOOOOOOOOOOOOOOOXXO+++",
"+++OOXXXXXXXXXXXXXXXXXXXXXXXXXXXXXXXXXXXXXXXXXXXXXXXXXXXXXXOO+++",
"++++++++++++++++++++++++++++++++++++++++++++++++++++++++++++++++",
"++++++++++++++++++++++++++++++++++++++++++++++++++++++++++++++++",
"++++++++++++++++++++++++++++++++++++++++++++++++++++++++++++++++"
};
