/* XPM */
static char * xpm_horiz_zoom_in_xpm[] = {
"64 64 354 2",
"  	c None",
". 	c #FFFFFF",
"+ 	c #C7C7C7",
"@ 	c #9D9D9D",
"# 	c #000000",
"$ 	c #070E17",
"% 	c #1C3A5C",
"& 	c #30629C",
"* 	c #3D7EC8",
"= 	c #458EE1",
"- 	c #4895EC",
"; 	c #4996EE",
"> 	c #4690E4",
", 	c #3E7FCA",
"' 	c #3165A0",
") 	c #1F4167",
"! 	c #08121D",
"~ 	c #21456E",
"{ 	c #3C7BC4",
"] 	c #458FE3",
"^ 	c #4690E5",
"/ 	c #4792E8",
"( 	c #4793EA",
"_ 	c #4894EB",
": 	c #4691E6",
"< 	c #4084D1",
"[ 	c #224771",
"} 	c #03060A",
"| 	c #448CDE",
"1 	c #4A98F1",
"2 	c #4997F0",
"3 	c #4895ED",
"4 	c #4288D8",
"5 	c #1E3F64",
"6 	c #04080D",
"7 	c #0A1421",
"8 	c #3670B2",
"9 	c #4996EF",
"0 	c #4A9CF1",
"a 	c #4AAAF2",
"b 	c #4BB6F6",
"c 	c #4CC0F9",
"d 	c #4CC4FA",
"e 	c #4CC7FA",
"f 	c #4BC4FA",
"g 	c #4CBFF9",
"h 	c #4AB7F6",
"i 	c #49A9F1",
"j 	c #499BF1",
"k 	c #3874B9",
"l 	c #0A1522",
"m 	c #0E1D2F",
"n 	c #4084D2",
"o 	c #4AA0F2",
"p 	c #4CC8FB",
"q 	c #4DC8FB",
"r 	c #4DC7FB",
"s 	c #0C0D0D",
"t 	c #4AB5F5",
"u 	c #4289D9",
"v 	c #0D1C2C",
"w 	c #0D1C2D",
"x 	c #438BDD",
"y 	c #4AB0F5",
"z 	c #4BB0F6",
"A 	c #458DE0",
"B 	c #0D1B2B",
"C 	c #09131F",
"D 	c #4083D0",
"E 	c #4A99F1",
"F 	c #4BB9F7",
"G 	c #4BB8F7",
"H 	c #020508",
"I 	c #356EAE",
"J 	c #4CBCF8",
"K 	c #03070C",
"L 	c #4BB8F6",
"M 	c #4CC7FB",
"N 	c #4AB8F6",
"O 	c #1F3F65",
"P 	c #08101A",
"Q 	c #4389DA",
"R 	c #4AAFF5",
"S 	c #4CC9FB",
"T 	c #4DC9FB",
"U 	c #4DCAFA",
"V 	c #4AB0F3",
"W 	c #0B1623",
"X 	c #20436A",
"Y 	c #4A9EF2",
"Z 	c #4CC6FA",
"` 	c #4CCAFB",
" .	c #4CCAFA",
"..	c #4DCCFB",
"+.	c #4DCBFB",
"@.	c #4DCCFA",
"#.	c #4CCAF9",
"$.	c #4A9EF1",
"%.	c #264F7E",
"&.	c #3A77BD",
"*.	c #4AB5F3",
"=.	c #4DCAFB",
"-.	c #4DCBFA",
";.	c #4DCDFA",
">.	c #4CCEFA",
",.	c #4DCEFA",
"'.	c #4DCFFA",
").	c #4AB9F2",
"!.	c #3873B7",
"~.	c #0F2033",
"{.	c #438ADC",
"].	c #4CCFFA",
"^.	c #4DCFF9",
"/.	c #4DD0FA",
"(.	c #4DD0F9",
"_.	c #4DD2F9",
":.	c #4CCFF8",
"<.	c #112337",
"[.	c #2C5A8F",
"}.	c #49AEF0",
"|.	c #4CCBFB",
"1.	c #4CCBFA",
"2.	c #4CD0F9",
"3.	c #4CD2F9",
"4.	c #4DD3F9",
"5.	c #4DD4F8",
"6.	c #48B1ED",
"7.	c #204269",
"8.	c #4ABBF2",
"9.	c #4DD1F9",
"0.	c #4CD1F9",
"a.	c #4DD4F9",
"b.	c #4DD5F8",
"c.	c #4CD5F8",
"d.	c #4DD6F8",
"e.	c #4CD6F8",
"f.	c #4AC4F1",
"g.	c #2A588B",
"h.	c #010203",
"i.	c #4BC4F7",
"j.	c #4DCDF9",
"k.	c #4DCEF9",
"l.	c #4CD0FA",
"m.	c #4DD5F9",
"n.	c #4CD5F9",
"o.	c #4DD6F9",
"p.	c #4DD7F8",
"q.	c #4CD8F8",
"r.	c #4DD8F8",
"s.	c #4DD9F7",
"t.	c #4CD1F5",
"u.	c #3976BB",
"v.	c #060C13",
"w.	c #4792E7",
"x.	c #4CCBF9",
"y.	c #4CD8F6",
"z.	c #3B7AC2",
"A.	c #09131E",
"B.	c #4CCFF9",
"C.	c #4CDDF6",
"D.	c #4CD0F8",
"E.	c #4CDFF5",
"F.	c #3C7BC3",
"G.	c #4BD2F8",
"H.	c #060D14",
"I.	c #4185D3",
"J.	c #4CD3F5",
"K.	c #4CDEF3",
"L.	c #2E5F97",
"M.	c #010204",
"N.	c #346BAB",
"O.	c #4AD0F3",
"P.	c #4DD9F8",
"Q.	c #4DDAF7",
"R.	c #4DDBF7",
"S.	c #4CDCF7",
"T.	c #4DDCF6",
"U.	c #4DDDF7",
"V.	c #4DDDF6",
"W.	c #4DDEF7",
"X.	c #4DDEF6",
"Y.	c #4CE2F6",
"Z.	c #4DE2F6",
"`.	c #4CE3F5",
" +	c #4DE3F6",
".+	c #4DE4F5",
"++	c #4DE5F5",
"@+	c #4DE6F5",
"#+	c #4CE6F5",
"$+	c #4CE7F4",
"%+	c #4BD9F0",
"&+	c #244A76",
"*+	c #234872",
"=+	c #4AC5F3",
"-+	c #4DDCF7",
";+	c #4CDDF7",
">+	c #4CDEF7",
",+	c #4CDFF6",
"'+	c #4DDFF6",
")+	c #4DE0F6",
"!+	c #4DE7F5",
"~+	c #4DE8F5",
"{+	c #4DE9F5",
"]+	c #4DE9F4",
"^+	c #4BC9F0",
"/+	c #193352",
"(+	c #0C1928",
"_+	c #4CDCF5",
":+	c #4DDFF7",
"<+	c #4DE0F7",
"[+	c #4CE0F6",
"}+	c #4CE1F6",
"|+	c #4CE7F5",
"1+	c #4DEAF4",
"2+	c #4DEAF5",
"3+	c #4DEBF4",
"4+	c #4CEAF3",
"5+	c #4997EF",
"6+	c #4187D6",
"7+	c #0B1826",
"8+	c #020406",
"9+	c #3267A3",
"0+	c #4CD9F3",
"a+	c #4DE1F6",
"b+	c #4CE3F6",
"c+	c #4DE4F6",
"d+	c #4CE5F5",
"e+	c #4CE9F4",
"f+	c #4DEBF3",
"g+	c #4DECF4",
"h+	c #4DEDF3",
"i+	c #4CE0F1",
"j+	c #3267A4",
"k+	c #142941",
"l+	c #4AACF1",
"m+	c #4DE3F5",
"n+	c #4DE5F6",
"o+	c #4DE6F4",
"p+	c #4CEBF4",
"q+	c #4CECF3",
"r+	c #4DEEF4",
"s+	c #4DEEF3",
"t+	c #4CEEF2",
"u+	c #4AADF1",
"v+	c #152C45",
"w+	c #3268A5",
"x+	c #4BD9F2",
"y+	c #4DE7F4",
"z+	c #4DE8F4",
"A+	c #4CEDF3",
"B+	c #4CEEF3",
"C+	c #4DEFF3",
"D+	c #4DF0F3",
"E+	c #4DF2F3",
"F+	c #4ADEF1",
"G+	c #366FB0",
"H+	c #020509",
"I+	c #0B1725",
"J+	c #4CE6F3",
"K+	c #4CF1F3",
"L+	c #4DF1F2",
"M+	c #4DF1F3",
"N+	c #4CF3F2",
"O+	c #4CEEF1",
"P+	c #4186D4",
"Q+	c #162D47",
"R+	c #4A9BF1",
"S+	c #4CEBF3",
"T+	c #4CECF4",
"U+	c #4DECF3",
"V+	c #4DF2F2",
"W+	c #4CF3F3",
"X+	c #4DF3F3",
"Y+	c #4DF4F2",
"Z+	c #4CF2F1",
"`+	c #4A9BF0",
" @	c #152B44",
".@	c #264E7C",
"+@	c #4CEFF4",
"@@	c #4DEFF4",
"#@	c #4CF4F2",
"$@	c #4DF5F2",
"%@	c #4DF6F2",
"&@	c #4DF6F1",
"*@	c #4CF3F0",
"=@	c #183250",
"-@	c #2C5C92",
";@	c #4CE8F1",
">@	c #4CF2F2",
",@	c #4DF7F2",
"'@	c #4DF7F1",
")@	c #4CF8F1",
"!@	c #4DF8F1",
"~@	c #4CECF0",
"{@	c #21446C",
"]@	c #4AC0F0",
"^@	c #4CF1F1",
"/@	c #4DF9F1",
"(@	c #4DFAF1",
"_@	c #4CF5F1",
":@	c #49C2F0",
"<@	c #13273E",
"[@	c #102236",
"}@	c #48AFED",
"|@	c #4BE5F0",
"1@	c #4CF8F0",
"2@	c #4CF9F0",
"3@	c #4CFAF0",
"4@	c #4CF7F0",
"5@	c #4BE7F1",
"6@	c #48B0ED",
"7@	c #050A11",
"8@	c #356DAD",
"9@	c #1F4066",
"0@	c #3F81CE",
"a@	c #4793E9",
"b@	c #4287D7",
"c@	c #1D3C60",
"d@	c #040A10",
"e@	c #050B12",
"f@	c #3B7AC1",
"g@	c #04090F",
"h@	c #2A5789",
"i@	c #458FE2",
"j@	c #3772B5",
"k@	c #2D5C93",
"l@	c #18314E",
"m@	c #050B11",
"n@	c #356EAF",
"o@	c #295588",
"p@	c #346CAC",
"q@	c #1B395A",
"r@	c #000101",
"s@	c #12263D",
"t@	c #162D48",
"u@	c #0B1724",
"v@	c #010305",
"w@	c #04080E",
"x@	c #1D3D61",
"y@	c #1A3656",
"z@	c #1D3B5E",
"A@	c #295587",
"B@	c #1B3858",
"C@	c #1B3859",
"D@	c #18324F",
"E@	c #183351",
"F@	c #172F4B",
"G@	c #1D3C5F",
"H@	c #1C3B5D",
"I@	c #21456D",
"J@	c #020407",
"K@	c #2E5E96",
"L@	c #142A44",
"M@	c #193453",
"                                                                                                                                ",
"                                                                                                                                ",
"      . . + + + + + + + + + + + + + + + + + + + + + + + + + + + + + + + + + + + + + + + + + + + + + + + + + + + + + + . .       ",
"      . + + . . . . . . . . . . . . . . . . . . . . . . . . . . . . . . . . . . . . . . . . . . . . . . . . . . . . + + .       ",
"      + + . . . . . . . . . . . . . . . . . . . . . . . . . . . . . . . . . . . . . . . . . . . . . . . . . . . . . . + +       ",
"      + . . . . @ @ @ @ @ @ @ @ @ @ @ @ @ @ @ @ @ @ @ @ @ @ @ @ @ @ @ @ @ @ @ @ @ @ @ @ @ @ @ @ @ @ @ @ @ @ @ @ . . . . +       ",
"      + . . . @ @ # # # # # # # # # $ % & * = - ; ; > , ' ) ! # # # # # # # # # # # # # # # # # # # # # # # # @ @ . . . +       ",
"      + . . @ @ # # # # # # # # ! ~ { ] ^ / ( ( _ ( ( : ^ ( < [ $ # # # # # # # # # # # # # # # # # # # # # # # @ @ . . +       ",
"      + . . @ # # # # # # # } ) | 1 1 2 - 3 1 1 1 1 2 3 3 2 1 1 4 5 6 # # # # # # # # # # # # # # # # # # # # # # @ . . +       ",
"      + . . @ # # # # # # 7 8 1 1 1 9 0 a b c d e f g h i j 9 1 1 1 k l # # # # # # # # # # # # # # # # # # # # # @ . . +       ",
"      + . . @ # # # # # m n 1 1 1 o b p q r s s s s s q q r t o 1 ; 1 u v # # # # # # # # # # # # # # # # # # # # @ . . +       ",
"      + . . @ # # # # w x 1 - 1 y q q q q q s s s s s q q r q q z 1 - 1 A B # # # # # # # # # # # # # # # # # # # @ . . +       ",
"      + . . @ # # # C D 1 - E F q q q q p q s s s s s p p p q r q G E - 1 4 7 # # # # # # # # # # # # # # # # # # @ . . +       ",
"      + . . @ # # H I 1 - 1 J p q q q q r q s s s s s r p q r p q p J 1 3 1 k K # # # # # # # # # # # # # # # # # @ . . +       ",
"      + . . @ # # 5 1 1 1 L p q r q q r q p s s s s s r q M p r q r q N 1 1 1 O # # # # # # # # # # # # # # # # # @ . . +       ",
"      + . . @ # P Q 1 1 R p q M q q q p q q s s s s s q p r p q p S T U V 2 1 x W # # # # # # # # # # # # # # # # @ . . +       ",
"      + . . @ # X 1 1 Y Z M q M q r q q p q s s s s s p S T U `  ...+.@.#.$.- 1 %.# # # # # # # # # # # # # # # # @ . . +       ",
"      + . . @ K &.1 1 *.r q p q q r p q q q s s s s s U =.-.@.@.;.>.,.>.'.).1 1 !.K # # # # # # # # # # # # # # # @ . . +       ",
"      + . . @ ~.{.1 1 Z q q q q q q r q S U s s s s s @.>.,.].].^././.(._.:.1 1 ^ <.# # # # # # # # # # # # # # # @ . . +       ",
"      + . . @ [.> 9 }.q p q q S S =.-.|.1.@.s s s s s './.2.2._._.3._.4.4.5.6.- 2 7.# # # # # # # # # # # # # # # @ . . +       ",
"      + . . @ { ^ 1 8.T  .=.+.-.@.@.@.;.,.,.s s s s s 9.0._.4.4.a.b.b.c.d.e.f.2 1 g.h.# # # # # # # # # # # # # # @ . . +       ",
"      + . . @ | : 1 i.-.-.@.;.j.k.k.'.l./.(.s s s s s 4.5.m.c.n.e.o.p.q.r.s.t.1 1 u.v.# # # # # # # # # # # # # # @ . . +       ",
"      + . . @ - w.1 x.s s s s s s s s s s s s s s s s s s s s s s s s s s s y.1 _ z.A.# # # # # # # # # # # # # # @ . . +       ",
"      + . . @ ; / 1 B.s s s s s s s s s s s s s s s s s s s s s s s s s s s C.1 - { A.# # # # # # # # # # # # # # @ . . +       ",
"      + . . @ ; / 1 D.s s s s s s s s s s s s s s s s s s s s s s s s s s s E.1 _ F.C # # # # # # # # # # # # # # @ . . +       ",
"      + . . @ ( w.1 G.s s s s s s s s s s s s s s s s s s s s s s s s s s s E.1 1 &.H.# # # # # # # # # # # # # # @ . . +       ",
"      + . . @ I.: 1 J.s s s s s s s s s s s s s s s s s s s s s s s s s s s K.1 1 L.M.# # # # # # # # # # # # # # @ . . +       ",
"      + . . @ N.^ 3 O.P.Q.Q.R.S.S.T.U.V.W.X.s s s s s Y.Y.Z.`. +.+.+++@+#+$+%+9 1 &+# # # # # # # # # # # # # # # @ . . +       ",
"      + . . @ *+w.9 =+-+T.U.;+W.>+X.,+'+)+)+s s s s s .+.+++++@+@+!+!+~+{+]+^+3 ( /+# # # # # # # # # # # # # # # @ . . +       ",
"      + . . @ (+u 1 1 _+:+'+<+'+[+}+}+}+Z.Z.s s s s s @+!+|+|+~+{+{+1+2+3+4+5+1 6+7+# # # # # # # # # # # # # # # @ . . +       ",
"      + . . @ 8+9+1 9 0+)+a+Z.Y.b+ +c+d+d+d+s s s s s ~+e+]+2+1+3+f+g+g+h+i+; 1 j+H # # # # # # # # # # # # # # # @ . . +       ",
"      + . . @ # k+_ 2 l+`.m+.+d+n+#+@+!+o+~+s s s s s p+3+g+g+q+h+r+s+s+t+u+1 2 v+# # # # # # # # # # # # # # # # @ . . +       ",
"      + . . @ # 8+w+1 - x+++!+y+$+z+~+{+{+]+s s s s s h+A+s+B+C+C+D+D+E+F+; 1 G+H+# # # # # # # # # # # # # # # # @ . . +       ",
"      + . . @ # # I+x 1 1 J+~+]+e+1+p+3+f+g+s s s s s C+D+D+K+L+M+E+N+O+1 1 P+(+# # # # # # # # # # # # # # # # # @ . . +       ",
"      + . . @ # # # Q+1 1 R+S+3+T+U+U+h+s+r+s s s s s L+V+V+W+X+Y+Y+Z+`+1 _  @# # # # # # # # # # # # # # # # # # @ . . +       ",
"      + . . @ # # # # .@1 3 $.t+s++@@@C+D+L+s s s s s #@Y+$@%@%@&@*@$.2 1 / =@# # # # # # # # # # # # # # # # # # @ . . +       ",
"      + . . @ # # # # 8+-@1 1 ; ;@D+M+E+>@N+s s s s s ,@'@'@)@!@~@9 1 1 1 2 | /+# # # # # # # # # # # # # # # # # @ . . +       ",
"      + . . @ # # # # # M.{@3 1 1 ]@^@Y+$@%@s s s s s !@/@(@_@:@1 1 D F.1 1 1 w.<@# # # # # # # # # # # # # # # # @ . . +       ",
"      + . . @ # # # # # # # [@, 1 1 1 }@|@_@)@1@2@3@3@4@5@6@1 1 1 z.7 7@8@1 3 1 x 7 # # # # # # # # # # # # # # # @ . . +       ",
"      + . . @ # # # # # # # # v.9@0@1 1 2 ( ; 2 9 2 3 a@1 1 1 b@c@d@# # e@z.1 ; 1 f@v.# M.# # # # # # # # # # # # @ . . +       ",
"      + . . @ # # # # # # # # # # g@v+h@!.n A ( ( ( i@< j@k@l@m@# # # # # g@n@1 9 1 F.o@p@q@r@# # # # # # # # # # @ . . +       ",
"      + . . @ # # # # # # # # # # # # M.7+s@ @%@%@%@t@<@u@v@# # # # # # # # w@n@1 1 1 1 1 1 x@r@# # # # # # # # # @ . . +       ",
"      + . . @ # # # # # # # # # # # # # # %@%@%@%@%@# # # # # # # # # # # # # w@I 1 1 1 ; 1 1 c@# # # # # # # # # @ . . +       ",
"      + . . @ # # # # # # # # # # # # %@%@%@%@%@%@%@# # # # # # # # # # # # # # y@1 1 3 3 - 1 1 z@# # # # # # # # @ . . +       ",
"      + . . @ # # # # # # # # # %@%@%@%@%@%@%@%@%@# # # # # # # # # # # # # # # A@1 1 ( 2 3 3 1 1 B@# # # # # # # @ . . +       ",
"      + . . @ # # # # # # # %@%@%@%@%@%@%@%@%@# # # # # # # # # # # # # # # # # # 1 1 - - 9 - _ 1 1 C@# # # # # # @ . . +       ",
"      + . . @ # # # # %@%@%@%@%@%@%@%@%@%@# # # # # # # # # # # # # # # # # # # # D@1 1 ; - 2 ; _ 1 1 C@# # # # # @ . . +       ",
"      + . . @ # # %@%@%@%@%@%@%@%@%@# # # # # # # # # # # # # # # # # # # # # # # # E@1 1 3 3 2 - a@1 1 C@# # # # @ . . +       ",
"      + . . @ %@%@%@%@%@%@%@%@%@%@%@%@%@%@%@%@%@%@%@%@%@%@%@%@%@%@%@%@%@%@%@%@%@%@%@%@F@1 1 a@3 ; - ( 1 1 c@# # # @ . . +       ",
"      + . . @ %@%@%@%@%@%@%@%@%@%@%@%@%@%@%@%@%@%@%@%@%@%@%@%@%@%@%@%@%@%@%@%@%@%@%@%@# D@1 1 a@- ; - - 1 1 G@r@# @ . . +       ",
"      + . . @ %@%@%@%@%@%@%@%@%@%@%@%@%@%@%@%@%@%@%@%@%@%@%@%@%@%@%@%@%@%@%@%@%@%@%@%@# # l@^ 1 _ ; ; 3 3 1 1 C@r@@ . . +       ",
"      + . . @ # # %@%@%@%@%@%@%@%@%@# # # # # # # # # # # # # # # # # # # # # # # # # # # # H@1 2 3 ; 9 - ; 1 3 I@@ . . +       ",
"      + . . @ # # # # %@%@%@%@%@%@%@%@%@# # # # # # # # # # # # # # # # # # # # s # # # # # v@[.1 2 - 3 9 3 _ 1 1 @ . . +       ",
"      + . . @ # # # # # # %@%@%@%@%@%@%@%@%@# # # # # # # # # # # # # # # # # # # # # # # # # H+-@1 9 - 3 - 3 1 > @ . . +       ",
"      + . . @ # # # # # # # # # %@%@%@%@%@%@%@%@# # # # # # # # # # # # # # # # # # # # # # # # J@K@1 2 ( ; 1 b@D@@ . . +       ",
"      + . . @ @ # # # # # # # # # # %@%@%@%@%@%@%@%@# # # # # # # # # # # # # # # # # # # # # # # } [.2 2 1 4 L@@ @ . . +       ",
"      + . . . @ @ # # # # # # # # # # # %@%@%@%@%@%@# # # # # # # # # # # # # # # # # # # # # # # # 6 w+1 : M@@ @ . . . +       ",
"      + . . . . @ @ @ @ @ @ @ @ @ @ @ @ @ @ %@%@%@%@@ @ @ @ @ @ @ @ @ @ @ @ @ @ @ @ @ @ @ @ @ @ @ @ @ @ @ @ @ @ . . . . +       ",
"      + + . . . . . . . . . . . . . . . . . . . . . . . . . . . . . . . . . . . . . . . . . . . . . . . . . . . . . . + +       ",
"      . + + . . . . . . . . . . . . . . . . . . . . . . . . . . . . . . . . . . . . . . . . . . . . . . . . . . . . + + .       ",
"      . . + + + + + + + + + + + + + + + + + + + + + + + + + + + + + + + + + + + + + + + + + + + + + + + + + + + + + + . .       ",
"                                                                                                                                ",
"                                                                                                                                ",
"                                                                                                                                "};
