/* XPM */
static char *xpm_icon_absolute__[] = {
/* columns rows colors chars-per-pixel */
"32 32 153 2",
"   c #000100000000",
".  c #0119000D000D",
"X  c #0248001F001F",
"o  c #034F00260026",
"O  c #03FA00310031",
"+  c #04C3003B003B",
"@  c #060E00300030",
"#  c #077900590059",
"$  c #07FF00650065",
"%  c #08D700740074",
"&  c #09B1007C007C",
"*  c #0A2C00920092",
"=  c #0AC500910091",
"-  c #0CCD00000000",
";  c #0C8700AC00AC",
":  c #0CEF00B900B9",
">  c #0D9800C100C1",
",  c #0C6B0C6B0C6B",
"<  c #0D910D910D91",
"1  c #0F4B0F4B0F4B",
"2  c #102100E200E2",
"3  c #117700F000F0",
"4  c #122C00E900E9",
"5  c #133D00FA00FA",
"6  c #14D201200120",
"7  c #16EE01460146",
"8  c #183401550155",
"9  c #18F0014C014C",
"0  c #19F201730173",
"q  c #1B0E01900190",
"w  c #1BF801640164",
"e  c #1C2C01A501A5",
"r  c #1CAE01990199",
"t  c #1E3201A001A0",
"y  c #210001CB01CB",
"u  c #229901F701F7",
"i  c #2401020B020B",
"p  c #250A021B021B",
"a  c #289202550255",
"s  c #290A024F024F",
"d  c #2B5402570257",
"f  c #31E600000000",
"g  c #307302980298",
"h  c #318402AD02AD",
"j  c #347902F302F3",
"k  c #3AEF033D033D",
"l  c #3BFB03840384",
"z  c #34C634C634C6",
"x  c #415803A203A2",
"c  c #438803AF03AF",
"v  c #448B03DB03DB",
"b  c #478A03E703E7",
"n  c #4A33040A040A",
"m  c #4CB304470447",
"M  c #4D2B04560456",
"N  c #4E79048E048E",
"B  c #503D04700470",
"V  c #507404860486",
"C  c #53C104B804B8",
"Z  c #54B404E004E0",
"A  c #59C704F504F5",
"S  c #5BCB05350535",
"D  c #5E7605790579",
"F  c #60A3058E058E",
"G  c #63FB05A505A5",
"H  c #65B405C305C3",
"J  c #687F05E405E4",
"K  c #6A5B061E061E",
"L  c #6C9606250625",
"P  c #6F2306320632",
"I  c #727E06960696",
"U  c #7492067B067B",
"Y  c #745D06AA06AA",
"T  c #783D06D006D0",
"R  c #796407030703",
"E  c #7AC707320732",
"W  c #7B7807170717",
"Q  c #578159CD59CD",
"!  c #585458545854",
"~  c #59A859A859A8",
"^  c #58CB59E059E0",
"/  c #59AE59ED59ED",
"(  c #59F059F059F0",
")  c #5FA35FA35FA3",
"_  c #7E5C7E5C7E5C",
"`  c #80D707430743",
"'  c #814007700770",
"]  c #84C807810781",
"[  c #882E07CC07CC",
"{  c #8B6907EE07EE",
"}  c #917308330833",
"|  c #931808850885",
" . c #964F08830883",
".. c #9661088A088A",
"X. c #98C008930893",
"o. c #9CD108FA08FA",
"O. c #9DA608EA08EA",
"+. c #9EEF091C091C",
"@. c #A1E509600960",
"#. c #A566094E094E",
"$. c #A67409810981",
"%. c #A66D09900990",
"&. c #A9ED09C209C2",
"*. c #AA8F09C009C0",
"=. c #ABC509DB09DB",
"-. c #AEEF0A070A07",
";. c #B01909E709E7",
":. c #B0610A0B0A0B",
">. c #B1550A370A37",
",. c #B2810A350A35",
"<. c #B3C90A590A59",
"1. c #B5C10A6C0A6C",
"2. c #B7F00A690A69",
"3. c #B8E90A9E0A9E",
"4. c #BA8F0AC00AC0",
"5. c #BBE60AE30AE3",
"6. c #BCB30AC10AC1",
"7. c #BE2D0AD40AD4",
"8. c #C0550AF50AF5",
"9. c #C3E70B2E0B2E",
"0. c #C5BF0B570B57",
"q. c #C68E0B480B48",
"w. c #C8700B930B93",
"e. c #CC110BC30BC3",
"r. c #CD420BE40BE4",
"t. c #CF3D0C1A0C1A",
"y. c #CF8F0BE50BE5",
"u. c #D2070C2E0C2E",
"i. c #D2AA0C150C15",
"p. c #D4320C4A0C4A",
"a. c #D5590C6A0C6A",
"s. c #D79A0C5A0C5A",
"d. c #D8680C7F0C7F",
"f. c #D9EE0C820C82",
"g. c #DB170C980C98",
"h. c #E16E0D0B0D0B",
"j. c #B1D9B1D9B1D9",
"k. c #BE1FBE1FBE1F",
"l. c #BEC6BEC6BEC6",
"z. c #CCA1CCA1CCA1",
"x. c #DCF8DCF8DCF8",
"c. c #E034E034E034",
"v. c #E4A7E4A7E4A7",
"b. c #EA24EA24EA24",
"n. c #EABEEABEEABE",
"m. c #EC92EC92EC92",
"M. c #F15BF15BF15B",
"N. c #F1CBF1CBF1CB",
"B. c #F534F534F534",
"V. c #F647F647F647",
"C. c #F6B0F6B0F6B0",
"Z. c #F7E1F7E1F7E1",
"A. c None",
/* pixels */
"A.A.A.A.A.A.A.A.A.A.A.A.A.A.A.A.A.A.A.A.A.A.A.A.A.A.A.A.A.A.A.A.",
"A.A.x.v.b.n.n.n.n.n.n.n.n.n.n.n.n.n.n.n.n.n.n.n.n.n.n.b.v.x.A.A.",
"A.A.m.Z.z.k.l.l.l.l.l.l.l.l.l.l.l.l.l.l.l.l.l.l.l.l.k.z.Z.m.A.A.",
"A.A.B.j.z < 1 1 1 1 1 1 1 1 1 1 1 1 1 1 1 1 1 1 1 1 < z j.B.A.A.",
"A.A.M.)                                                 ) M.A.A.",
"A.A.M.(                                                 ( M.A.A.",
"A.A.M.(                                                 ( M.A.A.",
"A.A.M.(                                                 ( M.A.A.",
"A.A.M.(                                                 ( M.A.A.",
"A.A.M.(                                                 ( M.A.A.",
"A.A.M.(                                                 ( M.A.A.",
"A.A.M.(       % F N o       l E R I v &   & b U I M %   ( M.A.A.",
"A.A.M.(       j h.w.0       W a.R } y.K + I 4.W ' ..9   ( M.A.A.",
"A.A.M.(       E e.g.Z       E <.: o } =.y 0.J   . ; o   ( M.A.A.",
"A.A.M.(     7 3.J *.+.#     E <.; = o.] 6 6.o.7         ( M.A.A.",
"A.A.M.(     V 8.w G i.d     R u.W O. .r   m e.1.n $     ( M.A.A.",
"A.A.M.(   @ X.[   u r.P     R p.[ <.#.s   . h O.s.` ;   ( M.A.A.",
"A.A.M.(   a u.&.R ' p.1.2   E <.> 5 O.@.*     * H f.C   ( M.A.A.",
"A.A.M.(   L 9.W R T } d.x   E <.>   D e.9       3 7.Y   ( M.A.A.",
"A.A.M.^ - >.L       5 6.{   E 5.i p +.,.t S g 8 B q.c   ( M.A.A.",
"A.A.M.Q f -.p         L :.4 K t.,.2.%.k 2 | <.;.$.A @   ( M.A.A.",
"A.A.M./ @ 6 X         * 8 O : q e 0 :     * 7 q 2 .     ( M.A.A.",
"A.A.M.(                                                 ( M.A.A.",
"A.A.M.(                                                 ( M.A.A.",
"A.A.M.(                                                 ( M.A.A.",
"A.A.M.(                                                 ( M.A.A.",
"A.A.M.~                                                 ~ M.A.A.",
"A.A.N._ ,                                             , _ N.A.A.",
"A.A.V.c._ ! ( ( ( ( ( ( ( ( ( ( ( ( ( ( ( ( ( ( ( ( ! _ c.V.A.A.",
"A.A.c.C.N.M.M.M.M.M.M.M.M.M.M.M.M.M.M.M.M.M.M.M.M.M.M.N.C.c.A.A.",
"A.A.c.A.A.A.A.A.A.A.A.A.A.A.A.A.A.A.A.A.A.A.A.A.A.A.A.A.A.c.A.A.",
"A.A.A.A.A.A.A.A.A.A.A.A.A.A.A.A.A.A.A.A.A.A.A.A.A.A.A.A.A.A.A.A."
};
