/* XPM */
static char *xpm_icon_usgs__[] = {
/* columns rows colors chars-per-pixel */
"32 32 111 2",
"   c #0C4328E30C24",
".  c #00033F250003",
"X  c #0C653AAA0C66",
"o  c #027D418E0238",
"O  c #07AC462F0734",
"+  c #0A05477F0992",
"@  c #0DF649EB0D8D",
"#  c #01AD5E8D0181",
"$  c #11914C0F1149",
"%  c #19E9515F1988",
"&  c #01246508008C",
"*  c #07F3649F071C",
"=  c #0583685C04E4",
"-  c #06FA64260790",
";  c #0B3765CE0AD6",
":  c #0CB66C2A0C40",
">  c #12BA65F11330",
",  c #14636C311458",
"<  c #1A876DA019E5",
"1  c #157C71BE14BD",
"2  c #185274FA1769",
"3  c #1B8474D81B03",
"4  c #2066785E1F63",
"5  c #27195A6126CD",
"6  c #2C9E5C772C3E",
"7  c #34D74ACB34C9",
"8  c #1F97703B20E9",
"9  c #207976F12144",
"0  c #24A17AB123F6",
"q  c #27F07D0D2720",
"w  c #261F75B52871",
"e  c #2AB3754229F4",
"r  c #2AF57C982ABB",
"t  c #2F737ED330BF",
"y  c #34477EBB331A",
"u  c #56E25B8E56E3",
"i  c #599C5D3259A0",
"p  c #408468944056",
"a  c #5FA362F25FA3",
"s  c #598C77DF5984",
"d  c #2D3480092C52",
"f  c #33FF84193346",
"g  c #37CD86AA3708",
"h  c #3D6184093C4C",
"j  c #3DEF8A323D86",
"k  c #437887A342D6",
"l  c #43D78C194327",
"z  c #484488CA46A9",
"x  c #46BB87DC49F5",
"c  c #4790884048FD",
"v  c #4A908D5B4A9B",
"b  c #482090C94756",
"n  c #4D8293474D60",
"m  c #501C95224F56",
"M  c #51348E614FF8",
"N  c #537C951A5388",
"B  c #57339995570A",
"V  c #5A9197575A4F",
"C  c #5CAD9BDE5C22",
"Z  c #6003A10B5F68",
"A  c #62D19CF362F8",
"S  c #7E5B81ED7E5C",
"D  c #64FBA1EE6493",
"F  c #6BFAA5416B6A",
"G  c #6E1CA8856DB4",
"H  c #707BAA0C6F46",
"J  c #6E36A18A704D",
"K  c #7263A5BF7290",
"L  c #7826A78577B4",
"P  c #7372AB717328",
"I  c #781AAF1D7786",
"U  c #7B07ACA27A9C",
"Y  c #7F0BB1357E31",
"T  c #7F51B2D880DD",
"R  c #839CB4D6832C",
"E  c #8BA1B7298A9C",
"W  c #8DB8BB018DDD",
"Q  c #90FBBC538E47",
"!  c #8E3DBB7D91B2",
"~  c #91C8BD0991DB",
"^  c #97F4BF9C98BC",
"/  c #B1D9B406B1D9",
"(  c #BEB5BD7CBEB7",
")  c #952DC11894E4",
"_  c #9C40C3B39C03",
"`  c #A4EFC7A5A52F",
"'  c #A5BCC938A555",
"]  c #A663CA9EA96A",
"[  c #ABD2CCF8AB7D",
"{  c #AF9DD0B8AF42",
"}  c #B49FD2E2B4A1",
"|  c #BADAD62DBAA9",
" . c #BE49D984BF70",
".. c #CCA0CBB4CCA1",
"X. c #C6B7DF10C70D",
"o. c #DF12DF12DF12",
"O. c #C64EE07FC6B1",
"+. c #CDF8E23ECDD4",
"@. c #D3FDE5CFD3D5",
"#. c #D5AEE8BAD682",
"$. c #E05FE0E4E05F",
"%. c #DBB0EA04DB8A",
"&. c #E4A7E4A7E4A7",
"*. c #E403EEECE40A",
"=. c #EAD6EAD6EAD6",
"-. c #E725F104E718",
";. c #E883F1D6E855",
":. c #E8ADF362E89E",
">. c #F1E4F19CF1E4",
",. c #FA9FFCBEFAA5",
"<. c None",
/* pixels */
"<.<.<.<.<.<.<.<.<.<.<.<.<.<.<.<.<.<.<.<.<.<.<.<.<.<.<.<.<.<.<.<.",
"<.<.o.&.=.=.=.=.=.=.=.=.=.=.=.=.=.=.=.=.=.=.=.=.=.=.=.=.&.o.<.<.",
"<.<.=.,...( ( ( ( ( ( ( ( ( ( ( ( ( ( ( ( ( ( ( ( ( ( ..,.=.<.<.",
"<.<.>./ 7                                             7 / >.<.<.",
"<.<.>.a . # h U z F C k A K A v L y z V L h F F z A ; . a >.<.<.",
"<.<.>.i . & g +.n | @.F P ~ _ C ;.D R B +.b | #.F P & . i >.<.<.",
"<.<.>.i . & = ~ @.' %.[ 9 f +.` } @.F = Q @.' %.[ 0 & . i >.<.<.",
"<.<.>.i . & & 3 H 3 n n & & m n 3 G 2 & 3 H 3 N B & & . i >.<.<.",
"<.<.>.i . & & & & & & & & & & & & & & & & & - M B & & . i >.<.<.",
"<.<.>.i . & & : , * & & & & & & & & & - & < K E e & & . i >.<.<.",
"<.<.>.i . & & n W R n ; & & & & & & & : B ~ C > & & & . i >.<.<.",
"<.<.>.i . & & : 3 c ~ ~ y & & & & ; k W R r # , t & & . i >.<.<.",
"<.<.>.i . & & : v R _ O. .A r f C Q W l * & y Q C & & . i >.<.<.",
"<.<.>.i . & & C E n 0 3 h ` X.Q H h ; # 3 F _ v * & & . i >.<.<.",
"<.<.>.i . & & 3 ; # , h D ^ #.A , < r D _ L 8 # = & & . i >.<.<.",
"<.<.>.i . & & & , C ) T V z C ] } ) ! D r - 9 F m & & . i >.<.<.",
"<.<.>.i . & & f ) Y y - & & & e ` J > # # x ) G q & & . i >.<.<.",
"<.<.>.i . & & n k - & & & & & & w ! W P R W y # & & & . i >.<.<.",
"<.<.>.i . & & = & & & & & & & & & < R @.~ w - ; ; & & . i >.<.<.",
"<.<.>.i . & & & & & & & & & & & & & * j W _ W ~ B & & . i >.<.<.",
"<.<.>.i 5 I P 0 0 F d q D F D : & j R A K W B K R C C + i >.<.<.",
"<.<.>.i % #. .1 1 R q ~ R q ) r l #.U 3 l ] 9 E Y q ) 6 u >.<.<.",
"<.<.>.i $ +.} : = D 0 } %.D j 0 } #.3 & & f 2 [ %.D j $ i >.<.<.",
"<.<.>.i $ +.} : = D 1 l @.,.[ f %.| : : f f 4 b @.,.{ % i >.<.<.",
"<.<.>.i @ X.} : : A 3 f 0 R -.F | +.1 , _ %.N g 9 R :.s u >.<.<.",
"<.<.>.i o ) @.f l D 3 _ j q | l m %.F : W *.f _ j q | p u >.<.<.",
"<.<.>.i . 9 R W F 3 : G P P Z = & l R F I C 2 F P P Z o i >.<.<.",
"<.<.>.S X . o O o . o o o O . . . . o O o . o o o O . X S >.<.<.",
"<.<.>.$.S u i i i i i i i i i i i i i i i i i i i i u S $.>.<.<.",
"<.<.o.,.>.>.>.>.>.>.>.>.>.>.>.>.>.>.>.>.>.>.>.>.>.>.>.>.,.o.<.<.",
"<.<.o.<.<.<.<.<.<.<.<.<.<.<.<.<.<.<.<.<.<.<.<.<.<.<.<.<.<.o.<.<.",
"<.<.<.<.<.<.<.<.<.<.<.<.<.<.<.<.<.<.<.<.<.<.<.<.<.<.<.<.<.<.<.<."
};
