/* XPM */
static char * xpm_icon_cube32_xpm[] = {
"32 32 129 2",
"  	c None",
". 	c #0505A5",
"+ 	c #0404A5",
"@ 	c #0404A4",
"# 	c #0404A8",
"$ 	c #0202E8",
"% 	c #0202EB",
"& 	c #0102EE",
"* 	c #0303E3",
"= 	c #0004DE",
"- 	c #0101FA",
"; 	c #0101F8",
"> 	c #0000FF",
", 	c #0000FB",
"' 	c #1254A9",
") 	c #0000FE",
"! 	c #0000FD",
"~ 	c #0303D9",
"{ 	c #0E8976",
"] 	c #0103D9",
"^ 	c #11DD32",
"/ 	c #0512DF",
"( 	c #0001FC",
"_ 	c #0FF60B",
": 	c #08FF0B",
"< 	c #0531B8",
"[ 	c #0304B3",
"} 	c #10F310",
"| 	c #00FF00",
"1 	c #159E6B",
"2 	c #0000FC",
"3 	c #0202F0",
"4 	c #11F212",
"5 	c #0DE131",
"6 	c #0100E7",
"7 	c #0100F9",
"8 	c #12F212",
"9 	c #09FF0A",
"0 	c #0E4BAE",
"a 	c #0000D6",
"b 	c #04FF00",
"c 	c #098B74",
"d 	c #0E04E3",
"e 	c #1508DB",
"f 	c #1507DC",
"g 	c #1407DC",
"h 	c #1205DC",
"i 	c #3216C0",
"j 	c #3C1AB3",
"k 	c #3A1AB5",
"l 	c #3B1BB5",
"m 	c #3A17AF",
"n 	c #864C7A",
"o 	c #11F312",
"p 	c #00FF01",
"q 	c #2ED91D",
"r 	c #925563",
"s 	c #994B6C",
"t 	c #9D5063",
"u 	c #CA6841",
"v 	c #D66E35",
"w 	c #D46D36",
"x 	c #D46D37",
"y 	c #D06936",
"z 	c #FF8511",
"A 	c #FF8C00",
"B 	c #FF8B01",
"C 	c #FF8B00",
"D 	c #FC8811",
"E 	c #43E200",
"F 	c #FF8E00",
"G 	c #FF8700",
"H 	c #FF8800",
"I 	c #FF8400",
"J 	c #FF8300",
"K 	c #FF8000",
"L 	c #FF7E00",
"M 	c #FF7F00",
"N 	c #F4820F",
"O 	c #0FF410",
"P 	c #3EE000",
"Q 	c #F38500",
"R 	c #FF7D00",
"S 	c #FE7F00",
"T 	c #FE7E00",
"U 	c #FD7F00",
"V 	c #F28211",
"W 	c #0EF410",
"X 	c #49DA00",
"Y 	c #F88201",
"Z 	c #F38211",
"` 	c #78C300",
" .	c #FF7900",
"..	c #84BD00",
"+.	c #FF7600",
"@.	c #F28213",
"#.	c #82BE00",
"$.	c #FF7700",
"%.	c #0DF50F",
"&.	c #10F411",
"*.	c #81BE00",
"=.	c #17EE19",
"-.	c #85BC00",
";.	c #02FC06",
">.	c #04FC00",
",.	c #B1A501",
"'.	c #0CF510",
").	c #0BF900",
"!.	c #C49D00",
"~.	c #FF7A00",
"{.	c #C29E00",
"].	c #FB8005",
"^.	c #12F407",
"/.	c #C19E00",
"(.	c #FA8004",
"_.	c #1CED10",
":.	c #BEA000",
"<.	c #FB8004",
"[.	c #BDA000",
"}.	c #FC8004",
"|.	c #B9A00C",
"1.	c #FF7B05",
"2.	c #FB8006",
"3.	c #FA8007",
"4.	c #F7800B",
"5.	c #F6810D",
"6.	c #F7800C",
"7.	c #F6800C",
"8.	c #F5810E",
"                                                                ",
"                                                                ",
"                  . + @ @ @ @ @ # $ % % % % % % & *             ",
"            = - ; > > > > > > > > > > > > > > > > ,             ",
"            ' > > ) ) ) ) ) ) ) ) ) ! ! ) ) ) ! ! > ~           ",
"            { > > ) ) ! ) ) ) ! ! ! ! ! ) ) ) ! ! > ]           ",
"            ^ / > ) ! ! ) ! ! ! ! ! ! ! ! ! ) ! ) ) (           ",
"          _ : < > ! ) ) ) ) ) ! ! ! ) ! ) ) ) ! ! ) > [         ",
"          } | 1 ) > ) ! 2 ) ! ! ! ! ! ! ) ) ) ! ! ! > 3         ",
"          4 | 5 6 > ! ! 2 2 ! ! ! ! ! ! ! 2 2 2 2 2 2 7         ",
"          8 | 9 0 > > > > > > > > > > > > > > > > > > > a       ",
"          4 | b c > > ! d e f g g g g h i j k k k k l m n       ",
"          o p | q r s t u v w w w w x y z A B B B B B C D       ",
"          4 | p E F G H I J I I I I I I K L L L M L M L N       ",
"          O | p P Q R S S T S T T S S T S M S S L S U L V       ",
"          W | p X Y R T S T T T T T M L M S S T L S T M Z       ",
"          O | p `  .L L M T S T L T M L M M M L L S S L Z       ",
"          O | p ..+.L M M T L M L M M L L T S S L S S L @.      ",
"          O | p #.$.L L M T M T L L L L M M M L T M S L         ",
"          O | p #.$.L L L T T T L T L L L T T T T T S L         ",
"          %.| p #.+.L M M L S T L S M L M M M M T M S L         ",
"          &.| | *.+.L M L T S T L S M L M M M M T M S L         ",
"          =.| p -.+.L L M T S T L T M L M M M L S L S L         ",
"            ;.>.,. .L L S T T T L T M L M M M L T M S L         ",
"            '.).!.~.L L M T M L L L M L M S S T L S S S         ",
"              ).{. .L M M T M M L M M L M M M M M L L ].        ",
"              ^./. .L M S S M T M M M L M M M M S L M (.        ",
"              _.:.~.L L M T S T L T L L M M T L L L L <.        ",
"                [.~.L L L L L L L L L L L L L L M M M }.        ",
"                |.1.2.2.2.2.2.3.4.5.6.7.7.6.6.8.                ",
"                                                                ",
"                                                                "};
