/* XPM */
static char *xpm_icon_blank__[] = {
/* columns rows colors chars-per-pixel */
"32 32 27 1",
"  c black",
". c #0C6B0C6B0C6B",
"X c #0D910D910D91",
"o c #0F4B0F4B0F4B",
"O c #34C634C634C6",
"+ c #585458545854",
"@ c #59A859A859A8",
"# c #59F059F059F0",
"$ c #5FA35FA35FA3",
"% c #7E5C7E5C7E5C",
"& c #B1D9B1D9B1D9",
"* c #BE1FBE1FBE1F",
"= c #BEC6BEC6BEC6",
"- c #CCA1CCA1CCA1",
"; c #DCF8DCF8DCF8",
": c #E034E034E034",
"> c #E4A7E4A7E4A7",
", c #EA24EA24EA24",
"< c #EABEEABEEABE",
"1 c #EC92EC92EC92",
"2 c #F15BF15BF15B",
"3 c #F1CBF1CBF1CB",
"4 c #F534F534F534",
"5 c #F647F647F647",
"6 c #F6B0F6B0F6B0",
"7 c #F7E1F7E1F7E1",
"8 c None",
/* pixels */
"88888888888888888888888888888888",
"88;>,<<<<<<<<<<<<<<<<<<<<<<,>;88",
"8817-*====================*-7188",
"884&OXooooooooooooooooooooXO&488",
"882$                        $288",
"882#                        #288",
"882#                        #288",
"882#                        #288",
"882#                        #288",
"882#                        #288",
"882#                        #288",
"882#                        #288",
"882#                        #288",
"882#                        #288",
"882#                        #288",
"882#                        #288",
"882#                        #288",
"882#                        #288",
"882#                        #288",
"882#                        #288",
"882#                        #288",
"882#                        #288",
"882#                        #288",
"882#                        #288",
"882#                        #288",
"882#                        #288",
"882@                        @288",
"883%.                      .%388",
"885:%+####################+%:588",
"88:63222222222222222222222236:88",
"88:88888888888888888888888888:88",
"88888888888888888888888888888888"
};
