/* XPM */
static char * xpm_icon_cube32_xpm[] = {
"32 32 31 1",
" 	c None",
".	c #DCDCDC",
"+	c #E4E4E4",
"@	c #EAEAEA",
"#	c #ECECEC",
"$	c #F7F7F7",
"%	c #CCCCCC",
"&	c #BEBEBE",
"*	c #F5F5F5",
"=	c #B1B1B1",
"-	c #343434",
";	c #0D0D0D",
">	c #0F0F0F",
",	c #F1F1F1",
"'	c #5F5F5F",
")	c #000000",
"!	c #595959",
"~	c #0C0101",
"{	c #580A0A",
"]	c #1C0303",
"^	c #680C0C",
"/	c #FF0000",
"(	c #180202",
"_	c #7A0E0E",
":	c #570A0A",
"<	c #020000",
"[	c #7E7E7E",
"}	c #0C0C0C",
"|	c #F6F6F6",
"1	c #E0E0E0",
"2	c #585858",
"                                ",
"  .+@@@@@@@@@@@@@@@@@@@@@@@@+.  ",
"  #$%&&&&&&&&&&&&&&&&&&&&&&%$#  ",
"  *=-;>>>>>>>>>>>>>>>>>>>>;-=*  ",
"  ,'))))))))))))))))))))))))',  ",
"  ,!))))))))))))))))))))))))!,  ",
"  ,!))))))))))))))))))))))))!,  ",
"  ,!))))))))))))))))))))))))!,  ",
"  ,!))))))))))))))))))))))))!,  ",
"  ,!))))~{{{{{{{{{{{{{~)))))!,  ",
"  ,!))))]^///////////^])))))!,  ",
"  ,!))))]{///////////{])))))!,  ",
"  ,!))))]{///////////{])))))!,  ",
"  ,!))))]{///////////{])))))!,  ",
"  ,!))))]{///////////{])))))!,  ",
"  ,!))))]{///////////{])))))!,  ",
"  ,!))))]{///////////{])))))!,  ",
"  ,!))))]{///////////{])))))!,  ",
"  ,!))))]{///////////{])))))!,  ",
"  ,!))))]{///////////{])))))!,  ",
"  ,!))))]{///////////{])))))!,  ",
"  ,!))))(_:{{{{{{{{{:_()))))!,  ",
"  ,!))))<(]]]]]]]]]]](<)))))!,  ",
"  ,!))))))))))))))))))))))))!,  ",
"  ,!))))))))))))))))))))))))!,  ",
"  ,!))))))))))))))))))))))))!,  ",
"  ,!))))))))))))))))))))))))!,  ",
"  ,[}))))))))))))))))))))))}[,  ",
"  |1[2!!!!!!!!!!!!!!!!!!!!2[1|  ",
"  1|,,,,,,,,,,,,,,,,,,,,,,,,|1  ",
"  1                          1  ",
"                                "};
