/* XPM */
static char * xpm_icon_quakelist[] = {
"64 64 392 2",
"  	c None",
". 	c #6D6E70",
"+ 	c #656668",
"@ 	c #5C5D5F",
"# 	c #4F5052",
"$ 	c #47484A",
"% 	c #464749",
"& 	c #4A4B4D",
"* 	c #535456",
"= 	c #5D5E60",
"- 	c #6B6C6E",
"; 	c #7B7C7E",
"> 	c #6A6B6D",
", 	c #595A5C",
"' 	c #3E3F40",
") 	c #292A2C",
"! 	c #0F0F11",
"~ 	c #000002",
"{ 	c #000000",
"] 	c #000001",
"^ 	c #020204",
"/ 	c #121214",
"( 	c #2F2F30",
"_ 	c #454547",
": 	c #616264",
"< 	c #797A7C",
"[ 	c #535353",
"} 	c #3C3C3C",
"| 	c #0F0F0F",
"1 	c #010101",
"2 	c #030303",
"3 	c #0C0C0C",
"4 	c #1A1A1A",
"5 	c #262626",
"6 	c #2C2C2C",
"7 	c #303030",
"8 	c #333333",
"9 	c #353535",
"0 	c #313131",
"a 	c #2E2E2D",
"b 	c #2A2A2A",
"c 	c #252525",
"d 	c #191919",
"e 	c #090909",
"f 	c #191918",
"g 	c #444444",
"h 	c #606060",
"i 	c #6C6C6C",
"j 	c #5C5C5C",
"k 	c #070707",
"l 	c #020202",
"m 	c #181818",
"n 	c #282828",
"o 	c #373737",
"p 	c #3A3A3A",
"q 	c #3B3B3B",
"r 	c #393939",
"s 	c #3F3F3F",
"t 	c #3E3E3E",
"u 	c #383838",
"v 	c #232323",
"w 	c #353536",
"x 	c #6A6A6C",
"y 	c #7F7F81",
"z 	c #4F4F4F",
"A 	c #060606",
"B 	c #212121",
"C 	c #363636",
"D 	c #515151",
"E 	c #6B6B6B",
"F 	c #737373",
"G 	c #767676",
"H 	c #797979",
"I 	c #777777",
"J 	c #727272",
"K 	c #646464",
"L 	c #585858",
"M 	c #474747",
"N 	c #3B3B3A",
"O 	c #323232",
"P 	c #1B1B1B",
"Q 	c #050506",
"R 	c #08080A",
"S 	c #414143",
"T 	c #616163",
"U 	c #626364",
"V 	c #0F1011",
"W 	c #454545",
"X 	c #525252",
"Y 	c #6E6E6E",
"Z 	c #838383",
"` 	c #8C8C8C",
" .	c #8F8F8F",
"..	c #8B8B8B",
"+.	c #888888",
"@.	c #898989",
"#.	c #8A8A8A",
"$.	c #8D8D8D",
"%.	c #5B5B5B",
"&.	c #1E1E1E",
"*.	c #131415",
"=.	c #525355",
"-.	c #6F7072",
";.	c #48494A",
">.	c #2E2E2F",
",.	c #1F1F1F",
"'.	c #343434",
").	c #4E4E4E",
"!.	c #6A6A6A",
"~.	c #828282",
"{.	c #878787",
"].	c #848484",
"^.	c #858585",
"/.	c #868686",
"(.	c #404040",
"_.	c #181819",
":.	c #040406",
"<.	c #383839",
"[.	c #5B5B5D",
"}.	c #555657",
"|.	c #171817",
"1.	c #0D0D0D",
"2.	c #6F6F6F",
"3.	c #7F7F7F",
"4.	c #808080",
"5.	c #818181",
"6.	c #828283",
"7.	c #808082",
"8.	c #848485",
"9.	c #777776",
"0.	c #545452",
"a.	c #3A3A39",
"b.	c #272727",
"c.	c #080808",
"d.	c #1E1E1F",
"e.	c #868789",
"f.	c #505050",
"g.	c #0B0B0A",
"h.	c #161616",
"i.	c #636363",
"j.	c #7E7E7E",
"k.	c #7D7D7D",
"l.	c #7C7C7C",
"m.	c #0E0E0D",
"n.	c #121314",
"o.	c #5E5F61",
"p.	c #858688",
"q.	c #2F2F2F",
"r.	c #7A7A7A",
"s.	c #7B7B7B",
"t.	c #787878",
"u.	c #757575",
"v.	c #141517",
"w.	c #606163",
"x.	c #87888A",
"y.	c #4A4A4A",
"z.	c #707070",
"A.	c #959595",
"B.	c #565656",
"C.	c #2F3030",
"D.	c #17181A",
"E.	c #666769",
"F.	c #8D8E90",
"G.	c #5D5E5E",
"H.	c #747474",
"I.	c #9E9E9E",
"J.	c #A0A0A0",
"K.	c #909090",
"L.	c #565655",
"M.	c #2D2D2E",
"N.	c #0E0F10",
"O.	c #1F1F21",
"P.	c #767779",
"Q.	c #1F201F",
"R.	c #151515",
"S.	c #696969",
"T.	c #A1A1A1",
"U.	c #9F9F9F",
"V.	c #A4A4A4",
"W.	c #979797",
"X.	c #0B0B0B",
"Y.	c #323333",
"Z.	c #6E6F70",
"`.	c #787879",
" +	c #0A0A0A",
".+	c #2B2B2B",
"++	c #717171",
"@+	c #A3A3A3",
"#+	c #929292",
"$+	c #9D9D9D",
"%+	c #686868",
"&+	c #070706",
"*+	c #4C4D4E",
"=+	c #848587",
"-+	c #20201F",
";+	c #3D3D3D",
">+	c #A2A2A2",
",+	c #4C4C4C",
"'+	c #101012",
")+	c #6C6D6F",
"!+	c #6C6E6D",
"~+	c #1A1A1B",
"{+	c #1E1E1D",
"]+	c #292929",
"^+	c #939393",
"/+	c #9C9C9C",
"(+	c #626262",
"_+	c #1D1D1C",
":+	c #121313",
"<+	c #2B2B2C",
"[+	c #4D4E4E",
"}+	c #1D1D1D",
"|+	c #616161",
"1+	c #999999",
"2+	c #9A9A9A",
"3+	c #6D6D6D",
"4+	c #1D1D1B",
"5+	c #636365",
"6+	c #99999B",
"7+	c #808183",
"8+	c #101010",
"9+	c #1C1C1C",
"0+	c #949494",
"a+	c #989898",
"b+	c #222221",
"c+	c #242426",
"d+	c #8E8E90",
"e+	c #515254",
"f+	c #0E0E0E",
"g+	c #838385",
"h+	c #111113",
"i+	c #121212",
"j+	c #A7A7A7",
"k+	c #2E2E2E",
"l+	c #242424",
"m+	c #919191",
"n+	c #6E6E70",
"o+	c #656565",
"p+	c #A6A6A6",
"q+	c #AEAEAE",
"r+	c #ACACAC",
"s+	c #AAAAAA",
"t+	c #4D4D4D",
"u+	c #9B9B9D",
"v+	c #646466",
"w+	c #131315",
"x+	c #555555",
"y+	c #676767",
"z+	c #666666",
"A+	c #ADADAD",
"B+	c #B4B4B4",
"C+	c #B0B0B0",
"D+	c #B1B1B1",
"E+	c #434343",
"F+	c #202020",
"G+	c #A5A6A8",
"H+	c #969698",
"I+	c #171719",
"J+	c #3C3C3E",
"K+	c #323231",
"L+	c #464646",
"M+	c #B2B2B2",
"N+	c #B3B3B3",
"O+	c #B7B7B7",
"P+	c #B5B5B5",
"Q+	c #2A2A2C",
"R+	c #232321",
"S+	c #9B9C9E",
"T+	c #484848",
"U+	c #5D5D5D",
"V+	c #ABABAB",
"W+	c #B6B6B6",
"X+	c #BEBEBE",
"Y+	c #BBBBBB",
"Z+	c #A5A5A5",
"`+	c #222222",
" @	c #919193",
".@	c #545454",
"+@	c #5E5E5E",
"@@	c #5F5F5F",
"#@	c #595959",
"$@	c #BCBCBC",
"%@	c #BDBDBD",
"&@	c #C3C3C3",
"*@	c #C1C1C1",
"=@	c #C0C0C0",
"-@	c #A8A8A8",
";@	c #7E7E80",
">@	c #A0A0A2",
",@	c #5A5A5A",
"'@	c #4B4B4B",
")@	c #C5C5C5",
"!@	c #B9B9B9",
"~@	c #C6C6C6",
"{@	c #494949",
"]@	c #141414",
"^@	c #5F5F60",
"/@	c #ADADAF",
"(@	c #A5A5A7",
"_@	c #040404",
":@	c #575757",
"<@	c #CACACA",
"[@	c #C4C4C4",
"}@	c #C9C9C9",
"|@	c #C7C7C7",
"1@	c #171717",
"2@	c #474749",
"3@	c #AAAAAC",
"4@	c #CCCCCC",
"5@	c #CDCDCD",
"6@	c #9B9B9B",
"7@	c #D0D0D0",
"8@	c #CBCBCB",
"9@	c #38383A",
"0@	c #A9A9AB",
"a@	c #2D2D2D",
"b@	c #D1D1D1",
"c@	c #CECECE",
"d@	c #D7D7D7",
"e@	c #D3D3D3",
"f@	c #2E2E30",
"g@	c #A7A7A9",
"h@	c #A1A1A3",
"i@	c #131313",
"j@	c #D5D5D5",
"k@	c #D2D2D2",
"l@	c #DBDBDB",
"m@	c #29292B",
"n@	c #A7A7A8",
"o@	c #C8C8C8",
"p@	c #DADADA",
"q@	c #BFBFBF",
"r@	c #DEDEDE",
"s@	c #D8D8D8",
"t@	c #D9D9D9",
"u@	c #DCDCDC",
"v@	c #ACACAE",
"w@	c #A8A8AA",
"x@	c #111111",
"y@	c #E7E7E7",
"z@	c #D6D6D6",
"A@	c #DFDFDF",
"B@	c #DDDDDD",
"C@	c #E0E0E0",
"D@	c #E2E2E2",
"E@	c #E5E5E5",
"F@	c #AFAFB1",
"G@	c #E3E3E3",
"H@	c #E1E1E1",
"I@	c #E4E4E4",
"J@	c #B1B1B3",
"K@	c #AEAEB0",
"L@	c #D4D4D4",
"M@	c #E8E8E8",
"N@	c #B4B4B6",
"O@	c #B7B7B9",
"P@	c #EEEEEE",
"Q@	c #424242",
"R@	c #E9E9E9",
"S@	c #EAEAEA",
"T@	c #EDEDED",
"U@	c #30302F",
"V@	c #B8B8BA",
"W@	c #BABABC",
"X@	c #414141",
"Y@	c #F3F3F3",
"Z@	c #EFEFEF",
"`@	c #424241",
" #	c #BCBCBE",
".#	c #BDBDBF",
"+#	c #B8B8B8",
"@#	c #F7F7F7",
"##	c #ECECEC",
"$#	c #FBFBFB",
"%#	c #F2F2F2",
"&#	c #F1F1F1",
"*#	c #F6F6F6",
"=#	c #F0F0F0",
"-#	c #A9A9A9",
";#	c #EBEBEB",
">#	c #F8F8F8",
",#	c #F5F5F5",
"'#	c #F4F4F4",
")#	c #F9F9F9",
"!#	c #FEFEFE",
"~#	c #FAFAFA",
"{#	c #8E8E8E",
"]#	c #FCFCFC",
"^#	c #FFFFFF",
"/#	c #FDFDFD",
"(#	c #969696",
"_#	c #050505",
"                                                                                                                                ",
"                                                    . + @ # $ $ % & * = - ;                                                     ",
"                                            > , ' ) ! ~ { ~ ~ ] ~ ~ ~ { ^ / ( _ : <                                             ",
"                                        [ } | 1 2 3 4 5 6 7 8 9 9 0 a b c d e { 1 f g h                                         ",
"                                  i j 0 k l m n o p q } q r q s } t t q u r r o v | { k w x y                                   ",
"                                z 8 A e B C r } t g D h E F G G H I J E K L M } N r O P Q R S T                                 ",
"                            U % V e c C t W X Y Z `  ...+.@...@.@.#.#.#.` $.` +.F %.g s C &.{ *.=.-.                            ",
"                          ;.>.A ,.'.t ).!.~.+.{.].^.^.].^././.].^.^.^.^.].].].].{.#.^.F [ (.C _.:.<.[.                          ",
"                        }.|.1.6 p ).2.^.].3.~.4.~.Z 4.5.5.4.3.~.~.4.4.5.5.5.Z 6.7.5.~.Z 8.9.0.a.b.c.d.+ e.                      ",
"                      f.g.h.7 t i.j.3.3.k.j.3.j.l.{.4.l.k.4.l.3.j.l.j.j.k.l.Z ].l.j.j.j.j.3.5.Y M 6 m.n.o.p.                    ",
"                    X 3 d q.M Y k.r.l.s.r.r.s.r.s.^.@.k.H r.s.s.r.t.l.r.r.{.].].r.s.r.r.s.s.r.j.u.f.0 *.v.w.x.                  ",
"                  [ 1.&.q.y.z.H t.H t.I I t.t.t.t.5.A.{.r.t.r.I t.G r.I k.A.+.Z I t.t.I I t.t.I t.r.B.C.v.D.E.F.                ",
"                G.| P 6 W H.t.u.I u.u.G I G u.u.t.~.I.A.H u.G u.u.u.G G /.J.K.j.u.G G G u.G G G I t.t.L.M.N.O.P.                ",
"              L Q.R.5 u S.G F H.H.H.F H.H.F F F s.^.T.U.I J F u.F H.F u. .V.W.r.F F H.u.H.H.H.u.F F u.F M b.X.Y.Z.              ",
"            `.p  +c .+B.I ++J F J J J ++J ++J J k./.J.@+I ++J J ++F ++H.#+V.$+k.++++J F J J J ++J J ++G %+C ,.&+*+=+            ",
"            [.g.-+v ;+z.J z.z.++z.z.z.z.++J ++2.Z $.J.T.G ++F z.++++z.J  .>+J.^.J J z.++++++++++++z.z.++u.,+5 P '+)+            ",
"          !+~+m {+]+D F z.++z.z.z.z.z.z.z.++z.E ..^+J./+H.Y J 2.++z.Y +++.@+J.` I z.z.z.z.2.++++++z.Y ++J (+q._+:+<+y           ",
"        x.[+ +}+&.q.|+++2.z.2.2.2.z.z.2.z.z.z.i #+1+T.2+F 3+++z.2.++2.F ].V.J.#+l.3+2.z.z.2.z.2.z.z.Y z.2.z.C 4+&.A 5+6+        ",
"        7+8+h.9+,.O !.++z.2.2.2.2.2.z.2.z.2.2.Y 0+I.V.a+J Y z.2.2.2.i z.~.V.T.A.5.Y 2.Y 2.Y 2.3+Y Y Y 3+3+H.s b+4 R.c+d+        ",
"        e+e m }+}+'.J 2.2.3+Y Y Y Y Y Y Y Y 3+++A.J.V.W.++2.Y 3+Y 2.i 2.~.V.>+2+Z E i i Y z.J H.G I H H s.4.D b v b+f+i         ",
"      g+h+i+d P &.O z.i 3+E 3+3+i 3+i i 3+i !.H.2+@+V.W.z.3+i 3+E 3+3+2.Z j+j+>+` H.H s.k.j.3.5.5.~.Z ]./.+.B.k+b l+9+k+m+      ",
"      n+{ i+m 9+}+0 o+i E !.E !.!.E !.E E !.%+I $+p+p+2+2.!.S.E E S.%+i {.q+r+s+2+j.Z ].].~.Z ].].~.Z Z ~.#.t+6 b.c l+1.5.      ",
"    u+v+w+X.d &.&.6 x+E %+%+S.%+%+%+y+%+%+%+z+t.>+A+q+J.Y %+z+%+E z.u.s.m+B+C+D+J.j.5.5.4.5.~.~.~.5.~.5.5.4.E+.+]+v F+R.x+G+    ",
"    H+I+J+K+f+&.&.c L+!.o+z+z+o+z+z+o+z+z+z+i.I j+M+N+J.S.S.++I r.k.3.3.0+O+P+O+T.k.3.3.3.3.3.j.3.4.j.3.~.E r Q+]+l+R+9+.+S+    ",
"    k.{ i+8 T+m &.v O U+h (+o+(+i.(+(+i.|+(+|+I V+W+O+M+l.r.l.l.j.k.k.4.V.X+Y+Y+Z+H j.j.k.s.j.k.k.3.k.l.5.f.k+b b v `+}+i+ @    ",
"    j { { X.'..@`+F+5 g z+h j +@h @@@@j @@@@#@H.C+Y+$@%@^.k.r.s.H H r.k.q+&@*@=@-@u.l.H s.k.H t.r.H r.j.y+} q..+]+l+`+9+8+;@    ",
"  >@t { 1 l 8+8 ,@q.v q.'@U+j ,@,@%.%.#@j %.,@3.O+=@*@)@..t.G t.I t.t.H !@~@~@)@-@J t.G G I t.t.G t.I F {@q.q.6 5 c `+}+]@^@/@  ",
"  (@&.{ { { _@&.u B.9 l+C t+:@B.x+x+B.x+,@%+z.Z !@)@~@<@#+H.F H.H.G u.G [@}@<@|@Z+J J I t.J J u.u.F J D 9 0 k+6 5 5 B &.1@2@3@  ",
"  3@1.1 { 1 l f+B '.j '@c 9 {@[ D D .@i.2.++2.4.$@4@<@5@6@F J z.z.++z.t.7@5@7@8@@+Y z.2.++++J z.z.Y ).C 8 7 k+.+]+c F+&.h.9@0@  ",
"  3@{ l { { { k F+B k+.@X a@O E+z j !.i E E S.I X+b@c@b@-@++Y 3+3+3+3+3.d@b@e@c@J.K z.i E 3+i ++o+W u C '.O q.b ]+l+B &.R.f@g@  ",
"  h@{ { 1 { { 2 i@5 n k+f.j O q.).z.j.].+.].++!.X+j@k@j@W+3+%+S.!.S.!.{.l@j@d@5@^+!.t.k.k.H.%+X } u q o q.O q.b n l+B }+R.m@0@  ",
"  n@{ { { { l { c.B v ]+6 M j.V.o@e@e@e@b@e@5@8@e@j@j@p@q@S.i.y+o+K %+` r@s@l@t@k@d@l@p@u@t@s@*@{.M '.o C 7 k+6 b.c F+9+1@m@v@  ",
"  w@{ { { { { { 1 x@b.n k+{@-@y@s@d@s@z@z@s@z@[@7@u@l@p@5@z+h |+@@(+K -@A@B@C@u@k@z@A@r@A@C@A@D@E@K.p 8 8 O q.6 n 5 F+&.1@5 F@  ",
"  (@{ { { { { { { A }+8 C t+p+G@E@A@s@A@C@p@u@p@p@A@u@B@8@@@%.U+%.j ,@/.<@D@H@C@C@C@C@E@I@D@I@I@y@5.q.p 9 k+k+b n l+F+,.1@5 J@  ",
"  K@{ { 1 l 1 { { A l+9 '.'.3.G@C@y@y@z@=@X+Y+Y+7@p@=@F ,+f.D f.D X X z /.b@C@p@7@L@s@s@H@E@y@M@u@u.0 9 O O q.b b l+B ,.R.b.N@  ",
"  O@{ { { { { l | v b.a@p O z.5@<@l@P@U.,+;+s (.t {@Q@g E+L+M M L+W E+M g T+z Q@(.q q M a+R@S@T@|@|+'.p '.7 q.6 ]+c B &.R.U@V@  ",
"  W@8+_@{ { _@]@l+b.B b.7 r q y.J !@M@G@` ,+E+g W g y.W M T+W L+L+M T+W E+W L+W Q@Q@X@y+<@Y@Z@$@@@p C 9 8 '.k+6 b.c B }+]@`@ #  ",
"  .#a@{ { k m l+n l+l+5 ]+'.p o D ..<@T@j@{.).W M W W M M g L+T+M W L+y.L+g L+Q@L+E+,@+#@###j@F 0 p } C O 0 k+6 5 5 `+9+f+j .#  ",
"    [ { k 4 v c `+l+c c `+.+q } q o+r+B@Y@P+3.:@W M E+T+g M {@W {@Q@{@M Q@M L+W g ,+$+$#%#&#a+C p r u C O 0 7 6 ]+c B 9+k 4.    ",
"    I A }+b.c c l+5 `+l+c B .+q p U+#+|@R@*#>+k.j M L+T+M W L+T+L+{@g W {@g W E+M @.Y@=#*#4@@@u ;+q o u '.O a@b b l+B 9+k I.    ",
"    -#}+5 c v c c 5 l+c c v l+a@u 9 4.*@r@&#Y@m+z.(+z L+L+M W L+M L+T+L+L+W W W k.;#@#@####+9 ;+q p r o 8 0 q..+n l+B i@R.X+    ",
"    [@q v v 5 v b.c c 5 c v `+l+6 p ;+a+l@M@*#Z@^.!.S.D g T+M L+L+W y.g E+M g u.G@>#*#,#D+L+;+t q p r o '.0 k+6 ]+c 4 1.y.=@    ",
"      u.v v c 5 v l+c c l+l+l+v B 5 O z M+T@'#)#R@r.(+Y #@L+T+W M W L+M L+g %+s@!#,#~#8@+@r s t q p r o '.0 q.b b.5 h.2 {#      ",
"      2+v v c c v l+c l+v l+c l+`+v 5 b S.d@)#,#]#D@z.,@i U+y.g W y.L+g T+K 4@^#>#~#E@r.9 Q@s ;+q p r o '.0 k+6 5 `+x@m D+      ",
"        ,+`+5 c l+5 c l+l+v v v l+5 v B 5 Z G@~#>#!#u@m+D 2.h '@L+E+L+W 4.o@^#>#]#%#1+t X@(.t ;+q p r o '.0 q..+]+R.e z+        ",
"        I.&.l+v 5 l+l+c 5 l+v v c v v v B B ^.P@/#>#^#*#0+D !.K z L+M 3.S@^#$#$#*#M+L+s E+X@(.t q p r o '.0 k+6 B i+]@D+        ",
"        |@[ ,.c c l+l+l+l+l+l+l+l+v l+`+v B 5 2+*#~#$#$#$#1+{@i.!..@{.;#^#$#$#$#&@D s E+s (.(.;+q p r o '.0 7 5 1@ +i.}@        ",
"          k.v b.v l+l+5 v `+v l+v l+l+c l+`+}+'.W+]#]#]#!#,#Z+,++@-@##^#$#/#^#s@K } E+g Q@(.s t } r r o 8 8 b m i@&.^+          ",
"            K 9+c c c v v l+l+v l+v v v v l+l+P E+q@!#$#!#]#^#D+6@>#^#/#/#^#A@u.} g Q@Q@Q@s t ;+q p r C '.7 &.m c.t.            ",
"            K.;+F+l+c v l+l+v v l+v l+l+l+l+l+l+d L+q@^#]#/#^#^#~#^#]#!#^#r@H.(.W E+E+X@E+Q@s ;+} q o o O B P i+g -@            ",
"              [ v l+c b.l+l+v v l+v l+l+l+l+l+l+l+d g |@^#/#!#^#!#]#/#^#I@{.C 0 u } ;+t (.(.(.;+} r q o 5 4 i@&.S.              ",
"                Y h.c l+v `+l+c l+v l+l+l+l+l+v c c 9+M o@^#/#!#!#]#^#I@|+r X ;+v b .+k+a@a@7 0 q.7 ]+]@ +k { 3.                ",
"                /+:@i@]+c l+l+l+v l+l+l+l+l+l+l+v B c }+Q@O+^#^#^#^#b@,@,.l+p f.L+,.c l+c 5 5 b.]+9+c.{ { { K X+                ",
"                  {.t+e c c v l+v v l+l+l+l+l+v c B l+c }+p (#/#$#p+L+,.l+l+B '.'@z c l+b.5 ]+l+R._@{ 1 { j C+                  ",
"                    5.{@{ P l+l+l+l+v v v v l+l+v c B v l+,..+i (+9 ,.`+`+l+c `+.+L+[ 5 c n 9+1.l { { { %.-#                    ",
"                      @.).{  +}+b.l+l+l+c l+`+v `+l+l+l+v l+B `+B B l+`+`+c 5 v v n W x+a@3 _@{ { { { o+D+                      ",
"                          x@1.{ X.d `+5 v l+5 v l+l+v v v l+c v v l+c l+`+l+5 5 n b.B 6 t B { 1 { h.b                           ",
"                            Q@5 { _@e | 9+l+`+c c c l+v v B B l+v `+l+5 l+c c `+m 3 _#1 R.q v { u S.                            ",
"                                h.k { { 2 _#1.i@P F+l+5 n 5 l+5 b.l+l+`+4 ]@f+A _@{ { 1 { 2 q y+                                ",
"                                  u.} { { { { l l _@_@_#e 3 f+f+ +c.k _@l 1 1 { { { { { k x+p+                                  ",
"                                        &. +{ { { { { 1 { 1 l { { { { { { 1 { { { { x@o                                         ",
"                                            u.r e { { { { { { { { { { { { { { X.W Z                                             ",
"                                                    H #@'.}+x@A A i+B p U+5.                                                    ",
"                                                                                                                                "};
