/* XPM */
static char *xpm_icon_sixty[] = {
/* columns rows colors chars-per-pixel */
"64 64 37 1",
"  c black",
". c #0F0101",
"X c #1E0202",
"o c #101010",
"O c #2E0303",
"+ c #3D0404",
"@ c #202020",
"# c gray19",
"$ c #4D0606",
"% c #5C0707",
"& c #6C0808",
"* c #7C0909",
"= c gray25",
"- c #505050",
"; c #606060",
": c gray44",
"> c #8B0A0A",
", c #9B0B0B",
"< c #AA0C0C",
"1 c #BA0D0D",
"2 c #C90F0F",
"3 c #D91010",
"4 c #E81111",
"5 c #F81212",
"6 c #808080",
"7 c #909090",
"8 c #9D9D9D",
"9 c #AB8787",
"0 c #A0A0A0",
"q c gray69",
"w c #C0C0C0",
"e c gray78",
"r c #D0D0D0",
"t c gray88",
"y c gray94",
"u c gray100",
"i c None",
/* pixels */
"iiiiiiiiiiiiiiiiiiiiiiiiiiiiiiiiiiiiiiiiiiiiiiiiiiiiiiiiiiiiiiii",
"iiiiiiiiiiiiiiiiiiiiiiiiiiiiiiiiiiiiiiiiiiiiiiiiiiiiiiiiiiiiiiii",
"iiiuueeeeeeeeeeeeeeeeeeeeeeeeeeeeeeeeeeeeeeeeeeeeeeeeeeeeeeuuiii",
"iiiueeuuuuuuuuuuuuuuuuuuuuuuuuuuuuuuuuuuuuuuuuuuuuuuuuuuuueeuiii",
"iiieeuuuuuuuuuuuuuuuuuuuuuuuuuuuuuuuuuuuuuuuuuuuuuuuuuuuuuueeiii",
"iiieuuuu999999999999999999999999999999999999999999999999uuuueiii",
"iiieuuu99555555555555555555555555555555555555555555555599uuueiii",
"iiieuu995555555555554455.O55555555555555555555555555555598uueiii",
"iiieuu95555555555555$555 .55555555555555555555555555555558uueiii",
"iiieuu9555555555555* 5552355555455545555545555555555555558uueiii",
"iiieuu955555555555&   ++  5%  $  >O .354&+O<55555555555558uueiii",
"iiieuu9555555555555+ 555  55  ,& .1O >5+ 2& 35555555555558uueiii",
"iiieuu9555555555555+ 555  55  5* +5+ *4  *+ >5555555555558uueiii",
"iiieuu9555555555555+ 555  55  5* +5+ *5  55555555555555558uueiii",
"iiieuu9555555555555+ 555  55  5* +5+ *5. >5555555555555558uueiii",
"iiieuu9555555555555$ $&5  55  4* +5+ *5% .&+45555555555558uueiii",
"iiieuu95555555555552$*5$++5&++5$++5+++35,X$255555555555558uueiii",
"iiieuu8555555555555555555555555555555555555555555555555558uueiii",
"iiieuu8                                                  8uueiii",
"iiieuu8                                                  8uueiii",
"iiieuu8                                                  8uueiii",
"iiieuu8                                                  8uueiii",
"iiieuu8                                                  8uueiii",
"iiieuu8                                                  8uueiii",
"iiieuu8                    #=#        #==o               8uueiii",
"iiieuu8                #7ruut:      -tuuuuq@             8uueiii",
"iiieuu8              =wuuu0#       0uur-6yuy-            8uueiii",
"iiieuu8            o7uuuw@        6uuu@  7uuy#           8uueiii",
"iiieuu8           @ruuu6         @uuut   =uuur           8uueiii",
"iiieuu8          oyuuu7          0uuuw   #uuuu-          8uueiii",
"iiieuu8         oruuur           yuuuw    uuuu0          8uueiii",
"iiieuu8         7uuuu=          =uuuuw    uuuuy          8uueiii",
"iiieuu8        @uuuur           6uuuuw    uuuuu#         8uueiii",
"iiieuu8        0uuuu:  #o       wuuuu7    uuuuu;         8uueiii",
"iiieuu8       ouuuuu0tuuut;     wuuuu6    uuuuu6         8uueiii",
"iiieuu8       ;uuuuuuuuuuuu0    uuuuu6    uuuuu6         8uueiii",
"iiieuu8       0uuuut-#quuuuu7   uuuuu6    uuuuuq         8uueiii",
"iiieuu8       wuuuuw   6uuuuu@  uuuuu6    uuuuuw         8uueiii",
"iiieuu8       uuuuuw   ouuuuu6  uuuuu6    uuuuu7         8uueiii",
"iiieuu8       uuuuu0    wuuuuw  yuuuu6    uuuuu6         8uueiii",
"iiieuu8       uuuuu0    0uuuuw  wuuuu6    uuuuu6         8uueiii",
"iiieuu8       tuuuuw    6uuuuw  0uuuu6    uuuuu=         8uueiii",
"iiieuu8       wuuuuw    6uuuuw  :uuuuq    uuuuuo         8uueiii",
"iiieuu8       :uuuut    6uuuu7  @uuuuw    uuuur          8uueiii",
"iiieuu8       @uuuuuo   6uuuu-   ruuuw    uuuu:          8uueiii",
"iiieuu8        wuuuu-   6uuut    ;uuur   =uuuu@          8uueiii",
"iiieuu8        @yuuu0   quuu-     ruuu@  ;uuu6           8uueiii",
"iiieuu8         ;uuuu= =uuu0      @yuu7 @ruu0            8uueiii",
"iiieuu8          =tuuuruuy:        #ruutuuu;             8uueiii",
"iiieuu8            ;0wwq:o           ;qww7#              8uueiii",
"iiieuu8                                                  8uueiii",
"iiieuu8                                                  8uueiii",
"iiieuu8                                                  8uueiii",
"iiieuu8                                                  8uueiii",
"iiieuu8                                                  8uueiii",
"iiieuu88                                                88uueiii",
"iiieuuu88                                              88uuueiii",
"iiieuuuu888888888888888888888888888888888888888888888888uuuueiii",
"iiieeuuuuuuuuuuuuuuuuuuuuuuuuuuuuuuuuuuuuuuuuuuuuuuuuuuuuuueeiii",
"iiiueeuuuuuuuuuuuuuuuuuuuuuuuuuuuuuuuuuuuuuuuuuuuuuuuuuuuueeuiii",
"iiiuueeeeeeeeeeeeeeeeeeeeeeeeeeeeeeeeeeeeeeeeeeeeeeeeeeeeeeuuiii",
"iiiiiiiiiiiiiiiiiiiiiiiiiiiiiiiiiiiiiiiiiiiiiiiiiiiiiiiiiiiiiiii",
"iiiiiiiiiiiiiiiiiiiiiiiiiiiiiiiiiiiiiiiiiiiiiiiiiiiiiiiiiiiiiiii",
"iiiiiiiiiiiiiiiiiiiiiiiiiiiiiiiiiiiiiiiiiiiiiiiiiiiiiiiiiiiiiiii"
};
