/* XPM */
static char *xpm_icon_absolute[] = {
/* columns rows colors chars-per-pixel */
"64 64 148 2",
"   c black",
".  c #010000",
"X  c #020000",
"o  c #030000",
"O  c #040000",
"+  c #050000",
"@  c #060000",
"#  c #070000",
"$  c #080000",
"%  c #090000",
"&  c #0B0000",
"*  c #0C0000",
"=  c #0D0000",
"-  c #0E0000",
";  c #110101",
":  c #120101",
">  c #130101",
",  c #150101",
"<  c #160101",
"1  c #1B0101",
"2  c #1C0101",
"3  c #1D0101",
"4  c #1F0101",
"5  c #200101",
"6  c #210101",
"7  c #230202",
"8  c #280202",
"9  c #2C0202",
"0  c #2D0202",
"q  c #2F0202",
"w  c #310202",
"e  c #320202",
"r  c #330303",
"t  c #350303",
"y  c #360303",
"u  c #370303",
"i  c #3A0303",
"p  c #3C0303",
"a  c #3D0303",
"s  c #400303",
"d  c #420303",
"f  c #440404",
"g  c #470404",
"h  c #4A0404",
"j  c #4B0404",
"k  c #4C0404",
"l  c #4E0404",
"z  c #530404",
"x  c #540404",
"c  c #560505",
"v  c #570505",
"b  c #580505",
"n  c #590505",
"m  c #5A0505",
"M  c #5C0505",
"N  c #5D0505",
"B  c #670606",
"V  c #680606",
"C  c #6A0606",
"Z  c #6B0606",
"A  c #6C0606",
"S  c #6D0606",
"D  c #6E0606",
"F  c #6F0606",
"G  c #740606",
"H  c #750606",
"J  c #760606",
"K  c #770606",
"L  c #7C0707",
"P  c #7E0707",
"I  c #7F0707",
"U  c #800707",
"Y  c #820707",
"T  c #860707",
"R  c #870707",
"E  c #880808",
"W  c #8A0808",
"Q  c #8B0808",
"!  c #8D0808",
"~  c #8E0808",
"^  c #8F0808",
"/  c #910808",
"(  c #920808",
")  c #940808",
"_  c #950808",
"`  c #990909",
"'  c #9B0909",
"]  c #9D0909",
"[  c #9F0909",
"{  c #A10909",
"}  c #A20909",
"|  c #A40909",
" . c #A50909",
".. c #A60909",
"X. c #A70909",
"o. c #AB0A0A",
"O. c #AD0A0A",
"+. c #AE0A0A",
"@. c #AF0A0A",
"#. c #B10A0A",
"$. c #B20A0A",
"%. c #B30A0A",
"&. c #B40A0A",
"*. c #BA0A0A",
"=. c #BD0B0B",
"-. c #BE0B0B",
";. c #C10B0B",
":. c #C20B0B",
">. c #C40B0B",
",. c #C60B0B",
"<. c #C70B0B",
"1. c #C90B0B",
"2. c #CA0B0B",
"3. c #CD0C0C",
"4. c #CE0C0C",
"5. c #CF0C0C",
"6. c #D00C0C",
"7. c #D10C0C",
"8. c #D20C0C",
"9. c #D40C0C",
"0. c #D50C0C",
"q. c #D70C0C",
"w. c #D80C0C",
"e. c #D90C0C",
"r. c #DA0C0C",
"t. c #DC0C0C",
"y. c #DD0C0C",
"u. c #DE0D0D",
"i. c #DF0D0D",
"p. c #E00D0D",
"a. c #E10D0D",
"s. c #E20D0D",
"d. c #E30D0D",
"f. c #E40D0D",
"g. c #E50D0D",
"h. c #E60D0D",
"j. c #E80D0D",
"k. c #E90D0D",
"l. c #EA0D0D",
"z. c #EB0D0D",
"x. c #EC0D0D",
"c. c #ED0D0D",
"v. c #EE0D0D",
"b. c #EF0E0E",
"n. c #9D9D9D",
"m. c gray78",
"M. c gray100",
"N. c None",
/* pixels */
"N.N.N.N.N.N.N.N.N.N.N.N.N.N.N.N.N.N.N.N.N.N.N.N.N.N.N.N.N.N.N.N.N.N.N.N.N.N.N.N.N.N.N.N.N.N.N.N.N.N.N.N.N.N.N.N.N.N.N.N.N.N.N.N.",
"N.N.N.N.N.N.N.N.N.N.N.N.N.N.N.N.N.N.N.N.N.N.N.N.N.N.N.N.N.N.N.N.N.N.N.N.N.N.N.N.N.N.N.N.N.N.N.N.N.N.N.N.N.N.N.N.N.N.N.N.N.N.N.N.",
"N.N.N.M.M.m.m.m.m.m.m.m.m.m.m.m.m.m.m.m.m.m.m.m.m.m.m.m.m.m.m.m.m.m.m.m.m.m.m.m.m.m.m.m.m.m.m.m.m.m.m.m.m.m.m.m.m.m.m.M.M.N.N.N.",
"N.N.N.M.m.m.M.M.M.M.M.M.M.M.M.M.M.M.M.M.M.M.M.M.M.M.M.M.M.M.M.M.M.M.M.M.M.M.M.M.M.M.M.M.M.M.M.M.M.M.M.M.M.M.M.M.M.M.m.m.M.N.N.N.",
"N.N.N.m.m.M.M.M.M.M.M.M.M.M.M.M.M.M.M.M.M.M.M.M.M.M.M.M.M.M.M.M.M.M.M.M.M.M.M.M.M.M.M.M.M.M.M.M.M.M.M.M.M.M.M.M.M.M.M.m.m.N.N.N.",
"N.N.N.m.M.M.M.M.n.n.n.n.n.n.n.n.n.n.n.n.n.n.n.n.n.n.n.n.n.n.n.n.n.n.n.n.n.n.n.n.n.n.n.n.n.n.n.n.n.n.n.n.n.n.n.n.M.M.M.M.m.N.N.N.",
"N.N.N.m.M.M.M.n.n.                                                                                            n.n.M.M.M.m.N.N.N.",
"N.N.N.m.M.M.n.n.                                                                                                n.n.M.M.m.N.N.N.",
"N.N.N.m.M.M.n.                                                                                                    n.M.M.m.N.N.N.",
"N.N.N.m.M.M.n.                                                                                                    n.M.M.m.N.N.N.",
"N.N.N.m.M.M.n.                                                                                                    n.M.M.m.N.N.N.",
"N.N.N.m.M.M.n.                                                                                                    n.M.M.m.N.N.N.",
"N.N.N.m.M.M.n.                                                                                                    n.M.M.m.N.N.N.",
"N.N.N.m.M.M.n.                                                                                                    n.M.M.m.N.N.N.",
"N.N.N.m.M.M.n.                                                                                                    n.M.M.m.N.N.N.",
"N.N.N.m.M.M.n.                                                                                                    n.M.M.m.N.N.N.",
"N.N.N.m.M.M.n.                                                                                                    n.M.M.m.N.N.N.",
"N.N.N.m.M.M.n.                                                                                                    n.M.M.m.N.N.N.",
"N.N.N.m.M.M.n.                                                                                                    n.M.M.m.N.N.N.",
"N.N.N.m.M.M.n.                                                                                                    n.M.M.m.N.N.N.",
"N.N.N.m.M.M.n.                                                                                                    n.M.M.m.N.N.N.",
"N.N.N.m.M.M.n.                                                                                                    n.M.M.m.N.N.N.",
"N.N.N.m.M.M.n.                                                                                                    n.M.M.m.N.N.N.",
"N.N.N.m.M.M.n.                  } b.b.g                   b.b.b.b.b.h.6.] s             d ..r.x.f.3.| F O         n.M.M.m.N.N.N.",
"N.N.N.m.M.M.n.                > l.b.b.{                   b.b.a.4.w.v.b.b.b.R         E b.b.z.8.d.b.b.b.-         n.M.M.m.N.N.N.",
"N.N.N.m.M.M.n.                C b.b.b.k.;                 b.b.~     * v t.b.b.p     M b.b.W -     8 D ;.-         n.M.M.m.N.N.N.",
"N.N.N.m.M.M.n.                ,.b.s.b.b.B                 b.b.~         d b.b.P     :.b.=.                        n.M.M.m.N.N.N.",
"N.N.N.m.M.M.n.              r b.b.x c.b.:.                b.b.~         @ b.b.T     j.b.)                         n.M.M.m.N.N.N.",
"N.N.N.m.M.M.n.              ^ b.5.  O.b.b.9               b.b.~         2 b.b.m     y.b.7.$                       n.M.M.m.N.N.N.",
"N.N.N.m.M.M.n.            % a.b.J   x b.b.R               b.b.~         Y b.w.&     _ b.b.@.:                     n.M.M.m.N.N.N.",
"N.N.N.m.M.M.n.            b b.v.3   $ a.b.t.O             b.b.~     6 Q b.p.t       < 8.b.b.r.n                   n.M.M.m.N.N.N.",
"N.N.N.m.M.M.n.            %.b.#.      / b.b.k             b.b.a.5.i.b.v.[ 3           1 -.b.b.b.*.q               n.M.M.m.N.N.N.",
"N.N.N.m.M.M.n.          5 v.b.c       u b.b.X.            b.b.b.b.b.b.b.&.y             O H h.b.b.c.U o           n.M.M.m.N.N.N.",
"N.N.N.m.M.M.n.          L b.a.%         3.b.z.<           b.b.~ o 2 m 2.b.c.V               3 | b.b.b.X.o         n.M.M.m.N.N.N.",
"N.N.N.m.M.M.n.        . 9.b.(           G b.b.S           b.b.~       #  .b.b.a                 h i.b.b.Z         n.M.M.m.N.N.N.",
"N.N.N.m.M.M.n.        f b.b.b.b.b.b.b.b.b.b.b.<.          b.b.~         = u.b.o.                  0 k.b.<.        n.M.M.m.N.N.N.",
"N.N.N.m.M.M.n.        { b.c.j.j.j.j.j.j.j.x.b.b.e         b.b.~           [ b.p.                    ..b.k.        n.M.M.m.N.N.N.",
"N.N.N.m.M.M.n.      : k.b.A               k b.b.!         b.b.~           ` b.j.                    _ b.u.        n.M.M.m.N.N.N.",
"N.N.N.m.M.M.n.      V b.k.:               O e.b.p.#       b.b.~         @ 0.b.1.    ,             + 7.b. .        n.M.M.m.N.N.N.",
"N.N.N.m.M.M.n.      >.b.'                   P b.b.z       b.b.~       7 o.b.b.K     k.] j -     1 ..b.z.w         n.M.M.m.N.N.N.",
"N.N.N.m.M.M.n.    w b.b.i                   4 v.b.+.      b.b.a.4.9.g.b.b.b.$.$     b.b.b.v.q.0.b.b.d.l           n.M.M.m.N.N.N.",
"N.N.N.m.M.M.n.    ! b.1.                      @.b.c.1     b.b.b.b.b.x.t.#.N X       c ~ =.u.x.d.;.I 1             n.M.M.m.N.N.N.",
"N.N.N.m.M.M.n.                                                                                                    n.M.M.m.N.N.N.",
"N.N.N.m.M.M.n.                                                                                                    n.M.M.m.N.N.N.",
"N.N.N.m.M.M.n.                                                                                                    n.M.M.m.N.N.N.",
"N.N.N.m.M.M.n.                                                                                                    n.M.M.m.N.N.N.",
"N.N.N.m.M.M.n.                                                                                                    n.M.M.m.N.N.N.",
"N.N.N.m.M.M.n.                                                                                                    n.M.M.m.N.N.N.",
"N.N.N.m.M.M.n.                                                                                                    n.M.M.m.N.N.N.",
"N.N.N.m.M.M.n.                                                                                                    n.M.M.m.N.N.N.",
"N.N.N.m.M.M.n.                                                                                                    n.M.M.m.N.N.N.",
"N.N.N.m.M.M.n.                                                                                                    n.M.M.m.N.N.N.",
"N.N.N.m.M.M.n.                                                                                                    n.M.M.m.N.N.N.",
"N.N.N.m.M.M.n.                                                                                                    n.M.M.m.N.N.N.",
"N.N.N.m.M.M.n.                                                                                                    n.M.M.m.N.N.N.",
"N.N.N.m.M.M.n.n.                                                                                                n.n.M.M.m.N.N.N.",
"N.N.N.m.M.M.M.n.n.                                                                                            n.n.M.M.M.m.N.N.N.",
"N.N.N.m.M.M.M.M.n.n.n.n.n.n.n.n.n.n.n.n.n.n.n.n.n.n.n.n.n.n.n.n.n.n.n.n.n.n.n.n.n.n.n.n.n.n.n.n.n.n.n.n.n.n.n.n.M.M.M.M.m.N.N.N.",
"N.N.N.m.m.M.M.M.M.M.M.M.M.M.M.M.M.M.M.M.M.M.M.M.M.M.M.M.M.M.M.M.M.M.M.M.M.M.M.M.M.M.M.M.M.M.M.M.M.M.M.M.M.M.M.M.M.M.M.m.m.N.N.N.",
"N.N.N.M.m.m.M.M.M.M.M.M.M.M.M.M.M.M.M.M.M.M.M.M.M.M.M.M.M.M.M.M.M.M.M.M.M.M.M.M.M.M.M.M.M.M.M.M.M.M.M.M.M.M.M.M.M.M.m.m.M.N.N.N.",
"N.N.N.M.M.m.m.m.m.m.m.m.m.m.m.m.m.m.m.m.m.m.m.m.m.m.m.m.m.m.m.m.m.m.m.m.m.m.m.m.m.m.m.m.m.m.m.m.m.m.m.m.m.m.m.m.m.m.m.M.M.N.N.N.",
"N.N.N.N.N.N.N.N.N.N.N.N.N.N.N.N.N.N.N.N.N.N.N.N.N.N.N.N.N.N.N.N.N.N.N.N.N.N.N.N.N.N.N.N.N.N.N.N.N.N.N.N.N.N.N.N.N.N.N.N.N.N.N.N.",
"N.N.N.N.N.N.N.N.N.N.N.N.N.N.N.N.N.N.N.N.N.N.N.N.N.N.N.N.N.N.N.N.N.N.N.N.N.N.N.N.N.N.N.N.N.N.N.N.N.N.N.N.N.N.N.N.N.N.N.N.N.N.N.N.",
"N.N.N.N.N.N.N.N.N.N.N.N.N.N.N.N.N.N.N.N.N.N.N.N.N.N.N.N.N.N.N.N.N.N.N.N.N.N.N.N.N.N.N.N.N.N.N.N.N.N.N.N.N.N.N.N.N.N.N.N.N.N.N.N."
};
