/* XPM */
static char * xpm_horiz_zoom_out32_xpm[] = {
"32 32 294 2",
"  	c None",
". 	c #FFFFFF",
"+ 	c #D0D0D0",
"@ 	c #E3E3E3",
"# 	c #E1E1E1",
"$ 	c #BFBFBF",
"% 	c #F4F4F4",
"& 	c #CFCFCF",
"* 	c #D7D7D7",
"= 	c #D6D5D4",
"- 	c #D4D0CC",
"; 	c #D3CEC9",
"> 	c #D3CEC8",
", 	c #D3CFCA",
"' 	c #D5D2CF",
") 	c #C0C0C0",
"! 	c #B9B9B9",
"~ 	c #1D1D1D",
"{ 	c #000000",
"] 	c #00030B",
"^ 	c #204C7F",
"/ 	c #387ECE",
"( 	c #4191ED",
"_ 	c #4394F1",
": 	c #3E8BE3",
"< 	c #306EB5",
"[ 	c #0F2A49",
"} 	c #424242",
"| 	c #295587",
"1 	c #4D9EFA",
"2 	c #4996F1",
"3 	c #49A1EF",
"4 	c #4BADF5",
"5 	c #4AAFF5",
"6 	c #49A8F3",
"7 	c #4899EF",
"8 	c #4B99F5",
"9 	c #4186D5",
"0 	c #0D1C2E",
"a 	c #484848",
"b 	c #3A79C1",
"c 	c #4A96F1",
"d 	c #4AABF4",
"e 	c #4CC6FA",
"f 	c #4DC9FB",
"g 	c #4CC8FB",
"h 	c #4DC7FB",
"i 	c #4DC8FB",
"j 	c #4DCAFB",
"k 	c #4BBBF7",
"l 	c #499AF0",
"m 	c #4B9CF7",
"n 	c #142A43",
"o 	c #356DAD",
"p 	c #4894EE",
"q 	c #4BB7F7",
"r 	c #4CC7FB",
"s 	c #4CC7FA",
"t 	c #499DF0",
"u 	c #0D1C2D",
"v 	c #484847",
"w 	c #183251",
"x 	c #4C9BF8",
"y 	c #4AB2F5",
"z 	c #4CC8FA",
"A 	c #4187D6",
"B 	c #454340",
"C 	c #3F81CD",
"D 	c #499EF0",
"E 	c #4CC9FB",
"F 	c #4CC9FA",
"G 	c #4CCAFA",
"H 	c #4CCCFA",
"I 	c #4BBDF5",
"J 	c #162E4B",
"K 	c #546170",
"L 	c #4996F0",
"M 	c #4BB5F5",
"N 	c #4CCBF9",
"O 	c #4DCCFA",
"P 	c #4CCDF9",
"Q 	c #4CCFF9",
"R 	c #4CD0F9",
"S 	c #4DD1F9",
"T 	c #4DD5F9",
"U 	c #4899ED",
"V 	c #3267A3",
"W 	c #688AB0",
"X 	c #4892EC",
"Y 	c #4DCDFF",
"Z 	c #50D6FF",
"` 	c #51D8FF",
" .	c #51D9FF",
"..	c #50DAFF",
"+.	c #51DBFF",
"@.	c #50DCFF",
"#.	c #51DDFF",
"$.	c #50DEFF",
"%.	c #50DFFF",
"&.	c #50E0FF",
"*.	c #50E2FF",
"=.	c #50E3FF",
"-.	c #51E5FF",
";.	c #49AFF0",
">.	c #4186D4",
",.	c #6C93BF",
"'.	c #4891EB",
").	c #2A6A7C",
"!.	c #070100",
"~.	c #070000",
"{.	c #080000",
"].	c #030000",
"^.	c #4FC7FF",
"/.	c #448DE1",
"(.	c #010305",
"_.	c #2B7283",
":.	c #0C0D0D",
"<.	c #4FC8FF",
"[.	c #458EE2",
"}.	c #000102",
"|.	c #6583A6",
"1.	c #4791EC",
"2.	c #3BA6BB",
"3.	c #2C7382",
"4.	c #2C7482",
"5.	c #2C7481",
"6.	c #2C7581",
"7.	c #2C7681",
"8.	c #2C7781",
"9.	c #2C7880",
"0.	c #2C7981",
"a.	c #297379",
"b.	c #4CBFF7",
"c.	c #3C7BC4",
"d.	c #515A64",
"e.	c #4A97F3",
"f.	c #4BC6F4",
"g.	c #4DDDF6",
"h.	c #4CDEF6",
"i.	c #4CDFF6",
"j.	c #4DE0F6",
"k.	c #4CE2F5",
"l.	c #4CE3F5",
"m.	c #4CE4F5",
"n.	c #4CE5F5",
"o.	c #4CE6F4",
"p.	c #4DE7F5",
"q.	c #4CE8F4",
"r.	c #4CEDF4",
"s.	c #499FEF",
"t.	c #2C5B92",
"u.	c #464441",
"v.	c #3975B9",
"w.	c #49AAF0",
"x.	c #4CE5F4",
"y.	c #4DE6F4",
"z.	c #4CEAF3",
"A.	c #4CEAF4",
"B.	c #4DECF3",
"C.	c #4BDEF1",
"D.	c #4C9AF9",
"E.	c #0F2033",
"F.	c #0C1928",
"G.	c #4B99F7",
"H.	c #4BD3F2",
"I.	c #4DE7F4",
"J.	c #4CE8F3",
"K.	c #4CE9F4",
"L.	c #4DEBF3",
"M.	c #4CECF3",
"N.	c #4CEDF3",
"O.	c #4CEEF3",
"P.	c #4CEFF2",
"Q.	c #4DF0F3",
"R.	c #4CF7F2",
"S.	c #49A4F0",
"T.	c #366FB1",
"U.	c #20426A",
"V.	c #4B96F6",
"W.	c #4BDFF2",
"X.	c #4DEDF3",
"Y.	c #4DEFF3",
"Z.	c #4CF0F2",
"`.	c #4DF1F2",
" +	c #4CF2F1",
".+	c #4DF3F1",
"++	c #4CF4F2",
"@+	c #4CFAF1",
"#+	c #4AAAF0",
"$+	c #4C9CF7",
"%+	c #03070C",
"&+	c #264F7D",
"*+	c #4C98FA",
"=+	c #4BCEF1",
"-+	c #4DF9F2",
";+	c #4DF6F1",
">+	c #4CF7F1",
",+	c #4DFBF1",
"'+	c #4BEFF0",
")+	c #4AA8F2",
"!+	c #4791E6",
"~+	c #4A99F4",
"{+	c #4084D1",
"]+	c #12253B",
"^+	c #4082D1",
"/+	c #4C9CF9",
"(+	c #4AC3F0",
"_+	c #4AC7F0",
":+	c #4AC8F0",
"<+	c #49C7EE",
"[+	c #4AB2F4",
"}+	c #2A588C",
"|+	c #3268A5",
"1+	c #4A98F2",
"2+	c #3873B7",
"3+	c #0D1B2A",
"4+	c #254E7D",
"5+	c #2D5B95",
"6+	c #4BCAF2",
"7+	c #4AC7EC",
"8+	c #132042",
"9+	c #03070A",
"0+	c #30639F",
"a+	c #4B9BF6",
"b+	c #4084D2",
"c+	c #3E80CB",
"d+	c #020508",
"e+	c #57FFFF",
"f+	c #4CF4F0",
"g+	c #54FFFF",
"h+	c #267B79",
"i+	c #3A77BD",
"j+	c #4997F0",
"k+	c #4895EC",
"l+	c #438BDD",
"m+	c #020407",
"n+	c #237270",
"o+	c #103534",
"p+	c #3977BC",
"q+	c #4896EE",
"r+	c #4894EB",
"s+	c #438ADB",
"t+	c #454040",
"u+	c #216B69",
"v+	c #4FFEFA",
"w+	c #4DF6F2",
"x+	c #4FFDF9",
"y+	c #3CC0BD",
"z+	c #113838",
"A+	c #4081D2",
"B+	c #4996EF",
"C+	c #4794EA",
"D+	c #438ADC",
"E+	c #71CBC8",
"F+	c #51FFFF",
"G+	c #52FFFF",
"H+	c #4CF5F1",
"I+	c #298382",
"J+	c #4289D9",
"K+	c #4895ED",
"L+	c #4794EB",
"M+	c #448BDD",
"N+	c #020507",
"O+	c #5B8584",
"P+	c #247371",
"Q+	c #1E6261",
"R+	c #133D3C",
"S+	c #000103",
"T+	c #4288D7",
"U+	c #4894EC",
"V+	c #4895EE",
"W+	c #4D5258",
"X+	c #070F19",
"Y+	c #4793E9",
"Z+	c #4996EE",
"`+	c #6F98C6",
" @	c #717171",
".@	c #3EC7C4",
"+@	c #298381",
"@@	c #08101A",
"#@	c #4691E6",
"$@	c #3171BB",
"%@	c #747679",
"&@	c #ECECEC",
"*@	c #483D3D",
"=@	c #41FFFB",
"-@	c #58DCD9",
";@	c #597E7D",
">@	c #535E6B",
",@	c #6E97C5",
"'@	c #74777A",
")@	c #ECECED",
"!@	c #E7E7E7",
"~@	c #CDCDCD",
"                                                                ",
"  . + @ # # # # # # # # # # # # # # # # # # # # # # # # @ + .   ",
"  $ % . & * * * * = - ; > , ' * * * * * * * * * * * * & . % $   ",
"  ) . ! ~ { { { ] ^ / ( _ : < [ { { { { { { { { { { { ~ ! . )   ",
"  ) . } { { { | 1 2 3 4 5 6 7 8 9 0 { { { { { { { { { { } . )   ",
"  ) . a { { b c d e f g h i j k l m n { { { { { { { { { a . )   ",
"  ) . a { o p q f i r r r r g s s t m u { { { { { { { { a . )   ",
"  ) . v w x y g h r g h r r s r r z l A { { { { { { { { a . )   ",
"  ) . B C D E r h g r r z z F G H H I 8 J { { { { { { { a . )   ",
"  ) . K L M r g g F G N O P Q R R S T U V { { { { { { { a . )   ",
"  ) . W X Y Z `  ...+.@.#.$.%.&.*.=.-.;.>.{ { { { { { { a . )   ",
"  ) . ,.'.).!.!.~.~.~.~.~.~.~.{.~.~.].^./.(.{ { { { { { a . )   ",
"  ) . ,.'._.:.:.:.:.:.:.:.:.:.:.:.:.{.<.[.}.{ { { { { { a . )   ",
"  ) . |.1.2.3.4.5.5.6.6.7.8.8.8.9.0.a.b.c.{ { { { { { { a . )   ",
"  ) . d.e.f.g.h.i.i.j.k.l.m.n.o.p.q.r.s.t.{ { { { { { { a . )   ",
"  ) . u.v.w.l.l.m.n.x.y.q.q.z.A.B.B.C.D.E.{ { { { { { { a . )   ",
"  ) . a F.G.H.I.J.K.z.L.M.N.O.P.Q.R.S.T.{ { { { { { { { a . )   ",
"  ) . a { U.V.W.N.X.Y.Z.`. +.+++@+#+$+%+{ { { { { { { { a . )   ",
"  ) . a { { &+*+=+-+++++;+>+,+'+)+!+~+{+{ { { { { { { { a . )   ",
"  ) . a { { { ]+^+/+(+_+:+<+[+*+}+{ |+1+2+{ { { { { { { a . )   ",
"  ) . a { { { { { 3+4+5+6+7+8+9+{ { { 0+a+b+c+d+{ { { { a . )   ",
"  ) . a { { { { { { { { e+f+g+h+{ { { { i+j+k+l+m+{ { { a . )   ",
"  ) . a { { { { { { { { { h+g+f+g+n+o+{ p+k+q+r+s+(.{ { a . )   ",
"  ) . t+{ { { { { { { { { { { u+v+w+x+y+z+A+k+B+C+D+(.{ a . )   ",
"  ) . E+F+F+F+F+F+F+F+F+F+F+F+G+H+w+w+w+x+I+J+C+K+L+M+N+a . )   ",
"  ) . O+h+h+h+h+h+h+h+h+h+h+P+Q+v+w+w+x+y+R+S+T+U+V+k+J+W+. )   ",
"  ) . a { { { { { { { { { o+y+G+f+g+n+o+{ { { X+Y+L+K+Z+`+. )   ",
"  ) .  @{ { { { { { { { .@x+x+y++@{ { { { { { { @@#@V+$@%@. )   ",
"  $ . &@ @a a a a a a *@=@-@;@t+a a a a a a a a a >@,@'@)@. $   ",
"  !@~@. . . . . . . . . . . . . . . . . . . . . . . . . . ~@!@  ",
"    !@$ ) ) ) ) ) ) ) ) ) ) ) ) ) ) ) ) ) ) ) ) ) ) ) ) $ !@    ",
"                                                                "};
