/* XPM */
static char *xpm_icon_ten__[] = {
/* columns rows colors chars-per-pixel */
"32 32 211 2",
"   c black",
".  c #00B800B800B8",
"X  c #01BD01BD01BD",
"o  c #034403440344",
"O  c #038603860386",
"+  c #056C056C056C",
"@  c #05F505F505F5",
"#  c #07FE07FE07FE",
"$  c #08AC08AC08AC",
"%  c #0A6B0A6B0A6B",
"&  c #0AF20AF20AF2",
"*  c #0C6B0C6B0C6B",
"=  c #0EE30EE30EE3",
"-  c #17E800000000",
";  c #1B2401F801F8",
":  c #1C51020E020E",
">  c #1D33021F021F",
",  c #1E5802340234",
"<  c #104310431043",
"1  c #118111811181",
"2  c #151D151D151D",
"3  c #161D161D161D",
"4  c #1BF31BF31BF3",
"5  c #1D471D471D47",
"6  c #1DD21DD21DD2",
"7  c #1EED1EED1EED",
"8  c #386804180418",
"9  c #3A82043E043E",
"0  c #3B47044C044C",
"q  c #3CA9045F045F",
"w  c #20AA20AA20AA",
"e  c #230823082308",
"r  c #23B423B423B4",
"t  c #24AF24AF24AF",
"y  c #2C8A2C8A2C8A",
"u  c #2DFB2DFB2DFB",
"i  c #307130713071",
"p  c #30B130B130B1",
"a  c #32EB32EB32EB",
"s  c #349934993499",
"d  c #350435043504",
"f  c #35D135D135D1",
"g  c #379037903790",
"h  c #3B8F3B8F3B8F",
"j  c #3D333D333D33",
"k  c #403504820482",
"l  c #420D04C604C6",
"z  c #454104F204F2",
"x  c #49B705460546",
"c  c #50CF05D105D1",
"v  c #521B05DE05DE",
"b  c #543006100610",
"n  c #57A406400640",
"m  c #5B9506B506B5",
"M  c #609E071B071B",
"N  c #68C9079C079C",
"B  c #6C0D07D707D7",
"V  c #6E2007E807E8",
"C  c #7494086F086F",
"Z  c #768707C107C1",
"A  c #78C708860886",
"S  c #7DC008E508E5",
"D  c #3FED3FED3FED",
"F  c #414141414141",
"G  c #423942394239",
"H  c #4B6A4B6A4B6A",
"J  c #4E354E354E35",
"K  c #524D524D524D",
"L  c #537653765376",
"P  c #565256525652",
"I  c #585458545854",
"U  c #59A859A859A8",
"Y  c #59F059F059F0",
"T  c #5C485C485C48",
"R  c #67735B025B02",
"E  c #649E649E649E",
"W  c #695469546954",
"Q  c #73DE73DE73DE",
"!  c #761D761D761D",
"~  c #77EF77EF77EF",
"^  c #787478747874",
"/  c #7E4E7E4E7E4E",
"(  c #840109850985",
")  c #888309C809C8",
"_  c #898B09FB09FB",
"`  c #8A6E0A020A02",
"'  c #8CB30A2C0A2C",
"]  c #8FD80A430A43",
"[  c #955E0A010A01",
"{  c #97DC0B230B23",
"}  c #9BA50B4D0B4D",
"|  c #9CEF0B570B57",
" . c #9D8F0B500B50",
".. c #9DE90B910B91",
"X. c #95F016081608",
"o. c #A3220BB60BB6",
"O. c #A66D0C1C0C1C",
"+. c #A9310C560C56",
"@. c #AEC40CBD0CBD",
"#. c #AFAF0CC00CC0",
"$. c #B1790CDE0CDE",
"%. c #B50C0D200D20",
"&. c #B9920D870D87",
"*. c #BAC50D8D0D8D",
"=. c #BC2E0CC90CC9",
"-. c #C0380DF30DF3",
";. c #C3970E380E38",
":. c #C4550E5B0E5B",
">. c #D0EF0E3B0E3B",
",. c #DE4F0CBD0CBD",
"<. c #DD0E0F2B0F2B",
"1. c #DE540F3D0F3D",
"2. c #D81D0FB00FB0",
"3. c #D9710FCD0FCD",
"4. c #DCEC100E100E",
"5. c #DDE5101B101B",
"6. c #DEFA102E102E",
"7. c #E0DC0F6C0F6C",
"8. c #F9D60EDA0EDA",
"9. c #FBC70EF30EF3",
"0. c #E41E101B101B",
"q. c #E6760FD40FD4",
"w. c #EB1310251025",
"e. c #E1781B981B98",
"r. c #E34B1BB41BB4",
"t. c #E5781BF31BF3",
"y. c #EFA81B3D1B3D",
"u. c #EDAA1C7D1C7D",
"i. c #EEFE1C921C92",
"p. c #F0191CA61CA6",
"a. c #F16C11881188",
"s. c #F63211E111E1",
"d. c #F99711311131",
"f. c #F90012131213",
"g. c #FA73122E122E",
"h. c #FAE412361236",
"j. c #FD3A12621262",
"k. c #FE90127A127A",
"l. c #F0E51CB51CB5",
"z. c #DCF838913891",
"x. c #CB9C5DAC5DAC",
"c. c #D7EF5DD35DD3",
"v. c #DC095A2B5A2B",
"b. c #DCF15A3D5A3D",
"n. c #C8DD61FD61FD",
"m. c #D6A662A362A3",
"M. c #D66C62F962F9",
"N. c #D757630A630A",
"B. c #D25566A066A0",
"V. c gray50",
"C. c #812081208120",
"Z. c #82BC82BC82BC",
"A. c #838C838C838C",
"S. c #86E286E286E2",
"D. c #907B907B907B",
"F. c #93A693A693A6",
"G. c #941C941C941C",
"H. c #958995899589",
"J. c #96DF96DF96DF",
"K. c #979A979A979A",
"L. c #987798779877",
"P. c #992099209920",
"I. c #A296A296A296",
"U. c #A631A631A631",
"Y. c #A7CEA7CEA7CE",
"T. c #A872A872A872",
"R. c #AEFFAEFFAEFF",
"E. c #AF6AAF6AAF6A",
"W. c #B248B248B248",
"Q. c #B609B609B609",
"!. c #D01BA6FBA6FB",
"~. c #CD5BAB4DAB4D",
"^. c #DF28B816B816",
"/. c #DFB1B832B832",
"(. c #E286B867B867",
"). c #C4C6C4C6C4C6",
"_. c #C68CC68CC68C",
"`. c #CE81CE81CE81",
"'. c #DDC8C465C465",
"]. c #D630D630D630",
"[. c #D786D786D786",
"{. c #DA78DA78DA78",
"}. c #DCF7DCF5DCF5",
"|. c #DDD2DDD2DDD2",
" X c #E034E034E034",
".X c #E1A1E1A1E1A1",
"XX c #E49CE4C8E4C8",
"oX c #E590E590E590",
"OX c #E886EAD8EAD8",
"+X c #EC51EC51EC51",
"@X c #EC8EECAFECAF",
"#X c #EDF2EDB1EDB1",
"$X c #EE78EE3DEE3D",
"%X c #EE18EFAEEFAE",
"&X c #EEBFEEBFEEBF",
"*X c #F057F057F057",
"=X c #ECC5F0F8F0F8",
"-X c #F158F15CF15C",
";X c #F1CBF1CBF1CB",
":X c #F364F364F364",
">X c #F4B1F402F402",
",X c #F3CFF565F565",
"<X c #F49FF49FF49F",
"1X c #F607F607F607",
"2X c #F781F574F574",
"3X c #F6D1F6D1F6D1",
"4X c #F815F815F815",
"5X c #FB70FB70FB70",
"6X c #FE17FE17FE17",
"7X c gray100",
"8X c None",
/* pixels */
"8X8X8X8X8X8X8X8X8X8X8X8X8X8X8X8X8X8X8X8X8X8X8X8X8X8X8X8X8X8X8X8X",
"8X8X}.XXOXOXOXOXOXOXOXOXOXOXOXOXOXOXOXOXOXOXOXOXOXOXOXOXXX}.8X8X",
"8X8X@X2X'.^.^.^.^.^././.(./.^.^.^.^.^.^.^.^.^.^.^.^.^.'.2X@X8X8X",
"8X8X>X!.z.y.i.i.i.u.t.e.X.r.l.l.p.l.p.i.p.p.i.i.i.i.y.z.~.,X8X8X",
"8X8X#Xc.8.d.d.d.d.=.[ >.Z <.7.<.0.1.w.d.q.w.d.d.d.d.d.8.B.=X8X8X",
"8X8X$Xv.8.f.f.f.s.C c  .z @.0 m x n C %.N V 4.g.f.f.f.8.m.=X8X8X",
"8X8X$Xv.8.f.f.f.j.] ( 0.8 -.9 _ k A b B n | 2.g.f.f.f.8.M.=X8X8X",
"8X8X$Xb.9.h.h.h.k.} M &.0 *.q ` z S v ` l #.a.h.h.h.h.9.N.=X8X8X",
"8X8X%Xx.,.5.5.5.6.:.{ +.) $.` O.` o.) ;.' ..3.5.5.5.5.,.n.=X8X8X",
"8X8X-XR - ; ; ; ; : , > , : , > , > , : , > ; ; ; ; ; - R -X8X8X",
"8X8X-XY                                                 Y -X8X8X",
"8X8X-XY             % i <         X e H p $             Y -X8X8X",
"8X8X-XY       . 1 J T.[.a       @ W _.J.).F.2           Y -X8X8X",
"8X8X-XY     X D I.#X7X+Xg       H -XE.& / 6XA.o         Y -X8X8X",
"8X8X-XY     X e u Q.7X+Xf     $ Y.7XH.  T 5X{.w         Y -X8X8X",
"8X8X-XY         o K.7X+Xd     6 }.7XZ.  J 1X3XK         Y -X8X8X",
"8X8X-XY         o P.7X+Xd     j &X7XV.  J <X7X!         Y -X8X8X",
"8X8X-XY         o P.7X+Xd     J <X7XV.  J <X7XV.        Y -X8X8X",
"8X8X-XY         o P.7X+Xd     J <X7XV.  J <X7XV.        Y -X8X8X",
"8X8X-XY         o P.7X+Xd     F *X7XV.  J <X7X^         Y -X8X8X",
"8X8X-XY         o P.7X+Xd     r .X7XC.  L 3X4XP         Y -X8X8X",
"8X8X-XY         o L.7X+Xs     % R.7XD.  E 6X|.t         Y -X8X8X",
"8X8X-XY         # U.7X$Xh       L :XW.% ~ 6XS.O         Y -X8X8X",
"8X8X-XY     . y W `.oX.XJ.G +   @ Q ].G.).F.2           Y -X8X8X",
"8X8X-XY       = 5 5 4 4 7 3 X     + i K j %             Y -X8X8X",
"8X8X-XY                                                 Y -X8X8X",
"8X8X-XU                                                 U -X8X8X",
"8X8X;X/ *                                             * / ;X8X8X",
"8X8X1X X/ I Y Y Y Y Y Y Y Y Y Y Y Y Y Y Y Y Y Y Y Y I /  X1X8X8X",
"8X8X X3X;X-X-X-X-X-X-X-X-X-X-X-X-X-X-X-X-X-X-X-X-X-X-X;X3X X8X8X",
"8X8X X8X8X8X8X8X8X8X8X8X8X8X8X8X8X8X8X8X8X8X8X8X8X8X8X8X8X X8X8X",
"8X8X8X8X8X8X8X8X8X8X8X8X8X8X8X8X8X8X8X8X8X8X8X8X8X8X8X8X8X8X8X8X"
};
