/* XPM */
static char *xpm_icon_one__[] = {
/* columns rows colors chars-per-pixel */
"32 32 160 2",
"   c #000100010001",
".  c #00E100E100E1",
"X  c #034B034B034B",
"o  c #03BC03BC03BC",
"O  c #04B104B104B1",
"+  c #069006900690",
"@  c #0B7D0B7D0B7D",
"#  c #0BE00BE00BE0",
"$  c #0DE00DE00DE0",
"%  c #0E9C0E9C0E9C",
"&  c #17E800000000",
"*  c #1B2401F801F8",
"=  c #1C51020E020E",
"-  c #1D33021F021F",
";  c #1E5802340234",
":  c #0FBE0FBE0FBE",
">  c #118311831183",
",  c #13D113D113D1",
"<  c #164816481648",
"1  c #1B7A1B7A1B7A",
"2  c #386804180418",
"3  c #3A82043E043E",
"4  c #3B47044C044C",
"5  c #3CA9045F045F",
"6  c #31C231C231C2",
"7  c #353335333533",
"8  c #403504820482",
"9  c #420D04C604C6",
"0  c #454104F204F2",
"q  c #49B705460546",
"w  c #50CF05D105D1",
"e  c #521B05DE05DE",
"r  c #543006100610",
"t  c #57A406400640",
"y  c #5B9506B506B5",
"u  c #609E071B071B",
"i  c #68C9079C079C",
"p  c #6C0D07D707D7",
"a  c #6E2007E807E8",
"s  c #7494086F086F",
"d  c #768707C107C1",
"f  c #78C708860886",
"g  c #7DC008E508E5",
"h  c #409940994099",
"j  c #517051705170",
"k  c #549454945494",
"l  c #55F855F855F8",
"z  c #585458545854",
"x  c #59A859A859A8",
"c  c #59F059F059F0",
"v  c #67735B025B02",
"b  c #65C165C165C1",
"n  c #678D678D678D",
"m  c #6E8C6E8C6E8C",
"M  c #7CA87CA87CA8",
"N  c #7E5C7E5C7E5C",
"B  c #7FB67FB67FB6",
"V  c #840109850985",
"C  c #888309C809C8",
"Z  c #898B09FB09FB",
"A  c #8A6E0A020A02",
"S  c #8CB30A2C0A2C",
"D  c #8FD80A430A43",
"F  c #955E0A010A01",
"G  c #97DC0B230B23",
"H  c #9BA50B4D0B4D",
"J  c #9CEF0B570B57",
"K  c #9D8F0B500B50",
"L  c #9DE90B910B91",
"P  c #95F016081608",
"I  c #A3220BB60BB6",
"U  c #A66D0C1C0C1C",
"Y  c #A9310C560C56",
"T  c #AEC40CBD0CBD",
"R  c #AFAF0CC00CC0",
"E  c #B1790CDE0CDE",
"W  c #B50C0D200D20",
"Q  c #B9920D870D87",
"!  c #BAC50D8D0D8D",
"~  c #BC2E0CC90CC9",
"^  c #C0380DF30DF3",
"/  c #C3970E380E38",
"(  c #C4550E5B0E5B",
")  c #D0EF0E3B0E3B",
"_  c #DE4F0CBD0CBD",
"`  c #DD0E0F2B0F2B",
"'  c #DE540F3D0F3D",
"]  c #D81D0FB00FB0",
"[  c #D9710FCD0FCD",
"{  c #DCEC100E100E",
"}  c #DDE5101B101B",
"|  c #DEFA102E102E",
" . c #E0DC0F6C0F6C",
".. c #F9D60EDA0EDA",
"X. c #FBC70EF30EF3",
"o. c #E41E101B101B",
"O. c #E6760FD40FD4",
"+. c #EB1310251025",
"@. c #E1781B981B98",
"#. c #E34B1BB41BB4",
"$. c #E5781BF31BF3",
"%. c #EFA81B3D1B3D",
"&. c #EDAA1C7D1C7D",
"*. c #EEFE1C921C92",
"=. c #F0191CA61CA6",
"-. c #F16C11881188",
";. c #F63211E111E1",
":. c #F99711311131",
">. c #F90012131213",
",. c #FA73122E122E",
"<. c #FAE412361236",
"1. c #FD3A12621262",
"2. c #FE90127A127A",
"3. c #F0E51CB51CB5",
"4. c #DCF838913891",
"5. c #CB9C5DAC5DAC",
"6. c #D7EF5DD35DD3",
"7. c #DC095A2B5A2B",
"8. c #DCF15A3D5A3D",
"9. c #C8DD61FD61FD",
"0. c #D6A662A362A3",
"q. c #D66C62F962F9",
"w. c #D757630A630A",
"e. c #D25566A066A0",
"r. c #802580258025",
"t. c #8E488E488E48",
"y. c #B205B205B205",
"u. c #B240B240B240",
"i. c #B3B6B3B6B3B6",
"p. c #B6E3B6E3B6E3",
"a. c #BE51BE51BE51",
"s. c #D01BA6FBA6FB",
"d. c #CD5BAB4DAB4D",
"f. c #DF28B816B816",
"g. c #DFB1B832B832",
"h. c #E286B867B867",
"j. c #CB0BCB0BCB0B",
"k. c #CB60CB60CB60",
"l. c #CC77CC77CC77",
"z. c #DDC8C465C465",
"x. c #D2FBD2FBD2FB",
"c. c #DCF8DCF6DCF6",
"v. c #E034E034E034",
"b. c #E49CE4C8E4C8",
"n. c #E886EAD8EAD8",
"m. c #EC8EECAFECAF",
"M. c #EE29EDE7EDE7",
"N. c #EE78EE3DEE3D",
"B. c #EE18EFAEEFAE",
"V. c #EFC4EFC4EFC4",
"C. c #ECC5F0F8F0F8",
"Z. c #F159F15EF15E",
"A. c #F1CBF1CBF1CB",
"S. c #F4B1F402F402",
"D. c #F3CFF565F565",
"F. c #F647F647F647",
"G. c #F781F574F574",
"H. c #F6E7F6E7F6E7",
"J. c gray100",
"K. c None",
/* pixels */
"K.K.K.K.K.K.K.K.K.K.K.K.K.K.K.K.K.K.K.K.K.K.K.K.K.K.K.K.K.K.K.K.",
"K.K.c.b.n.n.n.n.n.n.n.n.n.n.n.n.n.n.n.n.n.n.n.n.n.n.n.n.b.c.K.K.",
"K.K.m.G.z.f.f.f.f.f.g.g.h.g.f.f.f.f.f.f.f.f.f.f.f.f.f.z.G.m.K.K.",
"K.K.S.s.4.%.*.*.*.&.$.@.P #.3.3.=.3.=.*.=.=.*.*.*.*.%.4.d.D.K.K.",
"K.K.M.6...:.:.:.:.~ F ) d `  .` o.' +.:.O.+.:.:.:.:.:...e.C.K.K.",
"K.K.N.7...>.>.>.;.s w K 0 T 4 y q t s W i a { ,.>.>.>...0.C.K.K.",
"K.K.N.7...>.>.>.1.D V o.2 ^ 3 Z 8 f r p t J ] ,.>.>.>...q.C.K.K.",
"K.K.N.8.X.<.<.<.2.H u Q 4 ! 5 A 0 g e A 9 R -.<.<.<.<.X.w.C.K.K.",
"K.K.B.5._ } } } | ( G Y C E A U A I C / S L [ } } } } _ 9.C.K.K.",
"K.K.Z.v & * * * * = ; - ; = ; - ; - ; = ; - * * * * * & v Z.K.K.",
"K.K.Z.c                                                 c Z.K.K.",
"K.K.Z.c                         O .                     c Z.K.K.",
"K.K.Z.c                     > k M %                     c Z.K.K.",
"K.K.Z.c               . 1 n a.H.l.,                     c Z.K.K.",
"K.K.Z.c               + l t.M.J.k.,                     c Z.K.K.",
"K.K.Z.c               . o $ p.J.k.,                     c Z.K.K.",
"K.K.Z.c                   @ y.J.k.,                     c Z.K.K.",
"K.K.Z.c                   # u.J.k.,                     c Z.K.K.",
"K.K.Z.c                   # u.J.k.,                     c Z.K.K.",
"K.K.Z.c                   # u.J.k.,                     c Z.K.K.",
"K.K.Z.c                   # u.J.k.,                     c Z.K.K.",
"K.K.Z.c                   @ y.J.j.,                     c Z.K.K.",
"K.K.Z.c                   # i.J.x.<                     c Z.K.K.",
"K.K.Z.c               . : h c.J.V.j $                   c Z.K.K.",
"K.K.Z.c               X 7 b B r.B m 6 .                 c Z.K.K.",
"K.K.Z.c                                                 c Z.K.K.",
"K.K.Z.x                                                 x Z.K.K.",
"K.K.A.N #                                             # N A.K.K.",
"K.K.F.v.N z c c c c c c c c c c c c c c c c c c c c z N v.F.K.K.",
"K.K.v.H.A.Z.Z.Z.Z.Z.Z.Z.Z.Z.Z.Z.Z.Z.Z.Z.Z.Z.Z.Z.Z.Z.Z.A.H.v.K.K.",
"K.K.v.K.K.K.K.K.K.K.K.K.K.K.K.K.K.K.K.K.K.K.K.K.K.K.K.K.K.v.K.K.",
"K.K.K.K.K.K.K.K.K.K.K.K.K.K.K.K.K.K.K.K.K.K.K.K.K.K.K.K.K.K.K.K."
};
