/* XPM */
static char *xpm_icon_twod__[] = {
/* columns rows colors chars-per-pixel */
"32 32 217 2",
"   c #000100020002",
".  c #00CF00130013",
"X  c #0000009A009A",
"o  c #00BC00BC00BC",
"O  c #01D100100010",
"+  c #01D100870087",
"@  c #030603060306",
"#  c #0464003E003E",
"$  c #04CE00430043",
"%  c #03F201290129",
"&  c #067500730073",
"*  c #06CC007F007F",
"=  c #046604660466",
"-  c #049304930493",
";  c #062306230623",
":  c #080D00750075",
">  c #08F700280028",
",  c #0A0A00E000E0",
"<  c #0F72018E018E",
"1  c #0E61035E035E",
"2  c #0C0C038B038B",
"3  c #095B095B095B",
"4  c #0C6B0C6B0C6B",
"5  c #0D780D780D78",
"6  c #0DE20DE20DE2",
"7  c #0F460F460F46",
"8  c #1056017D017D",
"9  c #115600F700F7",
"0  c #126A013C013C",
"q  c #146501300130",
"w  c #150E01800180",
"e  c #15E5012A012A",
"r  c #16F9011E011E",
"t  c #139401CB01CB",
"y  c #14EB02D102D1",
"u  c #166A018F018F",
"i  c #0FDF05170517",
"p  c #17F8015F015F",
"a  c #19C901500150",
"s  c #1C12013F013F",
"d  c #1F1901630163",
"f  c #129012901290",
"g  c #147114711471",
"h  c #190E190E190E",
"j  c #1C311C311C31",
"k  c #1D8F1D8F1D8F",
"l  c #1C531DB31DB3",
"z  c #1CF21DBB1DBB",
"x  c #1DC71DC91DC9",
"c  c #211901D101D1",
"v  c #2700022C022C",
"b  c #2DEF02C202C2",
"n  c #2F53035C035C",
"m  c #27E804910491",
"M  c #318A032D032D",
"N  c #34F703210321",
"B  c #31ED07160716",
"V  c #3C6700000000",
"C  c #3DBF01E301E3",
"Z  c #37D203ED03ED",
"A  c #393203DA03DA",
"S  c #3AA2038A038A",
"D  c #3D7C03E503E5",
"F  c #3F9A038E038E",
"G  c #36F90A4B0A4B",
"H  c #30F70CAB0CAB",
"J  c #33D61EF51EF5",
"K  c #21FF21FF21FF",
"L  c #285228522852",
"P  c #2BA82BA82BA8",
"I  c #2BCC2BCC2BCC",
"U  c #324532453245",
"Y  c #347E347E347E",
"T  c #34C734C734C7",
"R  c #362836283628",
"E  c #371D371D371D",
"W  c #385038503850",
"Q  c #4009033B033B",
"!  c #418002E402E4",
"~  c #420C02DF02DF",
"^  c #446403050305",
"/  c #4084043B043B",
"(  c #42DE048B048B",
")  c #458A06950695",
"_  c #4D9905DD05DD",
"`  c #524C035A035A",
"'  c #5404037C037C",
"]  c #5E8D03800380",
"[  c #5AB507300730",
"{  c #5C2B04EA04EA",
"}  c #5D1906850685",
"|  c #605003E203E2",
" . c #634D041D041D",
".. c #64E304660466",
"X. c #665905560556",
"o. c #676D053E053E",
"O. c #669007480748",
"+. c #68DD049B049B",
"@. c #6CC7050D050D",
"#. c #6EC107500750",
"$. c #6B3F08200820",
"%. c #6EDE07A607A6",
"&. c #73C605240524",
"*. c #739506F006F0",
"=. c #777C05070507",
"-. c #748B05F005F0",
";. c #745506B306B3",
":. c #7B0205E305E3",
">. c #7E2B05970597",
",. c #7E3F07370737",
"<. c #7FAA06B006B0",
"1. c #777B07F107F1",
"2. c #75790ACE0ACE",
"3. c #794308FA08FA",
"4. c #7A0008750875",
"5. c #7A4E09620962",
"6. c #7F9208120812",
"7. c #4284229D229D",
"8. c #4B8720382038",
"9. c #77DA23522352",
"0. c #596159615961",
"q. c #583C5A925A92",
"w. c #5AB45AB55AB5",
"e. c #606660666066",
"r. c #656F656F656F",
"t. c #7C807C807C80",
"y. c #7EE57EE57EE5",
"u. c #804B05F705F7",
"i. c #81EC070D070D",
"p. c #82A706840684",
"a. c #851B06A506A5",
"s. c #867006190619",
"d. c #8B7706760676",
"f. c #8E16067D067D",
"g. c #8F2E065A065A",
"h. c #830909050905",
"j. c #87700A000A00",
"k. c #88780C540C54",
"l. c #994F07270727",
"z. c #9CC707020702",
"x. c #9E9C07350735",
"c. c #90270AEF0AEF",
"v. c #978A0E980E98",
"b. c #991E09D109D1",
"n. c #9E6307E307E3",
"m. c #9D770F030F03",
"M. c #A85C074C074C",
"N. c #A4CD07EE07EE",
"B. c #A50409440944",
"V. c #A4F60B260B26",
"C. c #A7BC0A9A0A9A",
"Z. c #AA9C08490849",
"A. c #A8E30B6C0B6C",
"S. c #AB730B280B28",
"D. c #AC4A0B590B59",
"F. c #AFD70C3D0C3D",
"G. c #B81208FF08FF",
"H. c #B19C0C6F0C6F",
"J. c #B3950CE40CE4",
"K. c #BF2909890989",
"L. c #BF5308E608E6",
"P. c #B9380C190C19",
"I. c #BB490C5F0C5F",
"U. c #BAE80ED70ED7",
"Y. c #BE080CDA0CDA",
"T. c #BF310D990D99",
"R. c #BADC0F900F90",
"E. c #AD0826F926F9",
"W. c #C5B109190919",
"Q. c #C80C0AD60AD6",
"!. c #CDA5092D092D",
"~. c #C98F0CEF0CEF",
"^. c #CECE0DF90DF9",
"/. c #D0D809DF09DF",
"(. c #D2080A750A75",
"). c #D6A00F670F67",
"_. c #DC2F0C1D0C1D",
"`. c #DD7F0CA90CA9",
"'. c #DF3B0CBA0CBA",
"]. c #DFBF0F2C0F2C",
"[. c #CD7412161216",
"{. c #D54316811681",
"}. c #E1EA0AB80AB8",
"|. c #E6100C140C14",
" X c #ECB10FF60FF6",
".X c #E52318AB18AB",
"XX c #F8B5120C120C",
"oX c #85B485B485B4",
"OX c #8E9F8E9F8E9F",
"+X c #9A0C9A0C9A0C",
"@X c #9E929E929E92",
"#X c #A177A177A177",
"$X c #B1F4B1F4B1F4",
"%X c #BE3CBE3CBE3C",
"&X c #BEE1BEE1BEE1",
"*X c #C6C8C81AC81A",
"=X c #C82BC832C832",
"-X c #CB77CB77CB77",
";X c #CCB0CCB0CCB0",
":X c #CEBBCEBBCEBB",
">X c #D14BC8C6C8C6",
",X c #D28CC8B2C8B2",
"<X c #D3B7D3B7D3B7",
"1X c #E004E004E004",
"2X c #E1B8E1B8E1B8",
"3X c #F001F001F001",
"4X c #F1DCF1DCF1DC",
"5X c #F5A1F5A1F5A1",
"6X c #F754F754F754",
"7X c #F7B7F7B7F7B7",
"8X c #F9B2F9B2F9B2",
"9X c #FA9EFA9EFA9E",
"0X c #FBCAFBCAFBCA",
"qX c #FE71FE71FE71",
"wX c #FEBDFEBDFEBD",
"eX c #FFF9FFF9FFF9",
"rX c None",
/* pixels */
"rXrXrXrXrXrXrXrXrXrXrXrXrXrXrXrXrXrXrXrXrXrXrXrXrXrXrXrXrXrXrXrX",
"rXrXrXrXrXrXrXrXrXrXrXrXrXrXrXrXrXrXrXrXrXrXrXrXrXrXrXrXrXrXrXrX",
"rXrXrXwX6X6X6X6X6X6X6X6X6X6X6X6X6X6X6X6X6X6X6X6X6X6X6X6XwXrXrXrX",
"rXrXqX<Xt.0.w.w.w.w.w.w.w.w.w.w.w.w.w.w.w.w.w.w.w.w.0.y.1XeXrXrX",
"rXrX7Xr.-               .                             4 y.7XrXrX",
"rXrX6Xw.  o = o         Q v                             w.6XrXrX",
"rXrX6Xw.  L oXI         @.^ * S :                       w.6XrXrX",
"rXrX6X0.6 +X9X@Xf       &.` e B.p                       w.6XrXrX",
"rXrX6Xw.o Y :XR =       =.] r G.s                       w.6XrXrX",
"rXrX6Xw.  x =Xx         >.` r Q.D                       w.6XrXrX",
"rXrX6Xw.  x =Xx       $ g.' r `.;.  % 2                 w.6XrXrX",
"rXrX6Xw.  x =Xx       : x.| e '.,.  < m                 w.6XrXrX",
"rXrX3Xw.  x =Xx       r /.-.c |.<.  F v.1               w.6XrXrX",
"rXrX3Xw.  x =Xx       a /.a.~ _.D.8 c..XG . ,           w.6XrXrX",
"rXrX6Xw.  x *X7.> q b { N.&.o.K.(./ T.R.2.B k.t A A X   w.6XrXrX",
"rXrX6Xw.  z ,XE.i.V.Y.I.*.u.p.n.~.h.Y.O.1.3.XX4.b.C.$.! q.6XrXrX",
"rXrX6Xw.  z >X9...5.#.n d Z.l.u.j.J.F.Z P.S.U.).[.{.m.V q.6XrXrX",
"rXrX6Xw.  x =Xx   + .   s W.G.X.}  X6.u ^.]._ [ ) H i   w.6XrXrX",
"rXrX6Xw.  x =Xx         9 L.}.M y A.N   %.H.w O O       w.5XrX2X",
"rXrX6Xw.  x =Xx         # z.!.q X D 9   0 ( &           w.4XrXrX",
"rXrX6Xw.  x =Xx           d.M.>   O .                   w.6XrXrX",
"rXrX6Xw.  x =Xx           s.f.                          w.6XrXrX",
"rXrX6Xw.  x =Xx           :.+.                          w.6XrXrX",
"rXrX6Xw.  x =Xx            .C                   ; g     w.6XrXrX",
"rXrX6Xw.  k -XW j x x x l 8.J z x x x x x x x j R #XP   w.6XrXrX",
"rXrX6Xw.  h =X;X=X=X=X=X=X*X*X=X=X=X=X=X=X=X=X=X:X8XOXo w.6XrXrX",
"rXrX6Xw.  @ h x x x x x x x x x x x x x x x x j E $XU   w.6XrXrX",
"rXrX6Xe.                                        3 K o   e.6XrXrX",
"rXrX0X$XT 5 7 7 7 7 7 7 7 7 7 7 7 7 7 7 7 7 7 7 7 5 5 T $X0XrXrX",
"rXrXeX7X;X%X&X&X&X&X&X&X&X&X&X&X&X&X&X&X&X&X&X&X&X&X%X;X7XeXrXrX",
"rXrXrXrXrXrXrXrXrXrXrXrXrXrXrXrXrXrXrXrXrXrXrXrXrXrXrXrXrXrXrXrX",
"rXrXrXrXrXrXrXrXrXrXrXrXrXrXrXrXrXrXrXrXrXrXrXrXrXrXrXrXrXrXrXrX"
};
