/* XPM */
static char *xpm_icon_earth__[] = {
/* columns rows colors chars-per-pixel */
"32 32 256 2",
"   c #002B002B002B",
".  c #0D330D320D30",
"X  c #1387138C1385",
"o  c #1BC61BBB1BA6",
"O  c #274527342712",
"+  c #34DA34E734CB",
"@  c #38A038613820",
"#  c #02D77A1804F7",
"$  c #043B7D760931",
"%  c #09F27AD909DE",
"&  c #0B527DF412A8",
"*  c #096478EF1632",
"=  c #286D7BD659AD",
"-  c #2D6678936161",
";  c #4D614D3C4CEC",
":  c #43C743F343E3",
">  c #569D568E566F",
",  c #5A445A3E5A34",
"<  c #41997F1B6E4D",
"1  c #632163286303",
"2  c #6C376C206C01",
"3  c #75B575A0754D",
"4  c #7D917D737D2C",
"5  c #785F78087797",
"6  c #08ED82A50B3A",
"7  c #0B1E845B13C8",
"8  c #139E85AA1B16",
"9  c #185882EF28E3",
"0  c #1C0A85C2312E",
"q  c #264D8DCF21D6",
"w  c #25778940356A",
"e  c #364F97A03499",
"r  c #1F5C8B1D4779",
"t  c #28EF8B6F45D3",
"y  c #398495BC4855",
"u  c #2BD490065E66",
"i  c #3AC693685234",
"p  c #36EB8DBB592C",
"a  c #3D50A0274B10",
"s  c #3A6B8F786AFE",
"d  c #3A4C874B7701",
"f  c #3DD193CC6561",
"g  c #44469A7E4CAD",
"h  c #4600A1F34A31",
"j  c #4A2DA47052DB",
"k  c #5243A4DE5840",
"l  c #45578EC27E89",
"z  c #4C15964671E5",
"x  c #4683951B7C66",
"c  c #4D8D9AA26B24",
"v  c #5A39AACF6C23",
"b  c #55DFA9556500",
"n  c #618AACBE73FB",
"m  c #60ABA4197D31",
"M  c #6C16B52C732F",
"N  c #7C39BCDF7D14",
"B  c #6A59B2AC6AB9",
"V  c #80D580827F9A",
"C  c #64EE7D11B824",
"Z  c #244B3D16C4A9",
"A  c #26093F14C88E",
"S  c #2D174849C7CB",
"D  c #2B544866D2D1",
"F  c #37474E31DDF4",
"G  c #306D5282D62D",
"H  c #30F144D9C789",
"J  c #3AB570DCDE06",
"K  c #33484E11E7CF",
"L  c #305353DDED74",
"P  c #34A54F66F37E",
"I  c #3862571AF6C6",
"U  c #2B7E5527E5E1",
"Y  c #2C9365CDE917",
"T  c #29FC7822EB36",
"R  c #2A5673A7EB6C",
"E  c #37ED7B7FE55B",
"W  c #2EFB6FE9F0FB",
"Q  c #35156802F7FA",
"!  c #2A517ED2F995",
"~  c #2B997993F50B",
"^  c #37FD78A4FBE8",
"/  c #337C69D8E645",
"(  c #566D699BC653",
")  c #4E277976CCB8",
"_  c #52A27835C895",
"`  c #488776D5D9F6",
"'  c #53D579A0D8EE",
"]  c #4D6F64CECC0F",
"[  c #628A720BCC13",
"{  c #41755A1EE4F6",
"}  c #41C97F22E156",
"|  c #4D566E73F6F8",
" . c #47176A23F81D",
".. c #491674CCF820",
"X. c #537570A4ED92",
"o. c #649A7EBCFFD1",
"O. c #2C1C98459088",
"+. c #3C699FD9B187",
"@. c #4B4D98308F5B",
"#. c #56AA9DDF804B",
"$. c #4EC995E29103",
"%. c #5035960994F0",
"&. c #5A4F9BDD9A5F",
"*. c #486281D28B05",
"=. c #47FFA676951E",
"-. c #7048ADED8FEC",
";. c #7A0BB7A38380",
":. c #6BDCAA888FF9",
">. c #51D08EC8AFFA",
",. c #5DF8915BBA7E",
"<. c #6819964FA56D",
"1. c #67DD8684BBA4",
"2. c #60F292D4BF85",
"3. c #78DA9576B83E",
"4. c #67D88BC7A9CE",
"5. c #79FFAB35AD43",
"6. c #7D09A86BBAF2",
"7. c #64E5A1CAAAB8",
"8. c #1E6C912FF5EC",
"9. c #2F988774EC5B",
"0. c #26DD8543FA5B",
"q. c #26878A09FA04",
"w. c #296B82B6F4C4",
"e. c #25859B72F6C5",
"r. c #364D98A8F9AD",
"t. c #34AE874BF71F",
"y. c #306BA0F4F7D9",
"u. c #4C848185CDB0",
"i. c #5B198C35C59C",
"p. c #51939C76CE5C",
"a. c #4ACD8A23D6B0",
"s. c #4E579B47D1C1",
"d. c #4ECC9011D28E",
"f. c #6FC08BA1CD62",
"g. c #68088B6CC16B",
"h. c #74198EA6C1D7",
"j. c #6AA99616CB8B",
"k. c #7A44876BD6FD",
"l. c #70B59925CDDE",
"z. c #54BEA5C0D76E",
"x. c #7FA8A691CC6C",
"c. c #79BCA35BC4FE",
"v. c #5B4486EFE788",
"b. c #491895BEE1DD",
"n. c #4C64982AEED4",
"m. c #418E8D9BF2D5",
"M. c #5EF88255FA8B",
"N. c #54438139F975",
"B. c #438F9071F96F",
"V. c #4F9E9279E47D",
"C. c #76DD956EEBA2",
"Z. c #6E7585ACFCE6",
"A. c #670487B6FBB1",
"S. c #7A648DCDFCA3",
"D. c #71478A0AF9CA",
"F. c #7D53905BFB53",
"G. c #40FDA80EE553",
"H. c #8665867D8674",
"J. c #8B4F8B3A8A8A",
"K. c #913F91248FE8",
"L. c #967896639633",
"P. c #99FB9A459AC8",
"I. c #86ADBB159448",
"U. c #89CDAEC4AD95",
"Y. c #928EA055C008",
"T. c #9733B9DBBA8E",
"R. c #8DE6B55BB425",
"E. c #A2DFA2FAA24B",
"W. c #B32EB35AB3E6",
"Q. c #BCD6BCEBBD38",
"!. c #B68BB7B6BA6A",
"~. c #9042C65A9663",
"^. c #A2DECFE998E3",
"/. c #9C60C91EA5CF",
"(. c #999CC28BB569",
"). c #A0A8CDD8A65E",
"_. c #A026C9D7AAF9",
"`. c #B2C2D909AF4D",
"'. c #B3FAD7C6B96E",
"]. c #B71AD8FFBD17",
"[. c #A74BCC28BB3D",
"{. c #86139683CA80",
"}. c #84E88E63D577",
"|. c #8E399B05D212",
" X c #95E69E9FD844",
".X c #89DCA09ACD1C",
"XX c #9C57BC0BCDD1",
"oX c #8519A763D3F7",
"OX c #91DFA361D39E",
"+X c #9E28AD26D0D4",
"@X c #9D40AB8CDB07",
"#X c #981FA705DA6D",
"$X c #9BBAA6ABC4F6",
"%X c #A59FB52CCE6B",
"&X c #A995BB9DCF4D",
"*X c #AD51BF59D56B",
"=X c #A903B90ED910",
"-X c #8D3E98D3E149",
";X c #85E39A20FA7A",
":X c #86AD9B69F653",
">X c #9285A0AEE214",
",X c #984AA971E6B0",
"<X c #9CC8B47FECB1",
"1X c #8C3DA119F63D",
"2X c #951FAA0EF834",
"3X c #A2D0ACD2E79A",
"4X c #A5B0B3D7E2E9",
"5X c #A4B1B9E2E506",
"6X c #AC7DBB51EB5F",
"7X c #AA93B971E64C",
"8X c #ACFECAF8CA84",
"9X c #B137CE8EC7B6",
"0X c #B476D4E3C16C",
"qX c #BC84D9DACC1A",
"wX c #BA8AD7C6C733",
"eX c #ACDFC688D588",
"rX c #BA54D007D689",
"tX c #BCDDD6DCD2A8",
"yX c #B01FC31EE2E3",
"uX c #BAC4C6CFE6BF",
"iX c #B7E0C411F0A6",
"pX c #C4B4C4E9C597",
"aX c #C78DC892CB59",
"sX c #CC54CC3FCC7F",
"dX c #C399C59BCBFC",
"fX c #C38FDEF9CDEB",
"gX c #CAF1CD68D1F7",
"hX c #CFB2D194D7C9",
"jX c #C8ACDA4BD768",
"kX c #D59AD6A1DB1E",
"lX c #DD9BDDABDF48",
"zX c #D5E9D5F6DA0A",
"xX c #C6B1E3F4CD0D",
"cX c #CAD4E965CC8C",
"vX c #CADBE5C9D58F",
"bX c #C73CE221D381",
"nX c #C343C670EC53",
"mX c #C68CC9A1EBFE",
"MX c #CA55CE5CEC33",
"NX c #C9C2D2C0ECAF",
"BX c #DB3ADCF6E2BF",
"VX c #D844DC50EA6E",
"CX c #C507CD99F34B",
"ZX c #D4E0D996F563",
"AX c #DFA5E1F4E9F0",
"SX c #DF55E474F80D",
"DX c #E35CE417E5DE",
"FX c #ECF2ECF2ECF2",
"GX c #E7B8E9D8F466",
"HX c #EC4BEDD8F3A1",
"JX c #E469E7DAFC58",
"KX c #E5B8EA78FB84",
"LX c #F015F10CF94F",
"PX c #F202F202F202",
"IX c #F39FF3B1F89A",
"UX c None",
/* pixels */
"UXUXUXUXUXUXUXUXUXUXUXUXUXUXUXUXUXUXUXUXUXUXUXUXUXUXUXUXUXUXUXUX",
"UXUXlXDXFXFXFXFXFXFXFXFXFXFXFXFXFXFXFXFXFXFXFXFXFXFXFXFXDXlXUXUX",
"UXUXFXIXsXQ.Q.Q.Q.Q.Q.Q.Q.Q.!.!.!.!.Q.Q.Q.Q.Q.Q.Q.Q.Q.sXIXFXUXUX",
"UXUXIXL.O . . . . . . O ; 5 J.K.K.J.5 ; O . . . . . . + W.IXUXUX",
"UXUXPX,           X 1 Q.VXVXMXmXnXmXVXAXaX5 o           , PXUXUX",
"UXUXPX,         + W.AXmX#X@X=X*X&X%X=X=XuXGXpX:         , PXUXUX",
"UXUXPX,       ; dXMX#X+X9XbXvXxXcXxXfXrXOX XMXBX,       , PXUXUX",
"UXUXPX,     : kXnX X*XxXvXjXbXfX].'.`.wXNX,X}.nXDX;     , PXUXUX",
"UXUXPX,   O pXMX|.eXqX'.0XtXqXtX0X).^.0XCXiX3X{.NXQ.o   , PXUXUX",
"UXUXPX,   L.SX{.U./.)._./.9X9X8X8X~.[.9XeX6XyXT.|.JXJ.  , PXUXUX",
"UXUXPX> + DX4X4.;.N ;.I.eXeX8XyX*X(.6X7X&X5XT./.3.7XDX@ > PXUXUX",
"UXUXPX, V KX[ 1.;.B M M (.T.;.R.5X<X2X2X<XXX(.~.m h.KX4 , PXUXUX",
"UXUXFX2 W.iXH X.5.k v b v v j -.,X1X1X:X#XI.-.n e *.ZXQ.2 FXUXUX",
"UXUXFX5 hX>XZ { j.h h j j a v oX;X:X:X;XoXn b b q = 6XlX3 FXUXUX",
"UXUXFX3 kX}.Z F ' c e y g k x.;XS.S.S.F.c.:.6.5.z - OXlX3 FXUXUX",
"UXUXFX3 kXk.A F  .i.y g 6.c.C.Z.Z.Z.Z.C.#.i i z &.d .XkX3 FXUXUX",
"UXUXFX3 kXk.A K I | >.z :.x.l.D.A.M.o.l.w 8 7 & 8 = >XlX3 FXUXUX",
"UXUXFX3 zX-XZ K P I | v.,.7.f x j.A.o.2.8 6 7 * $ = 3XkX3 FXUXUX",
"UXUXFX2 pX6XH D K I Q  .M.%.& 6 w %.v.v.l d t & $ < CXsX3 FXUXUX",
"UXUXPX, P.SX( D L Q Q Q N.$.& $ # 0 a.....| i.9 * <.JXE.1 PXUXUX",
"UXUXPX> > HXOXS U Y W ^ ^ V.s # # u b.^ Q Q ' w = 5XIX, > PXUXUX",
"UXUXPX, X Q.VX( G Y R ~ ! B.@.% r s.t.! ~ W u.p <.JXpXX , PXUXUX",
"UXUXPX,   , HX4X] / T w.q.b.t 9 +.r.q.0.T Y ` g.uXHX>   , PXUXUX",
"UXUXPX,   . J.HX#X' E 9.q.s.t O.y.e.8.w.E J ' 3XLXJ..   , PXUXUX",
"UXUXPX,     X L.GX@X_ } r.z.=.G.y.e.r.m.` _ @XHXP.X     , PXUXUX",
"UXUXPX,       X H.BX$XC ) d.p.n.n.b.a.) C +XBXH.X       , PXUXUX",
"UXUXPX,         . , !.dXY.h.h.f.f.1.3.%XhXQ.> .         , PXUXUX",
"UXUXPX4 .           X , P.Q.gXhXhXaX!.P., X           . 4 PXUXUX",
"UXUXIXlX4 > , , , , > > 1 2 3 3 3 3 3 1 > , , , , , > 4 lXIXUXUX",
"UXUXlXIXPXPXPXPXPXPXPXPXPXFXFXFXFXFXFXPXPXPXPXPXPXPXPXPXIXlXUXUX",
"UXUXlXUXUXUXUXUXUXUXUXUXUXUXUXUXUXUXUXUXUXUXUXUXUXUXUXUXUXlXUXUX",
"UXUXUXUXUXUXUXUXUXUXUXUXUXUXUXUXUXUXUXUXUXUXUXUXUXUXUXUXUXUXUXUX"
};
