/* XPM */
static char *xpm_icon_sixty__[] = {
/* columns rows colors chars-per-pixel */
"32 32 230 2",
"   c #000100010001",
".  c #008900890089",
"X  c #01E801E801E8",
"o  c #02DB02DB02DB",
"O  c #045904590459",
"+  c #050605060506",
"@  c #060806080608",
"#  c #070F070F070F",
"$  c #09CB09CB09CB",
"%  c #0B610B610B61",
"&  c #0C220C220C22",
"*  c #0D160D160D16",
"=  c #0E1F0E1F0E1F",
"-  c #0EB10EB10EB1",
";  c #17E800000000",
":  c #1B2401F801F8",
">  c #1C51020E020E",
",  c #1D33021F021F",
"<  c #1E5802340234",
"1  c #103610361036",
"2  c #112011201120",
"3  c #120E120E120E",
"4  c #137313731373",
"5  c #140A140A140A",
"6  c #151815181518",
"7  c #173A173A173A",
"8  c #17F117F117F1",
"9  c #1A2D1A2D1A2D",
"0  c #1AF71AF71AF7",
"q  c #1C481C481C48",
"w  c #1D221D221D22",
"e  c #386804180418",
"r  c #3A82043E043E",
"t  c #3B47044C044C",
"y  c #3CA9045F045F",
"u  c #20E720E720E7",
"i  c #232E232E232E",
"p  c #23BA23BA23BA",
"a  c #262426242624",
"s  c #275027502750",
"d  c #291E291E291E",
"f  c #2F602F602F60",
"g  c #30E930E930E9",
"h  c #390339033903",
"j  c #403504820482",
"k  c #420D04C604C6",
"l  c #454104F204F2",
"z  c #49B705460546",
"x  c #50CF05D105D1",
"c  c #521B05DE05DE",
"v  c #543006100610",
"b  c #57A406400640",
"n  c #5B9506B506B5",
"m  c #609E071B071B",
"M  c #68C9079C079C",
"N  c #6C0D07D707D7",
"B  c #6E2007E807E8",
"V  c #7494086F086F",
"C  c #768707C107C1",
"Z  c #78C708860886",
"A  c #7DC008E508E5",
"S  c #420D420D420D",
"D  c #430C430C430C",
"F  c #445744574457",
"G  c #4A744A744A74",
"H  c #4F244F244F24",
"J  c #528B528B528B",
"K  c #558F558F558F",
"L  c #568E568E568E",
"P  c #585458545854",
"I  c #59A859A859A8",
"U  c #59F059F059F0",
"Y  c #67735B025B02",
"T  c #61A561A561A5",
"R  c #649464946494",
"E  c #696F696F696F",
"W  c #6B766B766B76",
"Q  c #6CBD6CBD6CBD",
"!  c #6D086D086D08",
"~  c #760A760A760A",
"^  c #770A770A770A",
"/  c #781378137813",
"(  c #7B187B187B18",
")  c #7D357D357D35",
"_  c #7E5C7E5C7E5C",
"`  c #840109850985",
"'  c #888309C809C8",
"]  c #898B09FB09FB",
"[  c #8A6E0A020A02",
"{  c #8CB30A2C0A2C",
"}  c #8FD80A430A43",
"|  c #955E0A010A01",
" . c #97DC0B230B23",
".. c #9BA50B4D0B4D",
"X. c #9CEF0B570B57",
"o. c #9D8F0B500B50",
"O. c #9DE90B910B91",
"+. c #95F016081608",
"@. c #A3220BB60BB6",
"#. c #A66D0C1C0C1C",
"$. c #A9310C560C56",
"%. c #AEC40CBD0CBD",
"&. c #AFAF0CC00CC0",
"*. c #B1790CDE0CDE",
"=. c #B50C0D200D20",
"-. c #B9920D870D87",
";. c #BAC50D8D0D8D",
":. c #BC2E0CC90CC9",
">. c #C0380DF30DF3",
",. c #C3970E380E38",
"<. c #C4550E5B0E5B",
"1. c #D0EF0E3B0E3B",
"2. c #DE4F0CBD0CBD",
"3. c #DD0E0F2B0F2B",
"4. c #DE540F3D0F3D",
"5. c #D81D0FB00FB0",
"6. c #D9710FCD0FCD",
"7. c #DCEC100E100E",
"8. c #DDE5101B101B",
"9. c #DEFA102E102E",
"0. c #E0DC0F6C0F6C",
"q. c #F9D60EDA0EDA",
"w. c #FBC70EF30EF3",
"e. c #E41E101B101B",
"r. c #E6760FD40FD4",
"t. c #EB1310251025",
"y. c #E1781B981B98",
"u. c #E34B1BB41BB4",
"i. c #E5781BF31BF3",
"p. c #EFA81B3D1B3D",
"a. c #EDAA1C7D1C7D",
"s. c #EEFE1C921C92",
"d. c #F0191CA61CA6",
"f. c #F16C11881188",
"g. c #F63211E111E1",
"h. c #F99711311131",
"j. c #F90012131213",
"k. c #FA73122E122E",
"l. c #FAE412361236",
"z. c #FD3A12621262",
"x. c #FE90127A127A",
"c. c #F0E51CB51CB5",
"v. c #DCF838913891",
"b. c #CB9C5DAC5DAC",
"n. c #D7EF5DD35DD3",
"m. c #DC095A2B5A2B",
"M. c #DCF15A3D5A3D",
"N. c #C8DD61FD61FD",
"B. c #D6A662A362A3",
"V. c #D66C62F962F9",
"C. c #D757630A630A",
"Z. c #D25566A066A0",
"A. c #826F826F826F",
"S. c #83E783E783E7",
"D. c #868A868A868A",
"F. c #874F874F874F",
"G. c #898189818981",
"H. c #8A378A378A37",
"J. c #8BD68BD68BD6",
"K. c #8DA58DA58DA5",
"L. c #927992799279",
"P. c #949A949A949A",
"I. c #9A799A799A79",
"U. c #9B719B719B71",
"Y. c #A37FA37FA37F",
"T. c #A6B2A6B2A6B2",
"R. c #AB0EAB0EAB0E",
"E. c #B0A4B0A4B0A4",
"W. c #B1F2B1F2B1F2",
"Q. c #B264B264B264",
"!. c #B3DBB3DBB3DB",
"~. c #B4BCB4BCB4BC",
"^. c #B79DB79DB79D",
"/. c #B8BCB8BCB8BC",
"(. c #B987B987B987",
"). c #BBB5BBB5BBB5",
"_. c #BF47BF47BF47",
"`. c #D01BA6FBA6FB",
"'. c #CD5BAB4DAB4D",
"]. c #DF28B816B816",
"[. c #DFB1B832B832",
"{. c #E286B867B867",
"}. c #C145C145C145",
"|. c #C43AC43AC43A",
" X c #C476C476C476",
".X c #C5D2C5D2C5D2",
"XX c #C704C704C704",
"oX c #CB75CB75CB75",
"OX c #CE62CE62CE62",
"+X c #DDC8C465C465",
"@X c #D0E1D0E1D0E1",
"#X c #D1ACD1ACD1AC",
"$X c #D339D339D339",
"%X c #D459D459D459",
"&X c #D8A7D8A7D8A7",
"*X c #D9CAD9CAD9CA",
"=X c #DAEADAEADAEA",
"-X c #DBE9DBE9DBE9",
";X c #DCF1DCEFDCEF",
":X c #DDABDDABDDAB",
">X c #DE61DE61DE61",
",X c #E034E034E034",
"<X c #E22AE22AE22A",
"1X c #E28CE28CE28C",
"2X c #E41EE41EE41E",
"3X c #E4C6E4DCE4DC",
"4X c #E6F4E6F4E6F4",
"5X c #EA01EA01EA01",
"6X c #E886EAD8EAD8",
"7X c #EB51EB51EB51",
"8X c #ECCAECE0ECE0",
"9X c #EE08EDDCEDDC",
"0X c #EE78EE3DEE3D",
"qX c #EE18EFAEEFAE",
"wX c #EF21EF21EF21",
"eX c #ECC5F0F8F0F8",
"rX c #F159F15EF15E",
"tX c #F1CBF1CBF1CB",
"yX c #F4B1F402F402",
"uX c #F3CFF565F565",
"iX c #F4E3F4E3F4E3",
"pX c #F647F647F647",
"aX c #F781F574F574",
"sX c #F6ABF6ABF6AB",
"dX c #F8F7F8F7F8F7",
"fX c #FA8FFA8FFA8F",
"gX c #FDA5FDA5FDA5",
"hX c #FEE9FEE9FEE9",
"jX c #FFFEFFFEFFFE",
"kX c None",
/* pixels */
"kXkXkXkXkXkXkXkXkXkXkXkXkXkXkXkXkXkXkXkXkXkXkXkXkXkXkXkXkXkXkXkX",
"kXkX;X3X6X6X6X6X6X6X6X6X6X6X6X6X6X6X6X6X6X6X6X6X6X6X6X6X3X;XkXkX",
"kXkX8XaX+X].].].].].[.[.{.[.].].].].].].].].].].].].].+XaX8XkXkX",
"kXkXyX`.v.p.s.s.s.a.i.y.+.u.c.c.d.c.d.s.d.d.s.s.s.s.p.v.'.uXkXkX",
"kXkX9Xn.q.h.h.h.h.:.| 1.C 3.0.3.e.4.t.h.r.t.h.h.h.h.h.q.Z.eXkXkX",
"kXkX0Xm.q.j.j.j.g.V x o.l %.t n z b V =.M B 7.k.j.j.j.q.B.eXkXkX",
"kXkX0Xm.q.j.j.j.z.} ` e.e >.r ] j Z v N b X.5.k.j.j.j.q.V.eXkXkX",
"kXkX0XM.w.l.l.l.x...m -.t ;.y [ l A c [ k &.f.l.l.l.l.w.C.eXkXkX",
"kXkXqXb.2.8.8.8.9.<. .$.' *.[ #.[ @.' ,.{ O.6.8.8.8.8.2.N.eXkXkX",
"kXkXrXY ; : : : : > < , < > < , < , < > < , : : : : : ; Y rXkXkX",
"kXkXrXU                                                 U rXkXkX",
"kXkXrXU                   X O .       o X               U rXkXkX",
"kXkXrXU             o p T ( J @   % L J.F.F +           U rXkXkX",
"kXkXrXU           3 ^ @XT.G 6 . @ S.4X! J.3XR X         U rXkXkX",
"kXkXrXU         8 T.iXF.=       S wX%X5 g 9X-Xd         U rXkXkX",
"kXkXrXU       # L.jX~.2         G.jXoX3 q 3XhXE         U rXkXkX",
"kXkXrXU       D 0XfXQ u w +   - ).jX}.- 0 2XjXU.O       U rXkXkX",
"kXkXrXU     o P.jXsXXX1X;X) & 7 &XjXQ.$ 0 2XjX!.&       U rXkXkX",
"kXkXrXU     3 .XjX*XG K.fXdXW 0 2XjXQ.$ 0 2XjX X2       U rXkXkX",
"kXkXrXU     0 <XjX X1 w &XjX(.d >XjXW.$ 0 2XjX/.*       U rXkXkX",
"kXkXrXU     9 :XjX X1 * (.jXoXa |.jX!.$ 0 2XjXY.#       U rXkXkX",
"kXkXrXU     = (.jX$X6 $ W.jX_.5 I.jX.X1 9 2XjX/         U rXkXkX",
"kXkXrXU       ~ jX5Xf $ !.jXD.  K dX#X4 s 5X7Xh         U rXkXkX",
"kXkXrXU       q ).gXA.h =XOXd   = T.wXH W 8XS.@         U rXkXkX",
"kXkXrXU         i H.^.R.L.f       q D.E.E.E %           U rXkXkX",
"kXkXrXU           O 3 5 @           + 4 1 X             U rXkXkX",
"kXkXrXI                                                 I rXkXkX",
"kXkXtX_ &                                             & _ tXkXkX",
"kXkXpX,X_ P U U U U U U U U U U U U U U U U U U U U P _ ,XpXkXkX",
"kXkX,XsXtXrXrXrXrXrXrXrXrXrXrXrXrXrXrXrXrXrXrXrXrXrXrXtXsX,XkXkX",
"kXkX,XkXkXkXkXkXkXkXkXkXkXkXkXkXkXkXkXkXkXkXkXkXkXkXkXkXkX,XkXkX",
"kXkXkXkXkXkXkXkXkXkXkXkXkXkXkXkXkXkXkXkXkXkXkXkXkXkXkXkXkXkXkXkX"
};
