/* XPM */
static char *xpm_icon_pause__[] = {
/* columns rows colors chars-per-pixel */
"32 32 39 1",
"  c black",
". c #030A030A030A",
"X c #0C6B0C6B0C6B",
"o c #0DD20DD20DD2",
"O c #0F4B0F4B0F4B",
"+ c #18DA18DA18DA",
"@ c #1BF21BF21BF2",
"# c #34C634C634C6",
"$ c #400040004000",
"% c #585458545854",
"& c #59A859A859A8",
"* c #59F059F059F0",
"= c #5FA35FA35FA3",
"- c #720E720E720E",
"; c #7E5C7E5C7E5C",
": c #801480148014",
"> c #827282728272",
", c #B1D9B1D9B1D9",
"< c #BE1FBE1FBE1F",
"1 c #BEC6BEC6BEC6",
"2 c #CB42CB42CB42",
"3 c #CCA1CCA1CCA1",
"4 c #DCF8DCF8DCF8",
"5 c #E034E034E034",
"6 c #E41CE41CE41C",
"7 c #E4A7E4A7E4A7",
"8 c #E5CBE5CBE5CB",
"9 c #E877E877E877",
"0 c #EA24EA24EA24",
"q c #EABEEABEEABE",
"w c #EC92EC92EC92",
"e c #F15BF15BF15B",
"r c #F1CBF1CBF1CB",
"t c #F534F534F534",
"y c #F647F647F647",
"u c #F6B0F6B0F6B0",
"i c #F7E1F7E1F7E1",
"p c gray100",
"a c None",
/* pixels */
"aaaaaaaaaaaaaaaaaaaaaaaaaaaaaaaa",
"aa470qqqqqqqqqqqqqqqqqqqqqq074aa",
"aawi3<11111111111111111111<3iwaa",
"aat,#oOOOOOOOOOOOOOOOOOOOOo#,taa",
"aae=                        =eaa",
"aae*                        *eaa",
"aae*                        *eaa",
"aae*                        *eaa",
"aae*                        *eaa",
"aae*     .+@@@o .+@@@o      *eaa",
"aae*     +2869- +2869-      *eaa",
"aae*     @6ppp: @6ppp:      *eaa",
"aae*     @6ppp: @6ppp:      *eaa",
"aae*     @6ppp: @6ppp:      *eaa",
"aae*     @6ppp: @6ppp:      *eaa",
"aae*     @6ppp: @6ppp:      *eaa",
"aae*     @6ppp: @6ppp:      *eaa",
"aae*     @6ppp: @6ppp:      *eaa",
"aae*     @6ppp: @6ppp:      *eaa",
"aae*     @6ppp: @6ppp:      *eaa",
"aae*     @6ppp: @6ppp:      *eaa",
"aae*     o-::>$ o-::>$      *eaa",
"aae*                        *eaa",
"aae*                        *eaa",
"aae*                        *eaa",
"aae*                        *eaa",
"aae&                        &eaa",
"aar;X                      X;raa",
"aay5;%********************%;5yaa",
"aa5ureeeeeeeeeeeeeeeeeeeeeeru5aa",
"aa5aaaaaaaaaaaaaaaaaaaaaaaaaa5aa",
"aaaaaaaaaaaaaaaaaaaaaaaaaaaaaaaa"
};
