/* XPM */
static char * xpm_icon_quakelist32_xpm[] = {
"32 32 158 2",
"  	c None",
". 	c #DCDCDC",
"+ 	c #E4E4E4",
"@ 	c #EAEAEA",
"# 	c #ECECEC",
"$ 	c #F7F7F7",
"% 	c #CCCCCC",
"& 	c #BEBEBE",
"* 	c #F5F5F5",
"= 	c #B1B1B1",
"- 	c #343434",
"; 	c #0D0D0D",
"> 	c #0F0F0F",
", 	c #F1F1F1",
"' 	c #5F5F5F",
") 	c #000000",
"! 	c #4D4D4D",
"~ 	c #565656",
"{ 	c #5C5C5C",
"] 	c #333333",
"^ 	c #555555",
"/ 	c #686868",
"( 	c #3E3E3E",
"_ 	c #060606",
": 	c #595959",
"< 	c #666666",
"[ 	c #818181",
"} 	c #969696",
"| 	c #7A7A7A",
"1 	c #747474",
"2 	c #777777",
"3 	c #929292",
"4 	c #898989",
"5 	c #646464",
"6 	c #868686",
"7 	c #9A9A9A",
"8 	c #797979",
"9 	c #717171",
"0 	c #757575",
"a 	c #979797",
"b 	c #8F8F8F",
"c 	c #1B1B1B",
"d 	c #909090",
"e 	c #999999",
"f 	c #767676",
"g 	c #707070",
"h 	c #727272",
"i 	c #939393",
"j 	c #626262",
"k 	c #6E6E6E",
"l 	c #919191",
"m 	c #9C9C9C",
"n 	c #1C1C1C",
"o 	c #505050",
"p 	c #9D9D9D",
"q 	c #9B9B9B",
"r 	c #6A6A6A",
"s 	c #6B6B6B",
"t 	c #6F6F6F",
"u 	c #A7A7A7",
"v 	c #202020",
"w 	c #4A4A4A",
"x 	c #A6A6A6",
"y 	c #A3A3A3",
"z 	c #7C7C7C",
"A 	c #A2A2A2",
"B 	c #B3B3B3",
"C 	c #222222",
"D 	c #484848",
"E 	c #AEAEAE",
"F 	c #828282",
"G 	c #7B7B7B",
"H 	c #B0B0B0",
"I 	c #BDBDBD",
"J 	c #2E2E2E",
"K 	c #B8B8B8",
"L 	c #C0C0C0",
"M 	c #7E7E7E",
"N 	c #BCBCBC",
"O 	c #C6C6C6",
"P 	c #323232",
"Q 	c #040404",
"R 	c #393939",
"S 	c #3D3D3D",
"T 	c #434343",
"U 	c #BFBFBF",
"V 	c #CBCBCB",
"W 	c #7F7F7F",
"X 	c #C8C8C8",
"Y 	c #4E4E4E",
"Z 	c #3F3F3F",
"` 	c #020202",
" .	c #0A0A0A",
"..	c #454545",
"+.	c #959595",
"@.	c #A8A8A8",
"#.	c #CACACA",
"$.	c #D6D6D6",
"%.	c #848484",
"&.	c #D3D3D3",
"*.	c #303030",
"=.	c #E1E1E1",
"-.	c #DADADA",
";.	c #7D7D7D",
">.	c #D2D2D2",
",.	c #DEDEDE",
"'.	c #E5E5E5",
").	c #0E0E0E",
"!.	c #3C3C3C",
"~.	c #D0D0D0",
"{.	c #8D8D8D",
"].	c #8C8C8C",
"^.	c #535353",
"/.	c #4C4C4C",
"(.	c #8A8A8A",
"_.	c #E8E8E8",
":.	c #5B5B5B",
"<.	c #303031",
"[.	c #424242",
"}.	c #444444",
"|.	c #464646",
"1.	c #191919",
"2.	c #131313",
"3.	c #D8D8D8",
"4.	c #474747",
"5.	c #656565",
"6.	c #D4D4D4",
"7.	c #363636",
"8.	c #353535",
"9.	c #E3E3E3",
"0.	c #787878",
"a.	c #5D5D5D",
"b.	c #F4F4F4",
"c.	c #141415",
"d.	c #575757",
"e.	c #494949",
"f.	c #585858",
"g.	c #BBBBBB",
"h.	c #FAFAFA",
"i.	c #292929",
"j.	c #010101",
"k.	c #161616",
"l.	c #C7C7C7",
"m.	c #CDCDCD",
"n.	c #C2C2C2",
"o.	c #262626",
"p.	c #545454",
"q.	c #D9D9D9",
"r.	c #FFFFFF",
"s.	c #141414",
"t.	c #E0E0E0",
"u.	c #151515",
"v.	c #070707",
"w.	c #D7D7D7",
"x.	c #2C2C2C",
"y.	c #030303",
"z.	c #0C0C0C",
"A.	c #F6F6F6",
"                                                                ",
"    . + @ @ @ @ @ @ @ @ @ @ @ @ @ @ @ @ @ @ @ @ @ @ @ @ + .     ",
"    # $ % & & & & & & & & & & & & & & & & & & & & & & % $ #     ",
"    * = - ; > > > > > > > > > > > > > > > > > > > > ; - = *     ",
"    , ' ) ) ) ) ) ) ) ) ! ~ { ] ^ ' / ! ( _ ) ) ) ) ) ) ' ,     ",
"    , : ) ) ) ) ) ) ) ) < [ } | 1 1 2 3 4 > ) ) ) ) ) ) : ,     ",
"    , : ) ) ) ) ) ) ) ) 5 6 7 8 9 9 0 a b c ) ) ) ) ) ) : ,     ",
"    , : ) ) ) ) ) ) ) ) 5 d e f g g h i } c ) ) ) ) ) ) : ,     ",
"    , : ) ) ) ) ) ) ) ) j a e 1 k k g l m n ) ) ) ) ) ) : ,     ",
"    , : ) ) ) ) ) ) ) ) o p q h r s t } u v ) ) ) ) ) ) : ,     ",
"    , : ) ) ) ) ) ) ) ) w x y h k 1 z A B C ) ) ) ) ) ) : ,     ",
"    , : ) ) ) ) ) ) ) ) D E B F | G [ H I J ) ) ) ) ) ) : ,     ",
"    , : ) ) ) ) ) ) ) ) ! K L 4 0 f M N O P ) ) ) ) ) ) : ,     ",
"    , : ) ) Q - R S T S 5 U V b k k W X V f T Y Z ` ) ) : ,     ",
"    , : ) )  .../ +.@.@.y #.$.} < < %.&.&.E @.@.a *.) ) : ,     ",
"    , : ) ) ; ..K =.. -.$.-.$.l { { ;.>.=.,.+ + '.W ) ) : ,     ",
"    , : ) ) ).!.e -.~.{.[ ].f ^././.o G 3 (.i ~._.:.) ) : ,     ",
"    , : ) )  .<.D 4 &.{.D [.}...|.|.|.T [.Z f ,.B 1.) ) : ,     ",
"    , : ) ) ) 2.] ^.K 3.F Y |.|.4.|.|...T 5.6.=.7.) ) ) : ,     ",
"    , : ) ) ) ) ).8.%.9.>.0.^.4.|.|.|.}.a.O b.q _ ) ) ) : ,     ",
"    , : ) ) ) ) ) c.!.E $ X h d.e.|...f.g.h.U i.) ) ) ) : ,     ",
"    , : ) ) ) ) ) j.k.e.l.h.m.0.f.e.j n.h.m.o.) ) ) ) ) : ,     ",
"    , : ) ) ) ) ) ) j.1.p.q.r.6.0.0.m.r.9.s.) ) ) ) ) ) : ,     ",
"    , : ) ) ) ) ) ) ) Q k.5 t.r.=.,.r.'.P ) ) ) ) ) ) ) : ,     ",
"    , : ) ) ) ) ) ) ) ) ) u.5 =.r.r.@ *.) ) ) ) ) ) ) ) : ,     ",
"    , : ) ) ) ) ) ) ) ) ) ) v.{ &.w.d.) ) ) ) ) ) ) ) ) : ,     ",
"    , : ) ) ) ) ) ) ) ) ) ) ) Q 8.x.y.) ) ) ) ) ) ) ) ) : ,     ",
"    , M z.) ) ) ) ) ) ) ) ) ) ) ) ) ) ) ) ) ) ) ) ) ) z.M ,     ",
"    A.t.M f.: : : : : : : : : : : : : : : : : : : : f.M t.A.    ",
"    t.A., , , , , , , , , , , , , , , , , , , , , , , , A.t.    ",
"    t.                                                    t.    ",
"                                                                "};
