/* XPM */
static char *xpm_icon_threed__[] = {
/* columns rows colors chars-per-pixel */
"32 32 153 2",
"   c #000200010001",
".  c #011400000000",
"X  c #00DB00D300D3",
"o  c #022000000000",
"O  c #02FD00000000",
"+  c #038103810381",
"@  c #03FD00000000",
"#  c #050700000000",
"$  c #06DA00000000",
"%  c #046504650465",
"&  c #04B604B604B6",
"*  c #060F06150615",
"=  c #081700020002",
"-  c #090300000000",
";  c #0A6000000000",
":  c #095A095A095A",
">  c #0C6B0C6B0C6B",
",  c #0D7C0D7C0D7C",
"<  c #0D9D0D9D0D9D",
"1  c #0F4A0F4A0F4A",
"2  c #100800000000",
"3  c #111600000000",
"4  c #167100000000",
"5  c #1CA400000000",
"6  c #1F6600000000",
"7  c #1343133B133B",
"8  c #19E219E219E2",
"9  c #1C361C391C39",
"0  c #1CFA1CFA1CFA",
"q  c #1D881DC31DC3",
"w  c #1E4A1E4B1E4B",
"e  c #1EDA1DE81DE8",
"r  c #1EDD1EDD1EDD",
"t  c #21FE00000000",
"y  c #240300000000",
"u  c #31C600000000",
"i  c #347000000000",
"p  c #354700000000",
"a  c #375700000000",
"s  c #37EA00000000",
"d  c #3BE800000000",
"f  c #3D4A00000000",
"g  c #3DF700000000",
"h  c #21181E381E38",
"j  c #3F431DC31DC3",
"k  c #222322232223",
"l  c #275827602760",
"z  c #28C428C428C4",
"x  c #2CA92CA92CA9",
"c  c #327C327C327C",
"v  c #350535053505",
"b  c #3645361D361D",
"n  c #383D383D383D",
"m  c #416400000000",
"M  c #449300000000",
"N  c #456C00000000",
"B  c #4AC000000000",
"V  c #4D2500000000",
"C  c #507100000000",
"Z  c #515000000000",
"A  c #538F00000000",
"S  c #552900000000",
"D  c #595500000000",
"F  c #5A9A00000000",
"G  c #5CB100000000",
"H  c #53F01DE81DE8",
"J  c #62D900000000",
"K  c #66EE00000000",
"L  c #682E00000000",
"P  c #756F00000000",
"I  c #75FA00000000",
"U  c #771E00000000",
"Y  c #795900000000",
"T  c #7A9700000000",
"R  c #7CF400000000",
"E  c #7F5C00000000",
"W  c #592559255925",
"Q  c #5AB35AB25AB2",
"!  c #606660666066",
"~  c #7EE57EE57EE5",
"^  c #802E00000000",
"/  c #868700000000",
"(  c #896100000000",
")  c #8E8400000000",
"_  c #90D400000000",
"`  c #91DC00000000",
"'  c #92FD00000000",
"]  c #97A200000000",
"[  c #98A200000000",
"{  c #999200000000",
"}  c #9A6E00000000",
"|  c #9B9B00000000",
" . c #9D2300000000",
".. c #9E3300000000",
"X. c #A0E000000000",
"o. c #A29E00000000",
"O. c #A72B00000000",
"+. c #ADB400000000",
"@. c #B03E00000000",
"#. c #B17C00000000",
"$. c #B59400000000",
"%. c #B7E100000000",
"&. c #BE7000000000",
"*. c #C40500000000",
"=. c #C98D00000000",
"-. c #DA2D00000000",
";. c #DF4700000000",
":. c #E35400000000",
">. c #E69D00000000",
",. c #E82E00000000",
"<. c #E93100000000",
"1. c #EAD800000000",
"2. c #EC6B00000000",
"3. c #ED3C00000000",
"4. c #EE2200000000",
"5. c #EED800000000",
"6. c #F61C00000000",
"7. c #F98800000000",
"8. c #FA8100000000",
"9. c #FBB900000000",
"0. c #FD9300000000",
"q. c #FE8B00000000",
"w. c red",
"e. c #85F785F785F7",
"r. c #8CEB8CEB8CEB",
"t. c #997499749974",
"y. c #9EB19E8B9E8B",
"u. c #B0B4B0B4B0B4",
"i. c #B202B202B202",
"p. c #B282B282B282",
"a. c #BE3CBE3CBE3C",
"s. c #BEE1BEE1BEE1",
"d. c #C826C827C827",
"f. c #C894C88AC88A",
"g. c #C9E6C886C886",
"h. c #CBB8CBB8CBB8",
"j. c #CCC4CCC4CCC4",
"k. c #CEF4CEF5CEF5",
"l. c #E004E004E004",
"z. c #E25DE25CE25C",
"x. c #EB22EB25EB25",
"c. c #F03FF045F045",
"v. c #F1D3F1B8F1D3",
"b. c #F579F56FF579",
"n. c #F5BCF5B7F5B7",
"m. c #F754F754F754",
"M. c #F7ACF7ACF7AC",
"N. c #F952F952F952",
"B. c #FAAFFAAFFAAF",
"V. c #FBCAFBCAFBCA",
"C. c #FEBDFEBDFEBD",
"Z. c #FFF7FFF7FFF7",
"A. c None",
/* pixels */
"A.A.A.A.A.A.A.A.A.A.A.A.A.A.A.A.A.A.A.A.A.A.A.A.A.A.A.A.A.A.A.A.",
"A.A.A.A.A.A.A.A.A.A.A.A.A.A.A.A.A.A.A.A.A.A.A.A.A.A.A.A.A.A.A.A.",
"A.A.A.C.M.m.m.m.m.m.m.m.m.m.m.m.m.m.m.m.m.m.m.m.m.m.m.M.C.A.A.A.",
"A.A.Z.l.~ W Q Q Q Q Q Q Q Q Q Q Q Q Q Q Q Q Q Q Q Q W ~ l.Z.A.A.",
"A.A.M.~ >                                             > ~ M.A.A.",
"A.A.m.Q   X & X                                         Q m.A.A.",
"A.A.m.Q   z e.x                                         Q m.A.A.",
"A.A.m.Q 1 t.B.y.7                                       Q m.A.A.",
"A.A.m.Q X v k.b %                                       Q m.A.A.",
"A.A.m.Q   q d.q                                         Q m.A.A.",
"A.A.m.Q   w f.r             # O                         Q m.A.A.",
"A.A.m.Q   w f.w           ; T / g ;                     Q m.A.A.",
"A.A.b.Q   w f.w           i :.9.*.K =                   Q m.A.A.",
"A.A.v.Q   w f.w           I 0.6.+.| M .                 Q m.A.A.",
"A.A.m.Q   w f.w         3 %.w.-. .| ( 5                 Q m.A.A.",
"A.A.m.Q   w f.e         N 5.8.#.] { ..D o               Q m.A.A.",
"A.A.m.Q   w f.h .     = X.w.<.o.[ { } ' y         X     Q m.A.A.",
"A.A.m.Q   w g.h       u >.w.=.] [ { [ X.F o   @ =       Q m.A.A.",
"A.A.m.Q   w g.H I R U #.q.1.O.] [ { { } ) t $ J [ 6     Q c.A.z.",
"A.A.m.Q   w g.j ) ,.4.2.;.+.[ { { { { { | Y _ 3.7.E #   Q x.u.A.",
"A.A.m.Q   w f.e = m Z A C B g s s s a V P ^ $.&.@.L -   Q n.A.A.",
"A.A.m.Q   w f.q       . . .           - p G U ` S 2     Q m.A.A.",
"A.A.m.Q   w f.q   .                     o 4 f d =       Q m.A.A.",
"A.A.m.Q   w f.q                             . . * 7     Q m.A.A.",
"A.A.m.Q   w h.n 9 w q q q q q q q q q q q q q 9 b y.l   Q m.A.A.",
"A.A.m.Q   8 f.j.f.f.f.f.f.f.f.f.f.f.f.f.f.f.f.d.k.N.r.X Q m.A.A.",
"A.A.m.Q   + 8 w w w w w w w w w w w w w w w w 0 n p.c   Q m.A.A.",
"A.A.m.!                                         : k X   ! m.A.A.",
"A.A.V.i.v < 1 1 1 1 1 1 1 1 1 1 1 1 1 1 1 1 1 1 1 < , v i.V.A.A.",
"A.A.Z.M.j.a.s.s.s.s.s.s.s.s.s.s.s.s.s.s.s.s.s.s.s.s.a.j.M.Z.A.A.",
"A.A.A.A.A.A.A.A.A.A.A.A.A.A.A.A.A.A.A.A.A.A.A.A.A.A.A.A.A.A.A.A.",
"A.A.A.A.A.A.A.A.A.A.A.A.A.A.A.A.A.A.A.A.A.A.A.A.A.A.A.A.A.A.A.A."
};
