/* XPM */
static char * xpm_horiz_zoom_out_xpm[] = {
"64 64 367 2",
"  	c None",
". 	c #FFFFFF",
"+ 	c #C7C7C7",
"@ 	c #9D9D9D",
"# 	c #000000",
"$ 	c #070E17",
"% 	c #1C3A5C",
"& 	c #30629C",
"* 	c #3D7EC8",
"= 	c #458EE1",
"- 	c #4895EC",
"; 	c #4996EE",
"> 	c #4690E4",
", 	c #3E7FCA",
"' 	c #3165A0",
") 	c #1F4167",
"! 	c #08121D",
"~ 	c #21456E",
"{ 	c #3C7BC4",
"] 	c #458FE3",
"^ 	c #4690E5",
"/ 	c #4792E8",
"( 	c #4793EA",
"_ 	c #4894EB",
": 	c #4691E6",
"< 	c #4084D1",
"[ 	c #224771",
"} 	c #03060A",
"| 	c #448CDE",
"1 	c #4A98F1",
"2 	c #4997F0",
"3 	c #4895ED",
"4 	c #4288D8",
"5 	c #1E3F64",
"6 	c #04080D",
"7 	c #0A1421",
"8 	c #3670B2",
"9 	c #4996EF",
"0 	c #4A9CF1",
"a 	c #4AAAF2",
"b 	c #4BB6F6",
"c 	c #4CC0F9",
"d 	c #4CC4FA",
"e 	c #4CC7FA",
"f 	c #4BC4FA",
"g 	c #4CBFF9",
"h 	c #4AB7F6",
"i 	c #49A9F1",
"j 	c #499BF1",
"k 	c #3874B9",
"l 	c #0A1522",
"m 	c #0E1D2F",
"n 	c #4084D2",
"o 	c #4AA0F2",
"p 	c #4CC8FB",
"q 	c #4DC8FB",
"r 	c #4DC7FB",
"s 	c #4AB5F5",
"t 	c #4289D9",
"u 	c #0D1C2C",
"v 	c #0D1C2D",
"w 	c #438BDD",
"x 	c #4AB0F5",
"y 	c #4BB0F6",
"z 	c #458DE0",
"A 	c #0D1B2B",
"B 	c #09131F",
"C 	c #4083D0",
"D 	c #4A99F1",
"E 	c #4BB9F7",
"F 	c #4CC7FB",
"G 	c #4BB8F7",
"H 	c #020508",
"I 	c #356EAE",
"J 	c #4CBCF8",
"K 	c #03070C",
"L 	c #4BB8F6",
"M 	c #4AB8F6",
"N 	c #1F3F65",
"O 	c #08101A",
"P 	c #4389DA",
"Q 	c #4AAFF5",
"R 	c #4CC9FB",
"S 	c #4DC9FB",
"T 	c #4DCAFA",
"U 	c #4AB0F3",
"V 	c #0B1623",
"W 	c #20436A",
"X 	c #4A9EF2",
"Y 	c #4CC6FA",
"Z 	c #4CCAFB",
"` 	c #4CCAFA",
" .	c #4DCCFB",
"..	c #4DCBFB",
"+.	c #4DCCFA",
"@.	c #4CCAF9",
"#.	c #4A9EF1",
"$.	c #264F7E",
"%.	c #3A77BD",
"&.	c #4AB5F3",
"*.	c #4DCAFB",
"=.	c #4DCBFA",
"-.	c #4DCDFA",
";.	c #4CCEFA",
">.	c #4DCEFA",
",.	c #4DCFFA",
"'.	c #4AB9F2",
").	c #3873B7",
"!.	c #0F2033",
"~.	c #438ADC",
"{.	c #4CCFFA",
"].	c #4DCFF9",
"^.	c #4DD0FA",
"/.	c #4DD0F9",
"(.	c #4DD2F9",
"_.	c #4CCFF8",
":.	c #112337",
"<.	c #2C5A8F",
"[.	c #49AEF0",
"}.	c #4CCBFB",
"|.	c #4CCBFA",
"1.	c #4DCEF9",
"2.	c #4CCEF9",
"3.	c #4CD0F9",
"4.	c #4CD2F9",
"5.	c #4DD3F9",
"6.	c #4DD4F8",
"7.	c #48B1ED",
"8.	c #204269",
"9.	c #4ABBF2",
"0.	c #4CD1F9",
"a.	c #4DD1F9",
"b.	c #4DD4F9",
"c.	c #4DD5F8",
"d.	c #4CD5F8",
"e.	c #4DD6F8",
"f.	c #4CD6F8",
"g.	c #4AC4F1",
"h.	c #2A588B",
"i.	c #010203",
"j.	c #4BC4F7",
"k.	c #4DCDF9",
"l.	c #4CD0FA",
"m.	c #4DD1FA",
"n.	c #4DD5F9",
"o.	c #4CD5F9",
"p.	c #4DD6F9",
"q.	c #4DD7F8",
"r.	c #4CD8F8",
"s.	c #4DD8F8",
"t.	c #4DD9F7",
"u.	c #4CD1F5",
"v.	c #3976BB",
"w.	c #060C13",
"x.	c #4792E7",
"y.	c #4CCBF9",
"z.	c #0C0D0D",
"A.	c #4CD8F6",
"B.	c #3B7AC2",
"C.	c #09131E",
"D.	c #4CCFF9",
"E.	c #4CDDF6",
"F.	c #4CD0F8",
"G.	c #4CDFF5",
"H.	c #3C7BC3",
"I.	c #4BD2F8",
"J.	c #060D14",
"K.	c #4185D3",
"L.	c #4CD3F5",
"M.	c #4CDEF3",
"N.	c #2E5F97",
"O.	c #010204",
"P.	c #346BAB",
"Q.	c #4AD0F3",
"R.	c #4DD9F8",
"S.	c #4DDAF7",
"T.	c #4DDBF7",
"U.	c #4CDCF7",
"V.	c #4DDCF6",
"W.	c #4DDDF7",
"X.	c #4DDDF6",
"Y.	c #4DDEF7",
"Z.	c #4DDEF6",
"`.	c #4DDFF6",
" +	c #4DE0F6",
".+	c #4DE1F6",
"++	c #4CE2F6",
"@+	c #4DE2F6",
"#+	c #4CE3F5",
"$+	c #4DE3F6",
"%+	c #4DE4F5",
"&+	c #4DE5F5",
"*+	c #4DE6F5",
"=+	c #4CE6F5",
"-+	c #4CE7F4",
";+	c #4BD9F0",
">+	c #244A76",
",+	c #234872",
"'+	c #4AC5F3",
")+	c #4DDCF7",
"!+	c #4CDDF7",
"~+	c #4CDEF7",
"{+	c #4CDFF6",
"]+	c #4CE1F6",
"^+	c #4DE3F5",
"/+	c #4CE3F6",
"(+	c #4DE7F5",
"_+	c #4DE8F5",
":+	c #4DE9F5",
"<+	c #4DE9F4",
"[+	c #4BC9F0",
"}+	c #193352",
"|+	c #0C1928",
"1+	c #4CDCF5",
"2+	c #4DDFF7",
"3+	c #4DE0F7",
"4+	c #4CE0F6",
"5+	c #4DE4F6",
"6+	c #4CE4F6",
"7+	c #4CE5F6",
"8+	c #4CE7F5",
"9+	c #4DEAF4",
"0+	c #4DEAF5",
"a+	c #4DEBF4",
"b+	c #4CEAF3",
"c+	c #4997EF",
"d+	c #4187D6",
"e+	c #0B1826",
"f+	c #020406",
"g+	c #3267A3",
"h+	c #4CD9F3",
"i+	c #4CE5F5",
"j+	c #4DE7F4",
"k+	c #4CE9F4",
"l+	c #4DEBF3",
"m+	c #4DECF4",
"n+	c #4DEDF3",
"o+	c #4CE0F1",
"p+	c #3267A4",
"q+	c #142941",
"r+	c #4AACF1",
"s+	c #4DE5F6",
"t+	c #4DE6F4",
"u+	c #4DE8F4",
"v+	c #4CEAF4",
"w+	c #4CEBF4",
"x+	c #4CECF3",
"y+	c #4DEEF4",
"z+	c #4DEEF3",
"A+	c #4CEEF2",
"B+	c #4AADF1",
"C+	c #152C45",
"D+	c #3268A5",
"E+	c #4BD9F2",
"F+	c #4CECF4",
"G+	c #4CEDF3",
"H+	c #4CEEF3",
"I+	c #4DEFF3",
"J+	c #4DF0F3",
"K+	c #4DF2F3",
"L+	c #4ADEF1",
"M+	c #366FB0",
"N+	c #020509",
"O+	c #0B1725",
"P+	c #4CE6F3",
"Q+	c #4DECF3",
"R+	c #4DEDF4",
"S+	c #4CEEF4",
"T+	c #4CF1F3",
"U+	c #4DF1F2",
"V+	c #4DF1F3",
"W+	c #4CF3F2",
"X+	c #4CEEF1",
"Y+	c #4186D4",
"Z+	c #162D47",
"`+	c #4A9BF1",
" @	c #4CEBF3",
".@	c #4CEFF3",
"+@	c #4DF2F2",
"@@	c #4CF3F3",
"#@	c #4DF3F3",
"$@	c #4DF4F2",
"%@	c #4CF2F1",
"&@	c #4A9BF0",
"*@	c #152B44",
"=@	c #264E7C",
"-@	c #4CEFF4",
";@	c #4DEFF4",
">@	c #4CF2F3",
",@	c #4CF4F2",
"'@	c #4DF5F2",
")@	c #4DF6F2",
"!@	c #4DF6F1",
"~@	c #4CF3F0",
"{@	c #183250",
"]@	c #2C5C92",
"^@	c #4CE8F1",
"/@	c #4CF2F2",
"(@	c #4DF4F3",
"_@	c #4DF7F2",
":@	c #4DF7F1",
"<@	c #4CF8F1",
"[@	c #4DF8F1",
"}@	c #4CECF0",
"|@	c #21446C",
"1@	c #4AC0F0",
"2@	c #4CF1F1",
"3@	c #4CF5F2",
"4@	c #4DF8F2",
"5@	c #4CF8F2",
"6@	c #4DF9F1",
"7@	c #4DFAF1",
"8@	c #4CF5F1",
"9@	c #49C2F0",
"0@	c #13273E",
"a@	c #102236",
"b@	c #48AFED",
"c@	c #4BE5F0",
"d@	c #4CF8F0",
"e@	c #4CF9F0",
"f@	c #4CFAF0",
"g@	c #4CF7F0",
"h@	c #4BE7F1",
"i@	c #48B0ED",
"j@	c #050A11",
"k@	c #356DAD",
"l@	c #1F4066",
"m@	c #3F81CE",
"n@	c #4793E9",
"o@	c #4287D7",
"p@	c #1D3C60",
"q@	c #040A10",
"r@	c #050B12",
"s@	c #3B7AC1",
"t@	c #04090F",
"u@	c #2A5789",
"v@	c #458FE2",
"w@	c #3772B5",
"x@	c #2D5C93",
"y@	c #18314E",
"z@	c #050B11",
"A@	c #356EAF",
"B@	c #295588",
"C@	c #346CAC",
"D@	c #1B395A",
"E@	c #000101",
"F@	c #12263D",
"G@	c #162E49",
"H@	c #0B1724",
"I@	c #010305",
"J@	c #04080E",
"K@	c #1D3D61",
"L@	c #1A3656",
"M@	c #1D3B5E",
"N@	c #295587",
"O@	c #1B3858",
"P@	c #1B3859",
"Q@	c #18324F",
"R@	c #183351",
"S@	c #172F4B",
"T@	c #1D3C5F",
"U@	c #1C3B5D",
"V@	c #21456D",
"W@	c #020407",
"X@	c #2E5E96",
"Y@	c #142A44",
"Z@	c #193453",
"                                                                                                                                ",
"                                                                                                                                ",
"      . . + + + + + + + + + + + + + + + + + + + + + + + + + + + + + + + + + + + + + + + + + + + + + + + + + + + + + + . .       ",
"      . + + . . . . . . . . . . . . . . . . . . . . . . . . . . . . . . . . . . . . . . . . . . . . . . . . . . . . + + .       ",
"      + + . . . . . . . . . . . . . . . . . . . . . . . . . . . . . . . . . . . . . . . . . . . . . . . . . . . . . . + +       ",
"      + . . . . @ @ @ @ @ @ @ @ @ @ @ @ @ @ @ @ @ @ @ @ @ @ @ @ @ @ @ @ @ @ @ @ @ @ @ @ @ @ @ @ @ @ @ @ @ @ @ @ . . . . +       ",
"      + . . . @ @ # # # # # # # # # $ % & * = - ; ; > , ' ) ! # # # # # # # # # # # # # # # # # # # # # # # # @ @ . . . +       ",
"      + . . @ @ # # # # # # # # ! ~ { ] ^ / ( ( _ ( ( : ^ ( < [ $ # # # # # # # # # # # # # # # # # # # # # # # @ @ . . +       ",
"      + . . @ # # # # # # # } ) | 1 1 2 - 3 1 1 1 1 2 3 3 2 1 1 4 5 6 # # # # # # # # # # # # # # # # # # # # # # @ . . +       ",
"      + . . @ # # # # # # 7 8 1 1 1 9 0 a b c d e f g h i j 9 1 1 1 k l # # # # # # # # # # # # # # # # # # # # # @ . . +       ",
"      + . . @ # # # # # m n 1 1 1 o b p q r p q r r q q q r s o 1 ; 1 t u # # # # # # # # # # # # # # # # # # # # @ . . +       ",
"      + . . @ # # # # v w 1 - 1 x q q q q q q q q q q q q r q q y 1 - 1 z A # # # # # # # # # # # # # # # # # # # @ . . +       ",
"      + . . @ # # # B C 1 - D E q q q q p q q r q q F p p p q r q G D - 1 4 7 # # # # # # # # # # # # # # # # # # @ . . +       ",
"      + . . @ # # H I 1 - 1 J p q q q q r q q q r p q r p q r p q p J 1 3 1 k K # # # # # # # # # # # # # # # # # @ . . +       ",
"      + . . @ # # 5 1 1 1 L p q r q q r q p q q r p p r q F p r q r q M 1 1 1 N # # # # # # # # # # # # # # # # # @ . . +       ",
"      + . . @ # O P 1 1 Q p q F q q q p q q r q q q q q p r p q p R S T U 2 1 w V # # # # # # # # # # # # # # # # @ . . +       ",
"      + . . @ # W 1 1 X Y F q F q r q q p q r p p p q p R S T Z `  ...+.@.#.- 1 $.# # # # # # # # # # # # # # # # @ . . +       ",
"      + . . @ K %.1 1 &.r q p q q r p q q q r q S T *.T *.=.+.+.-.;.>.;.,.'.1 1 ).K # # # # # # # # # # # # # # # @ . . +       ",
"      + . . @ !.~.1 1 Y q q q q q q r q R T ` T =. .+.+.;.>.{.{.].^.^./.(._.1 1 ^ :.# # # # # # # # # # # # # # # @ . . +       ",
"      + . . @ <.> 9 [.q p q q R R *.=.}.|.+.-.-.>.1.2.,.^.3.3.(.(.4.(.5.5.6.7.- 2 8.# # # # # # # # # # # # # # # @ . . +       ",
"      + . . @ { ^ 1 9.S ` *...=.+.+.+.-.>.>.{.,.,./.0.a.0.(.5.5.b.c.c.d.e.f.g.2 1 h.i.# # # # # # # # # # # # # # @ . . +       ",
"      + . . @ | : 1 j.=.=.+.-.k.1.1.,.l.^./.m.a.(.5.5.5.6.n.d.o.f.p.q.r.s.t.u.1 1 v.w.# # # # # # # # # # # # # # @ . . +       ",
"      + . . @ - x.1 y.z.z.z.z.z.z.z.z.z.z.z.z.z.z.z.z.z.z.z.z.z.z.z.z.z.z.z.A.1 _ B.C.# # # # # # # # # # # # # # @ . . +       ",
"      + . . @ ; / 1 D.z.z.z.z.z.z.z.z.z.z.z.z.z.z.z.z.z.z.z.z.z.z.z.z.z.z.z.E.1 - { C.# # # # # # # # # # # # # # @ . . +       ",
"      + . . @ ; / 1 F.z.z.z.z.z.z.z.z.z.z.z.z.z.z.z.z.z.z.z.z.z.z.z.z.z.z.z.G.1 _ H.B # # # # # # # # # # # # # # @ . . +       ",
"      + . . @ ( x.1 I.z.z.z.z.z.z.z.z.z.z.z.z.z.z.z.z.z.z.z.z.z.z.z.z.z.z.z.G.1 1 %.J.# # # # # # # # # # # # # # @ . . +       ",
"      + . . @ K.: 1 L.z.z.z.z.z.z.z.z.z.z.z.z.z.z.z.z.z.z.z.z.z.z.z.z.z.z.z.M.1 1 N.O.# # # # # # # # # # # # # # @ . . +       ",
"      + . . @ P.^ 3 Q.R.S.S.T.U.U.V.W.X.Y.Z.`.`. + +.+++++@+#+$+%+%+&+*+=+-+;+9 1 >+# # # # # # # # # # # # # # # @ . . +       ",
"      + . . @ ,+x.9 '+)+V.W.!+Y.~+Z.{+`. + +]+++@+^+/+%+%+&+&+*+*+(+(+_+:+<+[+3 ( }+# # # # # # # # # # # # # # # @ . . +       ",
"      + . . @ |+t 1 1 1+2+`.3+`.4+]+]+]+@+@+^+5+6+7+*+*+(+8+8+_+:+:+9+0+a+b+c+1 d+e+# # # # # # # # # # # # # # # @ . . +       ",
"      + . . @ f+g+1 9 h+ +.+@+++/+$+5+i+i+i+*+*+*+8+j+_+k+<+0+9+a+l+m+m+n+o+; 1 p+H # # # # # # # # # # # # # # # @ . . +       ",
"      + . . @ # q+_ 2 r+#+^+%+i+s+=+*+(+t+_+u+u+<+9+v+w+a+m+m+x+n+y+z+z+A+B+1 2 C+# # # # # # # # # # # # # # # # @ . . +       ",
"      + . . @ # f+D+1 - E+&+(+j+-+u+_+:+:+<+9+a+a+F+F+n+G+z+H+I+I+J+J+K+L+; 1 M+N+# # # # # # # # # # # # # # # # @ . . +       ",
"      + . . @ # # O+w 1 1 P+_+<+k+9+w+a+l+m+Q+R+z+S+z+I+J+J+T+U+V+K+W+X+1 1 Y+|+# # # # # # # # # # # # # # # # # @ . . +       ",
"      + . . @ # # # Z+1 1 `+ @a+F+Q+Q+n+z+y+.@J+J+U+U+U++@+@@@#@$@$@%@&@1 _ *@# # # # # # # # # # # # # # # # # # @ . . +       ",
"      + . . @ # # # # =@1 3 #.A+z+-@;@I+J+U+U+>@+@#@$@,@$@'@)@)@!@~@#.2 1 / {@# # # # # # # # # # # # # # # # # # @ . . +       ",
"      + . . @ # # # # f+]@1 1 ; ^@J+V+K+/@W+,@(@'@'@)@_@:@:@<@[@}@9 1 1 1 2 | }+# # # # # # # # # # # # # # # # # @ . . +       ",
"      + . . @ # # # # # O.|@3 1 1 1@2@$@'@)@3@!@:@4@5@[@6@7@8@9@1 1 C H.1 1 1 x.0@# # # # # # # # # # # # # # # # @ . . +       ",
"      + . . @ # # # # # # # a@, 1 1 1 b@c@8@<@d@e@f@f@g@h@i@1 1 1 B.7 j@k@1 3 1 w 7 # # # # # # # # # # # # # # # @ . . +       ",
"      + . . @ # # # # # # # # w.l@m@1 1 2 ( ; 2 9 2 3 n@1 1 1 o@p@q@# # r@B.1 ; 1 s@w.# O.# # # # # # # # # # # # @ . . +       ",
"      + . . @ # # # # # # # # # # t@C+u@).n z ( ( ( v@< w@x@y@z@# # # # # t@A@1 9 1 H.B@C@D@E@# # # # # # # # # # @ . . +       ",
"      + . . @ # # # # # # # # # # # # O.e+F@*@G@)@)@)@)@H@I@# # # # # # # # J@A@1 1 1 1 1 1 K@E@# # # # # # # # # @ . . +       ",
"      + . . @ # # # # # # # # # # # # # # # # # )@)@)@)@)@)@# # # # # # # # # J@I 1 1 1 ; 1 1 p@# # # # # # # # # @ . . +       ",
"      + . . @ # # # # # # # # # # # # # # # # # )@)@)@)@)@)@)@)@# # # # # # # # L@1 1 3 3 - 1 1 M@# # # # # # # # @ . . +       ",
"      + . . @ # # # # # # # # # # # # # # # # # # # )@)@)@)@)@)@)@)@# # # # # # N@1 1 ( 2 3 3 1 1 O@# # # # # # # @ . . +       ",
"      + . . @ # # # # # # # # # # # # # # # # # # # # # )@)@)@)@)@)@)@)@)@# # # G@1 1 - - 9 - _ 1 1 P@# # # # # # @ . . +       ",
"      + . . @ # # # # # # # # # # # # # # # # # # # # # # # )@)@)@)@)@)@)@)@)@# # Q@1 1 ; - 2 ; _ 1 1 P@# # # # # @ . . +       ",
"      + . . @ # # # # # # # # # # # # # # # # # # # # # # # # # )@)@)@)@)@)@)@)@)@# R@1 1 3 3 2 - n@1 1 P@# # # # @ . . +       ",
"      + . . @ )@)@)@)@)@)@)@)@)@)@)@)@)@)@)@)@)@)@)@)@)@)@)@)@)@)@)@)@)@)@)@)@)@)@)@)@S@1 1 n@3 ; - ( 1 1 p@# # # @ . . +       ",
"      + . . @ )@)@)@)@)@)@)@)@)@)@)@)@)@)@)@)@)@)@)@)@)@)@)@)@)@)@)@)@)@)@)@)@)@)@)@)@# Q@1 1 n@- ; - - 1 1 T@E@# @ . . +       ",
"      + . . @ )@)@)@)@)@)@)@)@)@)@)@)@)@)@)@)@)@)@)@)@)@)@)@)@)@)@)@)@)@)@)@)@)@)@)@)@# # y@^ 1 _ ; ; 3 3 1 1 P@E@@ . . +       ",
"      + . . @ # # # # # # # # # # # # # # # # # # # # # # # # # )@)@)@)@)@)@)@)@)@# # # # # U@1 2 3 ; 9 - ; 1 3 V@@ . . +       ",
"      + . . @ # # # # # # # # # # # # # # # # # # # # # # )@)@)@)@)@)@)@)@)@)@# # # # # # # I@<.1 2 - 3 9 3 _ 1 1 @ . . +       ",
"      + . . @ # # # # # # # # # # # # # # # # # # # # )@)@)@)@)@)@)@)@)@# # # # # # # # # # # N+]@1 9 - 3 - 3 1 > @ . . +       ",
"      + . . @ # # # # # # # # # # # # # # # # # # )@)@)@)@)@)@)@)@)@# # # # # # # # # # # # # # W@X@1 2 ( ; 1 o@Q@@ . . +       ",
"      + . . @ @ # # # # # # # # # # # # # # # # )@)@)@)@)@)@)@# # # # # # # # # # # # # # # # # # } <.2 2 1 4 Y@@ @ . . +       ",
"      + . . . @ @ # # # # # # # # # # # # # # # )@)@)@)@)@# # # # # # # # # # # # # # # # # # # # # 6 D+1 : Z@@ @ . . . +       ",
"      + . . . . @ @ @ @ @ @ @ @ @ @ @ @ @ @ @ @ )@)@)@@ @ @ @ @ @ @ @ @ @ @ @ @ @ @ @ @ @ @ @ @ @ @ @ @ @ @ @ @ . . . . +       ",
"      + + . . . . . . . . . . . . . . . . . . . . . . . . . . . . . . . . . . . . . . . . . . . . . . . . . . . . . . + +       ",
"      . + + . . . . . . . . . . . . . . . . . . . . . . . . . . . . . . . . . . . . . . . . . . . . . . . . . . . . + + .       ",
"      . . + + + + + + + + + + + + + + + + + + + + + + + + + + + + + + + + + + + + + + + + + + + + + + + + + + + + + + . .       ",
"                                                                                                                                ",
"                                                                                                                                ",
"                                                                                                                                "};
