/* XPM */
static char *xpm_icon_moon[] = {
/* columns rows colors chars-per-pixel */
"64 64 103 2",
"   c #000000",
".  c #080807",
"X  c #0C0C0C",
"o  c #151514",
"O  c #181817",
"+  c #1C1C1B",
"@  c #21211E",
"#  c #242423",
"$  c #272824",
"%  c #292926",
"&  c #2C2C2A",
"*  c #32332E",
"=  c #353534",
"-  c #393A35",
";  c #3C3D3A",
":  c #3F403B",
">  c #42433E",
",  c #444542",
"<  c #474843",
"1  c #4A4B45",
"2  c #4D4E4A",
"3  c #4F504C",
"4  c #53544D",
"5  c #555651",
"6  c #575952",
"7  c #5C5C54",
"8  c #5D5E5A",
"9  c #5F6058",
"0  c #63635C",
"q  c #646461",
"w  c #676861",
"e  c #6B6B64",
"r  c #6C6D69",
"t  c #6F706A",
"y  c #73736C",
"u  c #77786E",
"i  c #78786E",
"p  c #757672",
"a  c #777871",
"s  c #7C7C74",
"d  c #7D7E7B",
"f  c #7E8075",
"g  c #83837C",
"h  c #88887E",
"j  c #858681",
"k  c #878883",
"l  c #8B8C84",
"z  c #8C8D8A",
"x  c #8F908A",
"c  c #909087",
"v  c #92938B",
"b  c #999A8F",
"n  c #959692",
"m  c #979892",
"M  c #9B9B94",
"N  c #9D9D9D",
"B  c #9FA09A",
"V  c #A3A39C",
"C  c #A8A89E",
"Z  c #A6A6A2",
"A  c #A7A8A2",
"S  c #ABABA4",
"D  c #AEAEA9",
"F  c #AFB0AA",
"G  c #B1B1A7",
"H  c #B3B3AC",
"J  c #B9B9AE",
"K  c #B6B6B1",
"L  c #B7B8B1",
"P  c #BBBCB4",
"I  c #BDBDB9",
"U  c #BEC0B5",
"Y  c #C1C1B7",
"T  c #C3C4BC",
"R  c #C6C8BD",
"E  c #C8C8BF",
"W  c #C7C7C7",
"Q  c #C7C8C2",
"!  c #CBCBC3",
"~  c #CDCDC9",
"^  c #CFD0CB",
"/  c #D0D0C6",
"(  c #D3D3CB",
")  c #D9D9CE",
"_  c #D5D6D2",
"`  c #DCDCD4",
"'  c #DDDEDA",
"]  c #E1E1D7",
"[  c #E3E4DB",
"{  c #E7E8DC",
"}  c #E9E9DE",
"|  c #E6E6E4",
" . c #E7E8E2",
".. c #EBECE3",
"X. c #EEEEEC",
"o. c #EFF0E4",
"O. c #EFF0E8",
"+. c #F1F1E7",
"@. c #F2F3EC",
"#. c #F5F5F4",
"$. c #F9F9F5",
"%. c #FFFFFF",
"&. c None",
/* pixels */
"&.&.&.&.&.&.&.&.&.&.&.&.&.&.&.&.&.&.&.&.&.&.&.&.&.&.&.&.&.&.&.&.&.&.&.&.&.&.&.&.&.&.&.&.&.&.&.&.&.&.&.&.&.&.&.&.&.&.&.&.&.&.&.&.",
"&.&.&.&.&.&.&.&.&.&.&.&.&.&.&.&.&.&.&.&.&.&.&.&.&.&.&.&.&.&.&.&.&.&.&.&.&.&.&.&.&.&.&.&.&.&.&.&.&.&.&.&.&.&.&.&.&.&.&.&.&.&.&.&.",
"&.&.&.%.%.W W W W W W W W W W W W W W W W W W W W W W W W W W W W W W W W W W W W W W W W W W W W W W W W W W W W W W %.%.&.&.&.",
"&.&.&.%.W W %.%.%.%.%.%.%.%.%.%.%.%.%.%.%.%.%.%.%.%.%.%.%.%.%.%.%.%.%.%.%.%.%.%.%.%.%.%.%.%.%.%.%.%.%.%.%.%.%.%.%.%.W W %.&.&.&.",
"&.&.&.W W %.%.%.%.%.%.%.%.%.%.%.%.%.%.%.%.%.%.%.%.%.%.%.%.%.%.%.%.%.%.%.%.%.%.%.%.%.%.%.%.%.%.%.%.%.%.%.%.%.%.%.%.%.%.W W &.&.&.",
"&.&.&.W %.%.%.%.N N N N N N N N N N N N N N N N N N N N N N N N N N N N N N N N N N N N N N N N N N N N N N N N %.%.%.%.W &.&.&.",
"&.&.&.W %.%.| N N                                                                                             N N %.%.%.W &.&.&.",
"&.&.&.W %.%.N                                                                                                   N N %.%.W &.&.&.",
"&.&.&.W %.%.N                                                                                                     N %.%.W &.&.&.",
"&.&.&.W %.%.N                                         . + , 8 8 8 3 = + X .                                       N %.%.W &.&.&.",
"&.&.&.W %.%.N                                   X 8 m P ~ ~ T P S N n j p q = o .                                 N %.%.W &.&.&.",
"&.&.&.W %.%.N                               o d T _ ~ S B v z v m v k p r q 8 8 3 o                               N %.%.W &.&.&.",
"&.&.&.W %.%.N                           . s ( _ K v d g v v v k k x j v k t y e w 6 : X                           N %.%.W &.&.&.",
"&.&.&.W %.%.N                         % H ( H S V z v V l v F H N k g M N m j a t 0 3 ; o .                       N %.%.W &.&.&.",
"&.&.&.W %.%.N                       8 Q Q H H F A v u a y y g M C M v m S V g s d r 6 4 ; % X                     N %.%.W &.&.&.",
"&.&.&.W %.%.N                     t ~ H D P V x g w 0 w r 8 7 r l M M V Z A v r y r 4 4 2 = $ X                   N %.%.W &.&.&.",
"&.&.&.W %.%.N                   e ` H H P v r r 8 7 7 0 0 7 0 y y s m A g h v g 0 0 7 1 4 1 & $ X                 N %.%.W &.&.&.",
"&.&.&.W %.%.N                 3 _ A M G A d 7 7 6 6 4 0 0 7 e s e 0 g v 4 4 0 y 8 6 s r 0 6 > $ $ X               N %.%.W &.&.&.",
"&.&.&.W %.%.N               + T L l B V g 0 7 6 4 6 6 0 0 7 0 w s 0 0 u 2 4 6 7 w 4 7 u a 0 1 * @ # X             N %.%.W &.&.&.",
"&.&.&.W %.%.N               N ! v l v v w 7 0 7 6 6 7 7 7 6 8 y g d 0 7 6 7 7 0 0 7 < 4 a y 6 - @ + % .           N %.%.W &.&.&.",
"&.&.&.W %.%.N             8 _ N l g s y 0 w 7 4 7 7 7 7 7 0 y a y s g e 8 7 7 0 e 0 4 2 r e 5 , & + + X           N %.%.W &.&.&.",
"&.&.&.W %.%.N           . K L v z g s u y w 7 9 0 0 0 e y y z l 0 0 c y 4 4 7 w e 0 8 4 r w , , ; # + # .         N %.%.W &.&.&.",
"&.&.&.W %.%.N           q ~ N v x l d a s e 0 e r 0 0 e e w a g l M M y 7 8 7 0 e 8 0 6 0 q , - , = + + #         N %.%.W &.&.&.",
"&.&.&.W %.%.N           Z I m z V v h u e w w w t u y e 0 0 7 0 v C l a w e e y y r e 0 4 3 , = ; = # + # .       N %.%.W &.&.&.",
"&.&.&.W %.%.N         # ~ Z l M S z g y t s g y y u y y y y e d M z u y s v s v V g w 0 6 2 > - = & # # # X       N %.%.W &.&.&.",
"&.&.&.W %.%.N         p ~ n l m v k g a s g s d a y a g d g g c c a 0 0 s V s v b 0 0 0 w 4 > - * & # + # %       N %.%.W &.&.&.",
"&.&.&.W %.%.N         N T z %.%.' g l s %.%.c M @._ l z v h y e w r e v %.%.h S m 0 0 e 0 4 2 , - * # O + % .     N %.%.W &.&.&.",
"&.&.&.W %.%.N       . K D k %.%.%.A v h %.%.V C %.#.V c M l a 0 0 g b V %.%.m L C y r g D W 4 < - = % O o # .     N %.%.W &.&.&.",
"&.&.&.W %.%.N       + I Z k %.%.%.' l c %.%.M V D T H v b c u e l S G T %.%.J Y G l r n %.%.5 4 ; * % O o + X     N %.%.W &.&.&.",
"&.&.&.W %.%.N       = T N j %.%.X.%.K V %.%.g H %.%.M l I X.#.P %.%.V Q %.%...$.#.T s %.%.%.%.L 8 > % O O + #     N %.%.W &.&.&.",
"&.&.&.W %.%.N       , Q m l %.%.D %.#.J %.%.g H %.%.g H %.$.T X.%.%.v I %.%.X.X.%.$.V _ %.%.D Z e 1 & O O + #     N %.%.W &.&.&.",
"&.&.&.W %.%.N       2 ~ m x %.%.g | %.~ %.%.z H %.%.b | %.H s H %.%.h I %.%.R Y %.%.` ' %.%.e s 0 1 & O O + $     N %.%.W &.&.&.",
"&.&.&.W %.%.N       2 _ M l %.%.g V %.@.| %.l S %.%.M %.%.V g H %.%.V Q %.%.I I %.%.' ` %.%.r p r 5 * O O + %     N %.%.W &.&.&.",
"&.&.&.W %.%.N       , _ V j %.%.g g _ %.$.%.l H %.%.l #.%.I C ~ %.%.Y ! %.%.! Q %.%.' ` %.%.t r 0 5 - + O + #     N %.%.W &.&.&.",
"&.&.&.W %.%.N       = ( Z l %.%.g s c %.%.%.l H %.%.v ~ %.$.~ $.%.%.Y ~ %.%.( E %.%.` ( %.%.| V < < - + + # #     N %.%.W &.&.&.",
"&.&.&.W %.%.N       o ~ I l %.%.h s s P %.%.h L %.%.b C ` $.#.` %.%.G ! %.%.R T %.%.` ! [ $.%.Z > , = + + # .     N %.%.W &.&.&.",
"&.&.&.W %.%.N         D ( n k j h d s k g g v J l a l c D M i P %.#.P P P P T R T ! T ! R H g 4 > ; & + O # .     N %.%.W &.&.&.",
"&.&.&.W %.%.N         g  .F l g g s s g s g l M g y g c #.` ! $.%.( R P Y T ! / ! P P R L D l 8 > = $ + + #       N %.%.W &.&.&.",
"&.&.&.W %.%.N         > [ ~ M l l k g b l s y d g v l M | $.%.[ T P ! T ! / Y T R Y R L S N z 0 2 - # + # #       N %.%.W &.&.&.",
"&.&.&.W %.%.N         . T [ I V V v M G S l d y g G v g c k l g V ) ( T T E J P ! ! Y S C V g 0 2 * @ @ % .       N %.%.W &.&.&.",
"&.&.&.W %.%.N           d ..! P V M A J P b k g l V l h l h h l S ( ` ! ! P P ! ( ! H V D m a 0 , & @ $ $         N %.%.W &.&.&.",
"&.&.&.W %.%.N           o ^ _ P D A P G m s y V A c M M l c l k v P ) / ` T ! [ / P P L M g r 5 > $ @ & X         N %.%.W &.&.&.",
"&.&.&.W %.%.N             g @.Q H D T M y u r l M h c M g h h g l L ` ] ..` ( ( Y J Y J b g q 2 - @ # %           N %.%.W &.&.&.",
"&.&.&.W %.%.N             . !  .Q P P V s u u y l M l M v h b V P ` } { { [ ) ! Q ! P M z p 8 , % + & .           N %.%.W &.&.&.",
"&.&.&.W %.%.N               5 @.' Q Q K l f s g S C v D T R P R { +...} { { ) ` ( P A v d e 5 - # $ X             N %.%.W &.&.&.",
"&.&.&.W %.%.N                 d  .! ( ( Q A M C P b c V / ..] [ ....o.o.} } ] ` Q F A x d 8 < & # o               N %.%.W &.&.&.",
"&.&.&.W %.%.N                   n  .! ( ( I H P U A S J / ( [ ....+.o.+.o.o...` T L n g r 2 = % X .               N %.%.W &.&.&.",
"&.&.&.W %.%.N                   . N  .~ ! I S H R ! ! ! ( ) ] ..{ } } @.+.o. .~ S m g r 8 , & o .                 N %.%.W &.&.&.",
"&.&.&.W %.%.N                       n @._ T ! ! ( ` / / / ` } ..[ ] [ @.@.O.` P M k a 8 , & o                     N %.%.W &.&.&.",
"&.&.&.W %.%.N                         y ( [ _ ~ ( ` ` ` ! ` [ ..+...+.@.O.[ T S v d q 1 = X                       N %.%.W &.&.&.",
"&.&.&.W %.%.N                           % D @. .( ( ` ` ( / ` } +.$.+. .( T A v d e 1 O .                         N %.%.W &.&.&.",
"&.&.&.W %.%.N                               8 I X...{ ] ) / { } } +.` ~ L V v g q & X                             N %.%.W &.&.&.",
"&.&.&.W %.%.N                                   1 N ~ +.@..... .[ ( Q H B j e ; o                                 N %.%.W &.&.&.",
"&.&.&.W %.%.N                                       X ; p z M N m z d q ; o .                                     N %.%.W &.&.&.",
"&.&.&.W %.%.N                                                                                                     N %.%.W &.&.&.",
"&.&.&.W %.%.N N                                                                                                 N N %.%.W &.&.&.",
"&.&.&.W %.%.%.N N                                                                                             N N %.%.%.W &.&.&.",
"&.&.&.W %.%.%.%.N N N N N N N N N N N N N N N N N N N N N N N N N N N N N N N N N N N N N N N N N N N N N N N N %.%.%.%.W &.&.&.",
"&.&.&.W W %.%.%.%.%.%.%.%.%.%.%.%.%.%.%.%.%.%.%.%.%.%.%.%.%.%.%.%.%.%.%.%.%.%.%.%.%.%.%.%.%.%.%.%.%.%.%.%.%.%.%.%.%.%.W W &.&.&.",
"&.&.&.%.W W %.%.%.%.%.%.%.%.%.%.%.%.%.%.%.%.%.%.%.%.%.%.%.%.%.%.%.%.%.%.%.%.%.%.%.%.%.%.%.%.%.%.%.%.%.%.%.%.%.%.%.%.W W %.&.&.&.",
"&.&.&.%.%.W W W W W W W W W W W W W W W W W W W W W W W W W W W W W W W W W W W W W W W W W W W W W W W W W W W W W W %.%.&.&.&.",
"&.&.&.&.&.&.&.&.&.&.&.&.&.&.&.&.&.&.&.&.&.&.&.&.&.&.&.&.&.&.&.&.&.&.&.&.&.&.&.&.&.&.&.&.&.&.&.&.&.&.&.&.&.&.&.&.&.&.&.&.&.&.&.&.",
"&.&.&.&.&.&.&.&.&.&.&.&.&.&.&.&.&.&.&.&.&.&.&.&.&.&.&.&.&.&.&.&.&.&.&.&.&.&.&.&.&.&.&.&.&.&.&.&.&.&.&.&.&.&.&.&.&.&.&.&.&.&.&.&.",
"&.&.&.&.&.&.&.&.&.&.&.&.&.&.&.&.&.&.&.&.&.&.&.&.&.&.&.&.&.&.&.&.&.&.&.&.&.&.&.&.&.&.&.&.&.&.&.&.&.&.&.&.&.&.&.&.&.&.&.&.&.&.&.&."
};
